<svg xmlns="http://www.w3.org/2000/svg" viewBox="0 0 1039.75 722.36"><defs><style>.cls-1{fill:#191a30;}.cls-2,.cls-3,.cls-4,.cls-5,.cls-6{fill:#00a64f;}.cls-3{font-size:207.43px;}.cls-3,.cls-4,.cls-5,.cls-6{font-family:Arial-BoldMT, Arial;font-weight:700;}.cls-4{font-size:205.02px;}.cls-5{font-size:195.05px;}.cls-6{font-size:219.03px;}</style></defs><g id="Layer_2" data-name="Layer 2"><g id="Layer_1-2" data-name="Layer 1"><path class="cls-1" d="M7.32,0,90.67,47.82V91.3H174v70.63H90.67V320A31.73,31.73,0,0,0,122.4,351.7H174v64.11H71.75A64.43,64.43,0,0,1,7.32,351.38V0"/><path class="cls-1" d="M340.7,93.33V156.8H292.29A36.23,36.23,0,0,0,256.07,193V415.81H174V162.41a70.55,70.55,0,0,1,71.63-70.54Z"/><path class="cls-1" d="M427.24,91.86H336.86V330.54a85.27,85.27,0,0,0,85.27,85.27H501a85.27,85.27,0,0,0,85.27-85.27V91.86l-82.7,29.68V318a29.83,29.83,0,0,1-29.84,29.83H457A29.83,29.83,0,0,1,427.2,318Z"/><path class="cls-1" d="M826.65,91.86H668.94a67.32,67.32,0,0,0-67.32,67.32v63.34a67.32,67.32,0,0,0,67.32,67.31H771.36a29.33,29.33,0,0,1,29.33,29.33h0a29.33,29.33,0,0,1-29.33,29.33H574.7v67.32H791.55a67.8,67.8,0,0,0,67.8-67.8V287.43a67.8,67.8,0,0,0-67.8-67.8H697.79A29.81,29.81,0,0,1,668,189.82h0A29.81,29.81,0,0,1,697.79,160h53.85Z"/><path class="cls-1" d="M938.2,42.69,1024.75,0V342.4a73.41,73.41,0,0,1-73.4,73.41H854.86V348h59.62A29.49,29.49,0,0,0,944,318.52V156.8H869.61l37.82-64.94H937.3Z"/><polygon class="cls-2" points="738.18 189.5 922.18 29.86 833.7 207.91 811.91 168.98 738.18 189.5"/><text class="cls-3" transform="translate(0 636.74)">C</text><text class="cls-4" transform="translate(213.08 637.64)">a</text><text class="cls-4" transform="translate(382.41 637.64)">p</text><text class="cls-5" transform="translate(563.2 641.4)">i</text><text class="cls-6" transform="translate(676.06 637.39)">t</text><text class="cls-6" transform="translate(812.53 636.74)">a</text><text class="cls-6" transform="translate(812.53 636.74)">a</text><text class="cls-6" transform="translate(978.89 639.91)">l</text></g></g></svg>