<svg width="435" height="109" viewBox="0 0 435 109" fill="none" xmlns="http://www.w3.org/2000/svg">
  <path d="M0.74762 93.7476C0.0559082 94.4393 0.0559082 95.5607 0.74762 96.2524L12.0194 107.524C12.7111 108.216 13.8325 108.216 14.5242 107.524C15.2159 106.832 15.2159 105.711 14.5242 105.019L4.50485 95L14.5242 84.9807C15.2159 84.289 15.2159 83.1675 14.5242 82.4758C13.8325 81.7841 12.7111 81.7841 12.0194 82.4758L0.74762 93.7476ZM420 93.2288L2.00003 93.2288V96.7712L420 96.7712V93.2288Z" fill="#1B2534" />
  <path d="M60.9892 44.1456C60.9892 50.4332 59.1342 55.5491 55.4241 59.4935L59.7004 64.2385L54.1354 69.3935L49.2147 63.887C46.1295 65.2538 42.7514 65.9373 39.0804 65.9373C32.5195 65.9373 27.2278 63.9456 23.2053 59.9621C19.1828 56.0568 17.1716 50.7847 17.1716 44.1456C17.1716 37.5457 19.1828 32.254 23.2053 28.2706C27.2668 24.3262 32.5585 22.354 39.0804 22.354C45.6023 22.354 50.894 24.3262 54.9555 28.2706C58.9779 32.254 60.9892 37.5457 60.9892 44.1456ZM39.0804 55.803C39.8614 55.803 40.7401 55.7054 41.7165 55.5101L37.6745 50.9995L43.2395 45.903L47.5159 50.648C48.375 48.8906 48.8046 46.7231 48.8046 44.1456C48.8046 40.5528 47.9259 37.7214 46.1685 35.6516C44.4111 33.5427 42.0484 32.4883 39.0804 32.4883C36.1124 32.4883 33.7496 33.5427 31.9922 35.6516C30.2349 37.7214 29.3562 40.5528 29.3562 44.1456C29.3562 47.7776 30.2349 50.6285 31.9922 52.6983C33.7496 54.7681 36.1124 55.803 39.0804 55.803ZM83.2545 65.9373C77.7089 65.9373 73.2178 64.4728 69.7812 61.5438C66.2664 58.6148 64.509 54.4361 64.509 49.0078V23.2913H76.2249V49.1249C76.2249 51.3119 76.8302 52.9912 78.0409 54.1628C79.2906 55.3344 81.0285 55.9202 83.2545 55.9202C85.4805 55.9202 87.1988 55.3344 88.4095 54.1628C89.6592 52.9912 90.284 51.3119 90.284 49.1249V23.2913H102V49.0078C102 54.5142 100.301 58.7124 96.9035 61.6024C93.4669 64.4923 88.9172 65.9373 83.2545 65.9373ZM118.972 65H107.256V23.2913H118.972V65ZM144.443 65.9373C137.96 65.9373 132.785 63.9651 128.919 60.0207C125.014 56.1154 123.061 50.8237 123.061 44.1456C123.061 37.4676 124.975 32.1563 128.802 28.212C132.59 24.3067 137.804 22.354 144.443 22.354C149.793 22.354 154.362 23.799 158.15 26.6889C161.86 29.6179 164.106 33.6599 164.887 38.8149H153.054C152.507 36.7451 151.472 35.1634 149.949 34.0699C148.426 32.9374 146.591 32.3711 144.443 32.3711C141.436 32.3711 139.151 33.3865 137.589 35.4173C136.027 37.448 135.246 40.3575 135.246 44.1456C135.246 47.9338 136.027 50.8432 137.589 52.874C139.151 54.9048 141.436 55.9202 144.443 55.9202C146.786 55.9202 148.719 55.2953 150.242 54.0456C151.804 52.7569 152.8 50.9604 153.23 48.6563H164.946C164.282 54.1237 162.095 58.361 158.385 61.3681C154.636 64.4142 149.988 65.9373 144.443 65.9373ZM195.986 23.2913H210.162L193.76 40.338L210.162 65H196.337L185.5 48.2462L180.755 53.0497V65H169.039V23.2913H180.755V39.8107L195.986 23.2913ZM243.968 65.9373C237.993 65.9373 233.385 64.629 230.143 62.0124C226.941 59.3959 225.34 55.8225 225.34 51.2924H236.587C236.626 53.4793 237.271 54.9829 238.52 55.803C239.77 56.6231 241.742 57.0332 244.437 57.0332C248.342 57.0332 250.295 55.7835 250.295 53.2841C250.295 52.1125 249.846 51.2533 248.947 50.7066C248.049 50.1598 246.311 49.6717 243.734 49.2421L240.453 48.7149C230.807 47.1527 225.984 42.6616 225.984 35.2415C225.984 31.2972 227.449 28.1729 230.378 25.8688C233.346 23.5256 237.583 22.354 243.09 22.354C248.635 22.354 252.931 23.5256 255.977 25.8688C259.023 28.1729 260.663 31.5901 260.898 36.1202H249.885C249.807 34.4409 249.24 33.2108 248.186 32.4297C247.132 31.6486 245.491 31.2581 243.265 31.2581C239.711 31.2581 237.935 32.4102 237.935 34.7143C237.935 35.8859 238.384 36.7646 239.282 37.3504C240.18 37.9362 241.762 38.4244 244.027 38.8149L247.483 39.4007C252.677 40.2599 256.446 41.7243 258.789 43.7942C261.171 45.8249 262.362 48.6953 262.362 52.4054C262.362 56.8184 260.742 60.1769 257.5 62.4811C254.259 64.7852 249.748 65.9373 243.968 65.9373ZM299.098 23.2913V33.7185H277.892V39.2249H297.224V48.9492H277.892V54.5728H299.098V65H266.176V23.2913H299.098ZM301.132 23.2913H337.451V33.7185H325.15V65H313.434V33.7185H301.132V23.2913ZM373.693 65.9373C368.147 65.9373 363.656 64.4728 360.22 61.5438C356.705 58.6148 354.947 54.4361 354.947 49.0078V23.2913H366.663V49.1249C366.663 51.3119 367.269 52.9912 368.479 54.1628C369.729 55.3344 371.467 55.9202 373.693 55.9202C375.919 55.9202 377.637 55.3344 378.848 54.1628C380.098 52.9912 380.722 51.3119 380.722 49.1249V23.2913H392.438V49.0078C392.438 54.5142 390.74 58.7124 387.342 61.6024C383.905 64.4923 379.356 65.9373 373.693 65.9373ZM397.695 23.2913H417.26C422.259 23.2913 426.164 24.5996 428.976 27.2161C431.827 29.7936 433.252 33.3279 433.252 37.819C433.252 42.3101 431.827 45.864 428.976 48.4805C426.164 51.058 422.259 52.3468 417.26 52.3468H409.41V65H397.695V23.2913ZM409.41 42.5054H416.381C418.022 42.5054 419.291 42.1149 420.189 41.3338C421.126 40.5137 421.595 39.3421 421.595 37.819C421.595 36.296 421.126 35.1439 420.189 34.3628C419.291 33.5427 418.022 33.1327 416.381 33.1327H409.41V42.5054Z" fill="#151227" />
</svg>