<svg width="159" height="17" viewBox="0 0 159 17" fill="none" xmlns="http://www.w3.org/2000/svg">
  <path d="M153.521 16.8305C153.744 17.0528 154.104 17.0528 154.326 16.8305L157.949 13.2078C158.171 12.9854 158.171 12.625 157.949 12.4027C157.727 12.1804 157.366 12.1804 157.144 12.4027L153.924 15.6229L150.704 12.4027C150.481 12.1804 150.121 12.1804 149.899 12.4027C149.676 12.625 149.676 12.9854 149.899 13.2078L153.521 16.8305ZM153.355 -0.00292966L153.355 16.428L154.493 16.428L154.493 -0.00292971L153.355 -0.00292966Z" fill="#1B2534"/>
  <path d="M16.2127 8.04376C16.2127 10.2497 15.5619 12.0445 14.2603 13.4284L15.7606 15.0931L13.8081 16.9016L12.0818 14.9698C10.9994 15.4493 9.81419 15.6891 8.52627 15.6891C6.22445 15.6891 4.36793 14.9903 2.95669 13.5928C1.54546 12.2227 0.839844 10.373 0.839844 8.04376C0.839844 5.72824 1.54546 3.87172 2.95669 2.47418C4.38163 1.09035 6.23815 0.398438 8.52627 0.398438C10.8144 0.398438 12.6709 1.09035 14.0958 2.47418C15.5071 3.87172 16.2127 5.72824 16.2127 8.04376ZM8.52627 12.1336C8.8003 12.1336 9.10857 12.0993 9.45111 12.0308L8.03302 10.4483L9.98546 8.66032L11.4858 10.325C11.7872 9.70847 11.9379 8.94805 11.9379 8.04376C11.9379 6.78324 11.6296 5.7899 11.0131 5.06373C10.3965 4.32386 9.56757 3.95392 8.52627 3.95392C7.48497 3.95392 6.65604 4.32386 6.03948 5.06373C5.42293 5.7899 5.11465 6.78324 5.11465 8.04376C5.11465 9.31798 5.42293 10.3182 6.03948 11.0443C6.65604 11.7705 7.48497 12.1336 8.52627 12.1336Z" fill="black"/>
  <path d="M24.0242 15.6891C22.0786 15.6891 20.503 15.1753 19.2973 14.1477C18.0641 13.1201 17.4476 11.6541 17.4476 9.74957V0.727269H21.558V9.79068C21.558 10.5579 21.7703 11.1471 22.1951 11.5581C22.6335 11.9692 23.2432 12.1747 24.0242 12.1747C24.8052 12.1747 25.408 11.9692 25.8328 11.5581C26.2712 11.1471 26.4904 10.5579 26.4904 9.79068V0.727269H30.6008V9.74957C30.6008 11.6815 30.0048 13.1543 28.8128 14.1682C27.6071 15.1821 26.0109 15.6891 24.0242 15.6891Z" fill="black"/>
  <path d="M36.5553 15.3603H32.4449V0.727269H36.5553V15.3603Z" fill="black"/>
  <path d="M45.4913 15.6891C43.2169 15.6891 41.4015 14.9972 40.0451 13.6133C38.6749 12.2432 37.9899 10.3867 37.9899 8.04376C37.9899 5.70084 38.6612 3.83746 40.004 2.45363C41.333 1.0835 43.1621 0.398438 45.4913 0.398438C47.3684 0.398438 48.9715 0.905385 50.3005 1.91928C51.6021 2.94688 52.3899 4.36496 52.664 6.17353H48.5125C48.3207 5.44737 47.9576 4.89246 47.4232 4.50883C46.8889 4.11149 46.2449 3.91282 45.4913 3.91282C44.4363 3.91282 43.6348 4.26905 43.0868 4.98152C42.5387 5.69399 42.2647 6.71474 42.2647 8.04376C42.2647 9.37279 42.5387 10.3935 43.0868 11.106C43.6348 11.8185 44.4363 12.1747 45.4913 12.1747C46.3134 12.1747 46.9916 11.9555 47.526 11.517C48.074 11.0649 48.4234 10.4346 48.5741 9.62626H52.6845C52.4516 11.5444 51.6843 13.031 50.3827 14.086C49.0674 15.1547 47.4369 15.6891 45.4913 15.6891Z" fill="black"/>
  <path d="M63.5746 0.727269H68.5482L62.7937 6.70788L68.5482 15.3603H63.698L59.8958 9.4824L58.2311 11.1677V15.3603H54.1208V0.727269H58.2311V6.52292L63.5746 0.727269Z" fill="black"/>
  <path d="M80.4086 15.6891C78.3123 15.6891 76.6956 15.2301 75.5583 14.3121C74.4348 13.3941 73.8731 12.1404 73.8731 10.5511H77.8191C77.8328 11.3184 78.0588 11.8459 78.4973 12.1336C78.9357 12.4213 79.6276 12.5652 80.573 12.5652C81.9432 12.5652 82.6282 12.1267 82.6282 11.2499C82.6282 10.8388 82.4707 10.5374 82.1555 10.3456C81.8404 10.1538 81.2307 9.98249 80.3264 9.83178L79.1755 9.64681C75.7913 9.09876 74.0992 7.52311 74.0992 4.91987C74.0992 3.53603 74.613 2.43993 75.6406 1.63155C76.6819 0.809476 78.1684 0.398438 80.1003 0.398438C82.0459 0.398438 83.5531 0.809476 84.6218 1.63155C85.6905 2.43993 86.2659 3.63879 86.3481 5.22814H82.4844C82.457 4.63899 82.2583 4.2074 81.8884 3.93337C81.5184 3.65935 80.943 3.52233 80.162 3.52233C78.9152 3.52233 78.2918 3.92652 78.2918 4.7349C78.2918 5.14594 78.4493 5.45422 78.7645 5.65973C79.0796 5.86525 79.6345 6.03652 80.4292 6.17353L81.6417 6.37905C83.464 6.68048 84.7862 7.19428 85.6083 7.92045C86.444 8.63292 86.8619 9.63996 86.8619 10.9416C86.8619 12.4898 86.2933 13.6681 85.1561 14.4765C84.0189 15.2849 82.4364 15.6891 80.4086 15.6891Z" fill="black"/>
  <path d="M99.7502 0.727269V4.38551H92.3104V6.3174H99.0926V9.72902H92.3104V11.702H99.7502V15.3603H88.2V0.727269H99.7502Z" fill="black"/>
  <path d="M100.464 0.727269H113.206V4.38551H108.89V15.3603H104.78V4.38551H100.464V0.727269Z" fill="black"/>
  <path d="M125.921 15.6891C123.975 15.6891 122.4 15.1753 121.194 14.1477C119.961 13.1201 119.344 11.6541 119.344 9.74957V0.727269H123.455V9.79068C123.455 10.5579 123.667 11.1471 124.092 11.5581C124.53 11.9692 125.14 12.1747 125.921 12.1747C126.702 12.1747 127.305 11.9692 127.729 11.5581C128.168 11.1471 128.387 10.5579 128.387 9.79068V0.727269H132.497V9.74957C132.497 11.6815 131.902 13.1543 130.709 14.1682C129.504 15.1821 127.908 15.6891 125.921 15.6891Z" fill="black"/>
  <path d="M134.342 0.727269H141.206C142.96 0.727269 144.33 1.18626 145.316 2.10425C146.316 3.00853 146.817 4.2485 146.817 5.82415C146.817 7.3998 146.316 8.64662 145.316 9.5646C144.33 10.4689 142.96 10.921 141.206 10.921H138.452V15.3603H134.342V0.727269ZM138.452 7.46831H140.898C141.473 7.46831 141.918 7.33129 142.234 7.05727C142.562 6.76954 142.727 6.3585 142.727 5.82415C142.727 5.2898 142.562 4.88561 142.234 4.61159C141.918 4.32386 141.473 4.18 140.898 4.18H138.452V7.46831Z" fill="black"/>
  </svg>
  