<svg width="417" height="48" viewBox="0 0 417 48" fill="none" xmlns="http://www.w3.org/2000/svg">
  <path d="M43.9892 22.1456C43.9892 28.4332 42.1342 33.5491 38.4241 37.4935L42.7004 42.2385L37.1354 47.3935L32.2147 41.887C29.1295 43.2538 25.7514 43.9373 22.0804 43.9373C15.5195 43.9373 10.2278 41.9456 6.2053 37.9621C2.18283 34.0568 0.171593 28.7847 0.171593 22.1456C0.171593 15.5457 2.18283 10.254 6.2053 6.27055C10.2668 2.32619 15.5585 0.354006 22.0804 0.354006C28.6023 0.354006 33.894 2.32619 37.9555 6.27055C41.9779 10.254 43.9892 15.5457 43.9892 22.1456ZM22.0804 33.803C22.8614 33.803 23.7401 33.7054 24.7165 33.5101L20.6745 28.9995L26.2395 23.903L30.5159 28.648C31.375 26.8906 31.8046 24.7231 31.8046 22.1456C31.8046 18.5528 30.9259 15.7214 29.1685 13.6516C27.4111 11.5427 25.0484 10.4883 22.0804 10.4883C19.1124 10.4883 16.7496 11.5427 14.9922 13.6516C13.2349 15.7214 12.3562 18.5528 12.3562 22.1456C12.3562 25.7776 13.2349 28.6285 14.9922 30.6983C16.7496 32.7681 19.1124 33.803 22.0804 33.803ZM66.2545 43.9373C60.7089 43.9373 56.2178 42.4728 52.7812 39.5438C49.2664 36.6148 47.509 32.4361 47.509 27.0078V1.29128H59.2249V27.1249C59.2249 29.3119 59.8302 30.9912 61.0409 32.1628C62.2906 33.3344 64.0285 33.9202 66.2545 33.9202C68.4805 33.9202 70.1988 33.3344 71.4095 32.1628C72.6592 30.9912 73.284 29.3119 73.284 27.1249V1.29128H85V27.0078C85 32.5142 83.3012 36.7124 79.9035 39.6024C76.4669 42.4923 71.9172 43.9373 66.2545 43.9373ZM101.972 43H90.2561V1.29128H101.972V43ZM127.443 43.9373C120.96 43.9373 115.785 41.9651 111.919 38.0207C108.014 34.1154 106.061 28.8237 106.061 22.1456C106.061 15.4676 107.975 10.1563 111.802 6.21197C115.59 2.30666 120.804 0.354006 127.443 0.354006C132.793 0.354006 137.362 1.79897 141.15 4.6889C144.86 7.61788 147.106 11.6599 147.887 16.8149H136.054C135.507 14.7451 134.472 13.1634 132.949 12.0699C131.426 10.9374 129.591 10.3711 127.443 10.3711C124.436 10.3711 122.151 11.3865 120.589 13.4173C119.027 15.448 118.246 18.3575 118.246 22.1456C118.246 25.9338 119.027 28.8432 120.589 30.874C122.151 32.9048 124.436 33.9202 127.443 33.9202C129.786 33.9202 131.719 33.2953 133.242 32.0456C134.804 30.7569 135.8 28.9604 136.23 26.6563H147.946C147.282 32.1237 145.095 36.361 141.385 39.3681C137.636 42.4142 132.988 43.9373 127.443 43.9373ZM178.986 1.29128H193.162L176.76 18.338L193.162 43H179.337L168.5 26.2462L163.755 31.0497V43H152.039V1.29128H163.755V17.8107L178.986 1.29128ZM226.968 43.9373C220.993 43.9373 216.385 42.629 213.143 40.0124C209.941 37.3959 208.34 33.8225 208.34 29.2924H219.587C219.626 31.4793 220.271 32.9829 221.52 33.803C222.77 34.6231 224.742 35.0332 227.437 35.0332C231.342 35.0332 233.295 33.7835 233.295 31.2841C233.295 30.1125 232.846 29.2533 231.947 28.7066C231.049 28.1598 229.311 27.6717 226.734 27.2421L223.453 26.7149C213.807 25.1527 208.984 20.6616 208.984 13.2415C208.984 9.29717 210.449 6.17292 213.378 3.86879C216.346 1.5256 220.583 0.354006 226.09 0.354006C231.635 0.354006 235.931 1.5256 238.977 3.86879C242.023 6.17292 243.663 9.59007 243.898 14.1202H232.885C232.807 12.4409 232.24 11.2108 231.186 10.4297C230.132 9.64865 228.491 9.25811 226.265 9.25811C222.711 9.25811 220.935 10.4102 220.935 12.7143C220.935 13.8859 221.384 14.7646 222.282 15.3504C223.18 15.9362 224.762 16.4244 227.027 16.8149L230.483 17.4007C235.677 18.2599 239.446 19.7243 241.789 21.7942C244.171 23.8249 245.362 26.6953 245.362 30.4054C245.362 34.8184 243.742 38.1769 240.5 40.4811C237.259 42.7852 232.748 43.9373 226.968 43.9373ZM282.098 1.29128V11.7185H260.892V17.2249H280.224V26.9492H260.892V32.5728H282.098V43H249.176V1.29128H282.098ZM284.132 1.29128H320.451V11.7185H308.15V43H296.434V11.7185H284.132V1.29128ZM356.693 43.9373C351.147 43.9373 346.656 42.4728 343.22 39.5438C339.705 36.6148 337.947 32.4361 337.947 27.0078V1.29128H349.663V27.1249C349.663 29.3119 350.269 30.9912 351.479 32.1628C352.729 33.3344 354.467 33.9202 356.693 33.9202C358.919 33.9202 360.637 33.3344 361.848 32.1628C363.098 30.9912 363.722 29.3119 363.722 27.1249V1.29128H375.438V27.0078C375.438 32.5142 373.74 36.7124 370.342 39.6024C366.905 42.4923 362.356 43.9373 356.693 43.9373ZM380.695 1.29128H400.26C405.259 1.29128 409.164 2.59956 411.976 5.21612C414.827 7.79362 416.252 11.3279 416.252 15.819C416.252 20.3101 414.827 23.864 411.976 26.4805C409.164 29.058 405.259 30.3468 400.26 30.3468H392.41V43H380.695V1.29128ZM392.41 20.5054H399.381C401.022 20.5054 402.291 20.1149 403.189 19.3338C404.126 18.5137 404.595 17.3421 404.595 15.819C404.595 14.296 404.126 13.1439 403.189 12.3628C402.291 11.5427 401.022 11.1327 399.381 11.1327H392.41V20.5054Z" fill="#9B93D4"/>
  </svg>
  