<svg width="127" height="17" viewBox="0 0 127 17" fill="none" xmlns="http://www.w3.org/2000/svg">
  <path d="M11.0098 1.65241V4.93411H4.33574V6.66714H10.4198V9.7276H4.33574V11.4975H11.0098V14.7792H0.648438V1.65241H11.0098Z" fill="black" />
  <path d="M25.2929 14.7792H21.3843L20.8312 13.0646H15.6874L15.1344 14.7792H11.3733L16.0377 1.65241H20.4625L25.2929 14.7792ZM17.6048 6.999L16.6461 10.0226H19.8357L18.8585 6.999C18.5144 5.94197 18.3054 5.24753 18.2317 4.91567C17.9244 5.93582 17.7155 6.63027 17.6048 6.999Z" fill="black" />
  <path d="M30.8741 15.0742C28.9936 15.0742 27.5432 14.6624 26.5231 13.8389C25.5152 13.0154 25.0113 11.8908 25.0113 10.4651H28.5511C28.5634 11.1534 28.7662 11.6266 29.1595 11.8847C29.5528 12.1428 30.1735 12.2718 31.0216 12.2718C32.2507 12.2718 32.8652 11.8785 32.8652 11.0919C32.8652 10.7232 32.7239 10.4528 32.4412 10.2807C32.1585 10.1086 31.6116 9.95498 30.8003 9.81978L29.7679 9.65385C26.732 9.16221 25.2141 7.74875 25.2141 5.41346C25.2141 4.17206 25.675 3.18878 26.5968 2.46361C27.5309 1.72615 28.8645 1.35742 30.5975 1.35742C32.3429 1.35742 33.6949 1.72615 34.6536 2.46361C35.6123 3.18878 36.1285 4.26425 36.2022 5.69H32.7362C32.7116 5.16149 32.5334 4.77432 32.2015 4.5285C31.8697 4.28268 31.3534 4.15977 30.6529 4.15977C29.5344 4.15977 28.9751 4.52236 28.9751 5.24753C28.9751 5.61626 29.1165 5.8928 29.3992 6.07717C29.6819 6.26153 30.1797 6.41517 30.8925 6.53808L31.9803 6.72245C33.615 6.99285 34.8011 7.45376 35.5385 8.10519C36.2883 8.74432 36.6632 9.64771 36.6632 10.8154C36.6632 12.2042 36.1531 13.2613 35.1329 13.9864C34.1128 14.7116 32.6932 15.0742 30.8741 15.0742Z" fill="black" />
  <path d="M44.2874 3.10889L45.0986 1.65241H49.1362L44.3242 9.7276V14.7792H40.6369V9.7276L35.7513 1.65241H39.8995L40.7476 3.12733C41.6694 4.73745 42.2717 5.80677 42.5543 6.33528C43.1197 5.22909 43.6974 4.15363 44.2874 3.10889Z" fill="black" />
  <path d="M59.7712 15.0742C57.8906 15.0742 56.4403 14.6624 55.4201 13.8389C54.4123 13.0154 53.9084 11.8908 53.9084 10.4651H57.4482C57.4605 11.1534 57.6633 11.6266 58.0566 11.8847C58.4499 12.1428 59.0706 12.2718 59.9187 12.2718C61.1478 12.2718 61.7623 11.8785 61.7623 11.0919C61.7623 10.7232 61.621 10.4528 61.3383 10.2807C61.0556 10.1086 60.5086 9.95498 59.6974 9.81978L58.665 9.65385C55.6291 9.16221 54.1112 7.74875 54.1112 5.41346C54.1112 4.17206 54.5721 3.18878 55.4939 2.46361C56.428 1.72615 57.7616 1.35742 59.4946 1.35742C61.2399 1.35742 62.592 1.72615 63.5507 2.46361C64.5094 3.18878 65.0256 4.26425 65.0993 5.69H61.6333C61.6087 5.16149 61.4305 4.77432 61.0986 4.5285C60.7667 4.28268 60.2505 4.15977 59.5499 4.15977C58.4314 4.15977 57.8722 4.52236 57.8722 5.24753C57.8722 5.61626 58.0135 5.8928 58.2962 6.07717C58.5789 6.26153 59.0767 6.41517 59.7896 6.53808L60.8774 6.72245C62.5121 6.99285 63.6981 7.45376 64.4356 8.10519C65.1854 8.74432 65.5602 9.64771 65.5602 10.8154C65.5602 12.2042 65.0502 13.2613 64.03 13.9864C63.0098 14.7116 61.5902 15.0742 59.7712 15.0742Z" fill="black" />
  <path d="M77.1219 1.65241V4.93411H70.4479V6.66714H76.532V9.7276H70.4479V11.4975H77.1219V14.7792H66.7606V1.65241H77.1219Z" fill="black" />
  <path d="M77.762 1.65241H89.1927V4.93411H85.321V14.7792H81.6337V4.93411H77.762V1.65241Z" fill="black" />
  <path d="M95.9177 15.0742C94.1724 15.0742 92.7589 14.6133 91.6773 13.6914C90.5711 12.7696 90.018 11.4545 90.018 9.74604V1.65241H93.7053V9.78291C93.7053 10.4712 93.8958 10.9997 94.2768 11.3684C94.6701 11.7372 95.2171 11.9215 95.9177 11.9215C96.6183 11.9215 97.1591 11.7372 97.5401 11.3684C97.9334 10.9997 98.1301 10.4712 98.1301 9.78291V1.65241H101.817V9.74604C101.817 11.4791 101.283 12.8004 100.213 13.7099C99.1318 14.6194 97.6999 15.0742 95.9177 15.0742Z" fill="black" />
  <path d="M103.472 1.65241H109.629C111.203 1.65241 112.432 2.06416 113.317 2.88765C114.214 3.69886 114.663 4.8112 114.663 6.22466C114.663 7.63813 114.214 8.75661 113.317 9.58011C112.432 10.3913 111.203 10.7969 109.629 10.7969H107.159V14.7792H103.472V1.65241ZM107.159 7.69958H109.353C109.869 7.69958 110.269 7.57667 110.551 7.33085C110.846 7.07274 110.994 6.70401 110.994 6.22466C110.994 5.74531 110.846 5.38273 110.551 5.13691C110.269 4.8788 109.869 4.74974 109.353 4.74974H107.159V7.69958Z" fill="black" />
  <path d="M15.1328 14.7771L18.119 3.13765L21.3936 14.7794L18.2045 13.1037L15.1328 14.7771Z" fill="#56B953" />
  <path d="M122.18 16.8334C122.402 17.0557 122.762 17.0557 122.985 16.8334L126.607 13.2107C126.83 12.9884 126.83 12.6279 126.607 12.4056C126.385 12.1833 126.025 12.1833 125.802 12.4056L122.582 15.6258L119.362 12.4056C119.14 12.1833 118.779 12.1833 118.557 12.4056C118.334 12.6279 118.334 12.9884 118.557 13.2107L122.18 16.8334ZM122.013 2.4883e-08L122.013 16.4309L123.151 16.4309L123.151 -2.4883e-08L122.013 2.4883e-08Z" fill="#1B2534" />
</svg>