<svg width="420" height="87" viewBox="0 0 420 87" fill="none" xmlns="http://www.w3.org/2000/svg">
  <path d="M88.8515 1.29079V11.718H67.6456V17.2245H86.9769V26.9487H67.6456V32.5723H88.8515V42.9995H55.9297V1.29079H88.8515Z" fill="black"/>
  <path d="M134.234 42.9995H121.815L120.058 37.5516H103.714L101.957 42.9995H90.0066L104.827 1.29079H118.886L134.234 42.9995ZM109.806 18.2789L106.76 27.886H116.895L113.79 18.2789C112.696 14.9203 112.033 12.7138 111.798 11.6594C110.822 14.9008 110.158 17.1073 109.806 18.2789Z" fill="black"/>
  <path d="M151.968 43.9368C145.993 43.9368 141.384 42.6285 138.143 40.0119C134.941 37.3954 133.34 33.822 133.34 29.2919H144.587C144.626 31.4788 145.27 32.9824 146.52 33.8025C147.77 34.6226 149.742 35.0327 152.436 35.0327C156.342 35.0327 158.294 33.783 158.294 31.2836C158.294 30.112 157.845 29.2528 156.947 28.7061C156.049 28.1593 154.311 27.6712 151.734 27.2416L148.453 26.7144C138.807 25.1522 133.984 20.6611 133.984 13.241C133.984 9.29668 135.448 6.17243 138.377 3.8683C141.345 1.52511 145.583 0.353516 151.089 0.353516C156.635 0.353516 160.931 1.52511 163.977 3.8683C167.023 6.17243 168.663 9.58958 168.897 14.1197H157.884C157.806 12.4405 157.24 11.2103 156.186 10.4292C155.131 9.64816 153.491 9.25762 151.265 9.25762C147.711 9.25762 145.934 10.4097 145.934 12.7138C145.934 13.8854 146.383 14.7641 147.281 15.3499C148.18 15.9357 149.761 16.4239 152.026 16.8144L155.483 17.4002C160.677 18.2594 164.445 19.7239 166.788 21.7937C169.171 23.8244 170.362 26.6948 170.362 30.4049C170.362 34.8179 168.741 38.1764 165.5 40.4806C162.258 42.7847 157.748 43.9368 151.968 43.9368Z" fill="black"/>
  <path d="M194.587 5.91858L197.164 1.29079H209.993L194.704 26.9487V42.9995H182.988V26.9487L167.464 1.29079H180.645L183.34 5.97716C186.269 11.0931 188.182 14.4907 189.08 16.17C190.877 12.6552 192.712 9.2381 194.587 5.91858Z" fill="black"/>
  <path d="M243.785 43.9368C237.809 43.9368 233.201 42.6285 229.96 40.0119C226.757 37.3954 225.156 33.822 225.156 29.2919H236.404C236.443 31.4788 237.087 32.9824 238.337 33.8025C239.586 34.6226 241.559 35.0327 244.253 35.0327C248.159 35.0327 250.111 33.783 250.111 31.2836C250.111 30.112 249.662 29.2528 248.764 28.7061C247.866 28.1593 246.128 27.6712 243.55 27.2416L240.27 26.7144C230.624 25.1522 225.801 20.6611 225.801 13.241C225.801 9.29668 227.265 6.17243 230.194 3.8683C233.162 1.52511 237.399 0.353516 242.906 0.353516C248.451 0.353516 252.747 1.52511 255.793 3.8683C258.84 6.17243 260.48 9.58958 260.714 14.1197H249.701C249.623 12.4405 249.057 11.2103 248.002 10.4292C246.948 9.64816 245.308 9.25762 243.082 9.25762C239.528 9.25762 237.751 10.4097 237.751 12.7138C237.751 13.8854 238.2 14.7641 239.098 15.3499C239.996 15.9357 241.578 16.4239 243.843 16.8144L247.299 17.4002C252.493 18.2594 256.262 19.7239 258.605 21.7937C260.987 23.8244 262.179 26.6948 262.179 30.4049C262.179 34.8179 260.558 38.1764 257.316 40.4806C254.075 42.7847 249.564 43.9368 243.785 43.9368Z" fill="black"/>
  <path d="M298.914 1.29079V11.718H277.709V17.2245H297.04V26.9487H277.709V32.5723H298.914V42.9995H265.993V1.29079H298.914Z" fill="black"/>
  <path d="M300.948 1.29079H337.268V11.718H324.966V42.9995H313.25V11.718H300.948V1.29079Z" fill="black"/>
  <path d="M358.635 43.9368C353.09 43.9368 348.599 42.4723 345.162 39.5433C341.647 36.6143 339.89 32.4356 339.89 27.0073V1.29079H351.606V27.1244C351.606 29.3114 352.211 30.9907 353.422 32.1623C354.672 33.3339 356.409 33.9197 358.635 33.9197C360.862 33.9197 362.58 33.3339 363.79 32.1623C365.04 30.9907 365.665 29.3114 365.665 27.1244V1.29079H377.381V27.0073C377.381 32.5138 375.682 36.712 372.285 39.6019C368.848 42.4918 364.298 43.9368 358.635 43.9368Z" fill="black"/>
  <path d="M382.637 1.29079H402.203C407.202 1.29079 411.107 2.59907 413.919 5.21563C416.77 7.79313 418.195 11.3274 418.195 15.8185C418.195 20.3097 416.77 23.8635 413.919 26.48C411.107 29.0576 407.202 30.3463 402.203 30.3463H394.353V42.9995H382.637V1.29079ZM394.353 20.5049H401.324C402.964 20.5049 404.234 20.1144 405.132 19.3333C406.069 18.5132 406.538 17.3416 406.538 15.8185C406.538 14.2955 406.069 13.1434 405.132 12.3623C404.234 11.5422 402.964 11.1322 401.324 11.1322H394.353V20.5049Z" fill="black"/>
  <path d="M0.747612 71.7476C0.0559211 72.4393 0.0559211 73.5607 0.747612 74.2524L12.0194 85.5242C12.7111 86.2159 13.8325 86.2159 14.5242 85.5242C15.2159 84.8325 15.2159 83.711 14.5242 83.0193L4.50487 73L14.5242 62.9807C15.2159 62.289 15.2159 61.1675 14.5242 60.4758C13.8325 59.7841 12.7111 59.7841 12.0194 60.4758L0.747612 71.7476ZM420 71.2288L2.00003 71.2288V74.7712L420 74.7712V71.2288Z" fill="#1B2534"/>
  <path d="M101.957 42.9521L111.433 4.99882L121.816 42.9844L111.152 31.1172L101.957 42.9521Z" fill="#56B953"/>
  <path d="M111.154 31.1133L101.957 42.9529L121.824 42.9883L111.154 31.1133Z" fill="white"/>
  </svg>
  