<svg width="364" height="45" viewBox="0 0 364 45" fill="none" xmlns="http://www.w3.org/2000/svg">
  <path d="M33.828 1.85525V12.2824H12.6222V17.7889H31.9535V27.5131H12.6222V33.1368H33.828V43.564H0.90625V1.85525H33.828Z" fill="#9B93D4"/>
  <path d="M79.2108 43.564H66.7919L65.0345 38.1161H48.6908L46.9334 43.564H34.9831L49.8038 1.85525H63.8629L79.2108 43.564ZM54.7831 18.8433L51.7369 28.4504H61.8712L58.7665 18.8433C57.673 15.4848 57.0091 13.2783 56.7748 12.2238C55.7984 15.4653 55.1345 17.6718 54.7831 18.8433Z" fill="#9B93D4"/>
  <path d="M96.9444 44.5012C90.9693 44.5012 86.361 43.193 83.1196 40.5764C79.9172 37.9598 78.3161 34.3865 78.3161 29.8563H89.5634C89.6024 32.0433 90.2468 33.5468 91.4965 34.367C92.7462 35.1871 94.7184 35.5971 97.413 35.5971C101.318 35.5971 103.271 34.3474 103.271 31.848C103.271 30.6764 102.822 29.8173 101.924 29.2705C101.025 28.7238 99.2876 28.2356 96.7101 27.806L93.4296 27.2788C83.7835 25.7167 78.9604 21.2256 78.9604 13.8055C78.9604 9.86113 80.4249 6.73688 83.3539 4.43275C86.3219 2.08956 90.5592 0.917969 96.0657 0.917969C101.611 0.917969 105.907 2.08956 108.953 4.43275C111.999 6.73688 113.64 10.154 113.874 14.6842H102.861C102.783 13.0049 102.217 11.7747 101.162 10.9937C100.108 10.2126 98.4675 9.82208 96.2414 9.82208C92.6876 9.82208 90.9107 10.9741 90.9107 13.2783C90.9107 14.4499 91.3598 15.3286 92.258 15.9144C93.1562 16.5002 94.7379 16.9883 97.003 17.3789L100.459 17.9647C105.653 18.8238 109.422 20.2883 111.765 22.3581C114.147 24.3889 115.338 27.2593 115.338 30.9693C115.338 35.3823 113.718 38.7409 110.476 41.045C107.235 43.3492 102.724 44.5012 96.9444 44.5012Z" fill="#9B93D4"/>
  <path d="M139.563 6.48304L142.141 1.85525H154.97L139.681 27.5131V43.564H127.965V27.5131L112.441 1.85525H125.621L128.316 6.54162C131.245 11.6576 133.159 15.0552 134.057 16.7345C135.853 13.2197 137.689 9.80255 139.563 6.48304Z" fill="#9B93D4"/>
  <path d="M188.761 44.5012C182.786 44.5012 178.178 43.193 174.936 40.5764C171.734 37.9598 170.133 34.3865 170.133 29.8563H181.38C181.419 32.0433 182.064 33.5468 183.313 34.367C184.563 35.1871 186.535 35.5971 189.23 35.5971C193.135 35.5971 195.088 34.3474 195.088 31.848C195.088 30.6764 194.639 29.8173 193.74 29.2705C192.842 28.7238 191.104 28.2356 188.527 27.806L185.246 27.2788C175.6 25.7167 170.777 21.2256 170.777 13.8055C170.777 9.86113 172.242 6.73688 175.171 4.43275C178.139 2.08956 182.376 0.917969 187.882 0.917969C193.428 0.917969 197.724 2.08956 200.77 4.43275C203.816 6.73688 205.456 10.154 205.691 14.6842H194.678C194.6 13.0049 194.033 11.7747 192.979 10.9937C191.924 10.2126 190.284 9.82208 188.058 9.82208C184.504 9.82208 182.727 10.9741 182.727 13.2783C182.727 14.4499 183.177 15.3286 184.075 15.9144C184.973 16.5002 186.555 16.9883 188.82 17.3789L192.276 17.9647C197.47 18.8238 201.239 20.2883 203.582 22.3581C205.964 24.3889 207.155 27.2593 207.155 30.9693C207.155 35.3823 205.534 38.7409 202.293 41.045C199.052 43.3492 194.541 44.5012 188.761 44.5012Z" fill="#9B93D4"/>
  <path d="M243.891 1.85525V12.2824H222.685V17.7889H242.016V27.5131H222.685V33.1368H243.891V43.564H210.969V1.85525H243.891Z" fill="#9B93D4"/>
  <path d="M245.925 1.85525H282.244V12.2824H269.942V43.564H258.227V12.2824H245.925V1.85525Z" fill="#9B93D4"/>
  <path d="M303.612 44.5012C298.067 44.5012 293.575 43.0367 290.139 40.1078C286.624 37.1788 284.867 33.0001 284.867 27.5717V1.85525H296.582V27.6889C296.582 29.8758 297.188 31.5551 298.398 32.7267C299.648 33.8983 301.386 34.4841 303.612 34.4841C305.838 34.4841 307.556 33.8983 308.767 32.7267C310.017 31.5551 310.642 29.8758 310.642 27.6889V1.85525H322.358V27.5717C322.358 33.0782 320.659 37.2764 317.261 40.1663C313.824 43.0563 309.275 44.5012 303.612 44.5012Z" fill="#9B93D4"/>
  <path d="M327.614 1.85525H347.179C352.178 1.85525 356.083 3.16352 358.895 5.78008C361.746 8.35759 363.172 11.8919 363.172 16.383C363.172 20.8741 361.746 24.4279 358.895 27.0445C356.083 29.622 352.178 30.9108 347.179 30.9108H339.33V43.564H327.614V1.85525ZM339.33 21.0694H346.301C347.941 21.0694 349.21 20.6788 350.108 19.8978C351.046 19.0777 351.514 17.9061 351.514 16.383C351.514 14.8599 351.046 13.7079 350.108 12.9268C349.21 12.1067 347.941 11.6966 346.301 11.6966H339.33V21.0694Z" fill="#9B93D4"/>
  <path d="M46.9334 43.564L56.4102 4.56372L66.7919 43.564L56.2214 30.8943L46.9334 43.564Z" fill="#56B953"/>
  <path d="M56.2214 30.8943L46.9334 43.564H66.7919L56.2214 30.8943Z" fill="white"/>
  </svg>
  