<svg width="277" height="105" viewBox="0 0 277 105" fill="none" xmlns="http://www.w3.org/2000/svg">
  <path d="M35.2091 5.29128V15.7185H15.1748V21.1664H33.9203V31.0078H15.1748V47H3.45889V5.29128H35.2091ZM50.4141 5.29128V36.5728H68.8667V47H38.6982V5.29128H50.4141ZM105.315 5.29128V15.7185H84.1089V21.2249H103.44V30.9492H84.1089V36.5728H105.315V47H72.393V5.29128H105.315ZM147.651 5.29128L134.295 25.677L148.53 47H134.94L132.479 43.1923C130.605 40.3024 128.886 37.5882 127.324 35.0497C127.207 35.206 126.582 36.1823 125.45 37.9787C124.356 39.7752 123.282 41.513 122.228 43.1923L119.767 47H106.47L120.705 25.7942L107.349 5.29128H120.822L123.106 8.92322C124.942 11.8522 126.465 14.3516 127.676 16.4214C129.433 13.3362 130.937 10.8368 132.186 8.92322L134.471 5.29128H147.651ZM162.31 47H150.595V5.29128H162.31V47ZM197.857 24.6226C200.005 25.4036 201.723 26.7314 203.012 28.606C204.34 30.4805 205.004 32.5113 205.004 34.6983C205.004 38.6036 203.676 41.6302 201.02 43.7781C198.404 45.926 194.498 47 189.304 47H168.157V5.29128H188.894C193.971 5.29128 197.642 6.30666 199.907 8.33742C202.172 10.3682 203.305 12.8871 203.305 15.8942C203.305 20.0338 201.489 22.9433 197.857 24.6226ZM188.074 14.4297H179.873V21.5764H188.074C189.558 21.6936 190.593 21.1273 191.179 19.8776C191.804 18.6279 191.804 17.3782 191.179 16.1285C190.593 14.8788 189.558 14.3125 188.074 14.4297ZM179.873 37.803H188.66C191.472 37.803 192.878 36.5338 192.878 33.9953C192.878 31.4569 191.472 30.1876 188.66 30.1876H179.873V37.803ZM220.547 5.29128V36.5728H238.999V47H208.831V5.29128H220.547ZM275.447 5.29128V15.7185H254.242V21.2249H273.573V30.9492H254.242V36.5728H275.447V47H242.526V5.29128H275.447ZM39.1563 56.2913V66.7185H19.1221V72.1664H37.8676V82.0078H19.1221V98H7.40616V56.2913H39.1563ZM60.8052 98.9373C55.2596 98.9373 50.7685 97.4728 47.3319 94.5438C43.8171 91.6148 42.0597 87.4361 42.0597 82.0078V56.2913H53.7756V82.1249C53.7756 84.3119 54.3809 85.9912 55.5916 87.1628C56.8413 88.3344 58.5791 88.9202 60.8052 88.9202C63.0312 88.9202 64.7495 88.3344 65.9602 87.1628C67.2099 85.9912 67.8347 84.3119 67.8347 82.1249V56.2913H79.5507V82.0078C79.5507 87.5142 77.8519 91.7124 74.4542 94.6024C71.0176 97.4923 66.4679 98.9373 60.8052 98.9373ZM111.461 63.0865V56.2913H122.591V98H110.23L101.385 83.1793C99.0026 79.1569 97.089 75.7202 95.6441 72.8693C95.8393 78.6101 95.937 84.7219 95.937 91.2048V98H84.8068V56.2913H97.1671L106.013 71.1119C108.122 74.7048 110.035 78.161 111.753 81.4805C111.558 75.7397 111.461 69.6084 111.461 63.0865ZM128.456 56.2913H146.674C153.899 56.2913 159.307 58.1658 162.9 61.9149C166.493 65.7031 168.29 70.78 168.29 77.1456C168.29 83.5113 166.493 88.5882 162.9 92.3764C159.307 96.1255 153.899 98 146.674 98H128.456V56.2913ZM140.171 88.1586H146.439C152.883 88.1586 156.105 84.4876 156.105 77.1456C156.105 69.8037 152.883 66.1327 146.439 66.1327H140.171V88.1586ZM184.106 98H172.39V56.2913H184.106V98ZM216.606 63.0865V56.2913H227.737V98H215.376L206.531 83.1793C204.149 79.1569 202.235 75.7202 200.79 72.8693C200.985 78.6101 201.083 84.7219 201.083 91.2048V98H189.953V56.2913H202.313L211.159 71.1119C213.267 74.7048 215.181 78.161 216.899 81.4805C216.704 75.7397 216.606 69.6084 216.606 63.0865ZM254.807 83.0036V74.0995H274.549V98H266.582L265.41 92.5521C264.121 94.6219 262.286 96.2036 259.904 97.297C257.521 98.3905 254.866 98.9373 251.937 98.9373C245.845 98.9373 240.982 96.9651 237.351 93.0207C233.68 89.1154 231.844 83.8237 231.844 77.1456C231.844 70.4676 233.758 65.1563 237.585 61.212C241.373 57.3067 246.665 55.354 253.46 55.354C259.123 55.354 263.789 56.7013 267.46 59.396C271.21 62.1297 273.397 65.8398 274.021 70.5261H262.071C260.861 67.0895 258.029 65.3711 253.577 65.3711C250.57 65.3711 248.227 66.406 246.548 68.4759C244.868 70.5457 244.029 73.4356 244.029 77.1456C244.029 80.8557 244.907 83.7456 246.665 85.8154C248.461 87.8852 250.98 88.9202 254.221 88.9202C256.291 88.9202 258.068 88.3929 259.552 87.3385C261.075 86.245 262.052 84.8 262.481 83.0036H254.807Z" fill="#9B93D4"/>
  <path d="M95.7706 97.9775L95.15 72.0001L110.205 97.9776L100.954 92.664L95.7706 97.9775Z" fill="#56B953"/>
  </svg>
  