<svg width="205" height="17" viewBox="0 0 205 17" fill="none" xmlns="http://www.w3.org/2000/svg">
  <path d="M199.597 16.8334C199.82 17.0557 200.18 17.0557 200.403 16.8334L204.025 13.2107C204.248 12.9884 204.248 12.6279 204.025 12.4056C203.803 12.1833 203.443 12.1833 203.22 12.4056L200 15.6258L196.78 12.4056C196.557 12.1833 196.197 12.1833 195.975 12.4056C195.752 12.6279 195.752 12.9884 195.975 13.2107L199.597 16.8334ZM199.431 2.4883e-08L199.431 16.4309L200.569 16.4309L200.569 -2.4883e-08L199.431 2.4883e-08Z" fill="#1B2534" />
  <path d="M10.8325 1.63951V5.19706H3.99725V7.05578H10.3928V10.4135H3.99725V15.8697H0V1.63951H10.8325Z" fill="black" />
  <path d="M16.0202 1.63951V12.3122H22.3159V15.8697H12.023V1.63951H16.0202Z" fill="black" />
  <path d="M34.7512 1.63951V5.19706H27.5162V7.07577H34.1117V10.3935H27.5162V12.3122H34.7512V15.8697H23.519V1.63951H34.7512Z" fill="black" />
  <path d="M49.1956 1.63951L44.6388 8.59472L49.4954 15.8697H44.8586L44.0192 14.5706C43.3796 13.5846 42.7934 12.6586 42.2604 11.7925C42.2204 11.8458 42.0073 12.1789 41.6209 12.7918C41.2478 13.4047 40.8814 13.9977 40.5216 14.5706L39.6822 15.8697H35.1453L40.002 8.63469L35.4451 1.63951H40.0419L40.8214 2.87866C41.4476 3.87797 41.9673 4.73072 42.3803 5.4369C42.9799 4.38429 43.4929 3.53154 43.9193 2.87866L44.6987 1.63951H49.1956Z" fill="black" />
  <path d="M54.197 15.8697H50.1998V1.63951H54.197V15.8697Z" fill="black" />
  <path d="M66.3248 8.23497C67.0576 8.50145 67.6439 8.95447 68.0836 9.59403C68.5366 10.2336 68.7631 10.9264 68.7631 11.6726C68.7631 13.005 68.3101 14.0376 67.404 14.7705C66.5113 15.5033 65.1789 15.8697 63.4068 15.8697H56.1918V1.63951H63.2669C64.999 1.63951 66.2515 1.98594 67.0243 2.6788C67.7971 3.37165 68.1835 4.23106 68.1835 5.25702C68.1835 6.66938 67.5639 7.66203 66.3248 8.23497ZM62.9871 4.75736H60.189V7.19569H62.9871C63.4934 7.23566 63.8465 7.04246 64.0464 6.61608C64.2595 6.18971 64.2595 5.76334 64.0464 5.33697C63.8465 4.91059 63.4934 4.71739 62.9871 4.75736ZM60.189 12.7319H63.1869C64.1463 12.7319 64.6259 12.2988 64.6259 11.4328C64.6259 10.5667 64.1463 10.1337 63.1869 10.1337H60.189V12.7319Z" fill="black" />
  <path d="M74.0662 1.63951V12.3122H80.3618V15.8697H70.0689V1.63951H74.0662Z" fill="black" />
  <path d="M92.7972 1.63951V5.19706H85.5621V7.07577H92.1576V10.3935H85.5621V12.3122H92.7972V15.8697H81.5649V1.63951H92.7972Z" fill="black" />
  <path d="M110.689 1.31978V4.87733H103.853V6.73605H110.249V10.0937H103.853V15.55H99.8562V1.31978H110.689Z" fill="black" />
  <path d="M118.075 15.8698C116.183 15.8698 114.651 15.3701 113.478 14.3708C112.279 13.3715 111.679 11.9458 111.679 10.0937V1.31978H115.677V10.1337C115.677 10.8799 115.883 11.4528 116.296 11.8525C116.723 12.2522 117.315 12.4521 118.075 12.4521C118.834 12.4521 119.421 12.2522 119.834 11.8525C120.26 11.4528 120.473 10.8799 120.473 10.1337V1.31978H124.471V10.0937C124.471 11.9724 123.891 13.4048 122.732 14.3908C121.559 15.3768 120.007 15.8698 118.075 15.8698Z" fill="black" />
  <path d="M135.358 3.63818V1.31978H139.155V15.55H134.938L131.92 10.4935C131.107 9.12107 130.454 7.94855 129.961 6.97588C130.028 8.93453 130.061 11.0198 130.061 13.2316V15.55H126.264V1.31978H130.481L133.499 6.3763C134.218 7.60212 134.871 8.78131 135.457 9.91386C135.391 7.95521 135.358 5.86332 135.358 3.63818Z" fill="black" />
  <path d="M141.156 1.31978H147.372C149.837 1.31978 151.682 1.95934 152.908 3.23846C154.134 4.5309 154.747 6.26304 154.747 8.43488C154.747 10.6067 154.134 12.3389 152.908 13.6313C151.682 14.9104 149.837 15.55 147.372 15.55H141.156V1.31978ZM145.153 12.1923H147.292C149.49 12.1923 150.589 10.9398 150.589 8.43488C150.589 5.92994 149.49 4.67747 147.292 4.67747H145.153V12.1923Z" fill="black" />
  <path d="M160.143 15.55H156.146V1.31978H160.143V15.55Z" fill="black" />
  <path d="M171.231 3.63818V1.31978H175.029V15.55H170.812L167.794 10.4935C166.981 9.12107 166.328 7.94855 165.835 6.97588C165.902 8.93453 165.935 11.0198 165.935 13.2316V15.55H162.138V1.31978H166.355L169.373 6.3763C170.092 7.60212 170.745 8.78131 171.331 9.91386C171.265 7.95521 171.231 5.86332 171.231 3.63818Z" fill="black" />
  <path d="M184.265 10.4335V7.39559H191V15.55H188.282L187.882 13.6913C187.442 14.3974 186.816 14.9371 186.003 15.3101C185.191 15.6832 184.285 15.8698 183.285 15.8698C181.207 15.8698 179.548 15.1969 178.309 13.8511C177.056 12.5187 176.43 10.7133 176.43 8.43488C176.43 6.15645 177.083 4.34436 178.389 2.99862C179.681 1.66621 181.487 1 183.805 1C185.737 1 187.329 1.45968 188.582 2.37905C189.861 3.31174 190.607 4.57754 190.82 6.17643H186.743C186.33 5.00391 185.364 4.41765 183.845 4.41765C182.819 4.41765 182.02 4.77074 181.447 5.47692C180.874 6.1831 180.587 7.16909 180.587 8.43488C180.587 9.70068 180.887 10.6867 181.487 11.3928C182.099 12.099 182.959 12.4521 184.065 12.4521C184.771 12.4521 185.377 12.2722 185.884 11.9125C186.403 11.5394 186.736 11.0464 186.883 10.4335H184.265Z" fill="black" />
  <path d="M130.039 15.542L129.828 6.67899L134.964 15.542L131.808 13.7291L130.039 15.542Z" fill="#56B953" />
</svg>