<svg width="420" height="131" viewBox="0 0 420 131" fill="none" xmlns="http://www.w3.org/2000/svg">
  <path d="M177.784 0.291282V10.7185H157.749V16.1664H176.495V26.0078H157.749V42H146.033V0.291282H177.784ZM192.989 0.291282V31.5728H211.441V42H181.273V0.291282H192.989ZM247.889 0.291282V10.7185H226.683V16.2249H246.015V25.9492H226.683V31.5728H247.889V42H214.968V0.291282H247.889ZM290.226 0.291282L276.87 20.677L291.105 42H277.514L275.054 38.1923C273.179 35.3024 271.461 32.5882 269.899 30.0497C269.782 30.206 269.157 31.1823 268.024 32.9787C266.931 34.7752 265.857 36.513 264.802 38.1923L262.342 42H249.044L263.279 20.7942L249.923 0.291282H263.396L265.681 3.92322C267.517 6.8522 269.04 9.3516 270.25 11.4214C272.008 8.33622 273.511 5.83682 274.761 3.92322L277.046 0.291282H290.226ZM304.885 42H293.169V0.291282H304.885V42ZM340.431 19.6226C342.579 20.4036 344.298 21.7314 345.586 23.606C346.914 25.4805 347.578 27.5113 347.578 29.6983C347.578 33.6036 346.25 36.6302 343.595 38.7781C340.978 40.926 337.073 42 331.879 42H310.732V0.291282H331.469C336.546 0.291282 340.217 1.30666 342.482 3.33742C344.747 5.36818 345.879 7.88711 345.879 10.8942C345.879 15.0338 344.063 17.9433 340.431 19.6226ZM330.649 9.42971H322.447V16.5764H330.649C332.133 16.6936 333.168 16.1273 333.753 14.8776C334.378 13.6279 334.378 12.3782 333.753 11.1285C333.168 9.87882 332.133 9.31255 330.649 9.42971ZM322.447 32.803H331.234C334.046 32.803 335.452 31.5338 335.452 28.9953C335.452 26.4569 334.046 25.1876 331.234 25.1876H322.447V32.803ZM363.121 0.291282V31.5728H381.574V42H351.406V0.291282H363.121ZM418.022 0.291282V10.7185H396.816V16.2249H416.147V25.9492H396.816V31.5728H418.022V42H385.1V0.291282H418.022ZM177.784 51.2913V61.7185H157.749V67.1664H176.495V77.0078H157.749V93H146.033V51.2913H177.784ZM199.432 93.9373C193.887 93.9373 189.396 92.4728 185.959 89.5438C182.444 86.6148 180.687 82.4361 180.687 77.0078V51.2913H192.403V77.1249C192.403 79.3119 193.008 80.9912 194.219 82.1628C195.469 83.3344 197.206 83.9202 199.432 83.9202C201.659 83.9202 203.377 83.3344 204.588 82.1628C205.837 80.9912 206.462 79.3119 206.462 77.1249V51.2913H218.178V77.0078C218.178 82.5142 216.479 86.7124 213.082 89.6024C209.645 92.4923 205.095 93.9373 199.432 93.9373ZM250.088 58.0865V51.2913H261.218V93H248.858L240.012 78.1793C237.63 74.1569 235.716 70.7202 234.271 67.8693C234.467 73.6101 234.564 79.7219 234.564 86.2048V93H223.434V51.2913H235.794L244.64 66.1119C246.749 69.7048 248.662 73.161 250.381 76.4805C250.186 70.7397 250.088 64.6084 250.088 58.0865ZM267.083 51.2913H285.301C292.526 51.2913 297.935 53.1658 301.528 56.9149C305.121 60.7031 306.917 65.78 306.917 72.1456C306.917 78.5113 305.121 83.5882 301.528 87.3764C297.935 91.1255 292.526 93 285.301 93H267.083V51.2913ZM278.799 83.1586H285.067C291.511 83.1586 294.732 79.4876 294.732 72.1456C294.732 64.8037 291.511 61.1327 285.067 61.1327H278.799V83.1586ZM322.734 93H311.018V51.2913H322.734V93ZM355.234 58.0865V51.2913H366.364V93H354.004L345.158 78.1793C342.776 74.1569 340.862 70.7202 339.417 67.8693C339.613 73.6101 339.71 79.7219 339.71 86.2048V93H328.58V51.2913H340.94L349.786 66.1119C351.895 69.7048 353.808 73.161 355.527 76.4805C355.331 70.7397 355.234 64.6084 355.234 58.0865ZM393.435 78.0036V69.0995H413.176V93H405.209L404.038 87.5521C402.749 89.6219 400.913 91.2036 398.531 92.297C396.149 93.3905 393.493 93.9373 390.564 93.9373C384.472 93.9373 379.61 91.9651 375.978 88.0207C372.307 84.1154 370.471 78.8237 370.471 72.1456C370.471 65.4676 372.385 60.1563 376.212 56.212C380 52.3067 385.292 50.354 392.087 50.354C397.75 50.354 402.417 51.7013 406.088 54.396C409.837 57.1297 412.024 60.8398 412.649 65.5261H400.698C399.488 62.0895 396.656 60.3711 392.204 60.3711C389.197 60.3711 386.854 61.406 385.175 63.4759C383.496 65.5457 382.656 68.4356 382.656 72.1456C382.656 75.8557 383.535 78.7456 385.292 80.8154C387.088 82.8852 389.607 83.9202 392.849 83.9202C394.919 83.9202 396.696 83.3929 398.18 82.3385C399.703 81.245 400.679 79.8 401.109 78.0036H393.435Z" fill="black"/>
  <path d="M234.5 92.9765L233.879 66.9991L248.935 92.9766L239.683 87.6631L234.5 92.9765Z" fill="#56B953"/>
  <path d="M0.74762 115.748C0.0559082 116.439 0.0559082 117.561 0.74762 118.252L12.0194 129.524C12.7111 130.216 13.8325 130.216 14.5242 129.524C15.2159 128.832 15.2159 127.711 14.5242 127.019L4.50485 117L14.5242 106.981C15.2159 106.289 15.2159 105.168 14.5242 104.476C13.8325 103.784 12.7111 103.784 12.0194 104.476L0.74762 115.748ZM420 115.229L2.00003 115.229V118.771L420 118.771V115.229Z" fill="#1B2534"/>
  </svg>
  