<svg width="280" height="95" viewBox="0 0 280 95" fill="none" xmlns="http://www.w3.org/2000/svg">
  <path d="M33.3872 0.0690618V10.7491H12.8672V16.3291H32.0672V26.4091H12.8672V42.7891H0.867188V0.0690618H33.3872ZM48.9609 0.0690618V32.1091H67.8609V42.7891H36.9609V0.0690618H48.9609ZM105.193 0.0690618V10.7491H83.4727V16.3891H103.273V26.3491H83.4727V32.1091H105.193V42.7891H71.4727V0.0690618H105.193ZM148.556 0.0690618L134.876 20.9491L149.456 42.7891H135.536L133.016 38.8891C131.096 35.9291 129.336 33.1491 127.736 30.5491C127.616 30.7091 126.976 31.7091 125.816 33.5491C124.696 35.3891 123.596 37.1691 122.516 38.8891L119.996 42.7891H106.376L120.956 21.0691L107.276 0.0690618H121.076L123.416 3.78906C125.296 6.78906 126.856 9.34906 128.096 11.4691C129.896 8.30906 131.436 5.74906 132.716 3.78906L135.056 0.0690618H148.556ZM163.57 42.7891H151.57V0.0690618H163.57V42.7891ZM199.979 19.8691C202.179 20.6691 203.939 22.0291 205.259 23.9491C206.619 25.8691 207.299 27.9491 207.299 30.1891C207.299 34.1891 205.939 37.2891 203.219 39.4891C200.539 41.6891 196.539 42.7891 191.219 42.7891H169.559V0.0690618H190.799C195.999 0.0690618 199.759 1.10906 202.079 3.18906C204.399 5.26906 205.559 7.84906 205.559 10.9291C205.559 15.1691 203.699 18.1491 199.979 19.8691ZM189.959 9.42906H181.559V16.7491H189.959C191.479 16.8691 192.539 16.2891 193.139 15.0091C193.779 13.7291 193.779 12.4491 193.139 11.1691C192.539 9.88906 191.479 9.30906 189.959 9.42906ZM181.559 33.3691H190.559C193.439 33.3691 194.879 32.0691 194.879 29.4691C194.879 26.8691 193.439 25.5691 190.559 25.5691H181.559V33.3691ZM223.219 0.0690618V32.1091H242.119V42.7891H211.219V0.0690618H223.219ZM279.45 0.0690618V10.7491H257.73V16.3891H277.53V26.3491H257.73V32.1091H279.45V42.7891H245.73V0.0690618H279.45ZM33.3872 51.0691V61.7491H12.8672V67.3291H32.0672V77.4091H12.8672V93.7891H0.867188V51.0691H33.3872ZM55.5609 94.7491C49.8809 94.7491 45.2809 93.2491 41.7609 90.2491C38.1609 87.2491 36.3609 82.9691 36.3609 77.4091V51.0691H48.3609V77.5291C48.3609 79.7691 48.9809 81.4891 50.2209 82.6891C51.5009 83.8891 53.2809 84.4891 55.5609 84.4891C57.8409 84.4891 59.6009 83.8891 60.8409 82.6891C62.1209 81.4891 62.7609 79.7691 62.7609 77.5291V51.0691H74.7609V77.4091C74.7609 83.0491 73.0209 87.3491 69.5409 90.3091C66.0209 93.2691 61.3609 94.7491 55.5609 94.7491ZM107.445 58.0291V51.0691H118.845V93.7891H106.185L97.1245 78.6091C94.6845 74.4891 92.7245 70.9691 91.2445 68.0491C91.4445 73.9291 91.5445 80.1891 91.5445 86.8291V93.7891H80.1445V51.0691H92.8045L101.865 66.2491C104.025 69.9291 105.985 73.4691 107.745 76.8691C107.545 70.9891 107.445 64.7091 107.445 58.0291ZM124.852 51.0691H143.512C150.912 51.0691 156.452 52.9891 160.132 56.8291C163.812 60.7091 165.652 65.9091 165.652 72.4291C165.652 78.9491 163.812 84.1491 160.132 88.0291C156.452 91.8691 150.912 93.7891 143.512 93.7891H124.852V51.0691ZM136.852 83.7091H143.272C149.872 83.7091 153.172 79.9491 153.172 72.4291C153.172 64.9091 149.872 61.1491 143.272 61.1491H136.852V83.7091ZM181.852 93.7891H169.852V51.0691H181.852V93.7891ZM215.14 58.0291V51.0691H226.54V93.7891H213.88L204.82 78.6091C202.38 74.4891 200.42 70.9691 198.94 68.0491C199.14 73.9291 199.24 80.1891 199.24 86.8291V93.7891H187.84V51.0691H200.5L209.56 66.2491C211.72 69.9291 213.68 73.4691 215.44 76.8691C215.24 70.9891 215.14 64.7091 215.14 58.0291ZM254.267 78.4291V69.3091H274.487V93.7891H266.327L265.127 88.2091C263.807 90.3291 261.927 91.9491 259.487 93.0691C257.047 94.1891 254.327 94.7491 251.327 94.7491C245.087 94.7491 240.107 92.7291 236.387 88.6891C232.627 84.6891 230.747 79.2691 230.747 72.4291C230.747 65.5891 232.707 60.1491 236.627 56.1091C240.507 52.1091 245.927 50.1091 252.887 50.1091C258.687 50.1091 263.467 51.4891 267.227 54.2491C271.067 57.0491 273.307 60.8491 273.947 65.6491H261.707C260.467 62.1291 257.567 60.3691 253.007 60.3691C249.927 60.3691 247.527 61.4291 245.807 63.5491C244.087 65.6691 243.227 68.6291 243.227 72.4291C243.227 76.2291 244.127 79.1891 245.927 81.3091C247.767 83.4291 250.347 84.4891 253.667 84.4891C255.787 84.4891 257.607 83.9491 259.127 82.8691C260.687 81.7491 261.687 80.2691 262.127 78.4291H254.267Z" fill="#9B93D4" />
  <path d="M91.518 93.7129L91.181 67.7353L106.141 93.7129L97.12 88.3993L91.518 93.7129Z" fill="#56B953" />
</svg>