<svg width="243" height="18" viewBox="0 0 243 18" fill="none" xmlns="http://www.w3.org/2000/svg">
  <path d="M237.596 16.9044C237.819 17.1277 238.181 17.1277 238.404 16.9044L242.042 13.2664C242.265 13.0432 242.265 12.6812 242.042 12.458C241.819 12.2347 241.457 12.2347 241.234 12.458L238 15.6918L234.766 12.458C234.543 12.2347 234.181 12.2347 233.958 12.458C233.735 12.6812 233.735 13.0432 233.958 13.2664L237.596 16.9044ZM237.428 2.4988e-08L237.428 16.5002L238.572 16.5002L238.572 -2.4988e-08L237.428 2.4988e-08Z" fill="#1B2534" />
  <path d="M11.2341 1.64097V5.19911H3.99791V7.07813H10.5945V10.3964H3.99791V12.3154H11.2341V15.8735H0V1.64097H11.2341Z" fill="black" />
  <path d="M25.6809 1.64097L21.1233 8.59733L25.9808 15.8735H21.3432L20.5036 14.5742C19.864 13.5881 19.2776 12.6619 18.7446 11.7957C18.7046 11.849 18.4914 12.1821 18.1049 12.7951C17.7318 13.4081 17.3653 14.0012 17.0055 14.5742L16.1659 15.8735H11.6283L16.4857 8.63731L11.9281 1.64097H16.5257L17.3053 2.88032C17.9317 3.8798 18.4514 4.73269 18.8645 5.43898C19.4642 4.3862 19.9773 3.53331 20.4037 2.88032L21.1833 1.64097H25.6809Z" fill="black" />
  <path d="M26.6852 1.64097H33.3618C35.0675 1.64097 36.4002 2.08741 37.3597 2.98027C38.3325 3.85981 38.8189 5.06585 38.8189 6.59838C38.8189 8.13091 38.3325 9.34361 37.3597 10.2365C36.4002 11.116 35.0675 11.5558 33.3618 11.5558H30.6832V15.8735H26.6852V1.64097ZM30.6832 8.19754H33.0619C33.6216 8.19754 34.0547 8.06428 34.3612 7.79775C34.6811 7.5179 34.841 7.1181 34.841 6.59838C34.841 6.07865 34.6811 5.68552 34.3612 5.41899C34.0547 5.13914 33.6216 4.99921 33.0619 4.99921H30.6832V8.19754Z" fill="black" />
  <path d="M52.4101 15.8735H48.1723L47.5726 14.0145H41.9955L41.3958 15.8735H37.318L42.3753 1.64097H47.1728L52.4101 15.8735ZM44.0744 7.43794L43.035 10.7162H46.4932L45.4337 7.43794C45.0606 6.29187 44.834 5.53893 44.7541 5.17912C44.4209 6.28521 44.1944 7.03815 44.0744 7.43794Z" fill="black" />
  <path d="M62.3096 3.95976V1.64097H66.1076V15.8735H61.8898L58.8714 10.8162C58.0585 9.44355 57.4055 8.27083 56.9124 7.29801C56.979 9.25699 57.0123 11.3426 57.0123 13.5547V15.8735H53.2143V1.64097H57.4321L60.4505 6.69832C61.1702 7.92435 61.8232 9.10373 62.4095 10.2365C62.3429 8.2775 62.3096 6.18526 62.3096 3.95976Z" fill="black" />
  <path d="M73.7659 16.1934C71.727 16.1934 70.1545 15.7469 69.0484 14.8541C67.9556 13.9612 67.4092 12.7418 67.4092 11.196H71.2472C71.2606 11.9422 71.4804 12.4553 71.9069 12.7352C72.3333 13.015 73.0063 13.1549 73.9258 13.1549C75.2585 13.1549 75.9248 12.7285 75.9248 11.8756C75.9248 11.4758 75.7715 11.1826 75.465 10.9961C75.1585 10.8095 74.5655 10.6429 73.686 10.4963L72.5666 10.3164C69.2749 9.78338 67.6291 8.25085 67.6291 5.71884C67.6291 4.37288 68.1289 3.30677 69.1283 2.52051C70.1412 1.72093 71.5871 1.32114 73.4661 1.32114C75.3584 1.32114 76.8243 1.72093 77.8638 2.52051C78.9032 3.30677 79.4629 4.47282 79.5429 6.01868H75.7849C75.7582 5.44565 75.565 5.02587 75.2052 4.75934C74.8454 4.49281 74.2856 4.35955 73.526 4.35955C72.3133 4.35955 71.707 4.75268 71.707 5.53893C71.707 5.93872 71.8602 6.23857 72.1668 6.43846C72.4733 6.63836 73.013 6.80494 73.7859 6.9382L74.9653 7.13809C76.7377 7.43127 78.0237 7.93101 78.8233 8.63731C79.6362 9.33028 80.0426 10.3098 80.0426 11.5758C80.0426 13.0816 79.4896 14.2277 78.3835 15.014C77.2774 15.8002 75.7382 16.1934 73.7659 16.1934Z" fill="black" />
  <path d="M85.342 15.8735H81.3441V1.64097H85.342V15.8735Z" fill="black" />
  <path d="M95.193 6.89822L96.8121 1.64097H100.93L96.0725 15.8735H91.275L86.2377 1.64097H90.5154L92.1546 6.89822C92.6743 8.55069 93.1874 10.3764 93.6938 12.3754C94.1469 10.443 94.6466 8.61732 95.193 6.89822Z" fill="black" />
  <path d="M113.056 1.64097V5.19911H105.82V7.07813H112.416V10.3964H105.82V12.3154H113.056V15.8735H101.822V1.64097H113.056Z" fill="black" />
  <path d="M124.75 15.8761C122.711 15.8761 121.138 15.4297 120.032 14.5368C118.94 13.644 118.393 12.4246 118.393 10.8787H122.231C122.245 11.625 122.464 12.1381 122.891 12.4179C123.317 12.6978 123.99 12.8377 124.91 12.8377C126.242 12.8377 126.909 12.4113 126.909 11.5584C126.909 11.1586 126.755 10.8654 126.449 10.6788C126.142 10.4923 125.549 10.3257 124.67 10.1791L123.55 9.9992C120.259 9.46614 118.613 7.93361 118.613 5.40161C118.613 4.05564 119.113 2.98953 120.112 2.20328C121.125 1.4037 122.571 1.00391 124.45 1.00391C126.342 1.00391 127.808 1.4037 128.848 2.20328C129.887 2.98953 130.447 4.15559 130.527 5.70145H126.769C126.742 5.12841 126.549 4.70863 126.189 4.44211C125.829 4.17558 125.27 4.04232 124.51 4.04232C123.297 4.04232 122.691 4.43544 122.691 5.2217C122.691 5.62149 122.844 5.92133 123.151 6.12123C123.457 6.32112 123.997 6.4877 124.77 6.62097L125.949 6.82086C127.722 7.11404 129.008 7.61378 129.807 8.32008C130.62 9.01305 131.027 9.99253 131.027 11.2585C131.027 12.7644 130.474 13.9105 129.367 14.6967C128.261 15.483 126.722 15.8761 124.75 15.8761Z" fill="black" />
  <path d="M143.562 1.32374V4.88188H136.326V6.76089H142.923V10.0792H136.326V11.9982H143.562V15.5563H132.328V1.32374H143.562Z" fill="black" />
  <path d="M149.054 1.32374V11.9982H155.35V15.5563H145.056V1.32374H149.054Z" fill="black" />
  <path d="M167.788 1.32374V4.88188H160.552V6.76089H167.148V10.0792H160.552V11.9982H167.788V15.5563H156.554V1.32374H167.788Z" fill="black" />
  <path d="M175.978 15.8761C173.766 15.8761 172 15.2031 170.681 13.8572C169.348 12.5245 168.682 10.7188 168.682 8.44001C168.682 6.16121 169.335 4.34882 170.641 3.00286C171.933 1.67022 173.712 1.00391 175.978 1.00391C177.804 1.00391 179.363 1.49698 180.655 2.48313C181.921 3.48261 182.688 4.86189 182.954 6.62097H178.916C178.73 5.91467 178.377 5.37495 177.857 5.00182C177.337 4.61535 176.711 4.42212 175.978 4.42212C174.952 4.42212 174.172 4.7686 173.639 5.46157C173.106 6.15454 172.84 7.14736 172.84 8.44001C172.84 9.73267 173.106 10.7255 173.639 11.4185C174.172 12.1114 174.952 12.4579 175.978 12.4579C176.777 12.4579 177.437 12.2447 177.957 11.8182C178.49 11.3785 178.83 10.7655 178.976 9.97921H182.974C182.748 11.8449 182.001 13.2908 180.735 14.3169C179.456 15.3564 177.87 15.8761 175.978 15.8761Z" fill="black" />
  <path d="M182.966 1.32374H195.36V4.88188H191.162V15.5563H187.164V4.88188H182.966V1.32374Z" fill="black" />
  <path d="M200.55 15.5563H196.552V1.32374H200.55V15.5563Z" fill="black" />
  <path d="M214.839 13.8372C213.466 15.1965 211.66 15.8761 209.422 15.8761C207.183 15.8761 205.377 15.1965 204.004 13.8372C202.632 12.5046 201.946 10.7055 201.946 8.44001C201.946 6.18786 202.632 4.38214 204.004 3.02285C205.39 1.67689 207.196 1.00391 209.422 1.00391C211.647 1.00391 213.453 1.67689 214.839 3.02285C216.211 4.38214 216.898 6.18786 216.898 8.44001C216.898 10.7055 216.211 12.5046 214.839 13.8372ZM207.003 11.3585C207.603 12.0648 208.409 12.4179 209.422 12.4179C210.434 12.4179 211.241 12.0648 211.84 11.3585C212.44 10.6655 212.74 9.69269 212.74 8.44001C212.74 7.21399 212.44 6.24783 211.84 5.54153C211.241 4.82191 210.434 4.4621 209.422 4.4621C208.409 4.4621 207.603 4.82191 207.003 5.54153C206.403 6.24783 206.103 7.21399 206.103 8.44001C206.103 9.69269 206.403 10.6655 207.003 11.3585Z" fill="black" />
  <path d="M227.394 3.64253V1.32374H231.192V15.5563H226.974L223.956 10.4989C223.143 9.12632 222.49 7.9536 221.997 6.98078C222.063 8.93975 222.097 11.0253 222.097 13.2375V15.5563H218.299V1.32374H222.516L225.535 6.38109C226.255 7.60712 226.908 8.7865 227.494 9.91924C227.427 7.96027 227.394 5.86803 227.394 3.64253Z" fill="black" />
  <path d="M41.3983 15.872L44.5722 2.56549L48.1759 15.8732L44.5955 14.0191L41.3983 15.872Z" fill="#56B953" />
</svg>