<svg width="436" height="153" viewBox="0 0 436 153" fill="none" xmlns="http://www.w3.org/2000/svg">
  <path d="M322.569 17.3001L325.263 5.29128H337.507L326.259 47H313.137L310.56 34.6397C309.349 28.7427 308.412 23.6658 307.748 19.409C307.006 24.0172 306.049 29.0942 304.878 34.6397L302.3 47H289.178L277.931 5.29128H290.174L292.869 17.3001C294.587 24.9155 295.759 30.4805 296.384 33.9953C297.282 28.5279 298.317 22.9628 299.488 17.3001L301.949 5.29128H313.489L315.949 17.3001C317.121 22.9628 318.156 28.5279 319.054 33.9953C319.718 30.4805 320.889 24.9155 322.569 17.3001ZM351.849 47H340.133V5.29128H351.849V47ZM357.695 5.29128H375.914C383.139 5.29128 388.547 7.16583 392.14 10.9149C395.733 14.7031 397.53 19.78 397.53 26.1456C397.53 32.5113 395.733 37.5882 392.14 41.3764C388.547 45.1255 383.139 47 375.914 47H357.695V5.29128ZM369.411 37.1586H375.679C382.123 37.1586 385.345 33.4876 385.345 26.1456C385.345 18.8037 382.123 15.1327 375.679 15.1327H369.411V37.1586ZM434.552 5.29128V15.7185H413.346V21.2249H432.677V30.9492H413.346V36.5728H434.552V47H401.63V5.29128H434.552ZM167.566 88.2172L167.8 93.7823C167.878 95.5006 168.23 96.9065 168.855 98H156.787C156.319 97.1018 156.045 95.6959 155.967 93.7823L155.792 89.0373C155.713 86.9284 155.225 85.503 154.327 84.761C153.468 83.9799 152.062 83.5894 150.109 83.5894H144.017V98H132.301V56.2913H152.804C158.115 56.2913 162.04 57.4433 164.578 59.7475C167.078 62.0907 168.328 65.0587 168.328 68.6516C168.328 70.7995 167.761 72.7326 166.629 74.451C165.535 76.1693 163.934 77.4971 161.825 78.4344C163.934 79.2155 165.379 80.348 166.16 81.832C166.98 83.316 167.449 85.4444 167.566 88.2172ZM144.017 65.4297V75.0368H151.047C154.522 75.0368 156.26 73.4356 156.26 70.2332C156.26 67.0309 154.522 65.4297 151.047 65.4297H144.017ZM213.409 98H200.99L199.232 92.5521H182.889L181.131 98H169.181L184.002 56.2913H198.061L213.409 98ZM188.981 73.2794L185.935 82.8864H196.069L192.964 73.2794C191.871 69.9208 191.207 67.7143 190.973 66.6599C189.996 69.9013 189.333 72.1078 188.981 73.2794ZM242.419 63.0865V56.2913H253.55V98H241.189L232.344 83.1793C229.961 79.1569 228.048 75.7202 226.603 72.8693C226.798 78.6101 226.896 84.7219 226.896 91.2048V98H215.766V56.2913H228.126L236.971 71.1119C239.08 74.7048 240.994 78.161 242.712 81.4805C242.517 75.7397 242.419 69.6084 242.419 63.0865ZM280.62 83.0036V74.0995H300.362V98H292.395L291.223 92.5521C289.934 94.6219 288.099 96.2036 285.717 97.297C283.334 98.3905 280.679 98.9373 277.75 98.9373C271.658 98.9373 266.795 96.9651 263.163 93.0207C259.492 89.1154 257.657 83.8237 257.657 77.1456C257.657 70.4676 259.571 65.1563 263.398 61.212C267.186 57.3067 272.478 55.354 279.273 55.354C284.936 55.354 289.602 56.7013 293.273 59.396C297.023 62.1297 299.209 65.8398 299.834 70.5261H287.884C286.673 67.0895 283.842 65.3711 279.39 65.3711C276.383 65.3711 274.04 66.406 272.36 68.4759C270.681 70.5457 269.842 73.4356 269.842 77.1456C269.842 80.8557 270.72 83.7456 272.478 85.8154C274.274 87.8852 276.793 88.9202 280.034 88.9202C282.104 88.9202 283.881 88.3929 285.365 87.3385C286.888 86.245 287.865 84.8 288.294 83.0036H280.62ZM338.559 56.2913V66.7185H317.353V72.2249H336.685V81.9492H317.353V87.5728H338.559V98H305.637V56.2913H338.559ZM393.55 92.9621C389.528 96.9456 384.236 98.9373 377.675 98.9373C371.114 98.9373 365.823 96.9456 361.8 92.9621C357.778 89.0568 355.766 83.7847 355.766 77.1456C355.766 70.5457 357.778 65.254 361.8 61.2706C365.862 57.3262 371.153 55.354 377.675 55.354C384.197 55.354 389.489 57.3262 393.55 61.2706C397.573 65.254 399.584 70.5457 399.584 77.1456C399.584 83.7847 397.573 89.0568 393.55 92.9621ZM370.587 85.6983C372.345 87.7681 374.707 88.803 377.675 88.803C380.643 88.803 383.006 87.7681 384.763 85.6983C386.521 83.6675 387.399 80.8166 387.399 77.1456C387.399 73.5528 386.521 70.7214 384.763 68.6516C383.006 66.5427 380.643 65.4883 377.675 65.4883C374.707 65.4883 372.345 66.5427 370.587 68.6516C368.83 70.7214 367.951 73.5528 367.951 77.1456C367.951 80.8166 368.83 83.6675 370.587 85.6983ZM435.44 56.2913V66.7185H415.406V72.1664H434.151V82.0078H415.406V98H403.69V56.2913H435.44ZM20.9654 149H9.24948V107.291H20.9654V149ZM53.4657 114.087V107.291H64.5958V149H52.2355L43.39 134.179C41.0077 130.157 39.0941 126.72 37.6492 123.869C37.8444 129.61 37.9421 135.722 37.9421 142.205V149H26.8119V107.291H39.1722L48.0178 122.112C50.1266 125.705 52.0402 129.161 53.7586 132.481C53.5633 126.74 53.4657 120.608 53.4657 114.087ZM87.0387 149.937C81.0636 149.937 76.4553 148.629 73.2139 146.012C70.0115 143.396 68.4104 139.823 68.4104 135.292H79.6577C79.6967 137.479 80.3411 138.983 81.5908 139.803C82.8405 140.623 84.8127 141.033 87.5073 141.033C91.4126 141.033 93.3653 139.783 93.3653 137.284C93.3653 136.112 92.9162 135.253 92.018 134.707C91.1197 134.16 89.3819 133.672 86.8044 133.242L83.5239 132.715C73.8778 131.153 69.0547 126.662 69.0547 119.242C69.0547 115.297 70.5192 112.173 73.4482 109.869C76.4162 107.526 80.6535 106.354 86.16 106.354C91.7055 106.354 96.0014 107.526 99.0475 109.869C102.094 112.173 103.734 115.59 103.968 120.12H92.9552C92.8771 118.441 92.3109 117.211 91.2564 116.43C90.202 115.649 88.5618 115.258 86.3357 115.258C82.7819 115.258 81.005 116.41 81.005 118.714C81.005 119.886 81.4541 120.765 82.3523 121.35C83.2505 121.936 84.8322 122.424 87.0973 122.815L90.5535 123.401C95.7475 124.26 99.5162 125.724 101.859 127.794C104.242 129.825 105.433 132.695 105.433 136.405C105.433 140.818 103.812 144.177 100.571 146.481C97.3292 148.785 92.8185 149.937 87.0387 149.937ZM105.759 107.291H142.079V117.718H129.777V149H118.061V117.718H105.759V107.291ZM180.838 139.217L181.072 144.782C181.15 146.501 181.502 147.907 182.127 149H170.059C169.591 148.102 169.317 146.696 169.239 144.782L169.063 140.037C168.985 137.928 168.497 136.503 167.599 135.761C166.74 134.98 165.334 134.589 163.381 134.589H157.289V149H145.573V107.291H166.076C171.387 107.291 175.312 108.443 177.85 110.747C180.35 113.091 181.6 116.059 181.6 119.652C181.6 121.8 181.033 123.733 179.901 125.451C178.807 127.169 177.206 128.497 175.097 129.434C177.206 130.215 178.651 131.348 179.432 132.832C180.252 134.316 180.721 136.444 180.838 139.217ZM157.289 116.43V126.037H164.319C167.794 126.037 169.532 124.436 169.532 121.233C169.532 118.031 167.794 116.43 164.319 116.43H157.289ZM204.121 149.937C198.575 149.937 194.084 148.473 190.647 145.544C187.133 142.615 185.375 138.436 185.375 133.008V107.291H197.091V133.125C197.091 135.312 197.696 136.991 198.907 138.163C200.157 139.334 201.895 139.92 204.121 139.92C206.347 139.92 208.065 139.334 209.276 138.163C210.525 136.991 211.15 135.312 211.15 133.125V107.291H222.866V133.008C222.866 138.514 221.167 142.712 217.77 145.602C214.333 148.492 209.783 149.937 204.121 149.937ZM254.249 123.108L258.232 107.291H276.158V149H265.027V137.167C265.027 129.512 265.145 123.01 265.379 117.66C264.52 121.097 263.7 124.182 262.919 126.915L256.885 149H247.395L241.361 126.915C240.58 124.182 239.76 121.097 238.901 117.66C239.135 123.01 239.252 129.512 239.252 137.167V149H228.122V107.291H246.048L250.031 123.108C251.046 127.169 251.749 130.157 252.14 132.07C252.53 130.157 253.233 127.169 254.249 123.108ZM314.933 107.291V117.718H293.727V123.225H313.058V132.949H293.727V138.573H314.933V149H282.011V107.291H314.933ZM345.964 114.087V107.291H357.094V149H344.733L335.888 134.179C333.506 130.157 331.592 126.72 330.147 123.869C330.342 129.61 330.44 135.722 330.44 142.205V149H319.31V107.291H331.67L340.516 122.112C342.624 125.705 344.538 129.161 346.256 132.481C346.061 126.74 345.964 120.608 345.964 114.087ZM360.615 107.291H396.935V117.718H384.633V149H372.917V117.718H360.615V107.291ZM416.721 149.937C410.746 149.937 406.138 148.629 402.896 146.012C399.694 143.396 398.093 139.823 398.093 135.292H409.34C409.379 137.479 410.023 138.983 411.273 139.803C412.523 140.623 414.495 141.033 417.19 141.033C421.095 141.033 423.047 139.783 423.047 137.284C423.047 136.112 422.598 135.253 421.7 134.707C420.802 134.16 419.064 133.672 416.487 133.242L413.206 132.715C403.56 131.153 398.737 126.662 398.737 119.242C398.737 115.297 400.201 112.173 403.13 109.869C406.098 107.526 410.336 106.354 415.842 106.354C421.388 106.354 425.684 107.526 428.73 109.869C431.776 112.173 433.416 115.59 433.65 120.12H422.637C422.559 118.441 421.993 117.211 420.939 116.43C419.884 115.649 418.244 115.258 416.018 115.258C412.464 115.258 410.687 116.41 410.687 118.714C410.687 119.886 411.136 120.765 412.035 121.35C412.933 121.936 414.514 122.424 416.779 122.815L420.236 123.401C425.43 124.26 429.198 125.724 431.542 127.794C433.924 129.825 435.115 132.695 435.115 136.405C435.115 140.818 433.494 144.177 430.253 146.481C427.011 148.785 422.501 149.937 416.721 149.937Z" fill="#9B93D4"/>
  <path d="M181.187 98.0002L191.12 60.9999L201.187 98.0003L190.931 87.3305L181.187 98.0002Z" fill="#56B953"/>
  <path d="M190.841 87.1125L184.687 94.0759H197.369L190.841 87.1125Z" fill="white"/>
  </svg>
  