<svg width="335" height="95" viewBox="0 0 335 95" fill="none" xmlns="http://www.w3.org/2000/svg">
  <path d="M35.7345 1.29128V11.7185H14.5287V17.2249H33.86V26.9492H14.5287V32.5728H35.7345V43H2.81277V1.29128H35.7345ZM78.0712 1.29128L64.715 21.677L78.9499 43H65.3594L62.899 39.1923C61.0245 36.3024 59.3061 33.5882 57.744 31.0497C57.6269 31.206 57.002 32.1823 55.8695 33.9787C54.776 35.7752 53.702 37.513 52.6476 39.1923L50.1872 43H36.8897L51.1245 21.7942L37.7684 1.29128H51.2417L53.5263 4.92322C55.3618 7.8522 56.8848 10.3516 58.0955 12.4214C59.8529 9.33622 61.3564 6.83682 62.6061 4.92322L64.8907 1.29128H78.0712ZM81.0143 1.29128H100.58C105.579 1.29128 109.484 2.59956 112.296 5.21612C115.147 7.79362 116.572 11.3279 116.572 15.819C116.572 20.3101 115.147 23.864 112.296 26.4805C109.484 29.058 105.579 30.3468 100.58 30.3468H92.7303V43H81.0143V1.29128ZM92.7303 20.5054H99.7012C101.341 20.5054 102.611 20.1149 103.509 19.3338C104.446 18.5137 104.915 17.3421 104.915 15.819C104.915 14.296 104.446 13.1439 103.509 12.3628C102.611 11.5427 101.341 11.1327 99.7012 11.1327H92.7303V20.5054ZM156.401 43H143.982L142.225 37.5521H125.881L124.124 43H112.174L126.994 1.29128H141.053L156.401 43ZM131.974 18.2794L128.927 27.8864H139.062L135.957 18.2794C134.864 14.9208 134.2 12.7143 133.965 11.6599C132.989 14.9013 132.325 17.1078 131.974 18.2794ZM185.412 8.08652V1.29128H196.542V43H184.182L175.336 28.1793C172.954 24.1569 171.04 20.7202 169.595 17.8693C169.791 23.6101 169.888 29.7219 169.888 36.2048V43H158.758V1.29128H171.119L179.964 16.1119C182.073 19.7048 183.987 23.161 185.705 26.4805C185.51 20.7397 185.412 14.6084 185.412 8.08652ZM218.985 43.9373C213.01 43.9373 208.402 42.629 205.16 40.0124C201.958 37.3959 200.357 33.8225 200.357 29.2924H211.604C211.643 31.4793 212.287 32.9829 213.537 33.803C214.787 34.6231 216.759 35.0332 219.454 35.0332C223.359 35.0332 225.312 33.7835 225.312 31.2841C225.312 30.1125 224.862 29.2533 223.964 28.7066C223.066 28.1598 221.328 27.6717 218.751 27.2421L215.47 26.7149C205.824 25.1527 201.001 20.6616 201.001 13.2415C201.001 9.29717 202.466 6.17292 205.395 3.86879C208.363 1.5256 212.6 0.354006 218.106 0.354006C223.652 0.354006 227.948 1.5256 230.994 3.86879C234.04 6.17292 235.68 9.59007 235.915 14.1202H224.902C224.823 12.4409 224.257 11.2108 223.203 10.4297C222.148 9.64865 220.508 9.25811 218.282 9.25811C214.728 9.25811 212.951 10.4102 212.951 12.7143C212.951 13.8859 213.4 14.7646 214.299 15.3504C215.197 15.9362 216.778 16.4244 219.044 16.8149L222.5 17.4007C227.694 18.2599 231.462 19.7243 233.806 21.7942C236.188 23.8249 237.379 26.6953 237.379 30.4054C237.379 34.8184 235.758 38.1769 232.517 40.4811C229.275 42.7852 224.765 43.9373 218.985 43.9373ZM252.909 43H241.193V1.29128H252.909V43ZM281.777 16.6977L286.522 1.29128H298.59L284.355 43H270.296L255.534 1.29128H268.07L272.873 16.6977C274.396 21.5403 275.9 26.8906 277.384 32.7486C278.712 27.0859 280.176 21.7356 281.777 16.6977ZM334.125 1.29128V11.7185H312.919V17.2249H332.25V26.9492H312.919V32.5728H334.125V43H301.203V1.29128H334.125ZM19.3908 94.9373C13.4157 94.9373 8.80742 93.629 5.56602 91.0124C2.36366 88.3959 0.762484 84.8225 0.762484 80.2924H12.0098C12.0488 82.4793 12.6932 83.9829 13.9429 84.803C15.1926 85.6231 17.1648 86.0332 19.8595 86.0332C23.7648 86.0332 25.7174 84.7835 25.7174 82.2841C25.7174 81.1125 25.2683 80.2533 24.3701 79.7066C23.4719 79.1598 21.734 78.6717 19.1565 78.2421L15.876 77.7149C6.22992 76.1527 1.40686 71.6616 1.40686 64.2415C1.40686 60.2972 2.87135 57.1729 5.80033 54.8688C8.76837 52.5256 13.0056 51.354 18.5121 51.354C24.0577 51.354 28.3535 52.5256 31.3996 54.8688C34.4458 57.1729 36.086 60.5901 36.3203 65.1202H25.3074C25.2293 63.4409 24.663 62.2108 23.6086 61.4297C22.5541 60.6486 20.9139 60.2581 18.6879 60.2581C15.134 60.2581 13.3571 61.4102 13.3571 63.7143C13.3571 64.8859 13.8062 65.7646 14.7044 66.3504C15.6027 66.9362 17.1843 67.4244 19.4494 67.8149L22.9056 68.4007C28.0997 69.2599 31.8683 70.7243 34.2115 72.7942C36.5937 74.8249 37.7848 77.6953 37.7848 81.4054C37.7848 85.8184 36.1641 89.1769 32.9227 91.4811C29.6813 93.7852 25.1707 94.9373 19.3908 94.9373ZM74.5207 52.2913V62.7185H53.3148V68.2249H72.6461V77.9492H53.3148V83.5728H74.5207V94H41.5989V52.2913H74.5207ZM90.6136 52.2913V83.5728H109.066V94H78.8977V52.2913H90.6136ZM145.514 52.2913V62.7185H124.308V68.2249H143.64V77.9492H124.308V83.5728H145.514V94H112.592V52.2913H145.514ZM169.515 94.9373C163.033 94.9373 157.858 92.9651 153.992 89.0207C150.086 85.1154 148.134 79.8237 148.134 73.1456C148.134 66.4676 150.047 61.1563 153.875 57.212C157.663 53.3067 162.876 51.354 169.515 51.354C174.866 51.354 179.435 52.799 183.223 55.6889C186.933 58.6179 189.179 62.6599 189.96 67.8149H178.127C177.58 65.7451 176.545 64.1634 175.022 63.0699C173.499 61.9374 171.663 61.3711 169.515 61.3711C166.508 61.3711 164.224 62.3865 162.662 64.4173C161.099 66.448 160.318 69.3575 160.318 73.1456C160.318 76.9338 161.099 79.8432 162.662 81.874C164.224 83.9048 166.508 84.9202 169.515 84.9202C171.859 84.9202 173.792 84.2953 175.315 83.0456C176.877 81.7569 177.873 79.9604 178.302 77.6563H190.018C189.354 83.1237 187.167 87.361 183.457 90.3681C179.708 93.4142 175.061 94.9373 169.515 94.9373ZM189.995 52.2913H226.315V62.7185H214.013V94H202.297V62.7185H189.995V52.2913ZM241.525 94H229.809V52.2913H241.525V94ZM283.398 88.9621C279.375 92.9456 274.084 94.9373 267.523 94.9373C260.962 94.9373 255.67 92.9456 251.648 88.9621C247.625 85.0568 245.614 79.7847 245.614 73.1456C245.614 66.5457 247.625 61.254 251.648 57.2706C255.709 53.3262 261.001 51.354 267.523 51.354C274.045 51.354 279.336 53.3262 283.398 57.2706C287.42 61.254 289.432 66.5457 289.432 73.1456C289.432 79.7847 287.42 85.0568 283.398 88.9621ZM260.435 81.6983C262.192 83.7681 264.555 84.803 267.523 84.803C270.491 84.803 272.854 83.7681 274.611 81.6983C276.368 79.6675 277.247 76.8166 277.247 73.1456C277.247 69.5528 276.368 66.7214 274.611 64.6516C272.854 62.5427 270.491 61.4883 267.523 61.4883C264.555 61.4883 262.192 62.5427 260.435 64.6516C258.677 66.7214 257.799 69.5528 257.799 73.1456C257.799 76.8166 258.677 79.6675 260.435 81.6983ZM320.191 59.0865V52.2913H331.321V94H318.961L310.115 79.1793C307.733 75.1569 305.819 71.7202 304.374 68.8693C304.57 74.6101 304.667 80.7219 304.667 87.2048V94H293.537V52.2913H305.898L314.743 67.1119C316.852 70.7048 318.766 74.161 320.484 77.4805C320.289 71.7397 320.191 65.6084 320.191 59.0865Z" fill="#9B93D4" />
  <path d="M123.669 42.8643L133.433 5.0006L144.124 42.8642L133.244 31.3312L123.669 42.8643Z" fill="#56B953" />
  <path d="M133.154 31.1133L127.714 37.8591L139.682 38.0767L133.154 31.1133Z" fill="white" />
</svg>