<svg width="420" height="133" viewBox="0 0 420 133" fill="none" xmlns="http://www.w3.org/2000/svg">
    <path d="M118.735 1.29079V11.718H97.5294V17.2245H116.861V26.9487H97.5294V32.5723H118.735V42.9995H85.8135V1.29079H118.735Z" fill="black"/>
    <path d="M161.072 1.29079L147.716 21.6765L161.951 42.9995H148.36L145.9 39.1918C144.025 36.3019 142.307 33.5877 140.745 31.0493C140.628 31.2055 140.003 32.1818 138.87 33.9782C137.777 35.7747 136.703 37.5125 135.648 39.1918L133.188 42.9995H119.89L134.125 21.7937L120.769 1.29079H134.242L136.527 4.92273C138.362 7.85171 139.886 10.3511 141.096 12.4209C142.854 9.33573 144.357 6.83633 145.607 4.92273L147.891 1.29079H161.072Z" fill="black"/>
    <path d="M164.015 1.29079H183.581C188.579 1.29079 192.485 2.59907 195.297 5.21563C198.147 7.79313 199.573 11.3274 199.573 15.8185C199.573 20.3097 198.147 23.8635 195.297 26.48C192.485 29.0576 188.579 30.3463 183.581 30.3463H175.731V42.9995H164.015V1.29079ZM175.731 20.5049H182.702C184.342 20.5049 185.611 20.1144 186.51 19.3333C187.447 18.5132 187.916 17.3416 187.916 15.8185C187.916 14.2955 187.447 13.1434 186.51 12.3623C185.611 11.5422 184.342 11.1322 182.702 11.1322H175.731V20.5049Z" fill="black"/>
    <path d="M239.402 42.9995H226.983L225.226 37.5516H208.882L207.125 42.9995H195.174L209.995 1.29079H224.054L239.402 42.9995ZM214.974 18.2789L211.928 27.886H222.062L218.958 18.2789C217.864 14.9203 217.2 12.7138 216.966 11.6594C215.99 14.9008 215.326 17.1073 214.974 18.2789Z" fill="black"/>
    <path d="M268.413 8.08603V1.29079H279.543V42.9995H267.183L258.337 28.1789C255.955 24.1564 254.041 20.7197 252.596 17.8688C252.791 23.6096 252.889 29.7215 252.889 36.2043V42.9995H241.759V1.29079H254.119L262.965 16.1114C265.074 19.7043 266.987 23.1605 268.706 26.48C268.51 20.7392 268.413 14.6079 268.413 8.08603Z" fill="black"/>
    <path d="M301.986 43.9368C296.011 43.9368 291.402 42.6285 288.161 40.0119C284.959 37.3954 283.357 33.822 283.357 29.2919H294.605C294.644 31.4788 295.288 32.9824 296.538 33.8025C297.787 34.6226 299.76 35.0327 302.454 35.0327C306.36 35.0327 308.312 33.783 308.312 31.2836C308.312 30.112 307.863 29.2528 306.965 28.7061C306.067 28.1593 304.329 27.6712 301.751 27.2416L298.471 26.7144C288.825 25.1522 284.002 20.6611 284.002 13.241C284.002 9.29668 285.466 6.17243 288.395 3.8683C291.363 1.52511 295.601 0.353516 301.107 0.353516C306.653 0.353516 310.948 1.52511 313.995 3.8683C317.041 6.17243 318.681 9.58958 318.915 14.1197H307.902C307.824 12.4405 307.258 11.2103 306.203 10.4292C305.149 9.64816 303.509 9.25762 301.283 9.25762C297.729 9.25762 295.952 10.4097 295.952 12.7138C295.952 13.8854 296.401 14.7641 297.299 15.3499C298.198 15.9357 299.779 16.4239 302.044 16.8144L305.5 17.4002C310.695 18.2594 314.463 19.7239 316.806 21.7937C319.189 23.8244 320.38 26.6948 320.38 30.4049C320.38 34.8179 318.759 38.1764 315.518 40.4806C312.276 42.7847 307.766 43.9368 301.986 43.9368Z" fill="black"/>
    <path d="M335.91 42.9995H324.194V1.29079H335.91V42.9995Z" fill="black"/>
    <path d="M364.778 16.6972L369.523 1.29079H381.59L367.356 42.9995H353.296L338.534 1.29079H351.07L355.874 16.6972C357.397 21.5398 358.901 26.8901 360.385 32.7481C361.712 27.0854 363.177 21.7351 364.778 16.6972Z" fill="black"/>
    <path d="M417.125 1.29079V11.718H395.92V17.2245H415.251V26.9487H395.92V32.5723H417.125V42.9995H384.204V1.29079H417.125Z" fill="black"/>
    <path d="M102.392 94.9368C96.4164 94.9368 91.8081 93.6285 88.5667 91.0119C85.3644 88.3954 83.7632 84.822 83.7632 80.2919H95.0105C95.0495 82.4788 95.6939 83.9824 96.9436 84.8025C98.1933 85.6226 100.165 86.0327 102.86 86.0327C106.765 86.0327 108.718 84.783 108.718 82.2836C108.718 81.112 108.269 80.2528 107.371 79.7061C106.473 79.1593 104.735 78.6712 102.157 78.2416L98.8767 77.7144C89.2306 76.1522 84.4076 71.6611 84.4076 64.241C84.4076 60.2967 85.8721 57.1724 88.801 54.8683C91.7691 52.5251 96.0063 51.3535 101.513 51.3535C107.058 51.3535 111.354 52.5251 114.4 54.8683C117.446 57.1724 119.087 60.5896 119.321 65.1197H108.308C108.23 63.4405 107.664 62.2103 106.609 61.4292C105.555 60.6482 103.915 60.2576 101.689 60.2576C98.1347 60.2576 96.3578 61.4097 96.3578 63.7138C96.3578 64.8854 96.8069 65.7641 97.7051 66.3499C98.6034 66.9357 100.185 67.4239 102.45 67.8144L105.906 68.4002C111.1 69.2594 114.869 70.7239 117.212 72.7937C119.594 74.8244 120.786 77.6948 120.786 81.4049C120.786 85.8179 119.165 89.1764 115.923 91.4806C112.682 93.7847 108.171 94.9368 102.392 94.9368Z" fill="black"/>
    <path d="M157.521 52.2908V62.718H136.316V68.2245H155.647V77.9487H136.316V83.5723H157.521V93.9995H124.6V52.2908H157.521Z" fill="black"/>
    <path d="M173.614 52.2908V83.5723H192.067V93.9995H161.898V52.2908H173.614Z" fill="black"/>
    <path d="M228.515 52.2908V62.718H207.309V68.2245H226.64V77.9487H207.309V83.5723H228.515V93.9995H195.593V52.2908H228.515Z" fill="black"/>
    <path d="M252.516 94.9368C246.033 94.9368 240.859 92.9646 236.992 89.0202C233.087 85.1149 231.134 79.8232 231.134 73.1451C231.134 66.4671 233.048 61.1558 236.875 57.2115C240.663 53.3062 245.877 51.3535 252.516 51.3535C257.866 51.3535 262.436 52.7985 266.224 55.6884C269.934 58.6174 272.179 62.6594 272.96 67.8144H261.127C260.581 65.7446 259.546 64.1629 258.023 63.0695C256.499 61.9369 254.664 61.3706 252.516 61.3706C249.509 61.3706 247.224 62.386 245.662 64.4168C244.1 66.4475 243.319 69.357 243.319 73.1451C243.319 76.9333 244.1 79.8428 245.662 81.8735C247.224 83.9043 249.509 84.9197 252.516 84.9197C254.859 84.9197 256.792 84.2948 258.315 83.0451C259.878 81.7564 260.873 79.9599 261.303 77.6558H273.019C272.355 83.1232 270.168 87.3605 266.458 90.3676C262.709 93.4137 258.062 94.9368 252.516 94.9368Z" fill="black"/>
    <path d="M272.996 52.2908H309.315V62.718H297.014V93.9995H285.298V62.718H272.996V52.2908Z" fill="black"/>
    <path d="M324.526 93.9995H312.81V52.2908H324.526V93.9995Z" fill="black"/>
    <path d="M366.399 88.9617C362.376 92.9451 357.084 94.9368 350.523 94.9368C343.963 94.9368 338.671 92.9451 334.648 88.9617C330.626 85.0564 328.615 79.7842 328.615 73.1451C328.615 66.5452 330.626 61.2535 334.648 57.2701C338.71 53.3257 344.002 51.3535 350.523 51.3535C357.045 51.3535 362.337 53.3257 366.399 57.2701C370.421 61.2535 372.432 66.5452 372.432 73.1451C372.432 79.7842 370.421 85.0564 366.399 88.9617ZM343.435 81.6978C345.193 83.7676 347.555 84.8025 350.523 84.8025C353.492 84.8025 355.854 83.7676 357.612 81.6978C359.369 79.667 360.248 76.8161 360.248 73.1451C360.248 69.5523 359.369 66.7209 357.612 64.6511C355.854 62.5422 353.492 61.4878 350.523 61.4878C347.555 61.4878 345.193 62.5422 343.435 64.6511C341.678 66.7209 340.799 69.5523 340.799 73.1451C340.799 76.8161 341.678 79.667 343.435 81.6978Z" fill="black"/>
    <path d="M403.192 59.086V52.2908H414.322V93.9995H401.961L393.116 79.1789C390.734 75.1564 388.82 71.7197 387.375 68.8688C387.57 74.6096 387.668 80.7215 387.668 87.2043V93.9995H376.538V52.2908H388.898L397.744 67.1114C399.853 70.7043 401.766 74.1605 403.485 77.48C403.289 71.7392 403.192 65.6079 403.192 59.086Z" fill="black"/>
    <path d="M207.101 42.9957L217.226 4.86955L226.984 42.9844L216.39 31.1876L207.101 42.9957Z" fill="#56B953"/>
    <path d="M216.403 31.1738L207.119 42.9786L227.039 42.9952L216.403 31.1738Z" fill="white"/>
    <path d="M0.747612 117.748C0.0559211 118.439 0.0559211 119.561 0.747612 120.252L12.0194 131.524C12.7111 132.216 13.8325 132.216 14.5242 131.524C15.2159 130.832 15.2159 129.711 14.5242 129.019L4.50487 119L14.5242 108.981C15.2159 108.289 15.2159 107.168 14.5242 106.476C13.8325 105.784 12.7111 105.784 12.0194 106.476L0.747612 117.748ZM420 117.229L2.00003 117.229V120.771L420 120.771V117.229Z" fill="#1B2534"/>
    </svg>
    