<svg width="509" height="186" viewBox="0 0 509 186" fill="none" xmlns="http://www.w3.org/2000/svg">
  <path d="M395.569 17.3001L398.263 5.29128H410.507L399.259 47H386.137L383.56 34.6397C382.349 28.7427 381.412 23.6658 380.748 19.409C380.006 24.0172 379.049 29.0942 377.878 34.6397L375.3 47H362.178L350.931 5.29128H363.174L365.869 17.3001C367.587 24.9155 368.759 30.4805 369.384 33.9953C370.282 28.5279 371.317 22.9628 372.488 17.3001L374.949 5.29128H386.489L388.949 17.3001C390.121 22.9628 391.156 28.5279 392.054 33.9953C392.718 30.4805 393.889 24.9155 395.569 17.3001ZM424.849 47H413.133V5.29128H424.849V47ZM430.695 5.29128H448.914C456.139 5.29128 461.547 7.16583 465.14 10.9149C468.733 14.7031 470.53 19.78 470.53 26.1456C470.53 32.5113 468.733 37.5882 465.14 41.3764C461.547 45.1255 456.139 47 448.914 47H430.695V5.29128ZM442.411 37.1586H448.679C455.123 37.1586 458.345 33.4876 458.345 26.1456C458.345 18.8037 455.123 15.1327 448.679 15.1327H442.411V37.1586ZM507.552 5.29128V15.7185H486.346V21.2249H505.677V30.9492H486.346V36.5728H507.552V47H474.63V5.29128H507.552ZM240.566 88.2172L240.8 93.7823C240.878 95.5006 241.23 96.9065 241.855 98H229.787C229.319 97.1018 229.045 95.6959 228.967 93.7823L228.792 89.0373C228.713 86.9284 228.225 85.503 227.327 84.761C226.468 83.9799 225.062 83.5894 223.109 83.5894H217.017V98H205.301V56.2913H225.804C231.115 56.2913 235.04 57.4433 237.578 59.7475C240.078 62.0907 241.328 65.0587 241.328 68.6516C241.328 70.7995 240.761 72.7326 239.629 74.451C238.535 76.1693 236.934 77.4971 234.825 78.4344C236.934 79.2155 238.379 80.348 239.16 81.832C239.98 83.316 240.449 85.4444 240.566 88.2172ZM217.017 65.4297V75.0368H224.047C227.522 75.0368 229.26 73.4356 229.26 70.2332C229.26 67.0309 227.522 65.4297 224.047 65.4297H217.017ZM286.409 98H273.99L272.232 92.5521H255.889L254.131 98H242.181L257.002 56.2913H271.061L286.409 98ZM261.981 73.2794L258.935 82.8864H269.069L265.964 73.2794C264.871 69.9208 264.207 67.7143 263.973 66.6599C262.996 69.9013 262.333 72.1078 261.981 73.2794ZM315.419 63.0865V56.2913H326.55V98H314.189L305.344 83.1793C302.961 79.1569 301.048 75.7202 299.603 72.8693C299.798 78.6101 299.896 84.7219 299.896 91.2048V98H288.766V56.2913H301.126L309.971 71.1119C312.08 74.7048 313.994 78.161 315.712 81.4805C315.517 75.7397 315.419 69.6084 315.419 63.0865ZM353.62 83.0036V74.0995H373.362V98H365.395L364.223 92.5521C362.934 94.6219 361.099 96.2036 358.717 97.297C356.334 98.3905 353.679 98.9373 350.75 98.9373C344.658 98.9373 339.795 96.9651 336.163 93.0207C332.492 89.1154 330.657 83.8237 330.657 77.1456C330.657 70.4676 332.571 65.1563 336.398 61.212C340.186 57.3067 345.478 55.354 352.273 55.354C357.936 55.354 362.602 56.7013 366.273 59.396C370.023 62.1297 372.209 65.8398 372.834 70.5261H360.884C359.673 67.0895 356.842 65.3711 352.39 65.3711C349.383 65.3711 347.04 66.406 345.36 68.4759C343.681 70.5457 342.842 73.4356 342.842 77.1456C342.842 80.8557 343.72 83.7456 345.478 85.8154C347.274 87.8852 349.793 88.9202 353.034 88.9202C355.104 88.9202 356.881 88.3929 358.365 87.3385C359.888 86.245 360.865 84.8 361.294 83.0036H353.62ZM411.559 56.2913V66.7185H390.353V72.2249H409.685V81.9492H390.353V87.5728H411.559V98H378.637V56.2913H411.559ZM466.55 92.9621C462.528 96.9456 457.236 98.9373 450.675 98.9373C444.114 98.9373 438.823 96.9456 434.8 92.9621C430.778 89.0568 428.766 83.7847 428.766 77.1456C428.766 70.5457 430.778 65.254 434.8 61.2706C438.862 57.3262 444.153 55.354 450.675 55.354C457.197 55.354 462.489 57.3262 466.55 61.2706C470.573 65.254 472.584 70.5457 472.584 77.1456C472.584 83.7847 470.573 89.0568 466.55 92.9621ZM443.587 85.6983C445.345 87.7681 447.707 88.803 450.675 88.803C453.643 88.803 456.006 87.7681 457.763 85.6983C459.521 83.6675 460.399 80.8166 460.399 77.1456C460.399 73.5528 459.521 70.7214 457.763 68.6516C456.006 66.5427 453.643 65.4883 450.675 65.4883C447.707 65.4883 445.345 66.5427 443.587 68.6516C441.83 70.7214 440.951 73.5528 440.951 77.1456C440.951 80.8166 441.83 83.6675 443.587 85.6983ZM508.44 56.2913V66.7185H488.406V72.1664H507.151V82.0078H488.406V98H476.69V56.2913H508.44ZM93.9654 149H82.2495V107.291H93.9654V149ZM126.466 114.087V107.291H137.596V149H125.236L116.39 134.179C114.008 130.157 112.094 126.72 110.649 123.869C110.844 129.61 110.942 135.722 110.942 142.205V149H99.8119V107.291H112.172L121.018 122.112C123.127 125.705 125.04 129.161 126.759 132.481C126.563 126.74 126.466 120.608 126.466 114.087ZM160.039 149.937C154.064 149.937 149.455 148.629 146.214 146.012C143.012 143.396 141.41 139.823 141.41 135.292H152.658C152.697 137.479 153.341 138.983 154.591 139.803C155.84 140.623 157.813 141.033 160.507 141.033C164.413 141.033 166.365 139.783 166.365 137.284C166.365 136.112 165.916 135.253 165.018 134.707C164.12 134.16 162.382 133.672 159.804 133.242L156.524 132.715C146.878 131.153 142.055 126.662 142.055 119.242C142.055 115.297 143.519 112.173 146.448 109.869C149.416 107.526 153.654 106.354 159.16 106.354C164.706 106.354 169.001 107.526 172.048 109.869C175.094 112.173 176.734 115.59 176.968 120.12H165.955C165.877 118.441 165.311 117.211 164.256 116.43C163.202 115.649 161.562 115.258 159.336 115.258C155.782 115.258 154.005 116.41 154.005 118.714C154.005 119.886 154.454 120.765 155.352 121.35C156.251 121.936 157.832 122.424 160.097 122.815L163.553 123.401C168.748 124.26 172.516 125.724 174.859 127.794C177.242 129.825 178.433 132.695 178.433 136.405C178.433 140.818 176.812 144.177 173.571 146.481C170.329 148.785 165.819 149.937 160.039 149.937ZM178.759 107.291H215.079V117.718H202.777V149H191.061V117.718H178.759V107.291ZM253.838 139.217L254.072 144.782C254.15 146.501 254.502 147.907 255.127 149H243.059C242.591 148.102 242.317 146.696 242.239 144.782L242.063 140.037C241.985 137.928 241.497 136.503 240.599 135.761C239.74 134.98 238.334 134.589 236.381 134.589H230.289V149H218.573V107.291H239.076C244.387 107.291 248.312 108.443 250.85 110.747C253.35 113.091 254.6 116.059 254.6 119.652C254.6 121.8 254.033 123.733 252.901 125.451C251.807 127.169 250.206 128.497 248.097 129.434C250.206 130.215 251.651 131.348 252.432 132.832C253.252 134.316 253.721 136.444 253.838 139.217ZM230.289 116.43V126.037H237.319C240.794 126.037 242.532 124.436 242.532 121.233C242.532 118.031 240.794 116.43 237.319 116.43H230.289ZM277.121 149.937C271.575 149.937 267.084 148.473 263.647 145.544C260.133 142.615 258.375 138.436 258.375 133.008V107.291H270.091V133.125C270.091 135.312 270.696 136.991 271.907 138.163C273.157 139.334 274.895 139.92 277.121 139.92C279.347 139.92 281.065 139.334 282.276 138.163C283.525 136.991 284.15 135.312 284.15 133.125V107.291H295.866V133.008C295.866 138.514 294.167 142.712 290.77 145.602C287.333 148.492 282.783 149.937 277.121 149.937ZM327.249 123.108L331.232 107.291H349.158V149H338.027V137.167C338.027 129.512 338.145 123.01 338.379 117.66C337.52 121.097 336.7 124.182 335.919 126.915L329.885 149H320.395L314.361 126.915C313.58 124.182 312.76 121.097 311.901 117.66C312.135 123.01 312.252 129.512 312.252 137.167V149H301.122V107.291H319.048L323.031 123.108C324.046 127.169 324.749 130.157 325.14 132.07C325.53 130.157 326.233 127.169 327.249 123.108ZM387.933 107.291V117.718H366.727V123.225H386.058V132.949H366.727V138.573H387.933V149H355.011V107.291H387.933ZM418.964 114.087V107.291H430.094V149H417.733L408.888 134.179C406.506 130.157 404.592 126.72 403.147 123.869C403.342 129.61 403.44 135.722 403.44 142.205V149H392.31V107.291H404.67L413.516 122.112C415.624 125.705 417.538 129.161 419.256 132.481C419.061 126.74 418.964 120.608 418.964 114.087ZM433.615 107.291H469.935V117.718H457.633V149H445.917V117.718H433.615V107.291ZM489.721 149.937C483.746 149.937 479.138 148.629 475.896 146.012C472.694 143.396 471.093 139.823 471.093 135.292H482.34C482.379 137.479 483.023 138.983 484.273 139.803C485.523 140.623 487.495 141.033 490.19 141.033C494.095 141.033 496.047 139.783 496.047 137.284C496.047 136.112 495.598 135.253 494.7 134.707C493.802 134.16 492.064 133.672 489.487 133.242L486.206 132.715C476.56 131.153 471.737 126.662 471.737 119.242C471.737 115.297 473.201 112.173 476.13 109.869C479.098 107.526 483.336 106.354 488.842 106.354C494.388 106.354 498.684 107.526 501.73 109.869C504.776 112.173 506.416 115.59 506.65 120.12H495.637C495.559 118.441 494.993 117.211 493.939 116.43C492.884 115.649 491.244 115.258 489.018 115.258C485.464 115.258 483.687 116.41 483.687 118.714C483.687 119.886 484.136 120.765 485.035 121.35C485.933 121.936 487.514 122.424 489.779 122.815L493.236 123.401C498.43 124.26 502.198 125.724 504.542 127.794C506.924 129.825 508.115 132.695 508.115 136.405C508.115 140.818 506.494 144.177 503.253 146.481C500.011 148.785 495.501 149.937 489.721 149.937Z" fill="black" />
  <path d="M0.747589 170.748C0.0558777 171.439 0.0558776 172.561 0.747589 173.252L12.0193 184.524C12.711 185.216 13.8325 185.216 14.5242 184.524C15.2159 183.832 15.2159 182.711 14.5242 182.019L4.50482 172L14.5242 161.981C15.2159 161.289 15.2159 160.167 14.5242 159.476C13.8325 158.784 12.711 158.784 12.0193 159.476L0.747589 170.748ZM494 170.229L2 170.229L2 173.771L494 173.771L494 170.229Z" fill="#1B2534" />
  <path d="M254.187 98.0004L264.12 61.0002L274.187 98.0006L263.931 87.3308L254.187 98.0004Z" fill="#56B953" />
  <path d="M263.841 87.1128L257.687 94.0762H270.369L263.841 87.1128Z" fill="white" />
</svg>