<svg width="167" height="32" viewBox="0 0 167 32" fill="none" xmlns="http://www.w3.org/2000/svg">
  <path d="M161.752 30.9418C161.974 31.1641 162.335 31.1641 162.557 30.9418L166.18 27.3191C166.402 27.0968 166.402 26.7363 166.18 26.514C165.957 26.2917 165.597 26.2917 165.375 26.514L162.154 29.7342L158.934 26.514C158.712 26.2917 158.351 26.2917 158.129 26.514C157.907 26.7363 157.907 27.0968 158.129 27.3191L161.752 30.9418ZM161.585 14.1084L161.585 30.5393L162.724 30.5393L162.724 14.1084L161.585 14.1084Z" fill="#1B2534"/>
  <path d="M14.9307 4.86038L15.8137 0.925293H19.8256L16.14 14.5925H11.8402L10.9956 10.5423C10.5989 8.60991 10.2918 6.9463 10.0742 5.55142C9.8311 7.06147 9.51757 8.72508 9.13366 10.5423L8.28906 14.5925H3.98926L0.303711 0.925293H4.31558L5.19858 4.86038C5.76164 7.3558 6.14556 9.17938 6.35031 10.3311C6.64464 8.53953 6.98376 6.71595 7.36767 4.86038L8.17389 0.925293H11.9554L12.7616 4.86038C13.1455 6.71595 13.4847 8.53953 13.779 10.3311C13.9965 9.17938 14.3804 7.3558 14.9307 4.86038Z" fill="black"/>
  <path d="M24.5253 14.5925H20.6862V0.925293H24.5253V14.5925Z" fill="black"/>
  <path d="M26.4411 0.925293H32.411C34.7784 0.925293 36.5508 1.53955 37.7281 2.76807C38.9055 4.00938 39.4941 5.67299 39.4941 7.75891C39.4941 9.84482 38.9055 11.5084 37.7281 12.7498C36.5508 13.9783 34.7784 14.5925 32.411 14.5925H26.4411V0.925293ZM30.2803 11.3677H32.3342C34.4457 11.3677 35.5014 10.1648 35.5014 7.75891C35.5014 5.35307 34.4457 4.15015 32.3342 4.15015H30.2803V11.3677Z" fill="black"/>
  <path d="M51.6257 0.925293V4.3421H44.6769V6.14648H51.0115V9.33294H44.6769V11.1757H51.6257V14.5925H40.8378V0.925293H51.6257Z" fill="black"/>
  <path d="M69.3958 11.3869L69.4726 13.2104C69.4982 13.7735 69.6134 14.2342 69.8181 14.5925H65.8639C65.7103 14.2982 65.6207 13.8375 65.5951 13.2104L65.5375 11.6556C65.5119 10.9646 65.352 10.4975 65.0576 10.2543C64.7761 9.99839 64.3154 9.87042 63.6756 9.87042H61.6792V14.5925H57.8401V0.925293H64.5586C66.299 0.925293 67.5851 1.30281 68.4169 2.05783C69.2359 2.82565 69.6454 3.79823 69.6454 4.97555C69.6454 5.67939 69.4598 6.31284 69.0887 6.87591C68.7304 7.43898 68.2057 7.87408 67.5147 8.18121C68.2057 8.43715 68.6792 8.80826 68.9351 9.29455C69.2039 9.78084 69.3574 10.4783 69.3958 11.3869ZM61.6792 3.9198V7.06787H63.9827C65.1216 7.06787 65.6911 6.54319 65.6911 5.49383C65.6911 4.44448 65.1216 3.9198 63.9827 3.9198H61.6792Z" fill="black"/>
  <path d="M84.4177 14.5925H80.3483L79.7724 12.8073H74.4168L73.841 14.5925H69.9251L74.7815 0.925293H79.3885L84.4177 14.5925ZM76.4132 6.492L75.415 9.64007H78.7358L77.7185 6.492C77.3601 5.39146 77.1426 4.66843 77.0658 4.32291C76.7459 5.38506 76.5283 6.10809 76.4132 6.492Z" fill="black"/>
  <path d="M93.924 3.15198V0.925293H97.5711V14.5925H93.5209L90.6224 9.73605C89.8417 8.41796 89.2147 7.29182 88.7412 6.35763C88.8052 8.2388 88.8372 10.2415 88.8372 12.3658V14.5925H85.19V0.925293H89.2403L92.1388 5.78177C92.8299 6.95909 93.4569 8.09163 94.02 9.17938C93.956 7.29822 93.924 5.28908 93.924 3.15198Z" fill="black"/>
  <path d="M106.442 9.67846V6.76074H112.911V14.5925H110.3L109.916 12.8073C109.494 13.4856 108.892 14.0039 108.112 14.3622C107.331 14.7205 106.461 14.8997 105.501 14.8997C103.505 14.8997 101.912 14.2534 100.721 12.9609C99.5186 11.6812 98.9171 9.9472 98.9171 7.75891C98.9171 5.57062 99.5441 3.83022 100.798 2.53772C102.04 1.25802 103.774 0.618164 106 0.618164C107.856 0.618164 109.385 1.05966 110.588 1.94266C111.817 2.83845 112.533 4.05417 112.738 5.58981H108.822C108.425 4.46367 107.498 3.9006 106.039 3.9006C105.053 3.9006 104.285 4.23972 103.735 4.91797C103.185 5.59621 102.91 6.54319 102.91 7.75891C102.91 8.97463 103.198 9.92161 103.774 10.5998C104.362 11.2781 105.188 11.6172 106.25 11.6172C106.928 11.6172 107.51 11.4445 107.997 11.0989C108.496 10.7406 108.816 10.2671 108.956 9.67846H106.442Z" fill="black"/>
  <path d="M125.427 0.925293V4.3421H118.479V6.14648H124.813V9.33294H118.479V11.1757H125.427V14.5925H114.639V0.925293H125.427Z" fill="black"/>
  <path d="M143.447 12.9417C142.129 14.247 140.395 14.8997 138.245 14.8997C136.095 14.8997 134.361 14.247 133.043 12.9417C131.725 11.662 131.066 9.9344 131.066 7.75891C131.066 5.59621 131.725 3.86221 133.043 2.55691C134.374 1.26441 136.108 0.618164 138.245 0.618164C140.382 0.618164 142.116 1.26441 143.447 2.55691C144.765 3.86221 145.424 5.59621 145.424 7.75891C145.424 9.9344 144.765 11.662 143.447 12.9417ZM135.922 10.5615C136.498 11.2397 137.272 11.5788 138.245 11.5788C139.218 11.5788 139.992 11.2397 140.568 10.5615C141.144 9.89601 141.431 8.96183 141.431 7.75891C141.431 6.58158 141.144 5.6538 140.568 4.97555C139.992 4.28451 139.218 3.93899 138.245 3.93899C137.272 3.93899 136.498 4.28451 135.922 4.97555C135.346 5.6538 135.059 6.58158 135.059 7.75891C135.059 8.96183 135.346 9.89601 135.922 10.5615Z" fill="black"/>
  <path d="M157.173 0.925293V4.3421H150.609V6.12729H156.751V9.35214H150.609V14.5925H146.769V0.925293H157.173Z" fill="black"/>
  <path d="M15.668 31.3043H11.8289V17.6371H15.668V31.3043Z" fill="black"/>
  <path d="M26.3178 19.8638V17.6371H29.965V31.3043H25.9147L23.0162 26.4479C22.2356 25.1298 21.6085 24.0036 21.135 23.0695C21.199 24.9506 21.231 26.9534 21.231 29.0777V31.3043H17.5838V17.6371H21.6341L24.5326 22.4936C25.2237 23.6709 25.8507 24.8035 26.4138 25.8912C26.3498 24.01 26.3178 22.0009 26.3178 19.8638Z" fill="black"/>
  <path d="M37.3191 31.6115C35.3612 31.6115 33.8511 31.1828 32.789 30.3254C31.7396 29.468 31.2149 28.297 31.2149 26.8126H34.9005C34.9133 27.5292 35.1244 28.0219 35.5339 28.2906C35.9434 28.5594 36.5897 28.6938 37.4727 28.6938C38.7524 28.6938 39.3922 28.2842 39.3922 27.4652C39.3922 27.0813 39.2451 26.7998 38.9507 26.6206C38.6564 26.4415 38.0869 26.2815 37.2423 26.1407L36.1674 25.968C33.0065 25.4561 31.4261 23.9844 31.4261 21.553C31.4261 20.2605 31.906 19.2367 32.8657 18.4817C33.8383 17.7139 35.2268 17.33 37.0312 17.33C38.8484 17.33 40.256 17.7139 41.2542 18.4817C42.2524 19.2367 42.7898 20.3565 42.8666 21.8409H39.2579C39.2323 21.2907 39.0467 20.8876 38.7012 20.6316C38.3557 20.3757 37.8182 20.2477 37.0888 20.2477C35.9242 20.2477 35.342 20.6252 35.342 21.3802C35.342 21.7642 35.4891 22.0521 35.7835 22.244C36.0778 22.436 36.5961 22.596 37.3383 22.7239L38.4708 22.9159C40.1728 23.1974 41.4078 23.6773 42.1756 24.3556C42.9562 25.021 43.3465 25.9616 43.3465 27.1773C43.3465 28.6234 42.8154 29.7239 41.7533 30.4789C40.6911 31.234 39.2131 31.6115 37.3191 31.6115Z" fill="black"/>
  <path d="M43.4536 17.6371H55.3548V21.0539H51.3238V31.3043H47.4846V21.0539H43.4536V17.6371Z" fill="black"/>
  <path d="M68.0555 28.0987L68.1323 29.9223C68.1579 30.4853 68.2731 30.946 68.4778 31.3043H64.5235C64.37 31.01 64.2804 30.5493 64.2548 29.9223L64.1972 28.3674C64.1716 27.6764 64.0117 27.2093 63.7173 26.9662C63.4358 26.7102 62.9751 26.5822 62.3353 26.5822H60.3389V31.3043H56.4998V17.6371H63.2182C64.9586 17.6371 66.2447 18.0146 67.0766 18.7697C67.8956 19.5375 68.3051 20.5101 68.3051 21.6874C68.3051 22.3912 68.1195 23.0247 67.7484 23.5877C67.3901 24.1508 66.8654 24.5859 66.1744 24.893C66.8654 25.149 67.3389 25.5201 67.5948 26.0064C67.8636 26.4927 68.0171 27.1901 68.0555 28.0987ZM60.3389 20.6316V23.7797H62.6424C63.7813 23.7797 64.3508 23.255 64.3508 22.2057C64.3508 21.1563 63.7813 20.6316 62.6424 20.6316H60.3389Z" fill="black"/>
  <path d="M75.6849 31.6115C73.8677 31.6115 72.396 31.1316 71.2699 30.1718C70.1181 29.212 69.5423 27.8428 69.5423 26.064V17.6371H73.3814V26.1024C73.3814 26.819 73.5797 27.3693 73.9765 27.7532C74.386 28.1371 74.9554 28.329 75.6849 28.329C76.4143 28.329 76.9774 28.1371 77.3741 27.7532C77.7836 27.3693 77.9883 26.819 77.9883 26.1024V17.6371H81.8274V26.064C81.8274 27.8683 81.2708 29.244 80.1574 30.191C79.0313 31.138 77.5404 31.6115 75.6849 31.6115Z" fill="black"/>
  <path d="M92.111 22.8199L93.4163 17.6371H99.2901V31.3043H95.643V27.4268C95.643 24.9186 95.6814 22.7879 95.7582 21.0347C95.4766 22.1609 95.2079 23.1718 94.9519 24.0676L92.9748 31.3043H89.8651L87.888 24.0676C87.632 23.1718 87.3633 22.1609 87.0818 21.0347C87.1585 22.7879 87.1969 24.9186 87.1969 27.4268V31.3043H83.5498V17.6371H89.4236L90.7289 22.8199C91.0616 24.1508 91.292 25.1298 91.42 25.7568C91.5479 25.1298 91.7783 24.1508 92.111 22.8199Z" fill="black"/>
  <path d="M111.996 17.6371V21.0539H105.047V22.8583H111.382V26.0448H105.047V27.8875H111.996V31.3043H101.208V17.6371H111.996Z" fill="black"/>
  <path d="M122.164 19.8638V17.6371H125.811V31.3043H121.761L118.863 26.4479C118.082 25.1298 117.455 24.0036 116.982 23.0695C117.046 24.9506 117.078 26.9534 117.078 29.0777V31.3043H113.43V17.6371H117.481L120.379 22.4936C121.07 23.6709 121.697 24.8035 122.26 25.8912C122.196 24.01 122.164 22.0009 122.164 19.8638Z" fill="black"/>
  <path d="M126.965 17.6371H138.867V21.0539H134.836V31.3043H130.997V21.0539H126.965V17.6371Z" fill="black"/>
  <path d="M145.35 31.6115C143.392 31.6115 141.882 31.1828 140.82 30.3254C139.771 29.468 139.246 28.297 139.246 26.8126H142.932C142.944 27.5292 143.156 28.0219 143.565 28.2906C143.975 28.5594 144.621 28.6938 145.504 28.6938C146.784 28.6938 147.423 28.2842 147.423 27.4652C147.423 27.0813 147.276 26.7998 146.982 26.6206C146.688 26.4415 146.118 26.2815 145.274 26.1407L144.199 25.968C141.038 25.4561 139.457 23.9844 139.457 21.553C139.457 20.2605 139.937 19.2367 140.897 18.4817C141.87 17.7139 143.258 17.33 145.062 17.33C146.88 17.33 148.287 17.7139 149.285 18.4817C150.284 19.2367 150.821 20.3565 150.898 21.8409H147.289C147.263 21.2907 147.078 20.8876 146.732 20.6316C146.387 20.3757 145.849 20.2477 145.12 20.2477C143.955 20.2477 143.373 20.6252 143.373 21.3802C143.373 21.7642 143.52 22.0521 143.815 22.244C144.109 22.436 144.627 22.596 145.37 22.7239L146.502 22.9159C148.204 23.1974 149.439 23.6773 150.207 24.3556C150.987 25.021 151.378 25.9616 151.378 27.1773C151.378 28.6234 150.847 29.7239 149.784 30.4789C148.722 31.234 147.244 31.6115 145.35 31.6115Z" fill="black"/>
  </svg>
  