<svg width="1319" height="234" viewBox="0 0 1319 234" fill="none" xmlns="http://www.w3.org/2000/svg">
  <path d="M847.817 35.5338V50.4003H817.582V58.2512H845.144V72.1155H817.582V80.1334H847.817V95H800.878V35.5338H847.817ZM896.819 35.5338V50.4003H868.255V58.1677H894.982V72.199H868.255V95H851.551V35.5338H896.819ZM944.556 35.5338V50.4003H915.992V58.1677H942.719V72.199H915.992V95H899.288V35.5338H944.556ZM999.206 87.8173C993.471 93.4966 985.926 96.3363 976.572 96.3363C967.217 96.3363 959.673 93.4966 953.938 87.8173C948.203 82.2493 945.335 74.7325 945.335 65.2669C945.335 55.857 948.203 48.3123 953.938 42.633C959.729 37.0093 967.273 34.1974 976.572 34.1974C985.87 34.1974 993.415 37.0093 999.206 42.633C1004.94 48.3123 1007.81 55.857 1007.81 65.2669C1007.81 74.7325 1004.94 82.2493 999.206 87.8173ZM966.466 77.4608C968.971 80.4118 972.34 81.8874 976.572 81.8874C980.803 81.8874 984.172 80.4118 986.678 77.4608C989.183 74.5654 990.436 70.5008 990.436 65.2669C990.436 60.1443 989.183 56.1075 986.678 53.1565C984.172 50.1498 980.803 48.6464 976.572 48.6464C972.34 48.6464 968.971 50.1498 966.466 53.1565C963.96 56.1075 962.707 60.1443 962.707 65.2669C962.707 70.5008 963.96 74.5654 966.466 77.4608ZM1061.44 81.0522L1061.77 88.9866C1061.88 91.4365 1062.38 93.441 1063.27 95H1046.07C1045.4 93.7194 1045.01 91.7149 1044.9 88.9866L1044.65 82.2214C1044.54 79.2147 1043.84 77.1824 1042.56 76.1245C1041.33 75.0109 1039.33 74.4541 1036.55 74.4541H1027.86V95H1011.16V35.5338H1040.39C1047.96 35.5338 1053.56 37.1763 1057.18 40.4614C1060.74 43.8022 1062.52 48.0339 1062.52 53.1565C1062.52 56.2189 1061.71 58.975 1060.1 61.425C1058.54 63.8749 1056.26 65.768 1053.25 67.1043C1056.26 68.2179 1058.32 69.8326 1059.43 71.9485C1060.6 74.0643 1061.27 77.0989 1061.44 81.0522ZM1027.86 48.5629V62.2602H1037.88C1042.84 62.2602 1045.32 59.9773 1045.32 55.4115C1045.32 50.8458 1042.84 48.5629 1037.88 48.5629H1027.86ZM1062.89 35.5338H1114.68V50.4003H1097.14V95H1080.43V50.4003H1062.89V35.5338ZM1133.86 35.5338V80.1334H1160.16V95H1117.15V35.5338H1133.86ZM1209.62 35.5338V50.4003H1179.39V58.2512H1206.95V72.1155H1179.39V80.1334H1209.62V95H1162.69V35.5338H1209.62ZM1237.4 96.3363C1228.88 96.3363 1222.31 94.471 1217.69 90.7405C1213.13 87.0099 1210.84 81.9152 1210.84 75.4563H1226.88C1226.94 78.5744 1227.85 80.7181 1229.64 81.8874C1231.42 83.0566 1234.23 83.6413 1238.07 83.6413C1243.64 83.6413 1246.42 81.8595 1246.42 78.296C1246.42 76.6256 1245.78 75.4006 1244.5 74.6211C1243.22 73.8416 1240.74 73.1456 1237.07 72.5331L1232.39 71.7814C1218.64 69.5542 1211.76 63.151 1211.76 52.5718C1211.76 46.9482 1213.85 42.4938 1218.03 39.2086C1222.26 35.8678 1228.3 34.1974 1236.15 34.1974C1244.06 34.1974 1250.18 35.8678 1254.53 39.2086C1258.87 42.4938 1261.21 47.3658 1261.54 53.8246H1245.84C1245.73 51.4304 1244.92 49.6765 1243.42 48.5629C1241.91 47.4493 1239.57 46.8925 1236.4 46.8925C1231.33 46.8925 1228.8 48.535 1228.8 51.8202C1228.8 53.4906 1229.44 54.7434 1230.72 55.5786C1232 56.4138 1234.26 57.1098 1237.49 57.6666L1242.41 58.5018C1249.82 59.7267 1255.19 61.8147 1258.53 64.7658C1261.93 67.6611 1263.63 71.7536 1263.63 77.0432C1263.63 83.335 1261.32 88.1235 1256.7 91.4086C1252.08 94.6938 1245.64 96.3363 1237.4 96.3363ZM1291.01 96.3363C1282.49 96.3363 1275.92 94.471 1271.3 90.7405C1266.74 87.0099 1264.45 81.9152 1264.45 75.4563H1280.49C1280.55 78.5744 1281.46 80.7181 1283.25 81.8874C1285.03 83.0566 1287.84 83.6413 1291.68 83.6413C1297.25 83.6413 1300.03 81.8595 1300.03 78.296C1300.03 76.6256 1299.39 75.4006 1298.11 74.6211C1296.83 73.8416 1294.35 73.1456 1290.68 72.5331L1286 71.7814C1272.25 69.5542 1265.37 63.151 1265.37 52.5718C1265.37 46.9482 1267.46 42.4938 1271.64 39.2086C1275.87 35.8678 1281.91 34.1974 1289.76 34.1974C1297.67 34.1974 1303.79 35.8678 1308.13 39.2086C1312.48 42.4938 1314.82 47.3658 1315.15 53.8246H1299.45C1299.34 51.4304 1298.53 49.6765 1297.03 48.5629C1295.52 47.4493 1293.18 46.8925 1290.01 46.8925C1284.94 46.8925 1282.41 48.535 1282.41 51.8202C1282.41 53.4906 1283.05 54.7434 1284.33 55.5786C1285.61 56.4138 1287.87 57.1098 1291.1 57.6666L1296.02 58.5018C1303.43 59.7267 1308.8 61.8147 1312.14 64.7658C1315.54 67.6611 1317.24 71.7536 1317.24 77.0432C1317.24 83.335 1314.93 88.1235 1310.31 91.4086C1305.68 94.6938 1299.25 96.3363 1291.01 96.3363Z" fill="#3C3078" />
  <path d="M103.706 222H74.6621L70.5521 209.259H32.3291L28.2191 222H0.271055L34.9321 124.456H67.8121L103.706 222ZM46.5771 164.186L39.4531 186.654H63.1541L55.8931 164.186C53.3357 156.331 51.7831 151.171 51.2351 148.705C48.9517 156.286 47.3991 161.446 46.5771 164.186ZM146.187 224.192C131.025 224.192 118.924 219.58 109.882 210.355C100.748 201.222 96.1818 188.846 96.1818 173.228C96.1818 157.61 100.657 145.189 109.608 135.964C118.467 126.831 130.66 122.264 146.187 122.264C158.699 122.264 169.385 125.643 178.245 132.402C186.921 139.252 192.173 148.705 194 160.761H166.326C165.047 155.92 162.627 152.221 159.065 149.664C155.503 147.015 151.21 145.691 146.187 145.691C139.154 145.691 133.811 148.066 130.158 152.815C126.504 157.564 124.678 164.369 124.678 173.228C124.678 182.087 126.504 188.892 130.158 193.641C133.811 198.39 139.154 200.765 146.187 200.765C151.667 200.765 156.188 199.304 159.75 196.381C163.403 193.367 165.732 189.166 166.737 183.777H194.137C192.584 196.564 187.469 206.473 178.793 213.506C170.025 220.63 159.156 224.192 146.187 224.192ZM245.496 224.192C230.334 224.192 218.233 219.58 209.191 210.355C200.057 201.222 195.491 188.846 195.491 173.228C195.491 157.61 199.966 145.189 208.917 135.964C217.776 126.831 229.969 122.264 245.496 122.264C258.008 122.264 268.694 125.643 277.554 132.402C286.23 139.252 291.482 148.705 293.309 160.761H265.635C264.356 155.92 261.936 152.221 258.374 149.664C254.812 147.015 250.519 145.691 245.496 145.691C238.463 145.691 233.12 148.066 229.467 152.815C225.813 157.564 223.987 164.369 223.987 173.228C223.987 182.087 225.813 188.892 229.467 193.641C233.12 198.39 238.463 200.765 245.496 200.765C250.976 200.765 255.497 199.304 259.059 196.381C262.712 193.367 265.041 189.166 266.046 183.777H293.446C291.893 196.564 286.778 206.473 278.102 213.506C269.334 220.63 258.465 224.192 245.496 224.192ZM383.165 210.218C373.757 219.534 361.382 224.192 346.038 224.192C330.694 224.192 318.318 219.534 308.911 210.218C299.503 201.085 294.8 188.755 294.8 173.228C294.8 157.793 299.503 145.417 308.911 136.101C318.409 126.876 330.785 122.264 346.038 122.264C361.29 122.264 373.666 126.876 383.165 136.101C392.572 145.417 397.276 157.793 397.276 173.228C397.276 188.755 392.572 201.085 383.165 210.218ZM329.461 193.23C333.571 198.071 339.096 200.491 346.038 200.491C352.979 200.491 358.505 198.071 362.615 193.23C366.725 188.481 368.78 181.813 368.78 173.228C368.78 164.825 366.725 158.204 362.615 153.363C358.505 148.431 352.979 145.965 346.038 145.965C339.096 145.965 333.571 148.431 329.461 153.363C325.351 158.204 323.296 164.825 323.296 173.228C323.296 181.813 325.351 188.481 329.461 193.23ZM445.237 224.192C432.268 224.192 421.765 220.767 413.727 213.917C405.507 207.067 401.397 197.294 401.397 184.599V124.456H428.797V184.873C428.797 189.988 430.213 193.915 433.044 196.655C435.967 199.395 440.031 200.765 445.237 200.765C450.443 200.765 454.462 199.395 457.293 196.655C460.216 193.915 461.677 189.988 461.677 184.873V124.456H489.077V184.599C489.077 197.477 485.104 207.295 477.158 214.054C469.121 220.813 458.481 224.192 445.237 224.192ZM559.595 140.348V124.456H585.625V222H556.718L536.031 187.339C530.46 177.932 525.984 169.894 522.605 163.227C523.062 176.653 523.29 190.947 523.29 206.108V222H497.26V124.456H526.167L546.854 159.117C551.786 167.52 556.261 175.603 560.28 183.366C559.823 169.94 559.595 155.601 559.595 140.348ZM589.751 124.456H674.691V148.842H645.921V222H618.521V148.842H589.751V124.456ZM793.014 210.218C783.607 219.534 771.231 224.192 755.887 224.192C740.543 224.192 728.167 219.534 718.76 210.218C709.353 201.085 704.649 188.755 704.649 173.228C704.649 157.793 709.353 145.417 718.76 136.101C728.259 126.876 740.634 122.264 755.887 122.264C771.14 122.264 783.515 126.876 793.014 136.101C802.421 145.417 807.125 157.793 807.125 173.228C807.125 188.755 802.421 201.085 793.014 210.218ZM739.31 193.23C743.42 198.071 748.946 200.491 755.887 200.491C762.828 200.491 768.354 198.071 772.464 193.23C776.574 188.481 778.629 181.813 778.629 173.228C778.629 164.825 776.574 158.204 772.464 153.363C768.354 148.431 762.828 145.965 755.887 145.965C748.946 145.965 743.42 148.431 739.31 153.363C735.2 158.204 733.145 164.825 733.145 173.228C733.145 181.813 735.2 188.481 739.31 193.23ZM812.617 124.456H858.375C870.066 124.456 879.199 127.516 885.775 133.635C892.442 139.663 895.776 147.929 895.776 158.432C895.776 168.935 892.442 177.247 885.775 183.366C879.199 189.394 870.066 192.408 858.375 192.408H840.017V222H812.617V124.456ZM840.017 169.392H856.32C860.156 169.392 863.124 168.479 865.225 166.652C867.417 164.734 868.513 161.994 868.513 158.432C868.513 154.87 867.417 152.176 865.225 150.349C863.124 148.431 860.156 147.472 856.32 147.472H840.017V169.392ZM978.217 124.456V148.842H928.623V161.72H973.833V184.462H928.623V197.614H978.217V222H901.223V124.456H978.217ZM1046.68 140.348V124.456H1072.71V222H1043.8L1023.11 187.339C1017.54 177.932 1013.07 169.894 1009.69 163.227C1010.14 176.653 1010.37 190.947 1010.37 206.108V222H984.343V124.456H1013.25L1033.94 159.117C1038.87 167.52 1043.34 175.603 1047.36 183.366C1046.91 169.94 1046.68 155.601 1046.68 140.348ZM1109.71 222H1082.31V124.456H1109.71V222ZM1181.61 140.348V124.456H1207.64V222H1178.74L1158.05 187.339C1152.48 177.932 1148 169.894 1144.62 163.227C1145.08 176.653 1145.31 190.947 1145.31 206.108V222H1119.28V124.456H1148.18L1168.87 159.117C1173.8 167.52 1178.28 175.603 1182.3 183.366C1181.84 169.94 1181.61 155.601 1181.61 140.348ZM1266.84 186.928V166.104H1313.01V222H1294.38L1291.64 209.259C1288.63 214.1 1284.33 217.799 1278.76 220.356C1273.19 222.913 1266.98 224.192 1260.13 224.192C1245.88 224.192 1234.51 219.58 1226.02 210.355C1217.43 201.222 1213.14 188.846 1213.14 173.228C1213.14 157.61 1217.61 145.189 1226.56 135.964C1235.42 126.831 1247.8 122.264 1263.69 122.264C1276.93 122.264 1287.85 125.415 1296.43 131.717C1305.2 138.11 1310.32 146.787 1311.78 157.747H1283.83C1281 149.71 1274.38 145.691 1263.97 145.691C1256.93 145.691 1251.45 148.111 1247.53 152.952C1243.6 157.793 1241.63 164.551 1241.63 173.228C1241.63 181.905 1243.69 188.663 1247.8 193.504C1252 198.345 1257.89 200.765 1265.47 200.765C1270.31 200.765 1274.47 199.532 1277.94 197.066C1281.5 194.509 1283.78 191.129 1284.79 186.928H1266.84Z" fill="#1B2534" />
  <path d="M51.5 149.5L28 222.5L51.5 210L74.5 222.5L51.5 149.5Z" fill="#56B953" />
</svg>