<svg width="1159" height="171" viewBox="0 0 1159 171" fill="none" xmlns="http://www.w3.org/2000/svg">
  <path d="M0.721249 2.34182H75.7348V23.878H50.327V88.4865H26.1291V23.878H0.721249V2.34182ZM152.158 68.2812L152.642 79.7752C152.803 83.3242 153.529 86.228 154.82 88.4865H129.896C128.928 86.6313 128.363 83.7275 128.202 79.7752L127.839 69.975C127.678 65.6194 126.669 62.6753 124.814 61.1428C123.04 59.5296 120.136 58.723 116.103 58.723H103.52V88.4865H79.322V2.34182H121.668C132.638 2.34182 140.744 4.72128 145.987 9.4802C151.15 14.3198 153.731 20.4499 153.731 27.8706C153.731 32.3069 152.561 36.2996 150.222 39.8486C147.963 43.3976 144.656 46.1401 140.301 48.0759C144.656 49.6891 147.641 52.0282 149.254 55.0933C150.948 58.1584 151.916 62.5543 152.158 68.2812ZM103.52 21.2162V41.0585H118.039C125.217 41.0585 128.807 37.7515 128.807 31.1374C128.807 24.5233 125.217 21.2162 118.039 21.2162H103.52ZM243.211 88.4865H217.561L213.931 77.2344H180.175L176.546 88.4865H151.864L182.474 2.34182H211.512L243.211 88.4865ZM192.758 37.4288L186.467 57.2711H207.398L200.986 37.4288C198.727 30.4921 197.356 25.9348 196.872 23.757C194.855 30.4517 193.484 35.009 192.758 37.4288ZM244.449 2.34182H282.077C296.999 2.34182 308.17 6.21349 315.591 13.9568C323.012 21.7808 326.722 32.2666 326.722 45.4141C326.722 58.5617 323.012 69.0474 315.591 76.8714C308.17 84.6148 296.999 88.4865 282.077 88.4865H244.449V2.34182ZM268.647 68.1602H281.593C294.902 68.1602 301.556 60.5782 301.556 45.4141C301.556 30.2501 294.902 22.6681 281.593 22.6681H268.647V68.1602ZM355.76 88.4865H331.562V2.34182H355.76V88.4865ZM419.256 16.3766V2.34182H442.244V88.4865H416.715L398.445 57.8761C393.525 49.5681 389.573 42.4701 386.588 36.5819C386.992 48.4389 387.193 61.0621 387.193 74.4517V88.4865H364.205V2.34182H389.734L408.004 32.9522C412.359 40.3729 416.312 47.5113 419.861 54.3674C419.457 42.5104 419.256 29.8468 419.256 16.3766ZM494.525 57.5131V39.1227H535.299V88.4865H518.844L516.425 77.2344C513.763 81.5094 509.972 84.7761 505.051 87.0346C500.131 89.293 494.646 90.4223 488.597 90.4223C476.014 90.4223 465.972 86.349 458.47 78.2023C450.888 70.1364 447.097 59.207 447.097 45.4141C447.097 31.6213 451.05 20.6516 458.954 12.5049C466.778 4.43897 477.708 0.405982 491.743 0.405982C503.438 0.405982 513.077 3.18874 520.659 8.75427C528.402 14.4005 532.919 22.0631 534.21 31.7423H509.528C507.028 24.6442 501.18 21.0952 491.985 21.0952C485.774 21.0952 480.934 23.2327 477.466 27.5077C473.997 31.7826 472.263 37.7515 472.263 45.4141C472.263 53.0768 474.078 59.0456 477.708 63.3206C481.418 67.5956 486.621 69.7331 493.315 69.7331C497.59 69.7331 501.26 68.6441 504.326 66.4663C507.471 64.2079 509.488 61.2234 510.375 57.5131H494.525ZM653.758 88.4865H628.108L624.479 77.2344H590.723L587.093 88.4865H562.411L593.021 2.34182H622.059L653.758 88.4865ZM603.305 37.4288L597.014 57.2711H617.945L611.533 37.4288C609.274 30.4921 607.903 25.9348 607.419 23.757C605.403 30.4517 604.031 35.009 603.305 37.4288ZM691.274 90.4223C677.885 90.4223 667.197 86.349 659.212 78.2023C651.146 70.1364 647.113 59.207 647.113 45.4141C647.113 31.6213 651.065 20.6516 658.97 12.5049C666.794 4.43897 677.562 0.405982 691.274 0.405982C702.325 0.405982 711.762 3.39039 719.586 9.35922C727.249 15.4087 731.887 23.757 733.5 34.4041H709.06C707.931 30.1291 705.793 26.8624 702.647 24.6039C699.502 22.2648 695.711 21.0952 691.274 21.0952C685.064 21.0952 680.345 23.1924 677.119 27.3867C673.892 31.581 672.279 37.5901 672.279 45.4141C672.279 53.2381 673.892 59.2473 677.119 63.4416C680.345 67.6359 685.064 69.7331 691.274 69.7331C696.114 69.7331 700.107 68.4425 703.252 65.8614C706.479 63.1996 708.536 59.4893 709.423 54.7303H733.621C732.25 66.0227 727.733 74.7743 720.07 80.9851C712.327 87.2766 702.728 90.4223 691.274 90.4223ZM778.978 90.4223C765.588 90.4223 754.901 86.349 746.915 78.2023C738.849 70.1364 734.816 59.207 734.816 45.4141C734.816 31.6213 738.769 20.6516 746.673 12.5049C754.497 4.43897 765.266 0.405982 778.978 0.405982C790.028 0.405982 799.465 3.39039 807.289 9.35922C814.952 15.4087 819.59 23.757 821.203 34.4041H796.763C795.634 30.1291 793.496 26.8624 790.351 24.6039C787.205 22.2648 783.414 21.0952 778.978 21.0952C772.767 21.0952 768.048 23.1924 764.822 27.3867C761.596 31.581 759.982 37.5901 759.982 45.4141C759.982 53.2381 761.596 59.2473 764.822 63.4416C768.048 67.6359 772.767 69.7331 778.978 69.7331C783.817 69.7331 787.81 68.4425 790.956 65.8614C794.182 63.1996 796.239 59.4893 797.126 54.7303H821.324C819.953 66.0227 815.436 74.7743 807.773 80.9851C800.03 87.2766 790.431 90.4223 778.978 90.4223ZM900.558 78.0813C892.25 86.3086 881.321 90.4223 867.77 90.4223C854.219 90.4223 843.29 86.3086 834.982 78.0813C826.674 70.0154 822.52 59.1263 822.52 45.4141C822.52 31.7826 826.674 20.8532 834.982 12.6259C843.37 4.4793 854.3 0.405982 867.77 0.405982C881.24 0.405982 892.169 4.4793 900.558 12.6259C908.866 20.8532 913.02 31.7826 913.02 45.4141C913.02 59.1263 908.866 70.0154 900.558 78.0813ZM853.13 63.0786C856.76 67.3536 861.64 69.4911 867.77 69.4911C873.9 69.4911 878.78 67.3536 882.41 63.0786C886.039 58.8843 887.854 52.9962 887.854 45.4141C887.854 37.9934 886.039 32.1456 882.41 27.8706C878.78 23.515 873.9 21.3372 867.77 21.3372C861.64 21.3372 856.76 23.515 853.13 27.8706C849.5 32.1456 847.686 37.9934 847.686 45.4141C847.686 52.9962 849.5 58.8843 853.13 63.0786ZM955.377 90.4223C943.923 90.4223 934.647 87.3975 927.549 81.3481C920.29 75.2986 916.66 66.668 916.66 55.4563V2.34182H940.858V55.6983C940.858 60.2152 942.108 63.6836 944.609 66.1034C947.19 68.5232 950.779 69.7331 955.377 69.7331C959.974 69.7331 963.523 68.5232 966.024 66.1034C968.605 63.6836 969.896 60.2152 969.896 55.6983V2.34182H994.094V55.4563C994.094 66.8293 990.585 75.5002 983.567 81.4691C976.469 87.4379 967.072 90.4223 955.377 90.4223ZM1056.37 16.3766V2.34182H1079.36V88.4865H1053.83L1035.56 57.8761C1030.64 49.5681 1026.69 42.4701 1023.7 36.5819C1024.11 48.4389 1024.31 61.0621 1024.31 74.4517V88.4865H1001.32V2.34182H1026.85L1045.12 32.9522C1049.47 40.3729 1053.43 47.5113 1056.98 54.3674C1056.57 42.5104 1056.37 29.8468 1056.37 16.3766ZM1083 2.34182H1158.02V23.878H1132.61V88.4865H1108.41V23.878H1083V2.34182Z" fill="#1B2534" />
  <path d="M748.145 169.486H733.545V117.51H748.145V169.486ZM786.455 125.978V117.51H800.325V169.486H784.922L773.899 151.017C770.931 146.005 768.546 141.722 766.745 138.169C766.989 145.323 767.11 152.94 767.11 161.018V169.486H753.24V117.51H768.643L779.666 135.979C782.294 140.457 784.679 144.764 786.82 148.9C786.577 141.746 786.455 134.106 786.455 125.978ZM853.991 137.22L858.955 117.51H881.293V169.486H867.423V154.74C867.423 145.202 867.569 137.099 867.861 130.431C866.79 134.714 865.768 138.559 864.795 141.965L857.276 169.486H845.45L837.931 141.965C836.957 138.559 835.935 134.714 834.865 130.431C835.157 137.099 835.303 145.202 835.303 154.74V169.486H821.433V117.51H843.771L848.735 137.22C850 142.282 850.876 146.005 851.363 148.389C851.849 146.005 852.725 142.282 853.991 137.22ZM900.997 169.486H886.397V117.51H900.997V169.486ZM939.308 125.978V117.51H953.178V169.486H937.775L926.752 151.017C923.783 146.005 921.398 141.722 919.598 138.169C919.841 145.323 919.963 152.94 919.963 161.018V169.486H906.093V117.51H921.496L932.519 135.979C935.147 140.457 937.531 144.764 939.673 148.9C939.429 141.746 939.308 134.106 939.308 125.978ZM980.926 170.654C974.015 170.654 968.419 168.829 964.136 165.179C959.756 161.529 957.566 156.322 957.566 149.557V117.51H972.166V149.703C972.166 152.429 972.92 154.521 974.429 155.981C975.986 157.441 978.152 158.171 980.926 158.171C983.7 158.171 985.841 157.441 987.35 155.981C988.907 154.521 989.686 152.429 989.686 149.703V117.51H1004.29V149.557C1004.29 156.419 1002.17 161.651 997.935 165.252C993.652 168.854 987.983 170.654 980.926 170.654ZM1005.37 117.51H1050.63V130.504H1035.3V169.486H1020.7V130.504H1005.37V117.51ZM1093.82 117.51V130.504H1067.39V137.366H1091.48V149.484H1067.39V156.492H1093.82V169.486H1052.79V117.51H1093.82ZM1118.1 170.654C1110.65 170.654 1104.91 169.024 1100.87 165.763C1096.88 162.503 1094.89 158.05 1094.89 152.404H1108.9C1108.95 155.13 1109.75 157.003 1111.31 158.025C1112.87 159.047 1115.33 159.558 1118.68 159.558C1123.55 159.558 1125.98 158.001 1125.98 154.886C1125.98 153.426 1125.42 152.356 1124.31 151.674C1123.19 150.993 1121.02 150.385 1117.81 149.849L1113.72 149.192C1101.7 147.246 1095.69 141.649 1095.69 132.402C1095.69 127.487 1097.51 123.594 1101.16 120.722C1104.86 117.802 1110.14 116.342 1117.01 116.342C1123.92 116.342 1129.27 117.802 1133.07 120.722C1136.86 123.594 1138.91 127.852 1139.2 133.497H1125.47C1125.38 131.405 1124.67 129.872 1123.36 128.898C1122.04 127.925 1120 127.438 1117.22 127.438C1112.8 127.438 1110.58 128.874 1110.58 131.745C1110.58 133.205 1111.14 134.3 1112.26 135.03C1113.38 135.76 1115.35 136.369 1118.17 136.855L1122.48 137.585C1128.95 138.656 1133.65 140.481 1136.57 143.06C1139.54 145.591 1141.02 149.168 1141.02 153.791C1141.02 159.291 1139 163.476 1134.96 166.347C1130.92 169.219 1125.3 170.654 1118.1 170.654ZM1153.07 150.725H1146.14L1142.27 129.628V117.51H1156.87V129.628L1153.07 150.725ZM1157.02 169.486H1142.12V155.032H1157.02V169.486Z" fill="#3C3078" />
  <path d="M586.495 88.9863L607.495 22.4864L627.995 88.9863L621.117 83.0037L606.169 70.1091L592.421 83.0037L586.495 88.9863Z" fill="#56B953" />
  <path d="M586.495 88.9863L607.495 22.4864L627.995 88.9863L621.117 83.0037L606.169 70.1091L592.421 83.0037L586.495 88.9863Z" fill="black" fill-opacity="0.2" />
  <path d="M606.2 69.9863L585.995 88.9863H628.995L606.2 69.9863Z" fill="white" />
</svg>