<svg width="8" height="10" viewBox="0 0 8 10" fill="none" xmlns="http://www.w3.org/2000/svg">
  <path d="M0.918023 3.61719C0.776076 3.61719 0.639943 3.67358 0.539572 3.77395C0.439201 3.87432 0.382813 4.01045 0.382812 4.1524L0.382813 6.65005C0.382813 6.79199 0.439201 6.92812 0.539572 7.0285C0.639943 7.12887 0.776076 7.18526 0.918023 7.18526C1.05997 7.18526 1.1961 7.12887 1.29647 7.0285C1.39684 6.92812 1.45323 6.79199 1.45323 6.65005V4.1524C1.45323 4.01045 1.39684 3.87432 1.29647 3.77395C1.1961 3.67358 1.05997 3.61719 0.918023 3.61719V3.61719Z" fill="white" />
  <path d="M6.98443 3.61719C6.84248 3.61719 6.70635 3.67358 6.60598 3.77395C6.50561 3.87432 6.44922 4.01045 6.44922 4.1524V6.65005C6.44922 6.79199 6.50561 6.92812 6.60598 7.0285C6.70635 7.12887 6.84248 7.18526 6.98443 7.18526C7.12638 7.18526 7.26251 7.12887 7.36288 7.0285C7.46325 6.92812 7.51964 6.79199 7.51964 6.65005V4.1524C7.51964 4.01045 7.46325 3.87432 7.36288 3.77395C7.26251 3.67358 7.12638 3.61719 6.98443 3.61719V3.61719Z" fill="white" />
  <path d="M5.91578 3.61719H1.9909C1.94359 3.61719 1.89821 3.63599 1.86475 3.66944C1.8313 3.7029 1.8125 3.74828 1.8125 3.79559V6.65005C1.81246 6.85568 1.88347 7.05501 2.01351 7.21431C2.14355 7.3736 2.32464 7.48307 2.52611 7.5242V8.79089C2.52611 8.93284 2.5825 9.06897 2.68287 9.16934C2.78324 9.26971 2.91938 9.3261 3.06132 9.3261C3.20327 9.3261 3.3394 9.26971 3.43977 9.16934C3.54015 9.06897 3.59653 8.93284 3.59653 8.79089V7.5428H4.31015V8.79089C4.31015 8.93284 4.36654 9.06897 4.46691 9.16934C4.56728 9.26971 4.70341 9.3261 4.84536 9.3261C4.9873 9.3261 5.12344 9.26971 5.22381 9.16934C5.32418 9.06897 5.38057 8.93284 5.38057 8.79089V7.5242C5.58223 7.48327 5.76354 7.37388 5.89377 7.21457C6.024 7.05526 6.09515 6.85582 6.09516 6.65005V3.79559C6.09516 3.77208 6.09052 3.7488 6.08149 3.72709C6.07246 3.70539 6.05923 3.68568 6.04256 3.6691C6.02589 3.65252 6.00611 3.6394 5.98435 3.63049C5.96259 3.62158 5.93929 3.61706 5.91578 3.61719Z" fill="white" />
  <path d="M5.2504 1.50398L5.68527 1.06936C5.71945 1.03648 5.73916 0.991378 5.74008 0.943969C5.74099 0.89656 5.72304 0.850728 5.69017 0.816556C5.65729 0.782384 5.61219 0.76267 5.56478 0.761752C5.51737 0.760834 5.47154 0.778787 5.43737 0.811662L5.43296 0.816067L4.92639 1.32264C4.61941 1.1893 4.2883 1.12049 3.95361 1.12049C3.61892 1.12049 3.28781 1.1893 2.98083 1.32264L2.47328 0.816801C2.43927 0.786319 2.39486 0.770043 2.3492 0.771325C2.30355 0.772607 2.26013 0.79135 2.22788 0.823692C2.19563 0.856034 2.17701 0.899512 2.17587 0.94517C2.17472 0.990828 2.19112 1.03519 2.2217 1.06911L2.65633 1.50398C2.39555 1.67655 2.18185 1.91135 2.03453 2.18719C1.88721 2.46303 1.81091 2.77121 1.81252 3.08392C1.81252 3.13123 1.83132 3.17661 1.86478 3.21007C1.89824 3.24353 1.94361 3.26232 1.99093 3.26232H5.9158C5.96312 3.26232 6.0085 3.24353 6.04195 3.21007C6.07541 3.17661 6.09421 3.13123 6.09421 3.08392C6.09582 2.77121 6.01952 2.46303 5.8722 2.18719C5.72488 1.91135 5.51118 1.67655 5.2504 1.50398Z" fill="white" />
</svg>