<svg width="8" height="10" viewBox="0 0 8 10" fill="none" xmlns="http://www.w3.org/2000/svg">
  <path d="M6.65044 5.56402C6.41401 4.3782 7.53986 3.68261 7.53986 3.68261C7.24985 3.2914 6.83567 3.01019 6.36506 2.88497C5.86694 2.763 5.3412 2.83226 4.89165 3.07905C4.71805 3.16231 4.53114 3.21434 4.33949 3.23276C3.80789 3.23276 3.41947 2.66983 2.40596 2.92608C1.70866 3.10206 0.974159 3.90754 0.841259 4.86892C0.743378 5.96348 0.99018 7.06125 1.54712 8.00859C2.09928 8.96043 2.66172 9.31802 3.06091 9.3283C3.4601 9.33857 3.8588 9.0412 4.33925 8.97022C4.8197 8.89925 5.11609 9.14449 5.58748 9.27714C6.05887 9.4098 6.22188 9.28669 6.76229 8.82655C7.3027 8.36642 7.79612 7.04623 7.79612 7.04623C7.49373 6.91867 7.22939 6.71521 7.02868 6.45554C6.82797 6.19587 6.69769 5.88879 6.65044 5.56402Z" fill="white" />
  <path d="M5.60588 2.11715C6.12793 1.58506 5.9522 0.761719 5.9522 0.761719C5.49234 0.855806 5.06825 1.07744 4.72844 1.40125C4.23625 1.91205 4.31751 2.71973 4.31751 2.71973C4.79972 2.6596 5.25062 2.44872 5.60588 2.11715Z" fill="white" />
</svg>