<svg width="886" height="407" viewBox="0 0 886 407" fill="none" xmlns="http://www.w3.org/2000/svg">
  <path d="M65.3506 2.39664V19.0841H23.9081V33.3403H61.5931V49.0332H23.9081V64.3945H65.24V81.082H5.23138V2.39664H65.3506ZM129.674 2.39664V19.0841H90.5527V33.3403H126.691V49.1437H90.5527V81.082H71.876V2.39664H129.674ZM192.65 2.39664V19.0841H153.528V33.3403H189.666V49.1437H153.528V81.082H134.851V2.39664H192.65ZM264.24 71.5779C256.799 79.0928 247.073 82.8502 235.064 82.8502C223.055 82.8502 213.33 79.0928 205.889 71.5779C198.448 63.9893 194.727 54.0431 194.727 41.7393C194.727 29.4355 198.448 19.4893 205.889 11.9008C213.33 4.38587 223.055 0.628423 235.064 0.628423C247.073 0.628423 256.799 4.38587 264.24 11.9008C271.681 19.4893 275.402 29.4355 275.402 41.7393C275.402 54.0431 271.681 63.9893 264.24 71.5779ZM219.924 59.974C223.681 64.3945 228.728 66.6048 235.064 66.6048C241.327 66.6048 246.41 64.3945 250.315 59.974C254.146 55.6272 256.062 49.5489 256.062 41.7393C256.062 33.9297 254.146 27.8515 250.315 23.5047C246.41 19.0841 241.327 16.8739 235.064 16.8739C228.728 16.8739 223.681 19.0841 219.924 23.5047C216.093 27.8515 214.177 33.9297 214.177 41.7393C214.177 49.5489 216.093 55.6272 219.924 59.974ZM346.055 61.5212L346.608 72.5725C346.681 76.1089 347.418 78.9454 348.818 81.082H329.588C328.41 78.8718 327.783 75.9984 327.71 72.462L327.378 63.6209C327.231 59.2741 326.236 56.2902 324.394 54.6694C322.626 52.9748 319.753 52.1276 315.774 52.1276H300.524V81.082H281.847V2.39664H319.09C328.299 2.39664 335.335 4.45955 340.198 8.58538C345.134 12.6375 347.602 18.1632 347.602 25.1624C347.602 34.2244 343.366 40.45 334.893 43.8391C338.945 45.1652 341.745 47.1913 343.292 49.9173C344.913 52.6433 345.834 56.5113 346.055 61.5212ZM300.524 17.3159V38.0924H316.99C320.6 38.0924 323.4 37.2083 325.389 35.4401C327.378 33.5982 328.373 30.9827 328.373 27.5936C328.373 20.7418 324.468 17.3159 316.658 17.3159H300.524ZM348.493 2.39664H415.575V19.0841H391.372V81.082H372.585V19.0841H348.493V2.39664ZM438.993 2.39664V64.3945H475.02V81.082H420.316V2.39664H438.993ZM540.281 2.39664V19.0841H498.839V33.3403H536.524V49.0332H498.839V64.3945H540.17V81.082H480.162V2.39664H540.281ZM577.634 82.8502C566.657 82.8502 558.184 80.419 552.216 75.5564C546.249 70.6938 543.228 63.9156 543.154 55.2219H561.278C561.352 60.0845 562.752 63.4736 565.478 65.3892C568.278 67.3047 572.551 68.2625 578.298 68.2625C587.212 68.2625 591.67 65.2418 591.67 59.2004C591.67 56.5481 590.675 54.5957 588.686 53.3432C586.77 52.0171 583.05 50.8383 577.524 49.8068L571.114 48.5912C553.579 45.6441 544.812 37.4293 544.812 23.9467C544.812 16.8002 547.464 11.1272 552.769 6.92768C558.147 2.72818 565.736 0.628423 575.535 0.628423C585.997 0.628423 593.99 2.83869 599.516 7.25921C605.042 11.6797 607.989 18.0158 608.357 26.2675H590.675C590.454 22.4364 589.165 19.6367 586.807 17.8685C584.523 16.1003 580.876 15.2162 575.866 15.2162C567.836 15.2162 563.82 17.8685 563.82 23.1731C563.82 25.8254 564.778 27.8515 566.694 29.2513C568.683 30.6512 572.182 31.83 577.192 32.7878L583.823 34.0034C593.327 35.6979 600.216 38.4608 604.489 42.2919C608.836 46.0493 611.009 51.2803 611.009 57.9848C611.009 66.0154 608.062 72.1673 602.168 76.4405C596.274 80.7137 588.096 82.8502 577.634 82.8502ZM648.272 82.8502C637.295 82.8502 628.822 80.419 622.854 75.5564C616.887 70.6938 613.866 63.9156 613.792 55.2219H631.916C631.99 60.0845 633.39 63.4736 636.116 65.3892C638.915 67.3047 643.189 68.2625 648.935 68.2625C657.85 68.2625 662.307 65.2418 662.307 59.2004C662.307 56.5481 661.313 54.5957 659.324 53.3432C657.408 52.0171 653.687 50.8383 648.162 49.8068L641.752 48.5912C624.217 45.6441 615.45 37.4293 615.45 23.9467C615.45 16.8002 618.102 11.1272 623.407 6.92768C628.785 2.72818 636.374 0.628423 646.172 0.628423C656.634 0.628423 664.628 2.83869 670.154 7.25921C675.68 11.6797 678.627 18.0158 678.995 26.2675H661.313C661.092 22.4364 659.802 19.6367 657.445 17.8685C655.161 16.1003 651.514 15.2162 646.504 15.2162C638.473 15.2162 634.458 17.8685 634.458 23.1731C634.458 25.8254 635.416 27.8515 637.331 29.2513C639.321 30.6512 642.82 31.83 647.83 32.7878L654.461 34.0034C663.965 35.6979 670.854 38.4608 675.127 42.2919C679.474 46.0493 681.647 51.2803 681.647 57.9848C681.647 66.0154 678.7 72.1673 672.806 76.4405C666.912 80.7137 658.734 82.8502 648.272 82.8502ZM0.700343 110.397H67.7819V127.084H43.5795V189.082H24.7922V127.084H0.700343V110.397ZM136.732 169.521L137.284 180.573C137.358 184.109 138.095 186.945 139.495 189.082H120.265C119.086 186.872 118.46 183.998 118.387 180.462L118.055 171.621C117.908 167.274 116.913 164.29 115.071 162.669C113.303 160.975 110.43 160.128 106.451 160.128H91.2003V189.082H72.5236V110.397H109.767C118.976 110.397 126.012 112.46 130.875 116.585C135.811 120.638 138.279 126.163 138.279 133.162C138.279 142.224 134.043 148.45 125.57 151.839C129.622 153.165 132.422 155.191 133.969 157.917C135.59 160.643 136.511 164.511 136.732 169.521ZM91.2003 125.316V146.092H107.667C111.277 146.092 114.077 145.208 116.066 143.44C118.055 141.598 119.05 138.983 119.05 135.594C119.05 128.742 115.145 125.316 107.335 125.316H91.2003ZM218.842 189.082H199.06L194.419 175.378H161.707L157.176 189.082H138.057L167.011 110.397H189.225L218.842 189.082ZM171.432 146.313L166.901 159.796H189.114L184.583 146.313C183.183 142.335 180.973 135.704 177.952 126.421C174.047 138.43 171.874 145.061 171.432 146.313ZM221.785 110.397H254.055C267.022 110.397 276.968 113.896 283.894 120.895C290.819 127.821 294.282 137.436 294.282 149.739C294.282 162.043 290.819 171.695 283.894 178.694C276.968 185.619 267.022 189.082 254.055 189.082H221.785V110.397ZM240.462 173.279H253.724C260.502 173.279 265.696 171.326 269.306 167.421C272.99 163.443 274.832 157.549 274.832 149.739C274.832 141.93 272.99 136.073 269.306 132.168C265.696 128.189 260.502 126.2 253.724 126.2H240.462V173.279ZM319.41 189.082H300.733V110.397H319.41V189.082ZM380.341 126.863V110.397H398.133V189.082H378.02L358.791 157.696C352.897 147.897 348.808 140.751 346.524 136.257C346.818 146.35 346.966 158.47 346.966 172.616V189.082H329.173V110.397H349.287L368.516 141.782C374.042 150.918 378.131 158.138 380.783 163.443C380.488 153.202 380.341 141.009 380.341 126.863ZM446.806 159.796V145.208H483.054V189.082H470.014L467.803 178.694C462.499 186.798 453.989 190.85 442.275 190.85C430.855 190.85 421.719 187.093 414.868 179.578C408.016 172.21 404.59 162.264 404.59 149.739C404.59 137.067 408.163 127.047 415.31 119.68C422.382 112.312 432.108 108.628 444.485 108.628C454.726 108.628 463.235 111.17 470.014 116.254C476.865 121.411 480.881 128.3 482.06 136.92H462.941C461.836 133.089 459.699 130.105 456.531 127.968C453.363 125.832 449.384 124.763 444.596 124.763C438.186 124.763 433.139 126.974 429.455 131.394C425.845 135.815 424.04 141.93 424.04 149.739C424.04 157.549 425.919 163.664 429.676 168.085C433.507 172.505 438.775 174.715 445.48 174.715C450.342 174.715 454.505 173.352 457.968 170.626C461.504 167.827 463.604 164.217 464.267 159.796H446.806ZM508.626 189.082H489.176V170.074H508.626V189.082ZM5.23138 218.397H37.5012C50.4681 218.397 60.4143 221.896 67.3398 228.895C74.2653 235.821 77.728 245.436 77.728 257.739C77.728 270.043 74.2653 279.695 67.3398 286.694C60.4143 293.619 50.4681 297.082 37.5012 297.082H5.23138V218.397ZM23.9081 281.279H37.1697C43.9478 281.279 49.142 279.326 52.7521 275.421C56.4358 271.443 58.2777 265.549 58.2777 257.739C58.2777 249.93 56.4358 244.073 52.7521 240.168C49.142 236.189 43.9478 234.2 37.1697 234.2H23.9081V281.279ZM102.856 297.082H84.1792V218.397H102.856V297.082ZM153.738 252.987L165.121 218.397H184.35L156.832 297.082H134.73L106.328 218.397H126.331L137.824 252.987C141.434 264.26 144.123 273.469 145.891 280.616C148.47 270.522 151.085 261.313 153.738 252.987ZM247.909 218.397V235.084H206.466V249.34H244.151V265.033H206.466V280.395H247.798V297.082H187.79V218.397H247.909ZM318.642 277.521L319.195 288.573C319.269 292.109 320.005 294.945 321.405 297.082H302.176C300.997 294.872 300.371 291.998 300.297 288.462L299.966 279.621C299.818 275.274 298.824 272.29 296.982 270.669C295.214 268.975 292.34 268.128 288.362 268.128H273.111V297.082H254.434V218.397H291.677C300.887 218.397 307.923 220.46 312.785 224.585C317.722 228.638 320.19 234.163 320.19 241.162C320.19 250.224 315.953 256.45 307.481 259.839C311.533 261.165 314.332 263.191 315.88 265.917C317.501 268.643 318.421 272.511 318.642 277.521ZM273.111 233.316V254.092H289.578C293.188 254.092 295.987 253.208 297.977 251.44C299.966 249.598 300.96 246.983 300.96 243.594C300.96 236.742 297.056 233.316 289.246 233.316H273.111ZM357.627 298.85C346.649 298.85 338.177 296.419 332.209 291.556C326.241 286.694 323.22 279.916 323.147 271.222H341.271C341.345 276.085 342.744 279.474 345.47 281.389C348.27 283.305 352.543 284.263 358.29 284.263C367.205 284.263 371.662 281.242 371.662 275.2C371.662 272.548 370.667 270.596 368.678 269.343C366.763 268.017 363.042 266.838 357.516 265.807L351.107 264.591C333.572 261.644 324.804 253.429 324.804 239.947C324.804 232.8 327.457 227.127 332.761 222.928C338.14 218.728 345.728 216.628 355.527 216.628C365.989 216.628 373.983 218.839 379.508 223.259C385.034 227.68 387.981 234.016 388.35 242.267H370.667C370.446 238.436 369.157 235.637 366.799 233.868C364.516 232.1 360.869 231.216 355.859 231.216C347.828 231.216 343.813 233.868 343.813 239.173C343.813 241.825 344.77 243.852 346.686 245.251C348.675 246.651 352.175 247.83 357.185 248.788L363.816 250.003C373.32 251.698 380.208 254.461 384.482 258.292C388.828 262.049 391.002 267.28 391.002 273.985C391.002 282.015 388.055 288.167 382.161 292.44C376.267 296.714 368.089 298.85 357.627 298.85ZM456.8 218.397V235.084H415.358V249.34H453.043V265.033H415.358V280.395H456.69V297.082H396.681V218.397H456.8ZM71.4288 395.578C63.9876 403.093 54.2624 406.85 42.2533 406.85C30.2442 406.85 20.519 403.093 13.0778 395.578C5.6366 387.989 1.91599 378.043 1.91599 365.739C1.91599 353.436 5.6366 343.489 13.0778 335.901C20.519 328.386 30.2442 324.628 42.2533 324.628C54.2624 324.628 63.9876 328.386 71.4288 335.901C78.87 343.489 82.5906 353.436 82.5906 365.739C82.5906 378.043 78.87 387.989 71.4288 395.578ZM27.113 383.974C30.8704 388.395 35.9172 390.605 42.2533 390.605C48.5157 390.605 53.5993 388.395 57.5041 383.974C61.3353 379.627 63.2508 373.549 63.2508 365.739C63.2508 357.93 61.3353 351.852 57.5041 347.505C53.5993 343.084 48.5157 340.874 42.2533 340.874C35.9172 340.874 30.8704 343.084 27.113 347.505C23.2819 351.852 21.3663 357.93 21.3663 365.739C21.3663 373.549 23.2819 379.627 27.113 383.974ZM89.0358 326.397H124.842C133.904 326.397 141.014 328.791 146.171 333.58C151.328 338.295 153.907 344.742 153.907 352.92C153.907 361.098 151.328 367.581 146.171 372.37C141.014 377.085 133.904 379.443 124.842 379.443H107.713V405.082H89.0358V326.397ZM107.713 363.64H123.626C127.31 363.64 130.147 362.719 132.136 360.877C134.199 359.035 135.23 356.383 135.23 352.92C135.23 349.457 134.199 346.805 132.136 344.963C130.073 343.121 127.237 342.2 123.626 342.2H107.713V363.64ZM160.213 326.397H196.019C205.082 326.397 212.191 328.791 217.349 333.58C222.506 338.295 225.084 344.742 225.084 352.92C225.084 361.098 222.506 367.581 217.349 372.37C212.191 377.085 205.082 379.443 196.019 379.443H178.89V405.082H160.213V326.397ZM178.89 363.64H194.804C198.488 363.64 201.324 362.719 203.313 360.877C205.376 359.035 206.408 356.383 206.408 352.92C206.408 349.457 205.376 346.805 203.313 344.963C201.25 343.121 198.414 342.2 194.804 342.2H178.89V363.64ZM297.588 395.578C290.147 403.093 280.422 406.85 268.413 406.85C256.403 406.85 246.678 403.093 239.237 395.578C231.796 387.989 228.075 378.043 228.075 365.739C228.075 353.436 231.796 343.489 239.237 335.901C246.678 328.386 256.403 324.628 268.413 324.628C280.422 324.628 290.147 328.386 297.588 335.901C305.029 343.489 308.75 353.436 308.75 365.739C308.75 378.043 305.029 387.989 297.588 395.578ZM253.272 383.974C257.03 388.395 262.076 390.605 268.413 390.605C274.675 390.605 279.759 388.395 283.663 383.974C287.494 379.627 289.41 373.549 289.41 365.739C289.41 357.93 287.494 351.852 283.663 347.505C279.759 343.084 274.675 340.874 268.413 340.874C262.076 340.874 257.03 343.084 253.272 347.505C249.441 351.852 247.526 357.93 247.526 365.739C247.526 373.549 249.441 379.627 253.272 383.974ZM379.403 385.521L379.956 396.573C380.029 400.109 380.766 402.945 382.166 405.082H362.937C361.758 402.872 361.132 399.998 361.058 396.462L360.726 387.621C360.579 383.274 359.584 380.29 357.743 378.669C355.974 376.975 353.101 376.128 349.123 376.128H333.872V405.082H315.195V326.397H352.438C361.647 326.397 368.683 328.46 373.546 332.585C378.482 336.638 380.95 342.163 380.95 349.162C380.95 358.224 376.714 364.45 368.241 367.839C372.293 369.165 375.093 371.191 376.64 373.917C378.261 376.643 379.182 380.511 379.403 385.521ZM333.872 341.316V362.092H350.338C353.948 362.092 356.748 361.208 358.737 359.44C360.726 357.598 361.721 354.983 361.721 351.594C361.721 344.742 357.816 341.316 350.007 341.316H333.872ZM381.841 326.397H448.923V343.084H424.72V405.082H405.933V343.084H381.841V326.397ZM486.06 406.85C475.82 406.85 467.568 404.087 461.306 398.562C455.043 393.183 451.912 385.374 451.912 375.133V326.397H470.589V375.354C470.589 380.364 471.915 384.195 474.567 386.847C477.293 389.426 481.124 390.715 486.06 390.715C490.997 390.715 494.828 389.426 497.554 386.847C500.28 384.195 501.643 380.364 501.643 375.354V326.397H520.32V375.133C520.32 385.226 517.262 393.036 511.147 398.562C505.106 404.087 496.743 406.85 486.06 406.85ZM580.111 342.863V326.397H597.903V405.082H577.79L558.561 373.696C552.667 363.897 548.578 356.751 546.294 352.257C546.588 362.35 546.736 374.47 546.736 388.616V405.082H528.943V326.397H549.056L568.286 357.782C573.811 366.918 577.9 374.138 580.553 379.443C580.258 369.202 580.111 357.009 580.111 342.863ZM626.352 405.082H607.675V326.397H626.352V405.082ZM631.26 326.397H698.342V343.084H674.139V405.082H655.352V343.084H631.26V326.397ZM721.76 405.082H703.083V326.397H721.76V405.082ZM791.642 326.397V343.084H750.2V357.34H787.885V373.033H750.2V388.395H791.532V405.082H731.523V326.397H791.642ZM828.996 406.85C818.018 406.85 809.546 404.419 803.578 399.556C797.61 394.694 794.589 387.916 794.516 379.222H812.64C812.714 384.085 814.113 387.474 816.839 389.389C819.639 391.305 823.912 392.263 829.659 392.263C838.574 392.263 843.031 389.242 843.031 383.2C843.031 380.548 842.036 378.596 840.047 377.343C838.132 376.017 834.411 374.838 828.885 373.807L822.476 372.591C804.941 369.644 796.173 361.429 796.173 347.947C796.173 340.8 798.826 335.127 804.13 330.928C809.509 326.728 817.097 324.628 826.896 324.628C837.358 324.628 845.352 326.839 850.877 331.259C856.403 335.68 859.35 342.016 859.718 350.267H842.036C841.815 346.436 840.526 343.637 838.168 341.868C835.884 340.1 832.238 339.216 827.228 339.216C819.197 339.216 815.182 341.868 815.182 347.173C815.182 349.825 816.139 351.852 818.055 353.251C820.044 354.651 823.544 355.83 828.554 356.788L835.185 358.003C844.689 359.698 851.577 362.461 855.851 366.292C860.197 370.049 862.371 375.28 862.371 381.985C862.371 390.015 859.424 396.167 853.53 400.44C847.636 404.714 839.458 406.85 828.996 406.85ZM885.29 405.082H865.84V386.074H885.29V405.082Z" fill="white"/>
  <path d="M157.264 188.083L178.264 124.583L199.264 188.083L177.421 173.583L157.264 188.083Z" fill="#56B953"/>
  <path d="M749.363 267.181C750.522 266.022 750.522 264.142 749.363 262.983L730.471 244.091C729.312 242.932 727.432 242.932 726.273 244.091C725.113 245.25 725.113 247.13 726.273 248.289L743.065 265.082L726.273 281.875C725.113 283.034 725.113 284.914 726.273 286.073C727.432 287.232 729.312 287.232 730.471 286.073L749.363 267.181ZM492.264 268.051H747.264V262.113H492.264V268.051Z" fill="#5D6393"/>
  </svg>
  