<svg width="92" height="20" viewBox="0 0 92 20" fill="none" xmlns="http://www.w3.org/2000/svg">
    <path d="M6.2972 11.3359L5.07812 17.4439L6.2972 16.0168L7.61939 17.4484L6.2972 11.3359Z" fill="#56B953"/>
    <path d="M4.5791 7.08026C3.72112 7.08026 3.0298 6.84879 2.50513 6.38585C1.98046 5.93525 1.71813 5.28096 1.71813 4.42298V0.339844H3.28287V4.4415C3.28287 4.86123 3.39398 5.1822 3.61619 5.40441C3.84457 5.62045 4.16554 5.72847 4.5791 5.72847C4.99266 5.72847 5.31364 5.62045 5.54202 5.40441C5.7704 5.1822 5.8846 4.86123 5.8846 4.4415V0.339844H7.44934V4.42298C7.44934 5.26862 7.19317 5.92291 6.68085 6.38585C6.17471 6.84879 5.47412 7.08026 4.5791 7.08026Z" fill="white"/>
    <path d="M10.9957 2.04347C11.5019 2.04347 11.9031 2.19778 12.1994 2.50641C12.5018 2.80886 12.6531 3.24094 12.6531 3.80264V6.93212H11.2087V4.08966C11.2087 3.54648 10.9525 3.27489 10.4402 3.27489C10.181 3.27489 9.96493 3.3613 9.7921 3.53413C9.61927 3.70696 9.53286 3.95078 9.53286 4.26558V6.93212H8.08848V2.15457H9.49582V2.83046C9.86617 2.3058 10.3661 2.04347 10.9957 2.04347Z" fill="white"/>
    <path d="M14.7456 6.93212H13.3013V0.339844H14.7456V6.93212Z" fill="white"/>
    <path d="M19.5424 6.35807C19.0856 6.81484 18.4776 7.04322 17.7184 7.04322C16.9591 7.04322 16.3512 6.81484 15.8944 6.35807C15.4376 5.9013 15.2092 5.29639 15.2092 4.54334C15.2092 3.78412 15.4376 3.17613 15.8944 2.71936C16.345 2.26876 16.953 2.04347 17.7184 2.04347C18.4838 2.04347 19.0918 2.26876 19.5424 2.71936C19.9929 3.16995 20.2182 3.77795 20.2182 4.54334C20.2182 5.30257 19.9929 5.90748 19.5424 6.35807ZM17.7184 5.88587C18.0517 5.88587 18.3078 5.77168 18.4869 5.5433C18.6659 5.31491 18.7554 4.98159 18.7554 4.54334C18.7554 4.10509 18.6659 3.77178 18.4869 3.54339C18.3078 3.31501 18.0517 3.20082 17.7184 3.20082C17.3789 3.20082 17.1196 3.31501 16.9406 3.54339C16.7616 3.77178 16.6721 4.10509 16.6721 4.54334C16.6721 4.98159 16.7616 5.31491 16.9406 5.5433C17.1196 5.77168 17.3789 5.88587 17.7184 5.88587Z" fill="white"/>
    <path d="M22.9298 7.04322C22.183 7.04322 21.5873 6.81484 21.1429 6.35807C20.6985 5.9013 20.4763 5.29639 20.4763 4.54334C20.4763 3.77795 20.6985 3.16995 21.1429 2.71936C21.5873 2.26876 22.183 2.04347 22.9298 2.04347C23.5841 2.04347 24.1181 2.2163 24.5316 2.56196C24.9514 2.90145 25.1952 3.36439 25.2631 3.95078H23.828C23.7477 3.46315 23.4483 3.21933 22.9298 3.21933C22.2694 3.21933 21.9392 3.66067 21.9392 4.54334C21.9392 5.41984 22.2694 5.8581 22.9298 5.8581C23.4854 5.8581 23.794 5.58959 23.8557 5.05258H25.2908C25.2476 5.65749 25.01 6.14203 24.5779 6.50621C24.1458 6.86422 23.5965 7.04322 22.9298 7.04322Z" fill="white"/>
    <path d="M30.5926 6.93212H28.9445L27.7131 4.95999L27.065 5.62663V6.93212H25.6484V0.339844H27.065V4.04337L28.8334 2.15457H30.4908L28.6945 4.00633L30.5926 6.93212Z" fill="white"/>
    <path d="M35.7819 2.83972L35.9949 2.15457H37.4856L35.7542 7.11729C35.5381 7.73455 35.2635 8.16045 34.9301 8.39501C34.5845 8.63574 34.066 8.7561 33.3747 8.7561C33.2574 8.7561 33.0691 8.74993 32.8099 8.73759V7.62653H33.2728C33.7543 7.62653 33.995 7.40432 33.995 6.95989C33.995 6.76237 33.9209 6.45375 33.7728 6.03401L32.4025 2.15457H33.958L34.1709 2.83046C34.4795 3.86745 34.7511 4.87049 34.9857 5.83958C35.2264 4.83345 35.4918 3.8335 35.7819 2.83972Z" fill="white"/>
    <path d="M41.646 6.35807C41.1892 6.81484 40.5812 7.04322 39.822 7.04322C39.0627 7.04322 38.4548 6.81484 37.998 6.35807C37.5412 5.9013 37.3128 5.29639 37.3128 4.54334C37.3128 3.78412 37.5412 3.17613 37.998 2.71936C38.4486 2.26876 39.0566 2.04347 39.822 2.04347C40.5874 2.04347 41.1954 2.26876 41.646 2.71936C42.0965 3.16995 42.3218 3.77795 42.3218 4.54334C42.3218 5.30257 42.0965 5.90748 41.646 6.35807ZM39.822 5.88587C40.1553 5.88587 40.4114 5.77168 40.5905 5.5433C40.7695 5.31491 40.859 4.98159 40.859 4.54334C40.859 4.10509 40.7695 3.77178 40.5905 3.54339C40.4114 3.31501 40.1553 3.20082 39.822 3.20082C39.4825 3.20082 39.2232 3.31501 39.0442 3.54339C38.8652 3.77178 38.7757 4.10509 38.7757 4.54334C38.7757 4.98159 38.8652 5.31491 39.0442 5.5433C39.2232 5.77168 39.4825 5.88587 39.822 5.88587Z" fill="white"/>
    <path d="M45.7951 4.82111V2.15457H47.2394V6.93212H45.8321V6.25622C45.4617 6.78089 44.9618 7.04322 44.3322 7.04322C43.826 7.04322 43.4217 6.892 43.1193 6.58954C42.823 6.28091 42.6748 5.84575 42.6748 5.28405V2.15457H44.1192V4.99703C44.1192 5.54021 44.3754 5.8118 44.8877 5.8118C45.1469 5.8118 45.363 5.72539 45.5358 5.55255C45.7086 5.37972 45.7951 5.13591 45.7951 4.82111Z" fill="white"/>
    <path d="M50.656 2.0805C50.6807 2.0805 50.7856 2.08667 50.9708 2.09902V3.41377H50.6005C49.7548 3.41377 49.332 3.84585 49.332 4.71V6.93212H47.8876V2.15457H49.295V3.04342C49.5172 2.40147 49.9709 2.0805 50.656 2.0805Z" fill="white"/>
    <path d="M56.2281 2.04347C56.87 2.04347 57.3793 2.26876 57.7558 2.71936C58.1261 3.16995 58.3113 3.77795 58.3113 4.54334C58.3113 5.30874 58.1261 5.91673 57.7558 6.36733C57.3793 6.81793 56.87 7.04322 56.2281 7.04322C55.617 7.04322 55.1479 6.81175 54.8207 6.34881V8.74684H53.3764V2.15457H54.7837V2.79343C55.1108 2.29345 55.5923 2.04347 56.2281 2.04347ZM55.8299 5.88587C56.1509 5.88587 56.4009 5.76859 56.5799 5.53404C56.7589 5.29331 56.8484 4.95073 56.8484 4.50631C56.8484 3.63598 56.5089 3.20082 55.8299 3.20082C55.1448 3.20082 54.8022 3.64833 54.8022 4.54334C54.8022 5.43836 55.1448 5.88587 55.8299 5.88587Z" fill="white"/>
    <path d="M62.8996 6.35807C62.4429 6.81484 61.8349 7.04322 61.0756 7.04322C60.3164 7.04322 59.7084 6.81484 59.2517 6.35807C58.7949 5.9013 58.5665 5.29639 58.5665 4.54334C58.5665 3.78412 58.7949 3.17613 59.2517 2.71936C59.7023 2.26876 60.3102 2.04347 61.0756 2.04347C61.841 2.04347 62.449 2.26876 62.8996 2.71936C63.3502 3.16995 63.5755 3.77795 63.5755 4.54334C63.5755 5.30257 63.3502 5.90748 62.8996 6.35807ZM61.0756 5.88587C61.409 5.88587 61.6651 5.77168 61.8441 5.5433C62.0231 5.31491 62.1126 4.98159 62.1126 4.54334C62.1126 4.10509 62.0231 3.77178 61.8441 3.54339C61.6651 3.31501 61.409 3.20082 61.0756 3.20082C60.7362 3.20082 60.4769 3.31501 60.2979 3.54339C60.1189 3.77178 60.0294 4.10509 60.0294 4.54334C60.0294 4.98159 60.1189 5.31491 60.2979 5.5433C60.4769 5.77168 60.7362 5.88587 61.0756 5.88587Z" fill="white"/>
    <path d="M66.5701 2.15457V3.21008H65.6535V5.44145C65.6535 5.60193 65.6936 5.71304 65.7738 5.77477C65.8541 5.83032 65.9961 5.8581 66.1997 5.8581H66.5701V6.93212C66.3973 6.95681 66.1751 6.96915 65.9035 6.96915C65.3047 6.96915 64.8727 6.86422 64.6072 6.65435C64.3418 6.43831 64.2091 6.08648 64.2091 5.59885V3.21008H63.4962V2.15457H64.2091V0.737972H65.6535V2.15457H66.5701Z" fill="white"/>
    <path d="M71.6392 4.68223V4.96925H68.1023C68.1517 5.29639 68.2721 5.54638 68.4634 5.71921C68.6548 5.89204 68.8986 5.97846 69.1949 5.97846C69.664 5.97846 69.985 5.79946 70.1578 5.44145H71.5281C71.3985 5.93525 71.1238 6.32721 70.7041 6.61732C70.2843 6.90126 69.7813 7.04322 69.1949 7.04322C68.4542 7.04322 67.8555 6.81484 67.3987 6.35807C66.9419 5.9013 66.7135 5.29639 66.7135 4.54334C66.7135 3.78412 66.9388 3.17921 67.3894 2.72862C67.8338 2.27185 68.4295 2.04347 69.1764 2.04347C69.9171 2.04347 70.5158 2.28111 70.9726 2.75639C71.417 3.23785 71.6392 3.8798 71.6392 4.68223ZM69.1579 3.10823C68.5653 3.10823 68.2165 3.42303 68.1116 4.05263H70.2226C70.1732 3.75634 70.056 3.52487 69.8708 3.35822C69.6856 3.19156 69.448 3.10823 69.1579 3.10823Z" fill="white"/>
    <path d="M75.0371 2.04347C75.5432 2.04347 75.9444 2.19778 76.2407 2.50641C76.5432 2.80886 76.6944 3.24094 76.6944 3.80264V6.93212H75.25V4.08966C75.25 3.54648 74.9939 3.27489 74.4815 3.27489C74.2223 3.27489 74.0062 3.3613 73.8334 3.53413C73.6606 3.70696 73.5742 3.95078 73.5742 4.26558V6.93212H72.1298V2.15457H73.5371V2.83046C73.9075 2.3058 74.4075 2.04347 75.0371 2.04347Z" fill="white"/>
    <path d="M79.957 2.15457V3.21008H79.0404V5.44145C79.0404 5.60193 79.0805 5.71304 79.1608 5.77477C79.241 5.83032 79.383 5.8581 79.5867 5.8581H79.957V6.93212C79.7842 6.95681 79.562 6.96915 79.2904 6.96915C78.6917 6.96915 78.2596 6.86422 77.9942 6.65435C77.7287 6.43831 77.596 6.08648 77.596 5.59885V3.21008H76.8831V2.15457H77.596V0.737972H79.0404V2.15457H79.957Z" fill="white"/>
    <path d="M81.8019 1.6083H80.4224V0.386138H81.8019V1.6083ZM81.8297 6.93212H80.3853V2.15457H81.8297V6.93212Z" fill="white"/>
    <path d="M87.0894 6.93212H85.6357C85.5617 6.79015 85.5215 6.61115 85.5154 6.39511C85.1944 6.82718 84.6852 7.04322 83.9877 7.04322C83.463 7.04322 83.0402 6.9136 82.7192 6.65435C82.4044 6.39511 82.247 6.0371 82.247 5.58033C82.247 4.69148 82.8704 4.1946 84.1173 4.08966L84.8672 4.02485C85.2808 3.98164 85.4876 3.82424 85.4876 3.55265C85.4876 3.23168 85.2438 3.07119 84.7561 3.07119C84.4598 3.07119 84.25 3.11749 84.1265 3.21008C84.0093 3.29649 83.9383 3.46006 83.9136 3.70079H82.4785C82.5649 2.59591 83.3272 2.04347 84.7654 2.04347C86.1851 2.04347 86.8949 2.53418 86.8949 3.51562V6.05253C86.8949 6.45375 86.9597 6.74694 87.0894 6.93212ZM84.4228 6.07105C84.75 6.07105 85.0092 5.98772 85.2006 5.82106C85.3919 5.64823 85.4876 5.39207 85.4876 5.05258V4.70074C85.4012 4.79333 85.2407 4.85506 85.0061 4.88592L84.4136 4.95073C83.9506 5.00011 83.7191 5.19146 83.7191 5.52478C83.7191 5.69144 83.7809 5.82415 83.9043 5.92291C84.0278 6.02167 84.2006 6.07105 84.4228 6.07105Z" fill="white"/>
    <path d="M88.9098 6.93212H87.4654V0.339844H88.9098V6.93212Z" fill="white"/>
    <path d="M9.29302 12.1544L9.972 9.39323H11.9637L9.75699 17.4505H7.6182L6.95054 14.5987C6.7393 13.7462 6.53938 12.7768 6.35078 11.6904C6.1848 12.5656 5.98488 13.535 5.75101 14.5987L5.07203 17.4505H2.93325L0.726562 9.39323H2.72955L3.39722 12.1544C3.6839 13.3313 3.92154 14.3837 4.11014 15.3117C4.36665 13.9537 4.57788 12.9013 4.74386 12.1544L5.38889 9.39323H7.30135L7.94638 12.1544C8.15762 13.0748 8.36885 14.1348 8.58009 15.3343C8.68571 14.8515 8.92335 13.7915 9.29302 12.1544Z" fill="white"/>
    <path d="M13.8362 10.9436H12.15V9.44982H13.8362V10.9436ZM13.8701 17.4505H12.1048V11.6112H13.8701V17.4505Z" fill="white"/>
    <path d="M18.0466 11.6112V12.9013H16.9263V15.6285C16.9263 15.8247 16.9754 15.9605 17.0734 16.0359C17.1715 16.1038 17.345 16.1378 17.594 16.1378H18.0466V17.4505C17.8354 17.4806 17.5638 17.4957 17.2319 17.4957C16.5001 17.4957 15.972 17.3675 15.6476 17.111C15.3232 16.8469 15.161 16.4169 15.161 15.8209V12.9013H14.2896V11.6112H15.161V9.87984H16.9263V11.6112H18.0466Z" fill="white"/>
    <path d="M22.1234 11.4754C22.7421 11.4754 23.2324 11.664 23.5946 12.0413C23.9642 12.4109 24.1491 12.939 24.1491 13.6255V17.4505H22.3837V13.9763C22.3837 13.3125 22.0706 12.9805 21.4445 12.9805C21.1276 12.9805 20.8635 13.0861 20.6523 13.2974C20.4411 13.5086 20.3355 13.8066 20.3355 14.1914V17.4505H18.5701V9.39323H20.3355V12.3807C20.7806 11.7772 21.3766 11.4754 22.1234 11.4754Z" fill="white"/>
    <path d="M26.994 9.39323H33.8631V11.102H31.3848V17.4505H29.461V11.102H26.994V9.39323Z" fill="white"/>
    <path d="M37.1441 11.5207C37.1743 11.5207 37.3025 11.5282 37.5288 11.5433V13.1503H37.0762C36.0426 13.1503 35.5259 13.6783 35.5259 14.7345V17.4505H33.7605V11.6112H35.4806V12.6976C35.7522 11.913 36.3067 11.5207 37.1441 11.5207Z" fill="white"/>
    <path d="M41.7793 14.8703V11.6112H43.5446V17.4505H41.8245V16.6244C41.3719 17.2656 40.7608 17.5863 39.9913 17.5863C39.3727 17.5863 38.8785 17.4014 38.5089 17.0318C38.1467 16.6545 37.9657 16.1227 37.9657 15.4362V11.6112H39.731V15.0853C39.731 15.7492 40.0441 16.0812 40.6703 16.0812C40.9871 16.0812 41.2512 15.9756 41.4624 15.7643C41.6736 15.5531 41.7793 15.2551 41.7793 14.8703Z" fill="white"/>
    <path d="M46.7925 17.6202C45.8721 17.6202 45.1856 17.4618 44.7329 17.1449C44.2878 16.8205 44.0388 16.3037 43.986 15.5946H45.7061C45.7363 15.9039 45.8344 16.1227 46.0003 16.2509C46.1739 16.3792 46.4492 16.4433 46.8264 16.4433C47.4828 16.4433 47.811 16.2547 47.811 15.8775C47.811 15.6964 47.7393 15.5606 47.5959 15.4701C47.4526 15.372 47.1886 15.2928 46.8038 15.2325L46.0456 15.108C44.7329 14.9043 44.0766 14.3083 44.0766 13.32C44.0766 12.7316 44.3029 12.2789 44.7555 11.962C45.2082 11.6376 45.857 11.4754 46.702 11.4754C48.4447 11.4754 49.35 12.1431 49.4179 13.4784H47.777C47.7695 12.9277 47.4111 12.6523 46.702 12.6523C46.106 12.6523 45.808 12.8372 45.808 13.2068C45.808 13.3728 45.8759 13.5011 46.0117 13.5916C46.1475 13.6821 46.3625 13.75 46.6567 13.7953L47.528 13.9198C48.2297 14.0254 48.7464 14.2253 49.0784 14.5195C49.4103 14.8138 49.5763 15.2174 49.5763 15.7304C49.5763 16.3339 49.3311 16.8017 48.8407 17.1336C48.3579 17.458 47.6752 17.6202 46.7925 17.6202Z" fill="white"/>
    <path d="M53.2957 11.6112V12.9013H52.1753V15.6285C52.1753 15.8247 52.2244 15.9605 52.3225 16.0359C52.4205 16.1038 52.594 16.1378 52.843 16.1378H53.2957V17.4505C53.0844 17.4806 52.8128 17.4957 52.4809 17.4957C51.7491 17.4957 51.221 17.3675 50.8966 17.111C50.5722 16.8469 50.41 16.4169 50.41 15.8209V12.9013H49.5386V11.6112H50.41V9.87984H52.1753V11.6112H53.2957Z" fill="white"/>
    <path d="M60.0137 17.6315C58.8141 17.6315 57.8447 17.2505 57.1054 16.4886C56.366 15.7266 55.9964 14.7044 55.9964 13.4218C55.9964 12.1242 56.3585 11.0982 57.0827 10.3438C57.807 9.58938 58.784 9.21217 60.0137 9.21217C61.0095 9.21217 61.8545 9.47622 62.5485 10.0043C63.2577 10.54 63.6839 11.2981 63.8273 12.2789H61.8922C61.7715 11.8262 61.5451 11.4792 61.2132 11.2378C60.8888 10.9888 60.489 10.8644 60.0137 10.8644C59.3649 10.8644 58.8632 11.0869 58.5086 11.532C58.1616 11.9771 57.988 12.6071 57.988 13.4218C57.988 14.2366 58.1616 14.8666 58.5086 15.3117C58.8632 15.7568 59.3649 15.9793 60.0137 15.9793C60.5116 15.9793 60.9341 15.836 61.2811 15.5493C61.6281 15.2626 61.8469 14.8628 61.9374 14.3498H63.8499C63.7292 15.3909 63.318 16.1981 62.6164 16.7715C61.9073 17.3448 61.0397 17.6315 60.0137 17.6315Z" fill="white"/>
    <path d="M70.0197 17.4505H68.243C68.1525 17.2769 68.1035 17.0582 68.0959 16.7941C67.7036 17.3222 67.0812 17.5863 66.2287 17.5863C65.5875 17.5863 65.0707 17.4278 64.6784 17.111C64.2936 16.7941 64.1012 16.3565 64.1012 15.7983C64.1012 14.7119 64.8632 14.1046 66.3871 13.9763L67.3038 13.8971C67.8092 13.8443 68.062 13.6519 68.062 13.32C68.062 12.9277 67.764 12.7316 67.168 12.7316C66.8058 12.7316 66.5493 12.7881 66.3985 12.9013C66.2551 13.0069 66.1684 13.2068 66.1382 13.5011H64.3842C64.4898 12.1506 65.4215 11.4754 67.1793 11.4754C68.9145 11.4754 69.782 12.0752 69.782 13.2747V16.3754C69.782 16.8658 69.8613 17.2241 70.0197 17.4505ZM66.7606 16.398C67.1604 16.398 67.4773 16.2962 67.7112 16.0925C67.945 15.8813 68.062 15.5682 68.062 15.1532V14.7232C67.9563 14.8364 67.7602 14.9118 67.4735 14.9495L66.7493 15.0288C66.1834 15.0891 65.9005 15.323 65.9005 15.7304C65.9005 15.9341 65.976 16.0963 66.1269 16.217C66.2778 16.3377 66.489 16.398 66.7606 16.398Z" fill="white"/>
    <path d="M73.9758 11.4754C74.7604 11.4754 75.3828 11.7508 75.843 12.3015C76.2956 12.8523 76.522 13.5954 76.522 14.5308C76.522 15.4663 76.2956 16.2094 75.843 16.7602C75.3828 17.3109 74.7604 17.5863 73.9758 17.5863C73.2289 17.5863 72.6556 17.3033 72.2557 16.7375V19.6685H70.4904V11.6112H72.2104V12.3921C72.6103 11.781 73.1987 11.4754 73.9758 11.4754ZM73.4892 16.1717C73.8815 16.1717 74.187 16.0284 74.4058 15.7417C74.6246 15.4475 74.734 15.0288 74.734 14.4856C74.734 13.4218 74.3191 12.89 73.4892 12.89C72.6518 12.89 72.2331 13.4369 72.2331 14.5308C72.2331 15.6248 72.6518 16.1717 73.4892 16.1717Z" fill="white"/>
    <path d="M78.8029 10.9436H77.1168V9.44982H78.8029V10.9436ZM78.8369 17.4505H77.0715V11.6112H78.8369V17.4505Z" fill="white"/>
    <path d="M83.0134 11.6112V12.9013H81.8931V15.6285C81.8931 15.8247 81.9421 15.9605 82.0402 16.0359C82.1383 16.1038 82.3118 16.1378 82.5607 16.1378H83.0134V17.4505C82.8021 17.4806 82.5306 17.4957 82.1986 17.4957C81.4668 17.4957 80.9387 17.3675 80.6143 17.111C80.2899 16.8469 80.1277 16.4169 80.1277 15.8209V12.9013H79.2564V11.6112H80.1277V9.87984H81.8931V11.6112H83.0134Z" fill="white"/>
    <path d="M89.15 17.4505H87.3734C87.2828 17.2769 87.2338 17.0582 87.2262 16.7941C86.8339 17.3222 86.2115 17.5863 85.3591 17.5863C84.7178 17.5863 84.201 17.4278 83.8087 17.111C83.424 16.7941 83.2316 16.3565 83.2316 15.7983C83.2316 14.7119 83.9936 14.1046 85.5175 13.9763L86.4341 13.8971C86.9396 13.8443 87.1923 13.6519 87.1923 13.32C87.1923 12.9277 86.8943 12.7316 86.2983 12.7316C85.9362 12.7316 85.6797 12.7881 85.5288 12.9013C85.3855 13.0069 85.2987 13.2068 85.2685 13.5011H83.5145C83.6201 12.1506 84.5518 11.4754 86.3096 11.4754C88.0448 11.4754 88.9124 12.0752 88.9124 13.2747V16.3754C88.9124 16.8658 88.9916 17.2241 89.15 17.4505ZM85.8909 16.398C86.2908 16.398 86.6076 16.2962 86.8415 16.0925C87.0754 15.8813 87.1923 15.5682 87.1923 15.1532V14.7232C87.0867 14.8364 86.8905 14.9118 86.6039 14.9495L85.8796 15.0288C85.3138 15.0891 85.0309 15.323 85.0309 15.7304C85.0309 15.9341 85.1063 16.0963 85.2572 16.217C85.4081 16.3377 85.6193 16.398 85.8909 16.398Z" fill="white"/>
    <path d="M91.375 17.4505H89.6096V9.39323H91.375V17.4505Z" fill="white"/>
    </svg>
    