<svg width="1073" height="289" viewBox="0 0 1073 289" fill="none" xmlns="http://www.w3.org/2000/svg">
  <path d="M32.2563 122.448C23.9163 122.448 17.1963 120.198 12.0963 115.698C6.99633 111.318 4.44633 104.958 4.44633 96.6178V56.9278H19.6563V96.7978C19.6563 100.878 20.7363 103.998 22.8963 106.158C25.1163 108.258 28.2363 109.308 32.2563 109.308C36.2763 109.308 39.3963 108.258 41.6163 106.158C43.8363 103.998 44.9463 100.878 44.9463 96.7978V56.9278H60.1563V96.6178C60.1563 104.838 57.6663 111.198 52.6863 115.698C47.7663 120.198 40.9563 122.448 32.2563 122.448ZM94.6291 73.4878C99.5491 73.4878 103.449 74.9878 106.329 77.9878C109.269 80.9278 110.739 85.1278 110.739 90.5878V121.008H96.6991V93.3778C96.6991 88.0978 94.2091 85.4578 89.2291 85.4578C86.7091 85.4578 84.6091 86.2978 82.9291 87.9778C81.2491 89.6578 80.4091 92.0278 80.4091 95.0878V121.008H66.3691V74.5678H80.0491V81.1378C83.6491 76.0378 88.5091 73.4878 94.6291 73.4878ZM131.08 121.008H117.04V56.9278H131.08V121.008ZM177.706 115.428C173.266 119.868 167.356 122.088 159.976 122.088C152.596 122.088 146.686 119.868 142.246 115.428C137.806 110.988 135.586 105.108 135.586 97.7878C135.586 90.4078 137.806 84.4978 142.246 80.0578C146.626 75.6778 152.536 73.4878 159.976 73.4878C167.416 73.4878 173.326 75.6778 177.706 80.0578C182.086 84.4378 184.276 90.3478 184.276 97.7878C184.276 105.168 182.086 111.048 177.706 115.428ZM159.976 110.838C163.216 110.838 165.706 109.728 167.446 107.508C169.186 105.288 170.056 102.048 170.056 97.7878C170.056 93.5278 169.186 90.2878 167.446 88.0678C165.706 85.8478 163.216 84.7378 159.976 84.7378C156.676 84.7378 154.156 85.8478 152.416 88.0678C150.676 90.2878 149.806 93.5278 149.806 97.7878C149.806 102.048 150.676 105.288 152.416 107.508C154.156 109.728 156.676 110.838 159.976 110.838ZM210.634 122.088C203.374 122.088 197.584 119.868 193.264 115.428C188.944 110.988 186.784 105.108 186.784 97.7878C186.784 90.3478 188.944 84.4378 193.264 80.0578C197.584 75.6778 203.374 73.4878 210.634 73.4878C216.994 73.4878 222.184 75.1678 226.204 78.5278C230.284 81.8278 232.654 86.3278 233.314 92.0278H219.364C218.584 87.2878 215.674 84.9178 210.634 84.9178C204.214 84.9178 201.004 89.2078 201.004 97.7878C201.004 106.308 204.214 110.568 210.634 110.568C216.034 110.568 219.034 107.958 219.634 102.738H233.584C233.164 108.618 230.854 113.328 226.654 116.868C222.454 120.348 217.114 122.088 210.634 122.088ZM285.12 121.008H269.1L257.13 101.838L250.83 108.318V121.008H237.06V56.9278H250.83V92.9278L268.02 74.5678H284.13L266.67 92.5678L285.12 121.008ZM335.563 81.2278L337.633 74.5678H352.123L335.293 122.808C333.193 128.808 330.523 132.948 327.283 135.228C323.923 137.568 318.883 138.738 312.163 138.738C311.023 138.738 309.193 138.678 306.673 138.558V127.758H311.173C315.853 127.758 318.193 125.598 318.193 121.278C318.193 119.358 317.473 116.358 316.033 112.278L302.713 74.5678H317.833L319.903 81.1378C322.903 91.2178 325.543 100.968 327.823 110.388C330.163 100.608 332.743 90.8878 335.563 81.2278ZM392.564 115.428C388.124 119.868 382.214 122.088 374.834 122.088C367.454 122.088 361.544 119.868 357.104 115.428C352.664 110.988 350.444 105.108 350.444 97.7878C350.444 90.4078 352.664 84.4978 357.104 80.0578C361.484 75.6778 367.394 73.4878 374.834 73.4878C382.274 73.4878 388.184 75.6778 392.564 80.0578C396.944 84.4378 399.134 90.3478 399.134 97.7878C399.134 105.168 396.944 111.048 392.564 115.428ZM374.834 110.838C378.074 110.838 380.564 109.728 382.304 107.508C384.044 105.288 384.914 102.048 384.914 97.7878C384.914 93.5278 384.044 90.2878 382.304 88.0678C380.564 85.8478 378.074 84.7378 374.834 84.7378C371.534 84.7378 369.014 85.8478 367.274 88.0678C365.534 90.2878 364.664 93.5278 364.664 97.7878C364.664 102.048 365.534 105.288 367.274 107.508C369.014 109.728 371.534 110.838 374.834 110.838ZM432.895 100.488V74.5678H446.935V121.008H433.255V114.438C429.655 119.538 424.795 122.088 418.675 122.088C413.755 122.088 409.825 120.618 406.885 117.678C404.005 114.678 402.565 110.448 402.565 104.988V74.5678H416.605V102.198C416.605 107.478 419.095 110.118 424.075 110.118C426.595 110.118 428.695 109.278 430.375 107.598C432.055 105.918 432.895 103.548 432.895 100.488ZM480.146 73.8478C480.386 73.8478 481.406 73.9078 483.206 74.0278V86.8078H479.606C471.386 86.8078 467.276 91.0078 467.276 99.4078V121.008H453.236V74.5678H466.916V83.2078C469.076 76.9678 473.486 73.8478 480.146 73.8478ZM534.309 73.4878C540.549 73.4878 545.499 75.6778 549.159 80.0578C552.759 84.4378 554.559 90.3478 554.559 97.7878C554.559 105.228 552.759 111.138 549.159 115.518C545.499 119.898 540.549 122.088 534.309 122.088C528.369 122.088 523.809 119.838 520.629 115.338V138.648H506.589V74.5678H520.269V80.7778C523.449 75.9178 528.129 73.4878 534.309 73.4878ZM530.439 110.838C533.559 110.838 535.989 109.698 537.729 107.418C539.469 105.078 540.339 101.748 540.339 97.4278C540.339 88.9678 537.039 84.7378 530.439 84.7378C523.779 84.7378 520.449 89.0878 520.449 97.7878C520.449 106.488 523.779 110.838 530.439 110.838ZM599.159 115.428C594.719 119.868 588.809 122.088 581.429 122.088C574.049 122.088 568.139 119.868 563.699 115.428C559.259 110.988 557.039 105.108 557.039 97.7878C557.039 90.4078 559.259 84.4978 563.699 80.0578C568.079 75.6778 573.989 73.4878 581.429 73.4878C588.869 73.4878 594.779 75.6778 599.159 80.0578C603.539 84.4378 605.729 90.3478 605.729 97.7878C605.729 105.168 603.539 111.048 599.159 115.428ZM581.429 110.838C584.669 110.838 587.159 109.728 588.899 107.508C590.639 105.288 591.509 102.048 591.509 97.7878C591.509 93.5278 590.639 90.2878 588.899 88.0678C587.159 85.8478 584.669 84.7378 581.429 84.7378C578.129 84.7378 575.609 85.8478 573.869 88.0678C572.129 90.2878 571.259 93.5278 571.259 97.7878C571.259 102.048 572.129 105.288 573.869 107.508C575.609 109.728 578.129 110.838 581.429 110.838ZM634.838 74.5678V84.8278H625.928V106.518C625.928 108.078 626.318 109.158 627.098 109.758C627.878 110.298 629.258 110.568 631.238 110.568H634.838V121.008C633.158 121.248 630.998 121.368 628.358 121.368C622.538 121.368 618.338 120.348 615.758 118.308C613.178 116.208 611.888 112.788 611.888 108.048V84.8278H604.958V74.5678H611.888V60.7978H625.928V74.5678H634.838ZM684.112 99.1378V101.928H649.732C650.212 105.108 651.382 107.538 653.242 109.218C655.102 110.898 657.472 111.738 660.352 111.738C664.912 111.738 668.032 109.998 669.712 106.518H683.032C681.772 111.318 679.102 115.128 675.022 117.948C670.942 120.708 666.052 122.088 660.352 122.088C653.152 122.088 647.332 119.868 642.892 115.428C638.452 110.988 636.232 105.108 636.232 97.7878C636.232 90.4078 638.422 84.5278 642.802 80.1478C647.122 75.7078 652.912 73.4878 660.172 73.4878C667.372 73.4878 673.192 75.7978 677.632 80.4178C681.952 85.0978 684.112 91.3378 684.112 99.1378ZM659.992 83.8378C654.232 83.8378 650.842 86.8978 649.822 93.0178H670.342C669.862 90.1378 668.722 87.8878 666.922 86.2678C665.122 84.6478 662.812 83.8378 659.992 83.8378ZM717.141 73.4878C722.061 73.4878 725.961 74.9878 728.841 77.9878C731.781 80.9278 733.251 85.1278 733.251 90.5878V121.008H719.211V93.3778C719.211 88.0978 716.721 85.4578 711.741 85.4578C709.221 85.4578 707.121 86.2978 705.441 87.9778C703.761 89.6578 702.921 92.0278 702.921 95.0878V121.008H688.881V74.5678H702.561V81.1378C706.161 76.0378 711.021 73.4878 717.141 73.4878ZM764.965 74.5678V84.8278H756.055V106.518C756.055 108.078 756.445 109.158 757.225 109.758C758.005 110.298 759.385 110.568 761.365 110.568H764.965V121.008C763.285 121.248 761.125 121.368 758.485 121.368C752.665 121.368 748.465 120.348 745.885 118.308C743.305 116.208 742.015 112.788 742.015 108.048V84.8278H735.085V74.5678H742.015V60.7978H756.055V74.5678H764.965ZM782.898 69.2578H769.488V57.3778H782.898V69.2578ZM783.168 121.008H769.128V74.5678H783.168V121.008ZM834.295 121.008H820.165C819.445 119.628 819.055 117.888 818.995 115.788C815.875 119.988 810.925 122.088 804.145 122.088C799.045 122.088 794.935 120.828 791.815 118.308C788.755 115.788 787.225 112.308 787.225 107.868C787.225 99.2278 793.285 94.3978 805.405 93.3778L812.695 92.7478C816.715 92.3278 818.725 90.7978 818.725 88.1578C818.725 85.0378 816.355 83.4778 811.615 83.4778C808.735 83.4778 806.695 83.9278 805.495 84.8278C804.355 85.6678 803.665 87.2578 803.425 89.5978H789.475C790.315 78.8578 797.725 73.4878 811.705 73.4878C825.505 73.4878 832.405 78.2578 832.405 87.7978V112.458C832.405 116.358 833.035 119.208 834.295 121.008ZM808.375 112.638C811.555 112.638 814.075 111.828 815.935 110.208C817.795 108.528 818.725 106.038 818.725 102.738V99.3178C817.885 100.218 816.325 100.818 814.045 101.118L808.285 101.748C803.785 102.228 801.535 104.088 801.535 107.328C801.535 108.948 802.135 110.238 803.335 111.198C804.535 112.158 806.215 112.638 808.375 112.638ZM851.99 121.008H837.95V56.9278H851.99V121.008ZM83.7563 176.528L90.3563 149.688H109.716L88.2663 228.008H67.4763L60.9863 200.288C58.933 192.001 56.9897 182.578 55.1563 172.018C53.543 180.524 51.5997 189.948 49.3263 200.288L42.7263 228.008H21.9363L0.486328 149.688H19.9563L26.4463 176.528C29.233 187.968 31.543 198.198 33.3763 207.218C35.8697 194.018 37.923 183.788 39.5363 176.528L45.8063 149.688H64.3963L70.6663 176.528C72.7197 185.474 74.773 195.778 76.8263 207.438C77.853 202.744 80.163 192.441 83.7563 176.528ZM127.918 164.758H111.528V150.238H127.918V164.758ZM128.248 228.008H111.088V171.248H128.248V228.008ZM168.846 171.248V183.788H157.956V210.298C157.956 212.204 158.432 213.524 159.386 214.258C160.339 214.918 162.026 215.248 164.446 215.248H168.846V228.008C166.792 228.301 164.152 228.448 160.926 228.448C153.812 228.448 148.679 227.201 145.526 224.708C142.372 222.141 140.796 217.961 140.796 212.168V183.788H132.326V171.248H140.796V154.418H157.956V171.248H168.846ZM208.474 169.928C214.487 169.928 219.254 171.761 222.774 175.428C226.367 179.021 228.164 184.154 228.164 190.828V228.008H211.004V194.238C211.004 187.784 207.961 184.558 201.874 184.558C198.794 184.558 196.227 185.584 194.174 187.638C192.121 189.691 191.094 192.588 191.094 196.328V228.008H173.934V149.688H191.094V178.728C195.421 172.861 201.214 169.928 208.474 169.928ZM255.819 149.688H322.589V166.298H298.499V228.008H279.799V166.298H255.819V149.688ZM354.482 170.368C354.775 170.368 356.022 170.441 358.222 170.588V186.208H353.822C343.775 186.208 338.752 191.341 338.752 201.608V228.008H321.592V171.248H338.312V181.808C340.952 174.181 346.342 170.368 354.482 170.368ZM399.538 202.928V171.248H416.698V228.008H399.978V219.978C395.578 226.211 389.638 229.328 382.158 229.328C376.145 229.328 371.341 227.531 367.748 223.938C364.228 220.271 362.468 215.101 362.468 208.428V171.248H379.628V205.018C379.628 211.471 382.671 214.698 388.758 214.698C391.838 214.698 394.405 213.671 396.458 211.618C398.511 209.564 399.538 206.668 399.538 202.928ZM448.269 229.658C439.322 229.658 432.649 228.118 428.249 225.038C423.922 221.884 421.502 216.861 420.989 209.968H437.709C438.002 212.974 438.955 215.101 440.569 216.348C442.255 217.594 444.932 218.218 448.599 218.218C454.979 218.218 458.169 216.384 458.169 212.718C458.169 210.958 457.472 209.638 456.079 208.758C454.685 207.804 452.119 207.034 448.379 206.448L441.009 205.238C428.249 203.258 421.869 197.464 421.869 187.858C421.869 182.138 424.069 177.738 428.469 174.658C432.869 171.504 439.175 169.928 447.389 169.928C464.329 169.928 473.129 176.418 473.789 189.398H457.839C457.765 184.044 454.282 181.368 447.389 181.368C441.595 181.368 438.699 183.164 438.699 186.758C438.699 188.371 439.359 189.618 440.679 190.498C441.999 191.378 444.089 192.038 446.949 192.478L455.419 193.688C462.239 194.714 467.262 196.658 470.489 199.518C473.715 202.378 475.329 206.301 475.329 211.288C475.329 217.154 472.945 221.701 468.179 224.928C463.485 228.081 456.849 229.658 448.269 229.658ZM511.483 171.248V183.788H500.593V210.298C500.593 212.204 501.069 213.524 502.023 214.258C502.976 214.918 504.663 215.248 507.083 215.248H511.483V228.008C509.429 228.301 506.789 228.448 503.563 228.448C496.449 228.448 491.316 227.201 488.163 224.708C485.009 222.141 483.433 217.961 483.433 212.168V183.788H474.963V171.248H483.433V154.418H500.593V171.248H511.483ZM576.785 229.768C565.125 229.768 555.702 226.064 548.515 218.658C541.328 211.251 537.735 201.314 537.735 188.848C537.735 176.234 541.255 166.261 548.295 158.928C555.335 151.594 564.832 147.928 576.785 147.928C586.465 147.928 594.678 150.494 601.425 155.628C608.318 160.834 612.462 168.204 613.855 177.738H595.045C593.872 173.338 591.672 169.964 588.445 167.618C585.292 165.198 581.405 163.988 576.785 163.988C570.478 163.988 565.602 166.151 562.155 170.478C558.782 174.804 557.095 180.928 557.095 188.848C557.095 196.768 558.782 202.891 562.155 207.218C565.602 211.544 570.478 213.708 576.785 213.708C581.625 213.708 585.732 212.314 589.105 209.528C592.478 206.741 594.605 202.854 595.485 197.868H614.075C612.902 207.988 608.905 215.834 602.085 221.408C595.192 226.981 586.758 229.768 576.785 229.768ZM674.048 228.008H656.778C655.898 226.321 655.421 224.194 655.348 221.628C651.535 226.761 645.485 229.328 637.198 229.328C630.965 229.328 625.941 227.788 622.128 224.708C618.388 221.628 616.518 217.374 616.518 211.948C616.518 201.388 623.925 195.484 638.738 194.238L647.648 193.468C652.561 192.954 655.018 191.084 655.018 187.858C655.018 184.044 652.121 182.138 646.328 182.138C642.808 182.138 640.315 182.688 638.848 183.788C637.455 184.814 636.611 186.758 636.318 189.618H619.268C620.295 176.491 629.351 169.928 646.438 169.928C663.305 169.928 671.738 175.758 671.738 187.418V217.558C671.738 222.324 672.508 225.808 674.048 228.008ZM642.368 217.778C646.255 217.778 649.335 216.788 651.608 214.808C653.881 212.754 655.018 209.711 655.018 205.678V201.498C653.991 202.598 652.085 203.331 649.298 203.698L642.258 204.468C636.758 205.054 634.008 207.328 634.008 211.288C634.008 213.268 634.741 214.844 636.208 216.018C637.675 217.191 639.728 217.778 642.368 217.778ZM712.503 169.928C720.13 169.928 726.18 172.604 730.653 177.958C735.053 183.311 737.253 190.534 737.253 199.628C737.253 208.721 735.053 215.944 730.653 221.298C726.18 226.651 720.13 229.328 712.503 229.328C705.243 229.328 699.67 226.578 695.783 221.078V249.568H678.623V171.248H695.343V178.838C699.23 172.898 704.95 169.928 712.503 169.928ZM707.773 215.578C711.587 215.578 714.557 214.184 716.683 211.398C718.81 208.538 719.873 204.468 719.873 199.188C719.873 188.848 715.84 183.678 707.773 183.678C699.633 183.678 695.563 188.994 695.563 199.628C695.563 210.261 699.633 215.578 707.773 215.578ZM759.425 164.758H743.035V150.238H759.425V164.758ZM759.755 228.008H742.595V171.248H759.755V228.008ZM800.353 171.248V183.788H789.463V210.298C789.463 212.204 789.94 213.524 790.893 214.258C791.846 214.918 793.533 215.248 795.953 215.248H800.353V228.008C798.3 228.301 795.66 228.448 792.433 228.448C785.32 228.448 780.186 227.201 777.033 224.708C773.88 222.141 772.303 217.961 772.303 212.168V183.788H763.833V171.248H772.303V154.418H789.463V171.248H800.353ZM860.004 228.008H842.734C841.854 226.321 841.377 224.194 841.304 221.628C837.491 226.761 831.441 229.328 823.154 229.328C816.921 229.328 811.897 227.788 808.084 224.708C804.344 221.628 802.474 217.374 802.474 211.948C802.474 201.388 809.881 195.484 824.694 194.238L833.604 193.468C838.517 192.954 840.974 191.084 840.974 187.858C840.974 184.044 838.077 182.138 832.284 182.138C828.764 182.138 826.271 182.688 824.804 183.788C823.411 184.814 822.567 186.758 822.274 189.618H805.224C806.251 176.491 815.307 169.928 832.394 169.928C849.261 169.928 857.694 175.758 857.694 187.418V217.558C857.694 222.324 858.464 225.808 860.004 228.008ZM828.324 217.778C832.211 217.778 835.291 216.788 837.564 214.808C839.837 212.754 840.974 209.711 840.974 205.678V201.498C839.947 202.598 838.041 203.331 835.254 203.698L828.214 204.468C822.714 205.054 819.964 207.328 819.964 211.288C819.964 213.268 820.697 214.844 822.164 216.018C823.631 217.191 825.684 217.778 828.324 217.778ZM881.632 228.008H864.472V149.688H881.632V228.008Z" fill="white" />
  <path d="M54.8621 172.008L42.4863 228.508L54.8621 217.508L67.4863 228.508L54.8621 172.008Z" fill="#56B953" />
  <path d="M1071.59 210.107C1072.74 208.948 1072.74 207.068 1071.59 205.909L1052.69 187.017C1051.53 185.857 1049.65 185.857 1048.5 187.017C1047.34 188.176 1047.34 190.056 1048.5 191.215L1065.29 208.008L1048.5 224.801C1047.34 225.96 1047.34 227.84 1048.5 228.999C1049.65 230.158 1051.53 230.158 1052.69 228.999L1071.59 210.107ZM895.486 210.976H1069.49V205.039H895.486V210.976Z" fill="#B7B1D2" />
</svg>