<svg width="884" height="407" viewBox="0 0 884 407" fill="none" xmlns="http://www.w3.org/2000/svg">
    <path d="M167.6 2.09195V18.7794H126.157V33.0356H163.842V48.7285H126.157V64.0899H167.489V80.7773H107.481V2.09195H167.6ZM231.924 2.09195V18.7794H192.802V33.0356H228.94V48.839H192.802V80.7773H174.125V2.09195H231.924ZM294.899 2.09195V18.7794H255.777V33.0356H291.915V48.839H255.777V80.7773H237.101V2.09195H294.899ZM366.489 71.2732C359.048 78.7881 349.323 82.5456 337.314 82.5456C325.304 82.5456 315.579 78.7881 308.138 71.2732C300.697 63.6846 296.976 53.7384 296.976 41.4346C296.976 29.1308 300.697 19.1847 308.138 11.5961C315.579 4.08118 325.304 0.323736 337.314 0.323736C349.323 0.323736 359.048 4.08118 366.489 11.5961C373.93 19.1847 377.651 29.1308 377.651 41.4346C377.651 53.7384 373.93 63.6846 366.489 71.2732ZM322.173 59.6693C325.931 64.0899 330.977 66.3001 337.314 66.3001C343.576 66.3001 348.66 64.0899 352.564 59.6693C356.395 55.3225 358.311 49.2442 358.311 41.4346C358.311 33.625 356.395 27.5468 352.564 23.2C348.66 18.7794 343.576 16.5692 337.314 16.5692C330.977 16.5692 325.931 18.7794 322.173 23.2C318.342 27.5468 316.427 33.625 316.427 41.4346C316.427 49.2442 318.342 55.3225 322.173 59.6693ZM448.304 61.2165L448.857 72.2678C448.93 75.8042 449.667 78.6408 451.067 80.7773H431.838C430.659 78.5671 430.033 75.6937 429.959 72.1573L429.627 63.3163C429.48 58.9694 428.486 55.9856 426.644 54.3647C424.875 52.6702 422.002 51.8229 418.024 51.8229H402.773V80.7773H384.096V2.09195H421.339C430.548 2.09195 437.584 4.15486 442.447 8.28069C447.383 12.3328 449.851 17.8585 449.851 24.8577C449.851 33.9197 445.615 40.1453 437.142 43.5344C441.195 44.8606 443.994 46.8866 445.541 49.6126C447.162 52.3386 448.083 56.2066 448.304 61.2165ZM402.773 17.0112V37.7877H419.239C422.849 37.7877 425.649 36.9036 427.638 35.1354C429.627 33.2935 430.622 30.678 430.622 27.289C430.622 20.4371 426.717 17.0112 418.908 17.0112H402.773ZM450.742 2.09195H517.824V18.7794H493.622V80.7773H474.834V18.7794H450.742V2.09195ZM541.242 2.09195V64.0899H577.27V80.7773H522.566V2.09195H541.242ZM642.53 2.09195V18.7794H601.088V33.0356H638.773V48.7285H601.088V64.0899H642.42V80.7773H582.411V2.09195H642.53ZM679.884 82.5456C668.906 82.5456 660.433 80.1143 654.466 75.2517C648.498 70.3891 645.477 63.611 645.404 54.9173H663.528C663.601 59.7798 665.001 63.1689 667.727 65.0845C670.527 67 674.8 67.9578 680.547 67.9578C689.462 67.9578 693.919 64.9371 693.919 58.8957C693.919 56.2434 692.924 54.291 690.935 53.0385C689.019 51.7124 685.299 50.5336 679.773 49.5021L673.363 48.2865C655.829 45.3394 647.061 37.1246 647.061 23.642C647.061 16.4955 649.714 10.8225 655.018 6.62299C660.397 2.42349 667.985 0.323736 677.784 0.323736C688.246 0.323736 696.24 2.534 701.765 6.95453C707.291 11.3751 710.238 17.7111 710.606 25.9628H692.924C692.703 22.1317 691.414 19.332 689.056 17.5638C686.772 15.7956 683.125 14.9115 678.115 14.9115C670.085 14.9115 666.07 17.5638 666.07 22.8684C666.07 25.5207 667.027 27.5468 668.943 28.9467C670.932 30.3465 674.432 31.5253 679.442 32.4831L686.072 33.6987C695.577 35.3933 702.465 38.1561 706.738 41.9872C711.085 45.7447 713.259 50.9756 713.259 57.6801C713.259 65.7107 710.312 71.8626 704.418 76.1358C698.524 80.409 690.346 82.5456 679.884 82.5456ZM750.522 82.5456C739.544 82.5456 731.071 80.1143 725.103 75.2517C719.136 70.3891 716.115 63.611 716.041 54.9173H734.166C734.239 59.7798 735.639 63.1689 738.365 65.0845C741.165 67 745.438 67.9578 751.185 67.9578C760.099 67.9578 764.557 64.9371 764.557 58.8957C764.557 56.2434 763.562 54.291 761.573 53.0385C759.657 51.7124 755.937 50.5336 750.411 49.5021L744.001 48.2865C726.466 45.3394 717.699 37.1246 717.699 23.642C717.699 16.4955 720.351 10.8225 725.656 6.62299C731.034 2.42349 738.623 0.323736 748.422 0.323736C758.884 0.323736 766.877 2.534 772.403 6.95453C777.929 11.3751 780.876 17.7111 781.244 25.9628H763.562C763.341 22.1317 762.052 19.332 759.694 17.5638C757.41 15.7956 753.763 14.9115 748.753 14.9115C740.723 14.9115 736.707 17.5638 736.707 22.8684C736.707 25.5207 737.665 27.5468 739.581 28.9467C741.57 30.3465 745.07 31.5253 750.079 32.4831L756.71 33.6987C766.214 35.3933 773.103 38.1561 777.376 41.9872C781.723 45.7447 783.897 50.9756 783.897 57.6801C783.897 65.7107 780.949 71.8626 775.055 76.1358C769.161 80.409 760.983 82.5456 750.522 82.5456ZM188.535 110.092H255.616V126.779H231.414V188.777H212.627V126.779H188.535V110.092ZM324.566 169.217L325.119 180.268C325.192 183.804 325.929 186.641 327.329 188.777H308.1C306.921 186.567 306.295 183.694 306.221 180.157L305.889 171.316C305.742 166.969 304.747 163.986 302.906 162.365C301.137 160.67 298.264 159.823 294.286 159.823H279.035V188.777H260.358V110.092H297.601C306.81 110.092 313.846 112.155 318.709 116.281C323.645 120.333 326.113 125.858 326.113 132.858C326.113 141.92 321.877 148.145 313.404 151.534C317.456 152.861 320.256 154.887 321.803 157.613C323.424 160.339 324.345 164.207 324.566 169.217ZM279.035 125.011V145.788H295.501C299.111 145.788 301.911 144.904 303.9 143.135C305.889 141.294 306.884 138.678 306.884 135.289C306.884 128.437 302.979 125.011 295.17 125.011H279.035ZM406.677 188.777H386.895L382.253 175.074H349.541L345.01 188.777H325.891L354.846 110.092H377.059L406.677 188.777ZM359.266 146.009L354.735 159.491H376.949L372.417 146.009C371.018 142.03 368.807 135.399 365.787 126.116C361.882 138.125 359.708 144.756 359.266 146.009ZM409.62 110.092H441.89C454.857 110.092 464.803 113.592 471.728 120.591C478.654 127.516 482.117 137.131 482.117 149.435C482.117 161.738 478.654 171.39 471.728 178.389C464.803 185.315 454.857 188.777 441.89 188.777H409.62V110.092ZM428.297 172.974H441.558C448.336 172.974 453.53 171.022 457.141 167.117C460.824 163.138 462.666 157.244 462.666 149.435C462.666 141.625 460.824 135.768 457.141 131.863C453.53 127.885 448.336 125.895 441.558 125.895H428.297V172.974ZM507.244 188.777H488.568V110.092H507.244V188.777ZM568.175 126.558V110.092H585.968V188.777H565.854L546.625 157.392C540.731 147.593 536.642 140.446 534.358 135.952C534.653 146.046 534.8 158.165 534.8 172.311V188.777H517.008V110.092H537.121L556.35 141.478C561.876 150.613 565.965 157.834 568.617 163.138C568.323 152.897 568.175 140.704 568.175 126.558ZM634.64 159.491V144.904H670.889V188.777H657.848L655.638 178.389C650.333 186.493 641.824 190.546 630.109 190.546C618.689 190.546 609.554 186.788 602.702 179.273C595.85 171.906 592.424 161.959 592.424 149.435C592.424 136.762 595.997 126.743 603.144 119.375C610.217 112.008 619.942 108.324 632.319 108.324C642.56 108.324 651.07 110.866 657.848 115.949C664.7 121.106 668.715 127.995 669.894 136.615H650.775C649.67 132.784 647.533 129.8 644.365 127.664C641.197 125.527 637.219 124.459 632.43 124.459C626.02 124.459 620.973 126.669 617.29 131.089C613.68 135.51 611.874 141.625 611.874 149.435C611.874 157.244 613.753 163.359 617.511 167.78C621.342 172.2 626.61 174.411 633.314 174.411C638.177 174.411 642.339 173.048 645.802 170.322C649.338 167.522 651.438 163.912 652.101 159.491H634.64ZM696.46 188.777H677.01V169.769H696.46V188.777ZM219.481 218.092H251.751C264.718 218.092 274.664 221.592 281.589 228.591C288.515 235.516 291.978 245.131 291.978 257.435C291.978 269.738 288.515 279.39 281.589 286.389C274.664 293.315 264.718 296.777 251.751 296.777H219.481V218.092ZM238.158 280.974H251.419C258.197 280.974 263.392 279.022 267.002 275.117C270.685 271.138 272.527 265.244 272.527 257.435C272.527 249.625 270.685 243.768 267.002 239.863C263.392 235.885 258.197 233.895 251.419 233.895H238.158V280.974ZM317.106 296.777H298.429V218.092H317.106V296.777ZM367.987 252.683L379.37 218.092H398.6L371.082 296.777H348.979L320.577 218.092H340.58L352.074 252.683C355.684 263.955 358.373 273.164 360.141 280.311C362.72 270.217 365.335 261.008 367.987 252.683ZM462.159 218.092V234.779H420.716V249.036H458.401V264.729H420.716V280.09H462.048V296.777H402.039V218.092H462.159ZM532.892 277.217L533.445 288.268C533.518 291.804 534.255 294.641 535.655 296.777H516.426C515.247 294.567 514.621 291.694 514.547 288.157L514.215 279.316C514.068 274.969 513.073 271.986 511.232 270.365C509.463 268.67 506.59 267.823 502.612 267.823H487.361V296.777H468.684V218.092H505.927C515.136 218.092 522.172 220.155 527.035 224.281C531.971 228.333 534.439 233.858 534.439 240.858C534.439 249.92 530.203 256.145 521.73 259.534C525.782 260.861 528.582 262.887 530.129 265.613C531.75 268.339 532.671 272.207 532.892 277.217ZM487.361 233.011V253.788H503.827C507.437 253.788 510.237 252.904 512.226 251.135C514.215 249.294 515.21 246.678 515.21 243.289C515.21 236.437 511.305 233.011 503.496 233.011H487.361ZM571.877 298.546C560.899 298.546 552.426 296.114 546.458 291.252C540.491 286.389 537.47 279.611 537.396 270.917H555.521C555.594 275.78 556.994 279.169 559.72 281.084C562.52 283 566.793 283.958 572.54 283.958C581.454 283.958 585.912 280.937 585.912 274.896C585.912 272.243 584.917 270.291 582.928 269.039C581.012 267.712 577.292 266.534 571.766 265.502L565.356 264.286C547.821 261.339 539.054 253.125 539.054 239.642C539.054 232.496 541.706 226.822 547.011 222.623C552.389 218.423 559.978 216.324 569.777 216.324C580.239 216.324 588.232 218.534 593.758 222.955C599.284 227.375 602.231 233.711 602.599 241.963H584.917C584.696 238.132 583.407 235.332 581.049 233.564C578.765 231.796 575.118 230.911 570.108 230.911C562.078 230.911 558.062 233.564 558.062 238.868C558.062 241.521 559.02 243.547 560.936 244.947C562.925 246.346 566.425 247.525 571.434 248.483L578.065 249.699C587.569 251.393 594.458 254.156 598.731 257.987C603.078 261.745 605.251 266.976 605.251 273.68C605.251 281.711 602.304 287.863 596.41 292.136C590.516 296.409 582.338 298.546 571.877 298.546ZM671.05 218.092V234.779H629.608V249.036H667.293V264.729H629.608V280.09H670.94V296.777H610.931V218.092H671.05ZM69.8259 395.273C62.3847 402.788 52.6595 406.546 40.6504 406.546C28.6413 406.546 18.9161 402.788 11.4749 395.273C4.03369 387.685 0.313083 377.738 0.313083 365.435C0.313083 353.131 4.03369 343.185 11.4749 335.596C18.9161 328.081 28.6413 324.324 40.6504 324.324C52.6595 324.324 62.3847 328.081 69.8259 335.596C77.2671 343.185 80.9877 353.131 80.9877 365.435C80.9877 377.738 77.2671 387.685 69.8259 395.273ZM25.5101 383.669C29.2675 388.09 34.3143 390.3 40.6504 390.3C46.9128 390.3 51.9964 388.09 55.9012 383.669C59.7323 379.322 61.6479 373.244 61.6479 365.435C61.6479 357.625 59.7323 351.547 55.9012 347.2C51.9964 342.779 46.9128 340.569 40.6504 340.569C34.3143 340.569 29.2675 342.779 25.5101 347.2C21.679 351.547 19.7634 357.625 19.7634 365.435C19.7634 373.244 21.679 379.322 25.5101 383.669ZM87.4329 326.092H123.239C132.301 326.092 139.411 328.486 144.568 333.275C149.725 337.991 152.304 344.437 152.304 352.615C152.304 360.793 149.725 367.277 144.568 372.065C139.411 376.781 132.301 379.138 123.239 379.138H106.11V404.777H87.4329V326.092ZM106.11 363.335H122.024C125.707 363.335 128.544 362.414 130.533 360.572C132.596 358.73 133.627 356.078 133.627 352.615C133.627 349.152 132.596 346.5 130.533 344.658C128.47 342.816 125.634 341.895 122.024 341.895H106.11V363.335ZM158.61 326.092H194.417C203.479 326.092 210.588 328.486 215.746 333.275C220.903 337.991 223.482 344.437 223.482 352.615C223.482 360.793 220.903 367.277 215.746 372.065C210.588 376.781 203.479 379.138 194.417 379.138H177.287V404.777H158.61V326.092ZM177.287 363.335H193.201C196.885 363.335 199.721 362.414 201.71 360.572C203.773 358.73 204.805 356.078 204.805 352.615C204.805 349.152 203.773 346.5 201.71 344.658C199.648 342.816 196.811 341.895 193.201 341.895H177.287V363.335ZM295.985 395.273C288.544 402.788 278.819 406.546 266.81 406.546C254.8 406.546 245.075 402.788 237.634 395.273C230.193 387.685 226.472 377.738 226.472 365.435C226.472 353.131 230.193 343.185 237.634 335.596C245.075 328.081 254.8 324.324 266.81 324.324C278.819 324.324 288.544 328.081 295.985 335.596C303.426 343.185 307.147 353.131 307.147 365.435C307.147 377.738 303.426 387.685 295.985 395.273ZM251.669 383.669C255.427 388.09 260.474 390.3 266.81 390.3C273.072 390.3 278.156 388.09 282.06 383.669C285.892 379.322 287.807 373.244 287.807 365.435C287.807 357.625 285.892 351.547 282.06 347.2C278.156 342.779 273.072 340.569 266.81 340.569C260.474 340.569 255.427 342.779 251.669 347.2C247.838 351.547 245.923 357.625 245.923 365.435C245.923 373.244 247.838 379.322 251.669 383.669ZM377.8 385.217L378.353 396.268C378.426 399.804 379.163 402.641 380.563 404.777H361.334C360.155 402.567 359.529 399.694 359.455 396.157L359.124 387.316C358.976 382.969 357.982 379.986 356.14 378.365C354.371 376.67 351.498 375.823 347.52 375.823H332.269V404.777H313.592V326.092H350.835C360.044 326.092 367.08 328.155 371.943 332.281C376.879 336.333 379.347 341.858 379.347 348.858C379.347 357.92 375.111 364.145 366.638 367.534C370.691 368.861 373.49 370.887 375.037 373.613C376.658 376.339 377.579 380.207 377.8 385.217ZM332.269 341.011V361.788H348.735C352.345 361.788 355.145 360.904 357.134 359.135C359.124 357.294 360.118 354.678 360.118 351.289C360.118 344.437 356.213 341.011 348.404 341.011H332.269ZM380.238 326.092H447.32V342.779H423.118V404.777H404.33V342.779H380.238V326.092ZM484.458 406.546C474.217 406.546 465.965 403.783 459.703 398.257C453.44 392.879 450.309 385.069 450.309 374.828V326.092H468.986V375.049C468.986 380.059 470.312 383.89 472.964 386.543C475.69 389.121 479.521 390.411 484.458 390.411C489.394 390.411 493.225 389.121 495.951 386.543C498.677 383.89 500.04 380.059 500.04 375.049V326.092H518.717V374.828C518.717 384.922 515.659 392.731 509.544 398.257C503.503 403.783 495.141 406.546 484.458 406.546ZM578.508 342.558V326.092H596.3V404.777H576.187L556.958 373.392C551.064 363.593 546.975 356.446 544.691 351.952C544.985 362.046 545.133 374.165 545.133 388.311V404.777H527.34V326.092H547.454L566.683 357.478C572.209 366.613 576.297 373.834 578.95 379.138C578.655 368.897 578.508 356.704 578.508 342.558ZM624.749 404.777H606.072V326.092H624.749V404.777ZM629.657 326.092H696.739V342.779H672.536V404.777H653.749V342.779H629.657V326.092ZM720.157 404.777H701.48V326.092H720.157V404.777ZM790.039 326.092V342.779H748.597V357.036H786.282V372.729H748.597V388.09H789.929V404.777H729.92V326.092H790.039ZM827.393 406.546C816.415 406.546 807.943 404.114 801.975 399.252C796.007 394.389 792.986 387.611 792.913 378.917H811.037C811.111 383.78 812.51 387.169 815.236 389.084C818.036 391 822.309 391.958 828.056 391.958C836.971 391.958 841.428 388.937 841.428 382.896C841.428 380.243 840.433 378.291 838.444 377.039C836.529 375.712 832.808 374.534 827.282 373.502L820.873 372.286C803.338 369.339 794.57 361.125 794.57 347.642C794.57 340.496 797.223 334.822 802.527 330.623C807.906 326.423 815.494 324.324 825.293 324.324C835.755 324.324 843.749 326.534 849.275 330.955C854.8 335.375 857.747 341.711 858.116 349.963H840.433C840.212 346.132 838.923 343.332 836.566 341.564C834.282 339.796 830.635 338.911 825.625 338.911C817.594 338.911 813.579 341.564 813.579 346.868C813.579 349.521 814.537 351.547 816.452 352.947C818.441 354.346 821.941 355.525 826.951 356.483L833.582 357.699C843.086 359.393 849.974 362.156 854.248 365.987C858.594 369.745 860.768 374.976 860.768 381.68C860.768 389.711 857.821 395.863 851.927 400.136C846.033 404.409 837.855 406.546 827.393 406.546ZM883.687 404.777H864.237V385.769H883.687V404.777Z" fill="white"/>
    <path d="M345.017 188.41L366.016 120.733L387.017 188.41L365.174 172.956L345.017 188.41Z" fill="#56B953"/>
    </svg>
    