<svg width="922" height="333" viewBox="0 0 922 333" fill="none" xmlns="http://www.w3.org/2000/svg">
  <path d="M0.526328 274.04H49.0863V286.12H31.5663V331H17.9663V286.12H0.526328V274.04ZM98.9988 316.84L99.3988 324.84C99.4522 327.4 99.9855 329.453 100.999 331H87.0788C86.2255 329.4 85.7722 327.32 85.7188 324.76L85.4788 318.36C85.3722 315.213 84.6522 313.053 83.3188 311.88C82.0388 310.653 79.9588 310.04 77.0788 310.04H66.0388V331H52.5188V274.04H79.4788C86.1455 274.04 91.2388 275.533 94.7588 278.52C98.3322 281.453 100.119 285.453 100.119 290.52C100.119 297.08 97.0522 301.587 90.9188 304.04C93.8522 305 95.8788 306.467 96.9988 308.44C98.1722 310.413 98.8388 313.213 98.9988 316.84ZM66.0388 284.84V299.88H77.9588C80.5722 299.88 82.5988 299.24 84.0388 297.96C85.4788 296.627 86.1988 294.733 86.1988 292.28C86.1988 287.32 83.3722 284.84 77.7188 284.84H66.0388ZM128.979 332.28C121.566 332.28 115.593 330.28 111.059 326.28C106.526 322.387 104.259 316.733 104.259 309.32V274.04H117.779V309.48C117.779 313.107 118.739 315.88 120.659 317.8C122.633 319.667 125.406 320.6 128.979 320.6C132.553 320.6 135.326 319.667 137.299 317.8C139.273 315.88 140.259 313.107 140.259 309.48V274.04H153.779V309.32C153.779 316.627 151.566 322.28 147.139 326.28C142.766 330.28 136.713 332.28 128.979 332.28ZM182.182 332.28C174.235 332.28 168.102 330.52 163.782 327C159.462 323.48 157.275 318.573 157.222 312.28H170.342C170.395 315.8 171.409 318.253 173.382 319.64C175.409 321.027 178.502 321.72 182.662 321.72C189.115 321.72 192.342 319.533 192.342 315.16C192.342 313.24 191.622 311.827 190.182 310.92C188.795 309.96 186.102 309.107 182.102 308.36L177.462 307.48C164.769 305.347 158.422 299.4 158.422 289.64C158.422 284.467 160.342 280.36 164.182 277.32C168.075 274.28 173.569 272.76 180.662 272.76C188.235 272.76 194.022 274.36 198.022 277.56C202.022 280.76 204.155 285.347 204.422 291.32H191.622C191.462 288.547 190.529 286.52 188.822 285.24C187.169 283.96 184.529 283.32 180.902 283.32C175.089 283.32 172.182 285.24 172.182 289.08C172.182 291 172.875 292.467 174.262 293.48C175.702 294.493 178.235 295.347 181.862 296.04L186.662 296.92C193.542 298.147 198.529 300.147 201.622 302.92C204.769 305.64 206.342 309.427 206.342 314.28C206.342 320.093 204.209 324.547 199.942 327.64C195.675 330.733 189.755 332.28 182.182 332.28ZM204.908 274.04H253.468V286.12H235.948V331H222.348V286.12H204.908V274.04ZM270.926 274.04H319.486V286.12H301.966V331H288.366V286.12H270.926V274.04ZM359.319 295.8V274.04H372.839V331H359.319V307.96H336.439V331H322.919V274.04H336.439V295.8H359.319ZM423.433 274.04V286.12H393.433V296.44H420.713V307.8H393.433V318.92H423.353V331H379.913V274.04H423.433ZM445.228 274.04H468.588C477.975 274.04 485.175 276.573 490.188 281.64C495.202 286.653 497.708 293.613 497.708 302.52C497.708 311.427 495.202 318.413 490.188 323.48C485.175 328.493 477.975 331 468.588 331H445.228V274.04ZM458.748 319.56H468.348C473.255 319.56 477.015 318.147 479.628 315.32C482.295 312.44 483.628 308.173 483.628 302.52C483.628 296.867 482.295 292.627 479.628 289.8C477.015 286.92 473.255 285.48 468.348 285.48H458.748V319.56ZM515.898 331H502.378V274.04H515.898V331ZM564.806 274.04V286.12H536.486V296.44H562.646V307.88H536.486V331H522.966V274.04H564.806ZM610.393 274.04V286.12H582.073V296.44H608.233V307.88H582.073V331H568.553V274.04H610.393ZM657.661 274.04V286.12H627.661V296.44H654.941V307.8H627.661V318.92H657.581V331H614.141V274.04H657.661ZM708.864 316.84L709.264 324.84C709.318 327.4 709.851 329.453 710.864 331H696.944C696.091 329.4 695.638 327.32 695.584 324.76L695.344 318.36C695.238 315.213 694.518 313.053 693.184 311.88C691.904 310.653 689.824 310.04 686.944 310.04H675.904V331H662.384V274.04H689.344C696.011 274.04 701.104 275.533 704.624 278.52C708.198 281.453 709.984 285.453 709.984 290.52C709.984 297.08 706.918 301.587 700.784 304.04C703.718 305 705.744 306.467 706.864 308.44C708.038 310.413 708.704 313.213 708.864 316.84ZM675.904 284.84V299.88H687.824C690.438 299.88 692.464 299.24 693.904 297.96C695.344 296.627 696.064 294.733 696.064 292.28C696.064 287.32 693.238 284.84 687.584 284.84H675.904ZM758.445 274.04V286.12H728.445V296.44H755.725V307.8H728.445V318.92H758.365V331H714.925V274.04H758.445ZM800.209 285.96V274.04H813.089V331H798.529L784.609 308.28C780.342 301.187 777.382 296.013 775.729 292.76C775.942 300.067 776.049 308.84 776.049 319.08V331H763.169V274.04H777.729L791.649 296.76C795.649 303.373 798.609 308.6 800.529 312.44C800.315 305.027 800.209 296.2 800.209 285.96ZM846.163 332.28C837.683 332.28 830.829 329.587 825.603 324.2C820.376 318.813 817.763 311.587 817.763 302.52C817.763 293.347 820.323 286.093 825.443 280.76C830.563 275.427 837.469 272.76 846.163 272.76C853.203 272.76 859.176 274.627 864.083 278.36C869.096 282.147 872.109 287.507 873.123 294.44H859.443C858.589 291.24 856.989 288.787 854.643 287.08C852.349 285.32 849.523 284.44 846.163 284.44C841.576 284.44 838.029 286.013 835.523 289.16C833.069 292.307 831.843 296.76 831.843 302.52C831.843 308.28 833.069 312.733 835.523 315.88C838.029 319.027 841.576 320.6 846.163 320.6C849.683 320.6 852.669 319.587 855.123 317.56C857.576 315.533 859.123 312.707 859.763 309.08H873.283C872.429 316.44 869.523 322.147 864.563 326.2C859.549 330.253 853.416 332.28 846.163 332.28ZM921.379 274.04V286.12H891.379V296.44H918.659V307.8H891.379V318.92H921.299V331H877.859V274.04H921.379Z" fill="#403788"/>
  <path d="M83.857 2.84323V27.3824H33.9515V40.3413H79.4455V63.2262H33.9515V76.4608H83.857V101H6.37936V2.84323H83.857ZM166.121 2.84323V27.3824H118.973V40.2035H163.088V63.364H118.973V101H91.4006V2.84323H166.121ZM246.296 2.84323V27.3824H199.147V40.2035H243.263V63.364H199.147V101H171.575V2.84323H246.296ZM337.88 89.144C328.414 98.5185 315.96 103.206 300.52 103.206C285.08 103.206 272.626 98.5185 263.16 89.144C253.693 79.9533 248.96 67.5458 248.96 51.9216C248.96 36.3893 253.693 23.9359 263.16 14.5614C272.718 5.27877 285.172 0.637458 300.52 0.637458C315.869 0.637458 328.322 5.27877 337.88 14.5614C347.347 23.9359 352.08 36.3893 352.08 51.9216C352.08 67.5458 347.347 79.9533 337.88 89.144ZM283.839 72.0493C287.975 76.9203 293.535 79.3559 300.52 79.3559C307.505 79.3559 313.065 76.9203 317.201 72.0493C321.337 67.2701 323.405 60.5609 323.405 51.9216C323.405 43.4662 321.337 36.8029 317.201 31.9318C313.065 26.9688 307.505 24.4874 300.52 24.4874C293.535 24.4874 287.975 26.9688 283.839 31.9318C279.703 36.8029 277.635 43.4662 277.635 51.9216C277.635 60.5609 279.703 67.2701 283.839 72.0493ZM441.977 77.9773L442.528 91.074C442.712 95.1179 443.539 98.4266 445.01 101H416.611C415.508 98.8861 414.864 95.5775 414.681 91.074L414.267 79.9073C414.083 74.9443 412.934 71.5897 410.82 69.8435C408.798 68.0054 405.49 67.0863 400.894 67.0863H386.557V101H358.985V2.84323H407.236C419.735 2.84323 428.972 5.55449 434.946 10.977C440.828 16.4914 443.769 23.4764 443.769 31.9318C443.769 36.9867 442.436 41.5361 439.771 45.58C437.198 49.6239 433.43 52.7488 428.467 54.9545C433.43 56.7927 436.83 59.458 438.668 62.9505C440.598 66.4429 441.701 71.4519 441.977 77.9773ZM386.557 24.3495V46.9586H403.1C411.28 46.9586 415.37 43.1904 415.37 35.6541C415.37 28.1177 411.28 24.3495 403.1 24.3495H386.557ZM445.762 2.84323H531.235V27.3824H502.284V101H474.712V27.3824H445.762V2.84323ZM564.273 2.84323V76.4608H607.699V101H536.701V2.84323H564.273ZM690.718 2.84323V27.3824H640.813V40.3413H686.307V63.2262H640.813V76.4608H690.718V101H613.241V2.84323H690.718ZM737.95 103.206C723.888 103.206 713.043 100.127 705.415 93.9691C697.878 87.8113 694.11 79.4018 694.11 68.7406H720.579C720.671 73.8874 722.188 77.4258 725.129 79.3559C728.07 81.2859 732.711 82.251 739.053 82.251C748.243 82.251 752.839 79.3099 752.839 73.4279C752.839 70.6707 751.782 68.6487 749.668 67.362C747.554 66.0753 743.464 64.9265 737.398 63.9155L729.678 62.6747C706.977 58.9985 695.626 48.4291 695.626 30.9668C695.626 21.6842 699.073 14.3316 705.966 8.9091C712.951 3.39467 722.923 0.637458 735.882 0.637458C748.933 0.637458 759.042 3.39467 766.211 8.9091C773.38 14.3316 777.24 22.3735 777.791 33.0347H751.874C751.69 29.0827 750.357 26.1876 747.876 24.3495C745.394 22.5113 741.534 21.5923 736.295 21.5923C727.932 21.5923 723.75 24.3035 723.75 29.7261C723.75 32.4833 724.807 34.5512 726.921 35.9298C729.035 37.3084 732.757 38.4572 738.088 39.3763L746.221 40.7549C758.445 42.7769 767.314 46.2234 772.828 51.0945C778.435 55.8736 781.238 62.6288 781.238 71.36C781.238 81.7455 777.424 89.6495 769.796 95.072C762.167 100.495 751.552 103.206 737.95 103.206ZM827.818 103.206C813.756 103.206 802.911 100.127 795.282 93.9691C787.746 87.8113 783.978 79.4018 783.978 68.7406H810.447C810.539 73.8874 812.055 77.4258 814.997 79.3559C817.938 81.2859 822.579 82.251 828.92 82.251C838.111 82.251 842.707 79.3099 842.707 73.4279C842.707 70.6707 841.65 68.6487 839.536 67.362C837.422 66.0753 833.332 64.9265 827.266 63.9155L819.546 62.6747C796.845 58.9985 785.494 48.4291 785.494 30.9668C785.494 21.6842 788.941 14.3316 795.834 8.9091C802.819 3.39467 812.791 0.637458 825.75 0.637458C838.8 0.637458 848.91 3.39467 856.079 8.9091C863.248 14.3316 867.108 22.3735 867.659 33.0347H841.741C841.558 29.0827 840.225 26.1876 837.744 24.3495C835.262 22.5113 831.402 21.5923 826.163 21.5923C817.8 21.5923 813.618 24.3035 813.618 29.7261C813.618 32.4833 814.675 34.5512 816.789 35.9298C818.903 37.3084 822.625 38.4572 827.955 39.3763L836.089 40.7549C848.313 42.7769 857.182 46.2234 862.696 51.0945C868.303 55.8736 871.106 62.6288 871.106 71.36C871.106 81.7455 867.292 89.6495 859.663 95.072C852.035 100.495 841.42 103.206 827.818 103.206ZM0.864934 123.843H86.3385V148.382H57.3878V222H29.8157V148.382H0.864934V123.843ZM174.797 198.977L175.348 212.074C175.532 216.118 176.359 219.427 177.83 222H149.43C148.327 219.886 147.684 216.577 147.5 212.074L147.087 200.907C146.903 195.944 145.754 192.59 143.64 190.843C141.618 189.005 138.309 188.086 133.714 188.086H119.377V222H91.8045V123.843H140.056C152.555 123.843 161.792 126.554 167.766 131.977C173.648 137.491 176.589 144.476 176.589 152.932C176.589 157.987 175.256 162.536 172.591 166.58C170.017 170.624 166.249 173.749 161.286 175.955C166.249 177.793 169.65 180.458 171.488 183.95C173.418 187.443 174.521 192.452 174.797 198.977ZM119.377 145.349V167.959H135.92C144.1 167.959 148.189 164.19 148.189 156.654C148.189 149.118 144.1 145.349 135.92 145.349H119.377ZM279.925 222H250.699L246.563 209.179H208.1L203.964 222H175.84L210.719 123.843H243.806L279.925 222ZM222.437 163.823L215.268 186.432H239.118L231.812 163.823C229.238 155.919 227.676 150.726 227.124 148.245C224.827 155.873 223.264 161.066 222.437 163.823ZM282.715 123.843H325.589C342.592 123.843 355.321 128.255 363.777 137.078C372.232 145.993 376.46 157.941 376.46 172.922C376.46 187.902 372.232 199.85 363.777 208.765C355.321 217.588 342.592 222 325.589 222H282.715V123.843ZM310.287 198.839H325.038C340.202 198.839 347.785 190.2 347.785 172.922C347.785 155.643 340.202 147.004 325.038 147.004H310.287V198.839ZM410.925 222H383.353V123.843H410.925V222ZM484.653 139.835V123.843H510.847V222H481.758L460.941 187.121C455.335 177.655 450.832 169.567 447.431 162.858C447.891 176.368 448.12 190.752 448.12 206.008V222H421.927V123.843H451.015L471.832 158.722C476.795 167.177 481.299 175.311 485.343 183.123C484.883 169.613 484.653 155.184 484.653 139.835ZM571.797 186.708V165.753H618.257V222H599.507L596.75 209.179C593.717 214.05 589.398 217.772 583.791 220.346C578.185 222.919 571.935 224.206 565.042 224.206C550.705 224.206 539.262 219.564 530.715 210.282C522.076 201.091 517.756 188.638 517.756 172.922C517.756 157.206 522.26 144.706 531.266 135.424C540.181 126.233 552.635 121.637 568.627 121.637C581.953 121.637 592.936 124.808 601.575 131.15C610.398 137.583 615.545 146.315 617.016 157.343H588.892C586.043 149.256 579.38 145.212 568.902 145.212C561.826 145.212 556.311 147.647 552.359 152.518C548.407 157.389 546.431 164.19 546.431 172.922C546.431 181.653 548.499 188.454 552.635 193.325C556.863 198.196 562.791 200.632 570.419 200.632C575.29 200.632 579.472 199.391 582.964 196.909C586.549 194.336 588.846 190.935 589.857 186.708H571.797ZM645.837 186.57H632.74L625.434 146.728V123.843H653.006V146.728L645.837 186.57ZM653.282 222H625.158V194.704H653.282V222Z" fill="#151227"/>
  <path d="M203.987 222.001L226.836 136.001L250.986 222.001L226.836 201.465L203.987 222.001Z" fill="#56B953"/>
  <path d="M226.44 201.066L217.855 209.525L236.454 209.613L226.44 201.066Z" fill="white"/>
  </svg>
  