<svg width="1251" height="321" viewBox="0 0 1251 321" fill="none" xmlns="http://www.w3.org/2000/svg">
  <path d="M2.30984 240.887H25.5498V244.727H16.1098V269.367H11.7498V244.727H2.30984V240.887ZM31.0542 245.807H26.9742V241.527H31.0542V245.807ZM31.0142 269.367H27.0142V248.727H31.0142V269.367ZM44.9708 248.407C45.5574 248.407 45.9441 248.421 46.1308 248.447V252.247H45.1308C43.0774 252.247 41.4908 252.754 40.3708 253.767C39.2508 254.781 38.6908 256.247 38.6908 258.167V269.367H34.6908V248.727H38.5308V252.407C39.8374 249.741 41.9841 248.407 44.9708 248.407ZM65.773 259.207V260.367H50.213C50.3996 262.394 50.9996 263.927 52.013 264.967C53.0263 265.981 54.3996 266.487 56.133 266.487C58.7463 266.487 60.453 265.341 61.253 263.047H65.293C64.733 265.154 63.6396 266.821 62.013 268.047C60.413 269.247 58.4263 269.847 56.053 269.847C53.093 269.847 50.7063 268.861 48.893 266.887C47.0796 264.914 46.173 262.301 46.173 259.047C46.173 255.794 47.0796 253.181 48.893 251.207C50.7063 249.234 53.0663 248.247 55.973 248.247C59.013 248.247 61.413 249.274 63.173 251.327C64.9063 253.381 65.773 256.007 65.773 259.207ZM55.973 251.607C54.3996 251.607 53.1063 252.087 52.093 253.047C51.1063 254.007 50.493 255.394 50.253 257.207H61.653C61.4663 255.527 60.8663 254.181 59.853 253.167C58.8663 252.127 57.573 251.607 55.973 251.607ZM83.6805 251.527V240.887H87.6805V269.367H83.8405V266.327C82.2938 268.674 80.0138 269.847 77.0005 269.847C74.1205 269.847 71.8271 268.874 70.1205 266.927C68.4138 264.981 67.5605 262.354 67.5605 259.047C67.5605 255.741 68.4138 253.114 70.1205 251.167C71.8271 249.221 74.1205 248.247 77.0005 248.247C79.9071 248.247 82.1338 249.341 83.6805 251.527ZM71.7205 259.207C71.7205 261.501 72.2671 263.274 73.3605 264.527C74.4538 265.781 75.9205 266.407 77.7605 266.407C79.6538 266.407 81.1338 265.754 82.2005 264.447C83.2671 263.194 83.8005 261.394 83.8005 259.047C83.8005 256.727 83.2671 254.914 82.2005 253.607C81.1338 252.327 79.6538 251.687 77.7605 251.687C75.9205 251.687 74.4538 252.354 73.3605 253.687C72.2671 255.021 71.7205 256.861 71.7205 259.207ZM115.358 266.887C113.465 268.861 110.998 269.847 107.958 269.847C104.918 269.847 102.452 268.861 100.558 266.887C98.6649 264.914 97.7183 262.301 97.7183 259.047C97.7183 255.767 98.6649 253.141 100.558 251.167C102.425 249.221 104.892 248.247 107.958 248.247C111.025 248.247 113.492 249.221 115.358 251.167C117.225 253.114 118.158 255.741 118.158 259.047C118.158 262.327 117.225 264.941 115.358 266.887ZM103.518 264.447C104.612 265.754 106.092 266.407 107.958 266.407C109.825 266.407 111.292 265.754 112.358 264.447C113.452 263.141 113.998 261.341 113.998 259.047C113.998 256.754 113.452 254.954 112.358 253.647C111.292 252.341 109.825 251.687 107.958 251.687C106.092 251.687 104.612 252.341 103.518 253.647C102.425 254.954 101.878 256.754 101.878 259.047C101.878 261.341 102.425 263.141 103.518 264.447ZM130.225 244.127H128.425C126.638 244.127 125.745 245.034 125.745 246.847V248.727H130.065V252.007H125.745V269.367H121.745V252.007H118.425V248.727H121.745V246.847C121.745 242.794 123.812 240.767 127.945 240.767C128.345 240.767 129.105 240.807 130.225 240.887V244.127ZM148.791 269.847C145.858 269.847 143.484 268.861 141.671 266.887C139.858 264.914 138.951 262.301 138.951 259.047C138.951 255.767 139.858 253.141 141.671 251.167C143.458 249.221 145.831 248.247 148.791 248.247C151.324 248.247 153.404 248.941 155.031 250.327C156.684 251.714 157.671 253.581 157.991 255.927H153.911C153.644 254.567 153.044 253.527 152.111 252.807C151.204 252.087 150.098 251.727 148.791 251.727C147.058 251.727 145.671 252.367 144.631 253.647C143.618 254.901 143.111 256.701 143.111 259.047C143.111 261.394 143.618 263.207 144.631 264.487C145.671 265.741 147.058 266.367 148.791 266.367C150.124 266.367 151.258 265.994 152.191 265.247C153.124 264.501 153.711 263.421 153.951 262.007H158.031C157.711 264.407 156.711 266.314 155.031 267.727C153.351 269.141 151.271 269.847 148.791 269.847ZM177.08 266.887C175.187 268.861 172.72 269.847 169.68 269.847C166.64 269.847 164.173 268.861 162.28 266.887C160.387 264.914 159.44 262.301 159.44 259.047C159.44 255.767 160.387 253.141 162.28 251.167C164.147 249.221 166.613 248.247 169.68 248.247C172.747 248.247 175.213 249.221 177.08 251.167C178.947 253.114 179.88 255.741 179.88 259.047C179.88 262.327 178.947 264.941 177.08 266.887ZM165.24 264.447C166.333 265.754 167.813 266.407 169.68 266.407C171.547 266.407 173.013 265.754 174.08 264.447C175.173 263.141 175.72 261.341 175.72 259.047C175.72 256.754 175.173 254.954 174.08 253.647C173.013 252.341 171.547 251.687 169.68 251.687C167.813 251.687 166.333 252.341 165.24 253.647C164.147 254.954 163.6 256.754 163.6 259.047C163.6 261.341 164.147 263.141 165.24 264.447ZM205.168 248.247C207.408 248.247 209.155 248.914 210.408 250.247C211.661 251.554 212.288 253.314 212.288 255.527V269.367H208.248V256.047C208.248 253.194 206.928 251.767 204.288 251.767C202.875 251.767 201.715 252.314 200.808 253.407C199.901 254.474 199.448 256.021 199.448 258.047V269.367H195.448V256.047C195.448 253.194 194.115 251.767 191.448 251.767C190.035 251.767 188.875 252.314 187.968 253.407C187.061 254.501 186.608 256.047 186.608 258.047V269.367H182.608V248.727H186.448V251.807C187.861 249.434 189.848 248.247 192.408 248.247C195.528 248.247 197.648 249.541 198.768 252.127C200.235 249.541 202.368 248.247 205.168 248.247ZM226.669 248.247C229.549 248.247 231.842 249.221 233.549 251.167C235.255 253.114 236.109 255.741 236.109 259.047C236.109 262.327 235.255 264.941 233.549 266.887C231.815 268.861 229.522 269.847 226.669 269.847C223.735 269.847 221.495 268.727 219.949 266.487V277.207H215.949V248.727H219.789V251.847C221.335 249.447 223.629 248.247 226.669 248.247ZM221.509 264.447C222.575 265.754 224.042 266.407 225.909 266.407C227.775 266.407 229.255 265.741 230.349 264.407C231.415 263.101 231.949 261.261 231.949 258.887C231.949 256.594 231.415 254.821 230.349 253.567C229.282 252.314 227.802 251.687 225.909 251.687C224.069 251.687 222.602 252.327 221.509 253.607C220.415 254.941 219.869 256.754 219.869 259.047C219.869 261.341 220.415 263.141 221.509 264.447ZM242.82 269.367H238.82V240.887H242.82V269.367ZM265.137 259.207V260.367H249.577C249.764 262.394 250.364 263.927 251.377 264.967C252.39 265.981 253.764 266.487 255.497 266.487C258.11 266.487 259.817 265.341 260.617 263.047H264.657C264.097 265.154 263.004 266.821 261.377 268.047C259.777 269.247 257.79 269.847 255.417 269.847C252.457 269.847 250.07 268.861 248.257 266.887C246.444 264.914 245.537 262.301 245.537 259.047C245.537 255.794 246.444 253.181 248.257 251.207C250.07 249.234 252.43 248.247 255.337 248.247C258.377 248.247 260.777 249.274 262.537 251.327C264.27 253.381 265.137 256.007 265.137 259.207ZM255.337 251.607C253.764 251.607 252.47 252.087 251.457 253.047C250.47 254.007 249.857 255.394 249.617 257.207H261.017C260.83 255.527 260.23 254.181 259.217 253.167C258.23 252.127 256.937 251.607 255.337 251.607ZM283.845 248.727L276.485 258.767L284.245 269.367H279.605L278.645 268.007L274.165 261.687C274.005 261.901 273.325 262.847 272.125 264.527C270.685 266.554 269.858 267.727 269.645 268.047L268.685 269.367H264.125L271.885 258.767L264.525 248.727H269.165L270.565 250.647C271.072 251.341 271.738 252.301 272.565 253.527C273.418 254.727 273.978 255.514 274.245 255.887C274.992 254.794 276.218 253.047 277.925 250.647L279.285 248.727H283.845ZM303.84 248.247C306.72 248.247 309.014 249.221 310.72 251.167C312.427 253.114 313.28 255.741 313.28 259.047C313.28 262.327 312.427 264.941 310.72 266.887C308.987 268.861 306.694 269.847 303.84 269.847C300.907 269.847 298.667 268.727 297.12 266.487V277.207H293.12V248.727H296.96V251.847C298.507 249.447 300.8 248.247 303.84 248.247ZM298.68 264.447C299.747 265.754 301.214 266.407 303.08 266.407C304.947 266.407 306.427 265.741 307.52 264.407C308.587 263.101 309.12 261.261 309.12 258.887C309.12 256.594 308.587 254.821 307.52 253.567C306.454 252.314 304.974 251.687 303.08 251.687C301.24 251.687 299.774 252.327 298.68 253.607C297.587 254.941 297.04 256.754 297.04 259.047C297.04 261.341 297.587 263.141 298.68 264.447ZM319.992 269.367H315.992V240.887H319.992V269.367ZM341.429 266.287H342.549V269.367C341.962 269.447 341.309 269.487 340.589 269.487C339.309 269.487 338.349 269.261 337.709 268.807C337.096 268.327 336.722 267.581 336.589 266.567C335.202 268.754 332.962 269.847 329.869 269.847C327.602 269.847 325.802 269.314 324.469 268.247C323.162 267.154 322.509 265.647 322.509 263.727C322.509 259.994 325.096 257.861 330.269 257.327L333.309 257.007C334.376 256.874 335.149 256.607 335.629 256.207C336.136 255.781 336.389 255.181 336.389 254.407C336.389 253.367 336.056 252.621 335.389 252.167C334.749 251.687 333.669 251.447 332.149 251.447C330.496 251.447 329.309 251.727 328.589 252.287C327.869 252.821 327.456 253.781 327.349 255.167H323.389C323.682 250.554 326.602 248.247 332.149 248.247C337.589 248.247 340.309 250.274 340.309 254.327V265.247C340.309 265.941 340.682 266.287 341.429 266.287ZM330.469 266.727C332.176 266.727 333.589 266.247 334.709 265.287C335.829 264.327 336.389 262.967 336.389 261.207V259.047C335.882 259.474 335.029 259.754 333.829 259.887L330.949 260.207C329.402 260.394 328.296 260.767 327.629 261.327C326.962 261.861 326.629 262.621 326.629 263.607C326.629 264.594 326.949 265.367 327.589 265.927C328.256 266.461 329.216 266.727 330.469 266.727ZM353.489 248.727V252.007H349.329V264.407C349.329 265.021 349.503 265.474 349.849 265.767C350.223 266.034 350.836 266.167 351.689 266.167H353.489V269.367C352.609 269.447 351.796 269.487 351.049 269.487C349.103 269.487 347.663 269.114 346.729 268.367C345.796 267.621 345.329 266.421 345.329 264.767V252.007H342.009V248.727H345.329V242.807H349.329V248.727H353.489ZM366.017 244.127H364.217C362.43 244.127 361.537 245.034 361.537 246.847V248.727H365.857V252.007H361.537V269.367H357.537V252.007H354.217V248.727H357.537V246.847C357.537 242.794 359.604 240.767 363.737 240.767C364.137 240.767 364.897 240.807 366.017 240.887V244.127ZM383.652 266.887C381.759 268.861 379.292 269.847 376.252 269.847C373.212 269.847 370.745 268.861 368.852 266.887C366.959 264.914 366.012 262.301 366.012 259.047C366.012 255.767 366.959 253.141 368.852 251.167C370.719 249.221 373.185 248.247 376.252 248.247C379.319 248.247 381.785 249.221 383.652 251.167C385.519 253.114 386.452 255.741 386.452 259.047C386.452 262.327 385.519 264.941 383.652 266.887ZM371.812 264.447C372.905 265.754 374.385 266.407 376.252 266.407C378.119 266.407 379.585 265.754 380.652 264.447C381.745 263.141 382.292 261.341 382.292 259.047C382.292 256.754 381.745 254.954 380.652 253.647C379.585 252.341 378.119 251.687 376.252 251.687C374.385 251.687 372.905 252.341 371.812 253.647C370.719 254.954 370.172 256.754 370.172 259.047C370.172 261.341 370.719 263.141 371.812 264.447ZM399.46 248.407C400.047 248.407 400.433 248.421 400.62 248.447V252.247H399.62C397.567 252.247 395.98 252.754 394.86 253.767C393.74 254.781 393.18 256.247 393.18 258.167V269.367H389.18V248.727H393.02V252.407C394.327 249.741 396.473 248.407 399.46 248.407ZM425.276 248.247C427.516 248.247 429.262 248.914 430.516 250.247C431.769 251.554 432.396 253.314 432.396 255.527V269.367H428.356V256.047C428.356 253.194 427.036 251.767 424.396 251.767C422.982 251.767 421.822 252.314 420.916 253.407C420.009 254.474 419.556 256.021 419.556 258.047V269.367H415.556V256.047C415.556 253.194 414.222 251.767 411.556 251.767C410.142 251.767 408.982 252.314 408.076 253.407C407.169 254.501 406.716 256.047 406.716 258.047V269.367H402.716V248.727H406.556V251.807C407.969 249.434 409.956 248.247 412.516 248.247C415.636 248.247 417.756 249.541 418.876 252.127C420.342 249.541 422.476 248.247 425.276 248.247ZM443.696 269.887C437.963 269.887 434.95 267.527 434.656 262.807H438.656C438.816 264.247 439.283 265.261 440.056 265.847C440.83 266.434 442.056 266.727 443.736 266.727C446.776 266.727 448.296 265.767 448.296 263.847C448.296 263.021 447.976 262.381 447.336 261.927C446.696 261.474 445.55 261.101 443.896 260.807L441.776 260.407C437.403 259.607 435.216 257.554 435.216 254.247C435.216 252.407 435.923 250.954 437.336 249.887C438.75 248.794 440.696 248.247 443.176 248.247C448.856 248.247 451.763 250.554 451.896 255.167H448.016C447.936 253.781 447.51 252.807 446.736 252.247C445.963 251.661 444.776 251.367 443.176 251.367C441.896 251.367 440.91 251.607 440.216 252.087C439.523 252.567 439.176 253.247 439.176 254.127C439.176 254.927 439.483 255.554 440.096 256.007C440.71 256.434 441.683 256.781 443.016 257.047L445.176 257.407C447.71 257.887 449.536 258.607 450.656 259.567C451.776 260.527 452.336 261.861 452.336 263.567C452.336 265.567 451.576 267.127 450.056 268.247C448.536 269.341 446.416 269.887 443.696 269.887ZM479.56 266.287H480.68V269.367C480.093 269.447 479.44 269.487 478.72 269.487C477.44 269.487 476.48 269.261 475.84 268.807C475.227 268.327 474.853 267.581 474.72 266.567C473.333 268.754 471.093 269.847 468 269.847C465.733 269.847 463.933 269.314 462.6 268.247C461.293 267.154 460.64 265.647 460.64 263.727C460.64 259.994 463.227 257.861 468.4 257.327L471.44 257.007C472.507 256.874 473.28 256.607 473.76 256.207C474.267 255.781 474.52 255.181 474.52 254.407C474.52 253.367 474.187 252.621 473.52 252.167C472.88 251.687 471.8 251.447 470.28 251.447C468.627 251.447 467.44 251.727 466.72 252.287C466 252.821 465.587 253.781 465.48 255.167H461.52C461.813 250.554 464.733 248.247 470.28 248.247C475.72 248.247 478.44 250.274 478.44 254.327V265.247C478.44 265.941 478.813 266.287 479.56 266.287ZM468.6 266.727C470.307 266.727 471.72 266.247 472.84 265.287C473.96 264.327 474.52 262.967 474.52 261.207V259.047C474.013 259.474 473.16 259.754 471.96 259.887L469.08 260.207C467.533 260.394 466.427 260.767 465.76 261.327C465.093 261.861 464.76 262.621 464.76 263.607C464.76 264.594 465.08 265.367 465.72 265.927C466.387 266.461 467.347 266.727 468.6 266.727ZM492.844 248.247C495.11 248.247 496.884 248.887 498.164 250.167C499.444 251.421 500.084 253.207 500.084 255.527V269.367H496.084V256.087C496.084 253.207 494.63 251.767 491.724 251.767C490.39 251.767 489.19 252.274 488.124 253.287C487.057 254.327 486.524 255.807 486.524 257.727V269.367H482.524V248.727H486.364V251.807C487.937 249.434 490.097 248.247 492.844 248.247ZM518.954 251.527V240.887H522.954V269.367H519.114V266.327C517.567 268.674 515.287 269.847 512.274 269.847C509.394 269.847 507.101 268.874 505.394 266.927C503.687 264.981 502.834 262.354 502.834 259.047C502.834 255.741 503.687 253.114 505.394 251.167C507.101 249.221 509.394 248.247 512.274 248.247C515.181 248.247 517.407 249.341 518.954 251.527ZM506.994 259.207C506.994 261.501 507.541 263.274 508.634 264.527C509.727 265.781 511.194 266.407 513.034 266.407C514.927 266.407 516.407 265.754 517.474 264.447C518.541 263.194 519.074 261.394 519.074 259.047C519.074 256.727 518.541 254.914 517.474 253.607C516.407 252.327 514.927 251.687 513.034 251.687C511.194 251.687 509.727 252.354 508.634 253.687C507.541 255.021 506.994 256.861 506.994 259.207ZM537.952 269.367H533.952V240.887H537.952V269.367ZM545.668 245.807H541.588V241.527H545.668V245.807ZM545.628 269.367H541.628V248.727H545.628V269.367ZM571.865 248.247C574.105 248.247 575.851 248.914 577.105 250.247C578.358 251.554 578.985 253.314 578.985 255.527V269.367H574.945V256.047C574.945 253.194 573.625 251.767 570.985 251.767C569.571 251.767 568.411 252.314 567.505 253.407C566.598 254.474 566.145 256.021 566.145 258.047V269.367H562.145V256.047C562.145 253.194 560.811 251.767 558.145 251.767C556.731 251.767 555.571 252.314 554.665 253.407C553.758 254.501 553.305 256.047 553.305 258.047V269.367H549.305V248.727H553.145V251.807C554.558 249.434 556.545 248.247 559.105 248.247C562.225 248.247 564.345 249.541 565.465 252.127C566.931 249.541 569.065 248.247 571.865 248.247ZM586.685 245.807H582.605V241.527H586.685V245.807ZM586.645 269.367H582.645V248.727H586.645V269.367ZM600.122 248.727V252.007H595.962V264.407C595.962 265.021 596.135 265.474 596.482 265.767C596.855 266.034 597.469 266.167 598.322 266.167H600.122V269.367C599.242 269.447 598.429 269.487 597.682 269.487C595.735 269.487 594.295 269.114 593.362 268.367C592.429 267.621 591.962 266.421 591.962 264.767V252.007H588.642V248.727H591.962V242.807H595.962V248.727H600.122ZM620.779 259.207V260.367H605.219C605.406 262.394 606.006 263.927 607.019 264.967C608.033 265.981 609.406 266.487 611.139 266.487C613.753 266.487 615.459 265.341 616.259 263.047H620.299C619.739 265.154 618.646 266.821 617.019 268.047C615.419 269.247 613.433 269.847 611.059 269.847C608.099 269.847 605.713 268.861 603.899 266.887C602.086 264.914 601.179 262.301 601.179 259.047C601.179 255.794 602.086 253.181 603.899 251.207C605.713 249.234 608.073 248.247 610.979 248.247C614.019 248.247 616.419 249.274 618.179 251.327C619.913 253.381 620.779 256.007 620.779 259.207ZM610.979 251.607C609.406 251.607 608.113 252.087 607.099 253.047C606.113 254.007 605.499 255.394 605.259 257.207H616.659C616.473 255.527 615.873 254.181 614.859 253.167C613.873 252.127 612.579 251.607 610.979 251.607ZM638.687 251.527V240.887H642.687V269.367H638.847V266.327C637.3 268.674 635.02 269.847 632.007 269.847C629.127 269.847 626.833 268.874 625.127 266.927C623.42 264.981 622.567 262.354 622.567 259.047C622.567 255.741 623.42 253.114 625.127 251.167C626.833 249.221 629.127 248.247 632.007 248.247C634.913 248.247 637.14 249.341 638.687 251.527ZM626.727 259.207C626.727 261.501 627.273 263.274 628.367 264.527C629.46 265.781 630.927 266.407 632.767 266.407C634.66 266.407 636.14 265.754 637.207 264.447C638.273 263.194 638.807 261.394 638.807 259.047C638.807 256.727 638.273 254.914 637.207 253.607C636.14 252.327 634.66 251.687 632.767 251.687C630.927 251.687 629.46 252.354 628.367 253.687C627.273 255.021 626.727 256.861 626.727 259.207ZM657.725 245.807H653.645V241.527H657.725V245.807ZM657.685 269.367H653.685V248.727H657.685V269.367ZM671.681 248.247C673.948 248.247 675.721 248.887 677.001 250.167C678.281 251.421 678.921 253.207 678.921 255.527V269.367H674.921V256.087C674.921 253.207 673.468 251.767 670.561 251.767C669.228 251.767 668.028 252.274 666.961 253.287C665.894 254.327 665.361 255.807 665.361 257.727V269.367H661.361V248.727H665.201V251.807C666.774 249.434 668.934 248.247 671.681 248.247ZM692.776 256.287L695.536 248.727H699.776L691.856 269.367H687.416L679.536 248.727H683.856L686.656 256.287C688.549 261.914 689.562 264.981 689.696 265.487C689.776 265.221 689.949 264.687 690.216 263.887C690.482 263.087 690.856 261.994 691.336 260.607C691.816 259.194 692.296 257.754 692.776 256.287ZM718.87 259.207V260.367H703.31C703.497 262.394 704.097 263.927 705.11 264.967C706.123 265.981 707.497 266.487 709.23 266.487C711.843 266.487 713.55 265.341 714.35 263.047H718.39C717.83 265.154 716.737 266.821 715.11 268.047C713.51 269.247 711.523 269.847 709.15 269.847C706.19 269.847 703.803 268.861 701.99 266.887C700.177 264.914 699.27 262.301 699.27 259.047C699.27 255.794 700.177 253.181 701.99 251.207C703.803 249.234 706.163 248.247 709.07 248.247C712.11 248.247 714.51 249.274 716.27 251.327C718.003 253.381 718.87 256.007 718.87 259.207ZM709.07 251.607C707.497 251.607 706.203 252.087 705.19 253.047C704.203 254.007 703.59 255.394 703.35 257.207H714.75C714.563 255.527 713.963 254.181 712.95 253.167C711.963 252.127 710.67 251.607 709.07 251.607ZM729.14 269.887C723.407 269.887 720.393 267.527 720.1 262.807H724.1C724.26 264.247 724.727 265.261 725.5 265.847C726.273 266.434 727.5 266.727 729.18 266.727C732.22 266.727 733.74 265.767 733.74 263.847C733.74 263.021 733.42 262.381 732.78 261.927C732.14 261.474 730.993 261.101 729.34 260.807L727.22 260.407C722.847 259.607 720.66 257.554 720.66 254.247C720.66 252.407 721.367 250.954 722.78 249.887C724.193 248.794 726.14 248.247 728.62 248.247C734.3 248.247 737.207 250.554 737.34 255.167H733.46C733.38 253.781 732.953 252.807 732.18 252.247C731.407 251.661 730.22 251.367 728.62 251.367C727.34 251.367 726.353 251.607 725.66 252.087C724.967 252.567 724.62 253.247 724.62 254.127C724.62 254.927 724.927 255.554 725.54 256.007C726.153 256.434 727.127 256.781 728.46 257.047L730.62 257.407C733.153 257.887 734.98 258.607 736.1 259.567C737.22 260.527 737.78 261.861 737.78 263.567C737.78 265.567 737.02 267.127 735.5 268.247C733.98 269.341 731.86 269.887 729.14 269.887ZM749.406 248.727V252.007H745.246V264.407C745.246 265.021 745.42 265.474 745.766 265.767C746.14 266.034 746.753 266.167 747.606 266.167H749.406V269.367C748.526 269.447 747.713 269.487 746.966 269.487C745.02 269.487 743.58 269.114 742.646 268.367C741.713 267.621 741.246 266.421 741.246 264.767V252.007H737.926V248.727H741.246V242.807H745.246V248.727H749.406ZM774.374 248.247C776.614 248.247 778.361 248.914 779.614 250.247C780.868 251.554 781.494 253.314 781.494 255.527V269.367H777.454V256.047C777.454 253.194 776.134 251.767 773.494 251.767C772.081 251.767 770.921 252.314 770.014 253.407C769.108 254.474 768.654 256.021 768.654 258.047V269.367H764.654V256.047C764.654 253.194 763.321 251.767 760.654 251.767C759.241 251.767 758.081 252.314 757.174 253.407C756.268 254.501 755.814 256.047 755.814 258.047V269.367H751.814V248.727H755.654V251.807C757.068 249.434 759.054 248.247 761.614 248.247C764.734 248.247 766.854 249.541 767.974 252.127C769.441 249.541 771.574 248.247 774.374 248.247ZM803.795 259.207V260.367H788.235C788.422 262.394 789.022 263.927 790.035 264.967C791.048 265.981 792.422 266.487 794.155 266.487C796.768 266.487 798.475 265.341 799.275 263.047H803.315C802.755 265.154 801.662 266.821 800.035 268.047C798.435 269.247 796.448 269.847 794.075 269.847C791.115 269.847 788.728 268.861 786.915 266.887C785.102 264.914 784.195 262.301 784.195 259.047C784.195 255.794 785.102 253.181 786.915 251.207C788.728 249.234 791.088 248.247 793.995 248.247C797.035 248.247 799.435 249.274 801.195 251.327C802.928 253.381 803.795 256.007 803.795 259.207ZM793.995 251.607C792.422 251.607 791.128 252.087 790.115 253.047C789.128 254.007 788.515 255.394 788.275 257.207H799.675C799.488 255.527 798.888 254.181 797.875 253.167C796.888 252.127 795.595 251.607 793.995 251.607ZM816.862 248.247C819.129 248.247 820.902 248.887 822.182 250.167C823.462 251.421 824.102 253.207 824.102 255.527V269.367H820.102V256.087C820.102 253.207 818.649 251.767 815.742 251.767C814.409 251.767 813.209 252.274 812.142 253.287C811.076 254.327 810.542 255.807 810.542 257.727V269.367H806.542V248.727H810.382V251.807C811.956 249.434 814.116 248.247 816.862 248.247ZM836.87 248.727V252.007H832.71V264.407C832.71 265.021 832.884 265.474 833.23 265.767C833.604 266.034 834.217 266.167 835.07 266.167H836.87V269.367C835.99 269.447 835.177 269.487 834.43 269.487C832.484 269.487 831.044 269.114 830.11 268.367C829.177 267.621 828.71 266.421 828.71 264.767V252.007H825.39V248.727H828.71V242.807H832.71V248.727H836.87ZM863.244 266.887C861.351 268.861 858.884 269.847 855.844 269.847C852.804 269.847 850.338 268.861 848.444 266.887C846.551 264.914 845.604 262.301 845.604 259.047C845.604 255.767 846.551 253.141 848.444 251.167C850.311 249.221 852.778 248.247 855.844 248.247C858.911 248.247 861.378 249.221 863.244 251.167C865.111 253.114 866.044 255.741 866.044 259.047C866.044 262.327 865.111 264.941 863.244 266.887ZM851.404 264.447C852.498 265.754 853.978 266.407 855.844 266.407C857.711 266.407 859.178 265.754 860.244 264.447C861.338 263.141 861.884 261.341 861.884 259.047C861.884 256.754 861.338 254.954 860.244 253.647C859.178 252.341 857.711 251.687 855.844 251.687C853.978 251.687 852.498 252.341 851.404 253.647C850.311 254.954 849.764 256.754 849.764 259.047C849.764 261.341 850.311 263.141 851.404 264.447ZM879.492 248.247C882.372 248.247 884.665 249.221 886.372 251.167C888.079 253.114 888.932 255.741 888.932 259.047C888.932 262.327 888.079 264.941 886.372 266.887C884.639 268.861 882.345 269.847 879.492 269.847C876.559 269.847 874.319 268.727 872.772 266.487V277.207H868.772V248.727H872.612V251.847C874.159 249.447 876.452 248.247 879.492 248.247ZM874.332 264.447C875.399 265.754 876.865 266.407 878.732 266.407C880.599 266.407 882.079 265.741 883.172 264.407C884.239 263.101 884.772 261.261 884.772 258.887C884.772 256.594 884.239 254.821 883.172 253.567C882.105 252.314 880.625 251.687 878.732 251.687C876.892 251.687 875.425 252.327 874.332 253.607C873.239 254.941 872.692 256.754 872.692 259.047C872.692 261.341 873.239 263.141 874.332 264.447ZM900.311 248.727V252.007H896.151V264.407C896.151 265.021 896.324 265.474 896.671 265.767C897.044 266.034 897.658 266.167 898.511 266.167H900.311V269.367C899.431 269.447 898.618 269.487 897.871 269.487C895.924 269.487 894.484 269.114 893.551 268.367C892.618 267.621 892.151 266.421 892.151 264.767V252.007H888.831V248.727H892.151V242.807H896.151V248.727H900.311ZM906.759 245.807H902.679V241.527H906.759V245.807ZM906.719 269.367H902.719V248.727H906.719V269.367ZM927.075 266.887C925.182 268.861 922.715 269.847 919.675 269.847C916.635 269.847 914.169 268.861 912.275 266.887C910.382 264.914 909.435 262.301 909.435 259.047C909.435 255.767 910.382 253.141 912.275 251.167C914.142 249.221 916.609 248.247 919.675 248.247C922.742 248.247 925.209 249.221 927.075 251.167C928.942 253.114 929.875 255.741 929.875 259.047C929.875 262.327 928.942 264.941 927.075 266.887ZM915.235 264.447C916.329 265.754 917.809 266.407 919.675 266.407C921.542 266.407 923.009 265.754 924.075 264.447C925.169 263.141 925.715 261.341 925.715 259.047C925.715 256.754 925.169 254.954 924.075 253.647C923.009 252.341 921.542 251.687 919.675 251.687C917.809 251.687 916.329 252.341 915.235 253.647C914.142 254.954 913.595 256.754 913.595 259.047C913.595 261.341 914.142 263.141 915.235 264.447ZM942.923 248.247C945.19 248.247 946.963 248.887 948.243 250.167C949.523 251.421 950.163 253.207 950.163 255.527V269.367H946.163V256.087C946.163 253.207 944.71 251.767 941.803 251.767C940.47 251.767 939.27 252.274 938.203 253.287C937.137 254.327 936.603 255.807 936.603 257.727V269.367H932.603V248.727H936.443V251.807C938.017 249.434 940.177 248.247 942.923 248.247ZM961.514 269.887C955.78 269.887 952.767 267.527 952.474 262.807H956.474C956.634 264.247 957.1 265.261 957.874 265.847C958.647 266.434 959.874 266.727 961.554 266.727C964.594 266.727 966.114 265.767 966.114 263.847C966.114 263.021 965.794 262.381 965.154 261.927C964.514 261.474 963.367 261.101 961.714 260.807L959.594 260.407C955.22 259.607 953.034 257.554 953.034 254.247C953.034 252.407 953.74 250.954 955.154 249.887C956.567 248.794 958.514 248.247 960.994 248.247C966.674 248.247 969.58 250.554 969.714 255.167H965.834C965.754 253.781 965.327 252.807 964.554 252.247C963.78 251.661 962.594 251.367 960.994 251.367C959.714 251.367 958.727 251.607 958.034 252.087C957.34 252.567 956.994 253.247 956.994 254.127C956.994 254.927 957.3 255.554 957.914 256.007C958.527 256.434 959.5 256.781 960.834 257.047L962.994 257.407C965.527 257.887 967.354 258.607 968.474 259.567C969.594 260.527 970.154 261.861 970.154 263.567C970.154 265.567 969.394 267.127 967.874 268.247C966.354 269.341 964.234 269.887 961.514 269.887ZM981.27 261.367H977.35C977.35 259.287 977.604 257.687 978.11 256.567C978.537 255.554 979.604 254.354 981.31 252.967C981.417 252.887 981.564 252.767 981.75 252.607C981.964 252.421 982.11 252.301 982.19 252.247C982.27 252.167 982.377 252.061 982.51 251.927C982.67 251.767 982.777 251.661 982.83 251.607C982.91 251.554 983.004 251.474 983.11 251.367C983.244 251.234 983.337 251.127 983.39 251.047C983.47 250.941 983.55 250.834 983.63 250.727C983.71 250.594 983.79 250.474 983.87 250.367C983.95 250.234 984.03 250.101 984.11 249.967C984.457 249.354 984.63 248.701 984.63 248.007C984.63 245.234 983.044 243.847 979.87 243.847C978.057 243.847 976.697 244.301 975.79 245.207C974.91 246.087 974.417 247.581 974.31 249.687H970.23C970.257 246.594 971.097 244.247 972.75 242.647C974.43 241.047 976.79 240.247 979.83 240.247C982.684 240.247 984.91 240.901 986.51 242.207C988.137 243.514 988.95 245.381 988.95 247.807C988.95 249.167 988.604 250.407 987.91 251.527C987.244 252.621 986.19 253.741 984.75 254.887C983.15 256.194 982.164 257.247 981.79 258.047C981.444 258.661 981.27 259.767 981.27 261.367ZM981.71 269.367H976.87V264.607H981.71V269.367ZM2.30984 283.887H25.5498V287.727H16.1098V312.367H11.7498V287.727H2.30984V283.887ZM34.8723 291.407C35.459 291.407 35.8457 291.421 36.0323 291.447V295.247H35.0323C32.979 295.247 31.3923 295.754 30.2723 296.767C29.1523 297.781 28.5923 299.247 28.5923 301.167V312.367H24.5923V291.727H28.4323V295.407C29.739 292.741 31.8857 291.407 34.8723 291.407ZM51.493 303.367V291.727H55.493V312.367H51.653V309.287C50.0796 311.661 47.9196 312.847 45.173 312.847C42.9063 312.847 41.133 312.207 39.853 310.927C38.573 309.647 37.933 307.861 37.933 305.567V291.727H41.933V305.007C41.933 307.887 43.3863 309.327 46.293 309.327C47.7596 309.327 48.9863 308.807 49.973 307.767C50.9863 306.701 51.493 305.234 51.493 303.367ZM66.8433 312.887C61.1099 312.887 58.0966 310.527 57.8033 305.807H61.8033C61.9633 307.247 62.4299 308.261 63.2033 308.847C63.9766 309.434 65.2033 309.727 66.8833 309.727C69.9233 309.727 71.4433 308.767 71.4433 306.847C71.4433 306.021 71.1233 305.381 70.4833 304.927C69.8433 304.474 68.6966 304.101 67.0433 303.807L64.9233 303.407C60.5499 302.607 58.3633 300.554 58.3633 297.247C58.3633 295.407 59.0699 293.954 60.4833 292.887C61.8966 291.794 63.8433 291.247 66.3233 291.247C72.0033 291.247 74.9099 293.554 75.0433 298.167H71.1633C71.0833 296.781 70.6566 295.807 69.8833 295.247C69.1099 294.661 67.9233 294.367 66.3233 294.367C65.0433 294.367 64.0566 294.607 63.3633 295.087C62.6699 295.567 62.3233 296.247 62.3233 297.127C62.3233 297.927 62.6299 298.554 63.2433 299.007C63.8566 299.434 64.8299 299.781 66.1633 300.047L68.3233 300.407C70.8566 300.887 72.6833 301.607 73.8033 302.567C74.9233 303.527 75.4833 304.861 75.4833 306.567C75.4833 308.567 74.7233 310.127 73.2033 311.247C71.6833 312.341 69.5633 312.887 66.8433 312.887ZM87.1095 291.727V295.007H82.9495V307.407C82.9495 308.021 83.1229 308.474 83.4695 308.767C83.8429 309.034 84.4562 309.167 85.3095 309.167H87.1095V312.367C86.2295 312.447 85.4162 312.487 84.6695 312.487C82.7229 312.487 81.2829 312.114 80.3495 311.367C79.4162 310.621 78.9495 309.421 78.9495 307.767V295.007H75.6295V291.727H78.9495V285.807H82.9495V291.727H87.1095ZM109.283 313.007C105.31 313.007 102.083 311.661 99.6033 308.967C97.0966 306.301 95.8433 302.687 95.8433 298.127C95.8433 293.594 97.0833 289.981 99.5633 287.287C102.043 284.594 105.283 283.247 109.283 283.247C112.43 283.247 115.137 284.087 117.403 285.767C119.67 287.474 121.123 289.994 121.763 293.327H117.443C116.91 291.247 115.923 289.687 114.483 288.647C113.07 287.581 111.337 287.047 109.283 287.047C106.537 287.047 104.35 288.047 102.723 290.047C101.097 292.021 100.283 294.714 100.283 298.127C100.283 301.541 101.097 304.247 102.723 306.247C104.35 308.221 106.537 309.207 109.283 309.207C111.337 309.207 113.177 308.581 114.803 307.327C116.377 306.074 117.323 304.247 117.643 301.847H121.923C121.577 305.394 120.203 308.141 117.803 310.087C115.43 312.034 112.59 313.007 109.283 313.007ZM142.24 309.287H143.36V312.367C142.773 312.447 142.12 312.487 141.4 312.487C140.12 312.487 139.16 312.261 138.52 311.807C137.907 311.327 137.533 310.581 137.4 309.567C136.013 311.754 133.773 312.847 130.68 312.847C128.413 312.847 126.613 312.314 125.28 311.247C123.973 310.154 123.32 308.647 123.32 306.727C123.32 302.994 125.907 300.861 131.08 300.327L134.12 300.007C135.187 299.874 135.96 299.607 136.44 299.207C136.947 298.781 137.2 298.181 137.2 297.407C137.2 296.367 136.867 295.621 136.2 295.167C135.56 294.687 134.48 294.447 132.96 294.447C131.307 294.447 130.12 294.727 129.4 295.287C128.68 295.821 128.267 296.781 128.16 298.167H124.2C124.493 293.554 127.413 291.247 132.96 291.247C138.4 291.247 141.12 293.274 141.12 297.327V308.247C141.12 308.941 141.493 309.287 142.24 309.287ZM131.28 309.727C132.987 309.727 134.4 309.247 135.52 308.287C136.64 307.327 137.2 305.967 137.2 304.207V302.047C136.693 302.474 135.84 302.754 134.64 302.887L131.76 303.207C130.213 303.394 129.107 303.767 128.44 304.327C127.773 304.861 127.44 305.621 127.44 306.607C127.44 307.594 127.76 308.367 128.4 308.927C129.067 309.461 130.027 309.727 131.28 309.727ZM155.923 291.247C158.803 291.247 161.097 292.221 162.803 294.167C164.51 296.114 165.363 298.741 165.363 302.047C165.363 305.327 164.51 307.941 162.803 309.887C161.07 311.861 158.777 312.847 155.923 312.847C152.99 312.847 150.75 311.727 149.203 309.487V320.207H145.203V291.727H149.043V294.847C150.59 292.447 152.883 291.247 155.923 291.247ZM150.763 307.447C151.83 308.754 153.297 309.407 155.163 309.407C157.03 309.407 158.51 308.741 159.603 307.407C160.67 306.101 161.203 304.261 161.203 301.887C161.203 299.594 160.67 297.821 159.603 296.567C158.537 295.314 157.057 294.687 155.163 294.687C153.323 294.687 151.857 295.327 150.763 296.607C149.67 297.941 149.123 299.754 149.123 302.047C149.123 304.341 149.67 306.141 150.763 307.447ZM172.115 288.807H168.035V284.527H172.115V288.807ZM172.075 312.367H168.075V291.727H172.075V312.367ZM185.552 291.727V295.007H181.392V307.407C181.392 308.021 181.565 308.474 181.912 308.767C182.285 309.034 182.898 309.167 183.752 309.167H185.552V312.367C184.672 312.447 183.858 312.487 183.112 312.487C181.165 312.487 179.725 312.114 178.792 311.367C177.858 310.621 177.392 309.421 177.392 307.767V295.007H174.072V291.727H177.392V285.807H181.392V291.727H185.552ZM205.563 309.287H206.683V312.367C206.097 312.447 205.443 312.487 204.723 312.487C203.443 312.487 202.483 312.261 201.843 311.807C201.23 311.327 200.857 310.581 200.723 309.567C199.337 311.754 197.097 312.847 194.003 312.847C191.737 312.847 189.937 312.314 188.603 311.247C187.297 310.154 186.643 308.647 186.643 306.727C186.643 302.994 189.23 300.861 194.403 300.327L197.443 300.007C198.51 299.874 199.283 299.607 199.763 299.207C200.27 298.781 200.523 298.181 200.523 297.407C200.523 296.367 200.19 295.621 199.523 295.167C198.883 294.687 197.803 294.447 196.283 294.447C194.63 294.447 193.443 294.727 192.723 295.287C192.003 295.821 191.59 296.781 191.483 298.167H187.523C187.817 293.554 190.737 291.247 196.283 291.247C201.723 291.247 204.443 293.274 204.443 297.327V308.247C204.443 308.941 204.817 309.287 205.563 309.287ZM194.603 309.727C196.31 309.727 197.723 309.247 198.843 308.287C199.963 307.327 200.523 305.967 200.523 304.207V302.047C200.017 302.474 199.163 302.754 197.963 302.887L195.083 303.207C193.537 303.394 192.43 303.767 191.763 304.327C191.097 304.861 190.763 305.621 190.763 306.607C190.763 307.594 191.083 308.367 191.723 308.927C192.39 309.461 193.35 309.727 194.603 309.727ZM212.37 312.367H208.37V283.887H212.37V312.367ZM227.373 288.807H223.293V284.527H227.373V288.807ZM227.333 312.367H223.333V291.727H227.333V312.367ZM238.65 312.887C232.916 312.887 229.903 310.527 229.61 305.807H233.61C233.77 307.247 234.236 308.261 235.01 308.847C235.783 309.434 237.01 309.727 238.69 309.727C241.73 309.727 243.25 308.767 243.25 306.847C243.25 306.021 242.93 305.381 242.29 304.927C241.65 304.474 240.503 304.101 238.85 303.807L236.73 303.407C232.356 302.607 230.17 300.554 230.17 297.247C230.17 295.407 230.876 293.954 232.29 292.887C233.703 291.794 235.65 291.247 238.13 291.247C243.81 291.247 246.716 293.554 246.85 298.167H242.97C242.89 296.781 242.463 295.807 241.69 295.247C240.916 294.661 239.73 294.367 238.13 294.367C236.85 294.367 235.863 294.607 235.17 295.087C234.476 295.567 234.13 296.247 234.13 297.127C234.13 297.927 234.436 298.554 235.05 299.007C235.663 299.434 236.636 299.781 237.97 300.047L240.13 300.407C242.663 300.887 244.49 301.607 245.61 302.567C246.73 303.527 247.29 304.861 247.29 306.567C247.29 308.567 246.53 310.127 245.01 311.247C243.49 312.341 241.37 312.887 238.65 312.887ZM267.633 298.807L270.033 291.727H274.273L265.873 314.967C265.18 316.941 264.26 318.327 263.113 319.127C261.967 319.927 260.34 320.327 258.233 320.327C257.513 320.327 256.82 320.287 256.153 320.207V316.967H258.153C259.94 316.967 261.14 316.141 261.753 314.487C261.807 314.327 261.887 314.074 261.993 313.727C262.127 313.381 262.233 313.114 262.313 312.927L254.673 291.727H259.033L261.433 298.807C262.713 302.754 263.74 306.047 264.513 308.687C265.553 305.301 266.593 302.007 267.633 298.807ZM291.422 309.887C289.529 311.861 287.062 312.847 284.022 312.847C280.982 312.847 278.516 311.861 276.622 309.887C274.729 307.914 273.782 305.301 273.782 302.047C273.782 298.767 274.729 296.141 276.622 294.167C278.489 292.221 280.956 291.247 284.022 291.247C287.089 291.247 289.556 292.221 291.422 294.167C293.289 296.114 294.222 298.741 294.222 302.047C294.222 305.327 293.289 307.941 291.422 309.887ZM279.582 307.447C280.676 308.754 282.156 309.407 284.022 309.407C285.889 309.407 287.356 308.754 288.422 307.447C289.516 306.141 290.062 304.341 290.062 302.047C290.062 299.754 289.516 297.954 288.422 296.647C287.356 295.341 285.889 294.687 284.022 294.687C282.156 294.687 280.676 295.341 279.582 296.647C278.489 297.954 277.942 299.754 277.942 302.047C277.942 304.341 278.489 306.141 279.582 307.447ZM309.963 303.367V291.727H313.963V312.367H310.123V309.287C308.55 311.661 306.39 312.847 303.643 312.847C301.377 312.847 299.603 312.207 298.323 310.927C297.043 309.647 296.403 307.861 296.403 305.567V291.727H300.403V305.007C300.403 307.887 301.857 309.327 304.763 309.327C306.23 309.327 307.457 308.807 308.443 307.767C309.457 306.701 309.963 305.234 309.963 303.367ZM327.954 291.407C328.54 291.407 328.927 291.421 329.114 291.447V295.247H328.114C326.06 295.247 324.474 295.754 323.354 296.767C322.234 297.781 321.674 299.247 321.674 301.167V312.367H317.674V291.727H321.514V295.407C322.82 292.741 324.967 291.407 327.954 291.407ZM346.448 312.887C340.715 312.887 337.701 310.527 337.408 305.807H341.408C341.568 307.247 342.035 308.261 342.808 308.847C343.581 309.434 344.808 309.727 346.488 309.727C349.528 309.727 351.048 308.767 351.048 306.847C351.048 306.021 350.728 305.381 350.088 304.927C349.448 304.474 348.301 304.101 346.648 303.807L344.528 303.407C340.155 302.607 337.968 300.554 337.968 297.247C337.968 295.407 338.675 293.954 340.088 292.887C341.501 291.794 343.448 291.247 345.928 291.247C351.608 291.247 354.515 293.554 354.648 298.167H350.768C350.688 296.781 350.261 295.807 349.488 295.247C348.715 294.661 347.528 294.367 345.928 294.367C344.648 294.367 343.661 294.607 342.968 295.087C342.275 295.567 341.928 296.247 341.928 297.127C341.928 297.927 342.235 298.554 342.848 299.007C343.461 299.434 344.435 299.781 345.768 300.047L347.928 300.407C350.461 300.887 352.288 301.607 353.408 302.567C354.528 303.527 355.088 304.861 355.088 306.567C355.088 308.567 354.328 310.127 352.808 311.247C351.288 312.341 349.168 312.887 346.448 312.887ZM367.586 291.247C369.852 291.247 371.626 291.887 372.906 293.167C374.186 294.421 374.826 296.207 374.826 298.527V312.367H370.826V299.087C370.826 296.207 369.372 294.767 366.466 294.767C365.132 294.767 363.932 295.274 362.866 296.287C361.799 297.327 361.266 298.807 361.266 300.727V312.367H357.266V283.887H361.266V294.567C362.839 292.354 364.946 291.247 367.586 291.247ZM395.216 309.887C393.323 311.861 390.856 312.847 387.816 312.847C384.776 312.847 382.309 311.861 380.416 309.887C378.523 307.914 377.576 305.301 377.576 302.047C377.576 298.767 378.523 296.141 380.416 294.167C382.283 292.221 384.749 291.247 387.816 291.247C390.883 291.247 393.349 292.221 395.216 294.167C397.083 296.114 398.016 298.741 398.016 302.047C398.016 305.327 397.083 307.941 395.216 309.887ZM383.376 307.447C384.469 308.754 385.949 309.407 387.816 309.407C389.683 309.407 391.149 308.754 392.216 307.447C393.309 306.141 393.856 304.341 393.856 302.047C393.856 299.754 393.309 297.954 392.216 296.647C391.149 295.341 389.683 294.687 387.816 294.687C385.949 294.687 384.469 295.341 383.376 296.647C382.283 297.954 381.736 299.754 381.736 302.047C381.736 304.341 382.283 306.141 383.376 307.447ZM411.024 291.407C411.611 291.407 411.997 291.421 412.184 291.447V295.247H411.184C409.131 295.247 407.544 295.754 406.424 296.767C405.304 297.781 404.744 299.247 404.744 301.167V312.367H400.744V291.727H404.584V295.407C405.891 292.741 408.037 291.407 411.024 291.407ZM424.275 291.727V295.007H420.115V307.407C420.115 308.021 420.289 308.474 420.635 308.767C421.009 309.034 421.622 309.167 422.475 309.167H424.275V312.367C423.395 312.447 422.582 312.487 421.835 312.487C419.889 312.487 418.449 312.114 417.515 311.367C416.582 310.621 416.115 309.421 416.115 307.767V295.007H412.795V291.727H416.115V285.807H420.115V291.727H424.275ZM435.172 312.847C432.239 312.847 429.866 311.861 428.052 309.887C426.239 307.914 425.332 305.301 425.332 302.047C425.332 298.767 426.239 296.141 428.052 294.167C429.839 292.221 432.212 291.247 435.172 291.247C437.706 291.247 439.786 291.941 441.412 293.327C443.066 294.714 444.052 296.581 444.372 298.927H440.292C440.026 297.567 439.426 296.527 438.492 295.807C437.586 295.087 436.479 294.727 435.172 294.727C433.439 294.727 432.052 295.367 431.012 296.647C429.999 297.901 429.492 299.701 429.492 302.047C429.492 304.394 429.999 306.207 431.012 307.487C432.052 308.741 433.439 309.367 435.172 309.367C436.506 309.367 437.639 308.994 438.572 308.247C439.506 307.501 440.092 306.421 440.332 305.007H444.412C444.092 307.407 443.092 309.314 441.412 310.727C439.732 312.141 437.652 312.847 435.172 312.847ZM460.302 303.367V291.727H464.302V312.367H460.462V309.287C458.889 311.661 456.729 312.847 453.982 312.847C451.716 312.847 449.942 312.207 448.662 310.927C447.382 309.647 446.742 307.861 446.742 305.567V291.727H450.742V305.007C450.742 307.887 452.196 309.327 455.102 309.327C456.569 309.327 457.796 308.807 458.782 307.767C459.796 306.701 460.302 305.234 460.302 303.367ZM477.813 291.727V295.007H473.653V307.407C473.653 308.021 473.826 308.474 474.173 308.767C474.546 309.034 475.159 309.167 476.013 309.167H477.813V312.367C476.933 312.447 476.119 312.487 475.373 312.487C473.426 312.487 471.986 312.114 471.053 311.367C470.119 310.621 469.653 309.421 469.653 307.767V295.007H466.333V291.727H469.653V285.807H473.653V291.727H477.813ZM497.306 291.727V295.007H493.146V307.407C493.146 308.021 493.32 308.474 493.666 308.767C494.04 309.034 494.653 309.167 495.506 309.167H497.306V312.367C496.426 312.447 495.613 312.487 494.866 312.487C492.92 312.487 491.48 312.114 490.546 311.367C489.613 310.621 489.146 309.421 489.146 307.767V295.007H485.826V291.727H489.146V285.807H493.146V291.727H497.306ZM516.004 309.887C514.11 311.861 511.644 312.847 508.604 312.847C505.564 312.847 503.097 311.861 501.204 309.887C499.31 307.914 498.364 305.301 498.364 302.047C498.364 298.767 499.31 296.141 501.204 294.167C503.07 292.221 505.537 291.247 508.604 291.247C511.67 291.247 514.137 292.221 516.004 294.167C517.87 296.114 518.804 298.741 518.804 302.047C518.804 305.327 517.87 307.941 516.004 309.887ZM504.164 307.447C505.257 308.754 506.737 309.407 508.604 309.407C510.47 309.407 511.937 308.754 513.004 307.447C514.097 306.141 514.644 304.341 514.644 302.047C514.644 299.754 514.097 297.954 513.004 296.647C511.937 295.341 510.47 294.687 508.604 294.687C506.737 294.687 505.257 295.341 504.164 296.647C503.07 297.954 502.524 299.754 502.524 302.047C502.524 304.341 503.07 306.141 504.164 307.447ZM547.457 302.207V303.367H531.897C532.084 305.394 532.684 306.927 533.697 307.967C534.711 308.981 536.084 309.487 537.817 309.487C540.431 309.487 542.137 308.341 542.937 306.047H546.977C546.417 308.154 545.324 309.821 543.697 311.047C542.097 312.247 540.111 312.847 537.737 312.847C534.777 312.847 532.391 311.861 530.577 309.887C528.764 307.914 527.857 305.301 527.857 302.047C527.857 298.794 528.764 296.181 530.577 294.207C532.391 292.234 534.751 291.247 537.657 291.247C540.697 291.247 543.097 292.274 544.857 294.327C546.591 296.381 547.457 299.007 547.457 302.207ZM537.657 294.607C536.084 294.607 534.791 295.087 533.777 296.047C532.791 297.007 532.177 298.394 531.937 300.207H543.337C543.151 298.527 542.551 297.181 541.537 296.167C540.551 295.127 539.257 294.607 537.657 294.607ZM559.192 287.127H557.392C555.605 287.127 554.712 288.034 554.712 289.847V291.727H559.032V295.007H554.712V312.367H550.712V295.007H547.392V291.727H550.712V289.847C550.712 285.794 552.779 283.767 556.912 283.767C557.312 283.767 558.072 283.807 559.192 283.887V287.127ZM571.712 287.127H569.912C568.126 287.127 567.232 288.034 567.232 289.847V291.727H571.552V295.007H567.232V312.367H563.232V295.007H559.912V291.727H563.232V289.847C563.232 285.794 565.299 283.767 569.432 283.767C569.832 283.767 570.592 283.807 571.712 283.887V287.127ZM589.347 309.887C587.454 311.861 584.987 312.847 581.947 312.847C578.907 312.847 576.441 311.861 574.547 309.887C572.654 307.914 571.707 305.301 571.707 302.047C571.707 298.767 572.654 296.141 574.547 294.167C576.414 292.221 578.881 291.247 581.947 291.247C585.014 291.247 587.481 292.221 589.347 294.167C591.214 296.114 592.147 298.741 592.147 302.047C592.147 305.327 591.214 307.941 589.347 309.887ZM577.507 307.447C578.601 308.754 580.081 309.407 581.947 309.407C583.814 309.407 585.281 308.754 586.347 307.447C587.441 306.141 587.987 304.341 587.987 302.047C587.987 299.754 587.441 297.954 586.347 296.647C585.281 295.341 583.814 294.687 581.947 294.687C580.081 294.687 578.601 295.341 577.507 296.647C576.414 297.954 575.867 299.754 575.867 302.047C575.867 304.341 576.414 306.141 577.507 307.447ZM605.155 291.407C605.742 291.407 606.128 291.421 606.315 291.447V295.247H605.315C603.262 295.247 601.675 295.754 600.555 296.767C599.435 297.781 598.875 299.247 598.875 301.167V312.367H594.875V291.727H598.715V295.407C600.022 292.741 602.168 291.407 605.155 291.407ZM618.406 291.727V295.007H614.246V307.407C614.246 308.021 614.42 308.474 614.766 308.767C615.14 309.034 615.753 309.167 616.606 309.167H618.406V312.367C617.526 312.447 616.713 312.487 615.966 312.487C614.02 312.487 612.58 312.114 611.646 311.367C610.713 310.621 610.246 309.421 610.246 307.767V295.007H606.926V291.727H610.246V285.807H614.246V291.727H618.406ZM624.814 312.367H620.814V283.887H624.814V312.367ZM647.131 302.207V303.367H631.571C631.757 305.394 632.357 306.927 633.371 307.967C634.384 308.981 635.757 309.487 637.491 309.487C640.104 309.487 641.811 308.341 642.611 306.047H646.651C646.091 308.154 644.997 309.821 643.371 311.047C641.771 312.247 639.784 312.847 637.411 312.847C634.451 312.847 632.064 311.861 630.251 309.887C628.437 307.914 627.531 305.301 627.531 302.047C627.531 298.794 628.437 296.181 630.251 294.207C632.064 292.234 634.424 291.247 637.331 291.247C640.371 291.247 642.771 292.274 644.531 294.327C646.264 296.381 647.131 299.007 647.131 302.207ZM637.331 294.607C635.757 294.607 634.464 295.087 633.451 296.047C632.464 297.007 631.851 298.394 631.611 300.207H643.011C642.824 298.527 642.224 297.181 641.211 296.167C640.224 295.127 638.931 294.607 637.331 294.607ZM657.401 312.887C651.668 312.887 648.654 310.527 648.361 305.807H652.361C652.521 307.247 652.988 308.261 653.761 308.847C654.534 309.434 655.761 309.727 657.441 309.727C660.481 309.727 662.001 308.767 662.001 306.847C662.001 306.021 661.681 305.381 661.041 304.927C660.401 304.474 659.254 304.101 657.601 303.807L655.481 303.407C651.108 302.607 648.921 300.554 648.921 297.247C648.921 295.407 649.628 293.954 651.041 292.887C652.454 291.794 654.401 291.247 656.881 291.247C662.561 291.247 665.468 293.554 665.601 298.167H661.721C661.641 296.781 661.214 295.807 660.441 295.247C659.668 294.661 658.481 294.367 656.881 294.367C655.601 294.367 654.614 294.607 653.921 295.087C653.228 295.567 652.881 296.247 652.881 297.127C652.881 297.927 653.188 298.554 653.801 299.007C654.414 299.434 655.388 299.781 656.721 300.047L658.881 300.407C661.414 300.887 663.241 301.607 664.361 302.567C665.481 303.527 666.041 304.861 666.041 306.567C666.041 308.567 665.281 310.127 663.761 311.247C662.241 312.341 660.121 312.887 657.401 312.887ZM676.328 312.887C670.594 312.887 667.581 310.527 667.288 305.807H671.288C671.448 307.247 671.914 308.261 672.688 308.847C673.461 309.434 674.688 309.727 676.368 309.727C679.408 309.727 680.928 308.767 680.928 306.847C680.928 306.021 680.608 305.381 679.968 304.927C679.328 304.474 678.181 304.101 676.528 303.807L674.408 303.407C670.034 302.607 667.848 300.554 667.848 297.247C667.848 295.407 668.554 293.954 669.968 292.887C671.381 291.794 673.328 291.247 675.808 291.247C681.488 291.247 684.394 293.554 684.528 298.167H680.648C680.568 296.781 680.141 295.807 679.368 295.247C678.594 294.661 677.408 294.367 675.808 294.367C674.528 294.367 673.541 294.607 672.848 295.087C672.154 295.567 671.808 296.247 671.808 297.127C671.808 297.927 672.114 298.554 672.728 299.007C673.341 299.434 674.314 299.781 675.648 300.047L677.808 300.407C680.341 300.887 682.168 301.607 683.288 302.567C684.408 303.527 684.968 304.861 684.968 306.567C684.968 308.567 684.208 310.127 682.688 311.247C681.168 312.341 679.048 312.887 676.328 312.887ZM704.231 291.727V295.007H700.071V307.407C700.071 308.021 700.245 308.474 700.591 308.767C700.965 309.034 701.578 309.167 702.431 309.167H704.231V312.367C703.351 312.447 702.538 312.487 701.791 312.487C699.845 312.487 698.405 312.114 697.471 311.367C696.538 310.621 696.071 309.421 696.071 307.767V295.007H692.751V291.727H696.071V285.807H700.071V291.727H704.231ZM716.919 291.407C717.506 291.407 717.893 291.421 718.079 291.447V295.247H717.079C715.026 295.247 713.439 295.754 712.319 296.767C711.199 297.781 710.639 299.247 710.639 301.167V312.367H706.639V291.727H710.479V295.407C711.786 292.741 713.933 291.407 716.919 291.407ZM736.607 309.287H737.727V312.367C737.14 312.447 736.487 312.487 735.767 312.487C734.487 312.487 733.527 312.261 732.887 311.807C732.274 311.327 731.9 310.581 731.767 309.567C730.38 311.754 728.14 312.847 725.047 312.847C722.78 312.847 720.98 312.314 719.647 311.247C718.34 310.154 717.687 308.647 717.687 306.727C717.687 302.994 720.274 300.861 725.447 300.327L728.487 300.007C729.554 299.874 730.327 299.607 730.807 299.207C731.314 298.781 731.567 298.181 731.567 297.407C731.567 296.367 731.234 295.621 730.567 295.167C729.927 294.687 728.847 294.447 727.327 294.447C725.674 294.447 724.487 294.727 723.767 295.287C723.047 295.821 722.634 296.781 722.527 298.167H718.567C718.86 293.554 721.78 291.247 727.327 291.247C732.767 291.247 735.487 293.274 735.487 297.327V308.247C735.487 308.941 735.86 309.287 736.607 309.287ZM725.647 309.727C727.354 309.727 728.767 309.247 729.887 308.287C731.007 307.327 731.567 305.967 731.567 304.207V302.047C731.06 302.474 730.207 302.754 729.007 302.887L726.127 303.207C724.58 303.394 723.474 303.767 722.807 304.327C722.14 304.861 721.807 305.621 721.807 306.607C721.807 307.594 722.127 308.367 722.767 308.927C723.434 309.461 724.394 309.727 725.647 309.727ZM754.535 294.527V283.887H758.535V312.367H754.695V309.327C753.148 311.674 750.868 312.847 747.855 312.847C744.975 312.847 742.682 311.874 740.975 309.927C739.268 307.981 738.415 305.354 738.415 302.047C738.415 298.741 739.268 296.114 740.975 294.167C742.682 292.221 744.975 291.247 747.855 291.247C750.762 291.247 752.988 292.341 754.535 294.527ZM742.575 302.207C742.575 304.501 743.122 306.274 744.215 307.527C745.308 308.781 746.775 309.407 748.615 309.407C750.508 309.407 751.988 308.754 753.055 307.447C754.122 306.194 754.655 304.394 754.655 302.047C754.655 299.727 754.122 297.914 753.055 296.607C751.988 295.327 750.508 294.687 748.615 294.687C746.775 294.687 745.308 295.354 744.215 296.687C743.122 298.021 742.575 299.861 742.575 302.207ZM766.287 288.807H762.207V284.527H766.287V288.807ZM766.247 312.367H762.247V291.727H766.247V312.367ZM780.244 291.247C782.51 291.247 784.284 291.887 785.564 293.167C786.844 294.421 787.484 296.207 787.484 298.527V312.367H783.484V299.087C783.484 296.207 782.03 294.767 779.124 294.767C777.79 294.767 776.59 295.274 775.524 296.287C774.457 297.327 773.924 298.807 773.924 300.727V312.367H769.924V291.727H773.764V294.807C775.337 292.434 777.497 291.247 780.244 291.247ZM806.514 294.647V291.727H810.354V311.607C810.354 314.434 809.501 316.647 807.794 318.247C806.087 319.874 803.661 320.687 800.514 320.687C797.821 320.687 795.674 320.074 794.074 318.847C792.501 317.621 791.607 315.941 791.394 313.807H795.394C795.714 316.234 797.434 317.447 800.554 317.447C804.421 317.447 806.354 315.527 806.354 311.687V309.407C804.781 311.541 802.567 312.607 799.714 312.607C796.834 312.607 794.541 311.634 792.834 309.687C791.101 307.714 790.234 305.127 790.234 301.927C790.234 298.727 791.101 296.141 792.834 294.167C794.541 292.221 796.821 291.247 799.674 291.247C802.687 291.247 804.967 292.381 806.514 294.647ZM800.434 309.167C802.301 309.167 803.767 308.527 804.834 307.247C805.927 305.941 806.474 304.167 806.474 301.927C806.474 299.687 805.927 297.927 804.834 296.647C803.767 295.341 802.301 294.687 800.434 294.687C798.594 294.687 797.127 295.341 796.034 296.647C794.941 297.954 794.394 299.714 794.394 301.927C794.394 304.167 794.941 305.941 796.034 307.247C797.127 308.527 798.594 309.167 800.434 309.167ZM818.346 312.367H813.506V307.607H818.346V312.367ZM847.955 295.767V283.887H852.235V312.367H847.955V299.687H833.275V312.367H828.995V283.887H833.275V295.767H847.955ZM874.759 302.207V303.367H859.199C859.386 305.394 859.986 306.927 860.999 307.967C862.012 308.981 863.386 309.487 865.119 309.487C867.732 309.487 869.439 308.341 870.239 306.047H874.279C873.719 308.154 872.626 309.821 870.999 311.047C869.399 312.247 867.412 312.847 865.039 312.847C862.079 312.847 859.692 311.861 857.879 309.887C856.066 307.914 855.159 305.301 855.159 302.047C855.159 298.794 856.066 296.181 857.879 294.207C859.692 292.234 862.052 291.247 864.959 291.247C867.999 291.247 870.399 292.274 872.159 294.327C873.892 296.381 874.759 299.007 874.759 302.207ZM864.959 294.607C863.386 294.607 862.092 295.087 861.079 296.047C860.092 297.007 859.479 298.394 859.239 300.207H870.639C870.452 298.527 869.852 297.181 868.839 296.167C867.852 295.127 866.559 294.607 864.959 294.607ZM887.786 291.407C888.373 291.407 888.76 291.421 888.946 291.447V295.247H887.946C885.893 295.247 884.306 295.754 883.186 296.767C882.066 297.781 881.506 299.247 881.506 301.167V312.367H877.506V291.727H881.346V295.407C882.653 292.741 884.8 291.407 887.786 291.407ZM908.589 302.207V303.367H893.029C893.215 305.394 893.815 306.927 894.829 307.967C895.842 308.981 897.215 309.487 898.949 309.487C901.562 309.487 903.269 308.341 904.069 306.047H908.109C907.549 308.154 906.455 309.821 904.829 311.047C903.229 312.247 901.242 312.847 898.869 312.847C895.909 312.847 893.522 311.861 891.709 309.887C889.895 307.914 888.989 305.301 888.989 302.047C888.989 298.794 889.895 296.181 891.709 294.207C893.522 292.234 895.882 291.247 898.789 291.247C901.829 291.247 904.229 292.274 905.989 294.327C907.722 296.381 908.589 299.007 908.589 302.207ZM898.789 294.607C897.215 294.607 895.922 295.087 894.909 296.047C893.922 297.007 893.309 298.394 893.069 300.207H904.469C904.282 298.527 903.682 297.181 902.669 296.167C901.682 295.127 900.389 294.607 898.789 294.607ZM912.444 294.927H909.364L908.764 283.887H913.044L912.444 294.927ZM922.551 312.887C916.818 312.887 913.804 310.527 913.511 305.807H917.511C917.671 307.247 918.138 308.261 918.911 308.847C919.684 309.434 920.911 309.727 922.591 309.727C925.631 309.727 927.151 308.767 927.151 306.847C927.151 306.021 926.831 305.381 926.191 304.927C925.551 304.474 924.404 304.101 922.751 303.807L920.631 303.407C916.258 302.607 914.071 300.554 914.071 297.247C914.071 295.407 914.778 293.954 916.191 292.887C917.604 291.794 919.551 291.247 922.031 291.247C927.711 291.247 930.618 293.554 930.751 298.167H926.871C926.791 296.781 926.364 295.807 925.591 295.247C924.818 294.661 923.631 294.367 922.031 294.367C920.751 294.367 919.764 294.607 919.071 295.087C918.378 295.567 918.031 296.247 918.031 297.127C918.031 297.927 918.338 298.554 918.951 299.007C919.564 299.434 920.538 299.781 921.871 300.047L924.031 300.407C926.564 300.887 928.391 301.607 929.511 302.567C930.631 303.527 931.191 304.861 931.191 306.567C931.191 308.567 930.431 310.127 928.911 311.247C927.391 312.341 925.271 312.887 922.551 312.887ZM963.255 300.327L965.935 291.727H970.215L963.375 312.367H959.175L956.335 303.287C955.615 300.994 954.962 298.781 954.375 296.647C953.495 299.767 952.855 301.981 952.455 303.287L949.655 312.367H945.415L938.575 291.727H942.895L945.535 300.327C946.255 302.647 946.975 305.101 947.695 307.687C948.175 305.767 948.868 303.314 949.775 300.327L952.415 291.727H956.415L959.015 300.327C960.108 304.034 960.815 306.474 961.135 307.647C961.455 306.474 962.162 304.034 963.255 300.327ZM981.776 291.247C984.043 291.247 985.816 291.887 987.096 293.167C988.376 294.421 989.016 296.207 989.016 298.527V312.367H985.016V299.087C985.016 296.207 983.563 294.767 980.656 294.767C979.323 294.767 978.123 295.274 977.056 296.287C975.99 297.327 975.456 298.807 975.456 300.727V312.367H971.456V283.887H975.456V294.567C977.03 292.354 979.136 291.247 981.776 291.247ZM1010.49 309.287H1011.61V312.367C1011.02 312.447 1010.37 312.487 1009.65 312.487C1008.37 312.487 1007.41 312.261 1006.77 311.807C1006.15 311.327 1005.78 310.581 1005.65 309.567C1004.26 311.754 1002.02 312.847 998.927 312.847C996.66 312.847 994.86 312.314 993.527 311.247C992.22 310.154 991.567 308.647 991.567 306.727C991.567 302.994 994.153 300.861 999.327 300.327L1002.37 300.007C1003.43 299.874 1004.21 299.607 1004.69 299.207C1005.19 298.781 1005.45 298.181 1005.45 297.407C1005.45 296.367 1005.11 295.621 1004.45 295.167C1003.81 294.687 1002.73 294.447 1001.21 294.447C999.553 294.447 998.367 294.727 997.647 295.287C996.927 295.821 996.513 296.781 996.407 298.167H992.447C992.74 293.554 995.66 291.247 1001.21 291.247C1006.65 291.247 1009.37 293.274 1009.37 297.327V308.247C1009.37 308.941 1009.74 309.287 1010.49 309.287ZM999.527 309.727C1001.23 309.727 1002.65 309.247 1003.77 308.287C1004.89 307.327 1005.45 305.967 1005.45 304.207V302.047C1004.94 302.474 1004.09 302.754 1002.89 302.887L1000.01 303.207C998.46 303.394 997.353 303.767 996.687 304.327C996.02 304.861 995.687 305.621 995.687 306.607C995.687 307.594 996.007 308.367 996.647 308.927C997.313 309.461 998.273 309.727 999.527 309.727ZM1022.55 291.727V295.007H1018.39V307.407C1018.39 308.021 1018.56 308.474 1018.91 308.767C1019.28 309.034 1019.89 309.167 1020.75 309.167H1022.55V312.367C1021.67 312.447 1020.85 312.487 1020.11 312.487C1018.16 312.487 1016.72 312.114 1015.79 311.367C1014.85 310.621 1014.39 309.421 1014.39 307.767V295.007H1011.07V291.727H1014.39V285.807H1018.39V291.727H1022.55ZM1039.88 312.887C1034.15 312.887 1031.13 310.527 1030.84 305.807H1034.84C1035 307.247 1035.47 308.261 1036.24 308.847C1037.01 309.434 1038.24 309.727 1039.92 309.727C1042.96 309.727 1044.48 308.767 1044.48 306.847C1044.48 306.021 1044.16 305.381 1043.52 304.927C1042.88 304.474 1041.73 304.101 1040.08 303.807L1037.96 303.407C1033.59 302.607 1031.4 300.554 1031.4 297.247C1031.4 295.407 1032.11 293.954 1033.52 292.887C1034.93 291.794 1036.88 291.247 1039.36 291.247C1045.04 291.247 1047.95 293.554 1048.08 298.167H1044.2C1044.12 296.781 1043.69 295.807 1042.92 295.247C1042.15 294.661 1040.96 294.367 1039.36 294.367C1038.08 294.367 1037.09 294.607 1036.4 295.087C1035.71 295.567 1035.36 296.247 1035.36 297.127C1035.36 297.927 1035.67 298.554 1036.28 299.007C1036.89 299.434 1037.87 299.781 1039.2 300.047L1041.36 300.407C1043.89 300.887 1045.72 301.607 1046.84 302.567C1047.96 303.527 1048.52 304.861 1048.52 306.567C1048.52 308.567 1047.76 310.127 1046.24 311.247C1044.72 312.341 1042.6 312.887 1039.88 312.887ZM1069.34 302.207V303.367H1053.78C1053.97 305.394 1054.57 306.927 1055.58 307.967C1056.59 308.981 1057.97 309.487 1059.7 309.487C1062.31 309.487 1064.02 308.341 1064.82 306.047H1068.86C1068.3 308.154 1067.21 309.821 1065.58 311.047C1063.98 312.247 1061.99 312.847 1059.62 312.847C1056.66 312.847 1054.27 311.861 1052.46 309.887C1050.65 307.914 1049.74 305.301 1049.74 302.047C1049.74 298.794 1050.65 296.181 1052.46 294.207C1054.27 292.234 1056.63 291.247 1059.54 291.247C1062.58 291.247 1064.98 292.274 1066.74 294.327C1068.47 296.381 1069.34 299.007 1069.34 302.207ZM1059.54 294.607C1057.97 294.607 1056.67 295.087 1055.66 296.047C1054.67 297.007 1054.06 298.394 1053.82 300.207H1065.22C1065.03 298.527 1064.43 297.181 1063.42 296.167C1062.43 295.127 1061.14 294.607 1059.54 294.607ZM1080.75 291.727V295.007H1076.59V307.407C1076.59 308.021 1076.77 308.474 1077.11 308.767C1077.49 309.034 1078.1 309.167 1078.95 309.167H1080.75V312.367C1079.87 312.447 1079.06 312.487 1078.31 312.487C1076.37 312.487 1074.93 312.114 1073.99 311.367C1073.06 310.621 1072.59 309.421 1072.59 307.767V295.007H1069.27V291.727H1072.59V285.807H1076.59V291.727H1080.75ZM1090.68 312.887C1084.95 312.887 1081.94 310.527 1081.64 305.807H1085.64C1085.8 307.247 1086.27 308.261 1087.04 308.847C1087.82 309.434 1089.04 309.727 1090.72 309.727C1093.76 309.727 1095.28 308.767 1095.28 306.847C1095.28 306.021 1094.96 305.381 1094.32 304.927C1093.68 304.474 1092.54 304.101 1090.88 303.807L1088.76 303.407C1084.39 302.607 1082.2 300.554 1082.2 297.247C1082.2 295.407 1082.91 293.954 1084.32 292.887C1085.74 291.794 1087.68 291.247 1090.16 291.247C1095.84 291.247 1098.75 293.554 1098.88 298.167H1095C1094.92 296.781 1094.5 295.807 1093.72 295.247C1092.95 294.661 1091.76 294.367 1090.16 294.367C1088.88 294.367 1087.9 294.607 1087.2 295.087C1086.51 295.567 1086.16 296.247 1086.16 297.127C1086.16 297.927 1086.47 298.554 1087.08 299.007C1087.7 299.434 1088.67 299.781 1090 300.047L1092.16 300.407C1094.7 300.887 1096.52 301.607 1097.64 302.567C1098.76 303.527 1099.32 304.861 1099.32 306.567C1099.32 308.567 1098.56 310.127 1097.04 311.247C1095.52 312.341 1093.4 312.887 1090.68 312.887ZM1122.35 303.367V291.727H1126.35V312.367H1122.51V309.287C1120.93 311.661 1118.77 312.847 1116.03 312.847C1113.76 312.847 1111.99 312.207 1110.71 310.927C1109.43 309.647 1108.79 307.861 1108.79 305.567V291.727H1112.79V305.007C1112.79 307.887 1114.24 309.327 1117.15 309.327C1118.61 309.327 1119.84 308.807 1120.83 307.767C1121.84 306.701 1122.35 305.234 1122.35 303.367ZM1137.7 312.887C1131.96 312.887 1128.95 310.527 1128.66 305.807H1132.66C1132.82 307.247 1133.28 308.261 1134.06 308.847C1134.83 309.434 1136.06 309.727 1137.74 309.727C1140.78 309.727 1142.3 308.767 1142.3 306.847C1142.3 306.021 1141.98 305.381 1141.34 304.927C1140.7 304.474 1139.55 304.101 1137.9 303.807L1135.78 303.407C1131.4 302.607 1129.22 300.554 1129.22 297.247C1129.22 295.407 1129.92 293.954 1131.34 292.887C1132.75 291.794 1134.7 291.247 1137.18 291.247C1142.86 291.247 1145.76 293.554 1145.9 298.167H1142.02C1141.94 296.781 1141.51 295.807 1140.74 295.247C1139.96 294.661 1138.78 294.367 1137.18 294.367C1135.9 294.367 1134.91 294.607 1134.22 295.087C1133.52 295.567 1133.18 296.247 1133.18 297.127C1133.18 297.927 1133.48 298.554 1134.1 299.007C1134.71 299.434 1135.68 299.781 1137.02 300.047L1139.18 300.407C1141.71 300.887 1143.54 301.607 1144.66 302.567C1145.78 303.527 1146.34 304.861 1146.34 306.567C1146.34 308.567 1145.58 310.127 1144.06 311.247C1142.54 312.341 1140.42 312.887 1137.7 312.887ZM1173.56 309.287H1174.68V312.367C1174.1 312.447 1173.44 312.487 1172.72 312.487C1171.44 312.487 1170.48 312.261 1169.84 311.807C1169.23 311.327 1168.86 310.581 1168.72 309.567C1167.34 311.754 1165.1 312.847 1162 312.847C1159.74 312.847 1157.94 312.314 1156.6 311.247C1155.3 310.154 1154.64 308.647 1154.64 306.727C1154.64 302.994 1157.23 300.861 1162.4 300.327L1165.44 300.007C1166.51 299.874 1167.28 299.607 1167.76 299.207C1168.27 298.781 1168.52 298.181 1168.52 297.407C1168.52 296.367 1168.19 295.621 1167.52 295.167C1166.88 294.687 1165.8 294.447 1164.28 294.447C1162.63 294.447 1161.44 294.727 1160.72 295.287C1160 295.821 1159.59 296.781 1159.48 298.167H1155.52C1155.82 293.554 1158.74 291.247 1164.28 291.247C1169.72 291.247 1172.44 293.274 1172.44 297.327V308.247C1172.44 308.941 1172.82 309.287 1173.56 309.287ZM1162.6 309.727C1164.31 309.727 1165.72 309.247 1166.84 308.287C1167.96 307.327 1168.52 305.967 1168.52 304.207V302.047C1168.02 302.474 1167.16 302.754 1165.96 302.887L1163.08 303.207C1161.54 303.394 1160.43 303.767 1159.76 304.327C1159.1 304.861 1158.76 305.621 1158.76 306.607C1158.76 307.594 1159.08 308.367 1159.72 308.927C1160.39 309.461 1161.35 309.727 1162.6 309.727ZM1187.25 291.247C1190.13 291.247 1192.42 292.221 1194.13 294.167C1195.83 296.114 1196.69 298.741 1196.69 302.047C1196.69 305.327 1195.83 307.941 1194.13 309.887C1192.39 311.861 1190.1 312.847 1187.25 312.847C1184.31 312.847 1182.07 311.727 1180.53 309.487V320.207H1176.53V291.727H1180.37V294.847C1181.91 292.447 1184.21 291.247 1187.25 291.247ZM1182.09 307.447C1183.15 308.754 1184.62 309.407 1186.49 309.407C1188.35 309.407 1189.83 308.741 1190.93 307.407C1191.99 306.101 1192.53 304.261 1192.53 301.887C1192.53 299.594 1191.99 297.821 1190.93 296.567C1189.86 295.314 1188.38 294.687 1186.49 294.687C1184.65 294.687 1183.18 295.327 1182.09 296.607C1180.99 297.941 1180.45 299.754 1180.45 302.047C1180.45 304.341 1180.99 306.141 1182.09 307.447ZM1216.84 309.287H1217.96V312.367C1217.38 312.447 1216.72 312.487 1216 312.487C1214.72 312.487 1213.76 312.261 1213.12 311.807C1212.51 311.327 1212.14 310.581 1212 309.567C1210.62 311.754 1208.38 312.847 1205.28 312.847C1203.02 312.847 1201.22 312.314 1199.88 311.247C1198.58 310.154 1197.92 308.647 1197.92 306.727C1197.92 302.994 1200.51 300.861 1205.68 300.327L1208.72 300.007C1209.79 299.874 1210.56 299.607 1211.04 299.207C1211.55 298.781 1211.8 298.181 1211.8 297.407C1211.8 296.367 1211.47 295.621 1210.8 295.167C1210.16 294.687 1209.08 294.447 1207.56 294.447C1205.91 294.447 1204.72 294.727 1204 295.287C1203.28 295.821 1202.87 296.781 1202.76 298.167H1198.8C1199.1 293.554 1202.02 291.247 1207.56 291.247C1213 291.247 1215.72 293.274 1215.72 297.327V308.247C1215.72 308.941 1216.1 309.287 1216.84 309.287ZM1205.88 309.727C1207.59 309.727 1209 309.247 1210.12 308.287C1211.24 307.327 1211.8 305.967 1211.8 304.207V302.047C1211.3 302.474 1210.44 302.754 1209.24 302.887L1206.36 303.207C1204.82 303.394 1203.71 303.767 1203.04 304.327C1202.38 304.861 1202.04 305.621 1202.04 306.607C1202.04 307.594 1202.36 308.367 1203 308.927C1203.67 309.461 1204.63 309.727 1205.88 309.727ZM1230.09 291.407C1230.67 291.407 1231.06 291.421 1231.25 291.447V295.247H1230.25C1228.19 295.247 1226.61 295.754 1225.49 296.767C1224.37 297.781 1223.81 299.247 1223.81 301.167V312.367H1219.81V291.727H1223.65V295.407C1224.95 292.741 1227.1 291.407 1230.09 291.407ZM1243.34 291.727V295.007H1239.18V307.407C1239.18 308.021 1239.35 308.474 1239.7 308.767C1240.07 309.034 1240.69 309.167 1241.54 309.167H1243.34V312.367C1242.46 312.447 1241.65 312.487 1240.9 312.487C1238.95 312.487 1237.51 312.114 1236.58 311.367C1235.65 310.621 1235.18 309.421 1235.18 307.767V295.007H1231.86V291.727H1235.18V285.807H1239.18V291.727H1243.34ZM1250.18 297.487H1245.34V292.727H1250.18V297.487ZM1250.18 312.367H1245.34V307.607H1250.18V312.367Z" fill="#3E3484" />
  <path d="M105.95 30.4718L112.292 2.21042H141.105L114.636 100.367H83.7548L77.6889 71.2786C74.8398 57.4006 72.634 45.4527 71.0716 35.4348C69.3254 46.2799 67.0736 58.2278 64.3164 71.2786L58.2506 100.367H27.3698L0.900541 2.21042H29.7134L36.055 30.4718C40.0989 48.3937 42.8561 61.4905 44.3266 69.7621C46.4405 56.8951 48.876 43.7984 51.6333 30.4718L57.4234 2.21042H84.5819L90.3721 30.4718C93.1293 43.7984 95.5648 56.8951 97.6787 69.7621C99.2411 61.4905 101.998 48.3937 105.95 30.4718ZM205.877 38.0542V2.21042H233.449V100.367H205.877V62.5934H172.101V100.367H144.529V2.21042H172.101V38.0542H205.877ZM300.068 13.1014L306.134 2.21042H336.325L300.344 62.5934V100.367H272.771V62.5934L236.238 2.21042H267.257L273.599 13.2393C280.492 25.2791 284.995 33.275 287.109 37.227C291.337 28.9554 295.656 20.9135 300.068 13.1014ZM365.806 2.21042H451.279V26.7496H422.329V100.367H394.756V26.7496H365.806V2.21042ZM539.737 77.3445L540.289 90.4412C540.473 94.4851 541.3 97.7938 542.77 100.367H514.371C513.268 98.2533 512.625 94.9447 512.441 90.4412L512.027 79.2745C511.844 74.3115 510.695 70.9569 508.581 69.2107C506.559 67.3725 503.25 66.4535 498.655 66.4535H484.317V100.367H456.745V2.21042H504.997C517.496 2.21042 526.733 4.92168 532.707 10.3442C538.589 15.8586 541.53 22.8436 541.53 31.299C541.53 36.3539 540.197 40.9033 537.532 44.9472C534.958 48.9911 531.19 52.116 526.227 54.3217C531.19 56.1599 534.591 58.8252 536.429 62.3177C538.359 65.8101 539.462 70.8191 539.737 77.3445ZM484.317 23.7167V46.3258H500.861C509.04 46.3258 513.13 42.5576 513.13 35.0212C513.13 27.4849 509.04 23.7167 500.861 23.7167H484.317ZM591.773 102.573C578.723 102.573 568.153 99.1264 560.065 92.2334C551.794 85.3404 547.658 75.5063 547.658 62.7312V2.21042H575.23V63.007C575.23 68.1538 576.655 72.1058 579.504 74.863C582.445 77.6202 586.535 78.9988 591.773 78.9988C597.012 78.9988 601.056 77.6202 603.905 74.863C606.846 72.1058 608.317 68.1538 608.317 63.007V2.21042H635.889V62.7312C635.889 75.6901 631.891 85.5701 623.895 92.3713C615.807 99.1724 605.1 102.573 591.773 102.573ZM684.516 102.573C670.454 102.573 659.609 99.4941 651.981 93.3363C644.444 87.1785 640.676 78.769 640.676 68.1078H667.145C667.237 73.2546 668.754 76.793 671.695 78.7231C674.636 80.6531 679.277 81.6181 685.619 81.6181C694.809 81.6181 699.405 78.6771 699.405 72.7951C699.405 70.0378 698.348 68.0159 696.234 66.7292C694.12 65.4425 690.03 64.2937 683.964 63.2827L676.244 62.0419C653.543 58.3656 642.193 47.7963 642.193 30.334C642.193 21.0514 645.639 13.6988 652.532 8.27628C659.517 2.76186 669.489 0.00464543 682.448 0.00464543C695.499 0.00464543 705.609 2.76186 712.777 8.27628C719.946 13.6988 723.806 21.7407 724.358 32.4019H698.44C698.256 28.4499 696.923 25.5548 694.442 23.7167C691.96 21.8785 688.1 20.9595 682.862 20.9595C674.498 20.9595 670.316 23.6707 670.316 29.0932C670.316 31.8505 671.373 33.9184 673.487 35.297C675.601 36.6756 679.323 37.8244 684.654 38.7435L692.788 40.1221C705.011 42.144 713.88 45.5906 719.395 50.4616C725.001 55.2408 727.804 61.996 727.804 70.7272C727.804 81.1127 723.99 89.0167 716.362 94.4392C708.733 99.8617 698.118 102.573 684.516 102.573ZM725.816 2.21042H811.289V26.7496H782.339V100.367H754.767V26.7496H725.816V2.21042ZM54.6662 210.573C39.4096 210.573 27.2319 205.932 18.1331 196.649C8.94241 187.458 4.34706 175.005 4.34706 159.289C4.34706 143.573 8.8505 131.073 17.8574 121.791C26.7724 112.6 39.042 108.005 54.6662 108.005C67.2575 108.005 78.0106 111.405 86.9256 118.206C95.6567 125.099 100.941 134.612 102.78 146.743H74.9317C73.645 141.872 71.2095 138.15 67.6251 135.577C64.0407 132.911 59.7211 131.579 54.6662 131.579C47.5893 131.579 42.2128 133.968 38.5365 138.748C34.8602 143.527 33.0221 150.374 33.0221 159.289C33.0221 168.204 34.8602 175.051 38.5365 179.83C42.2128 184.609 47.5893 186.999 54.6662 186.999C60.1806 186.999 64.73 185.528 68.3144 182.587C71.9907 179.554 74.3343 175.327 75.3453 169.904H102.917C101.355 182.771 96.2082 192.743 87.477 199.82C78.6539 206.989 67.717 210.573 54.6662 210.573ZM202.123 208.367H172.897L168.761 195.546H130.298L126.162 208.367H98.0384L132.917 110.21H166.004L202.123 208.367ZM144.635 150.19L137.467 172.799H161.316L154.01 150.19C151.436 142.286 149.874 137.093 149.323 134.612C147.025 142.24 145.462 147.433 144.635 150.19ZM204.913 110.21H250.958C262.722 110.21 271.913 113.289 278.53 119.447C285.24 125.513 288.594 133.831 288.594 144.4C288.594 154.969 285.24 163.333 278.53 169.49C271.913 175.556 262.722 178.589 250.958 178.589H232.485V208.367H204.913V110.21ZM232.485 155.429H248.89C252.75 155.429 255.737 154.51 257.851 152.671C260.057 150.741 261.16 147.984 261.16 144.4C261.16 140.815 260.057 138.104 257.851 136.266C255.737 134.336 252.75 133.371 248.89 133.371H232.485V155.429ZM323.026 208.367H295.454V110.21H323.026V208.367ZM328.513 110.21H413.987V134.75H385.036V208.367H357.464V134.75H328.513V110.21ZM503.569 208.367H474.343L470.207 195.546H431.744L427.608 208.367H399.485L434.363 110.21H467.45L503.569 208.367ZM446.082 150.19L438.913 172.799H462.763L455.456 150.19C452.883 142.286 451.32 137.093 450.769 134.612C448.471 142.24 446.909 147.433 446.082 150.19ZM533.931 110.21V183.828H577.357V208.367H506.359V110.21H533.931Z" fill="#1B2534" />
  <path d="M427.591 209.127L450.337 121.368L474.091 207.868L450.337 188.17L427.591 209.127Z" fill="#56B953" />
  <path d="M449.78 187.368L441.346 196.368H460.243L449.78 187.368Z" fill="white" />
</svg>