<svg width="967" height="103" viewBox="0 0 967 103" fill="none" xmlns="http://www.w3.org/2000/svg">
    <path
        d="M48.6634 102.458C33.8507 102.458 22.039 97.8438 13.2042 88.6403C4.27343 79.5349 -0.167969 67.1654 -0.167969 51.5807C-0.167969 35.9961 4.2014 23.5774 12.9402 14.3739C21.5829 5.26856 33.4906 0.703613 48.6634 0.703613C60.8832 0.703613 71.3265 4.06597 79.9692 10.8152C88.4439 17.6626 93.5815 27.0871 95.3581 39.1375H68.3256C67.0772 34.3026 64.7244 30.5967 61.2433 27.9951C57.7622 25.3936 53.5609 24.0928 48.6634 24.0928C41.7972 24.0928 36.5876 26.4735 33.0105 31.2102C29.4333 35.947 27.6568 42.7453 27.6568 51.5807C27.6568 60.4161 29.4333 67.2144 33.0105 71.9512C36.5876 76.6879 41.7972 79.0686 48.6634 79.0686C54.0171 79.0686 58.4585 77.596 61.9636 74.6264C65.4927 71.6567 67.7494 67.4844 68.7097 62.1096H95.4781C93.9656 74.8718 88.9721 84.7625 80.4974 91.7817C71.9267 98.8991 61.3154 102.458 48.6634 102.458Z"
        fill="#3E3484" />
    <path
        d="M148.198 102.458C133.218 102.458 121.118 97.8192 111.947 88.5175C102.752 79.4122 98.1665 67.0917 98.1665 51.5807C98.1665 36.1679 102.752 23.8229 111.947 14.5212C121.214 5.31764 133.314 0.703613 148.198 0.703613C163.083 0.703613 175.183 5.31764 184.45 14.5212C193.645 23.8229 198.23 36.1679 198.23 51.5807C198.23 67.0917 193.645 79.3876 184.45 88.5175C175.279 97.7947 163.179 102.458 148.198 102.458ZM132.017 71.534C136.026 76.3689 141.428 78.7741 148.198 78.7741C154.968 78.7741 160.37 76.3689 164.379 71.534C168.389 66.7972 170.405 60.1461 170.405 51.5562C170.405 43.1626 168.389 36.536 164.379 31.652C160.37 26.768 154.968 24.3383 148.198 24.3383C141.428 24.3383 136.026 26.768 132.017 31.652C128.008 36.536 125.991 43.1626 125.991 51.5562C125.991 60.1461 128.008 66.7972 132.017 71.534Z"
        fill="#3E3484" />
    <path
        d="M491.794 102.458C476.814 102.458 464.714 97.8192 455.543 88.5175C446.348 79.4122 441.763 67.0917 441.763 51.5807C441.763 36.1679 446.348 23.8229 455.543 14.5212C464.81 5.31764 476.91 0.703613 491.794 0.703613C506.679 0.703613 518.779 5.31764 528.046 14.5212C537.241 23.8229 541.826 36.1679 541.826 51.5807C541.826 67.0917 537.241 79.3876 528.046 88.5175C518.851 97.7947 506.775 102.458 491.794 102.458ZM475.589 71.534C479.599 76.3689 485 78.7741 491.77 78.7741C498.541 78.7741 503.942 76.3689 507.952 71.534C511.961 66.7972 513.977 60.1461 513.977 51.5562C513.977 43.1626 511.961 36.536 507.952 31.652C503.942 26.768 498.541 24.3383 491.77 24.3383C485 24.3383 479.599 26.768 475.589 31.652C471.58 36.536 469.563 43.1626 469.563 51.5562C469.587 60.1461 471.58 66.7972 475.589 71.534Z"
        fill="#3E3484" />
    <path
        d="M548.525 2.88818H590.13C606.623 2.88818 618.987 7.25679 627.198 16.0185C635.408 24.8539 639.514 36.7081 639.514 51.581C639.514 66.4539 635.408 78.308 627.198 87.1434C618.987 95.9052 606.647 100.274 590.13 100.274H548.525V2.88818ZM575.269 77.2772H589.578C604.294 77.2772 611.665 68.7118 611.665 51.5564C611.665 34.4256 604.294 25.8356 589.578 25.8356H575.269V77.2772Z"
        fill="#3E3484" />
    <path d="M672.955 100.274H646.187V2.88818H672.955V100.274Z" fill="#3E3484" />
    <path d="M678.285 2.88818H761.231V27.2346H733.142V100.274H706.374V27.2346H678.285V2.88818Z"
        fill="#3E3484" />
    <path d="M793.354 100.274H766.585V2.88818H793.354V100.274Z" fill="#3E3484" />
    <path
        d="M879.253 2.88818V27.2346H830.83V40.095H874.979V62.797H830.83V75.9274H879.253V100.274H804.061V2.88818H879.253Z"
        fill="#3E3484" />
    <path
        d="M925.155 102.458C911.518 102.458 901.003 99.4145 893.657 93.3034C886.286 87.1922 882.613 78.8477 882.613 68.2698H908.301C908.397 73.3747 909.862 76.8843 912.719 78.7986C915.576 80.713 920.089 81.6701 926.235 81.6701C935.142 81.6701 939.607 78.7495 939.607 72.9084C939.607 70.1841 938.575 68.1716 936.534 66.8954C934.47 65.6192 930.508 64.4902 924.626 63.4839L917.136 62.2568C895.097 58.5999 884.078 48.1202 884.078 30.793C884.078 21.5895 887.439 14.2757 894.185 8.8518C900.907 3.42786 910.582 0.703613 923.162 0.703613C935.838 0.703613 945.633 3.42786 952.595 8.8518C959.558 14.2757 963.303 22.2767 963.831 32.8546H938.671C938.479 28.9278 937.206 26.0563 934.782 24.2401C932.381 22.4239 928.636 21.5159 923.546 21.5159C915.432 21.5159 911.374 24.2156 911.374 29.5904C911.374 32.3147 912.407 34.3763 914.447 35.7506C916.488 37.125 920.113 38.254 925.275 39.1621L933.173 40.5365C945.033 42.549 953.676 45.9359 959.053 50.7217C964.455 55.5075 967.144 62.2323 967.144 70.8959C967.144 81.2038 963.447 89.0329 956.028 94.4324C948.658 99.7581 938.335 102.458 925.155 102.458Z"
        fill="#3E3484" />
    <path
        d="M384.793 2.98633C383.64 6.88862 371.132 46.6479 370.292 50.9183C371.204 50.8937 374.373 50.452 373.773 49.4948L343.091 2.98633H314.522L314.859 3.5999L328.039 28.1917C329.983 36.119 379.343 98.5803 380.375 99.881L395.596 48.5131C397.373 42.132 399.269 34.9164 401.238 26.9155C400.686 39.4077 400.421 54.5752 400.421 72.4668V100.077H425.557V2.98633H384.793Z"
        fill="#3E3484" />
    <path d="M203.896 2.96143V100.052H228.096V2.96143H203.896Z" fill="#3E3484" />
    <path d="M314.595 2.88818L380.4 99.9056L331.328 71.0925L314.643 100.249" fill="#56B851" />
    <path
        d="M288.762 2.98633C286.746 6.93771 262.018 47.8014 259.593 52.1945C259.281 51.8264 258.801 51.1392 258.201 50.182L228.167 2.98633H203.848L204.184 3.5999L217.364 28.1917C223.918 37.0762 258.273 98.5803 259.305 99.8811C259.305 99.8811 284.897 55.3605 289.939 45.6171C289.651 58.5756 289.747 54.5506 289.747 72.4423V100.053H314.883V2.98633H288.762Z"
        fill="#3E3484" />
    <path d="M258.201 50.182L228.167 2.98633" stroke="#56B851" stroke-width="0.0232363"
        stroke-miterlimit="10" />
    <path d="M259.522 52.1951L258.201 50.1826" stroke="#56B851" stroke-width="0.0232363"
        stroke-miterlimit="10" />
</svg>
    