<svg width="587" height="61" viewBox="0 0 587 61" fill="none" xmlns="http://www.w3.org/2000/svg">
    <path
        d="M29.5401 60.9363C20.5484 60.9363 13.3783 58.1965 8.01531 52.7315C2.59402 47.3247 -0.102051 39.9798 -0.102051 30.7257C-0.102051 21.4716 2.5503 14.0975 7.855 8.63249C13.1014 3.22578 20.3298 0.515137 29.5401 0.515137C36.958 0.515137 43.2974 2.51168 48.5438 6.51936C53.6882 10.5853 56.8069 16.1815 57.8853 23.337H41.4757C40.7179 20.4661 39.2897 18.2655 37.1766 16.7207C35.0634 15.1759 32.5131 14.4035 29.5401 14.4035C25.3722 14.4035 22.2097 15.8172 20.0383 18.6298C17.8669 21.4425 16.7885 25.4793 16.7885 30.7257C16.7885 35.9721 17.8669 40.0089 20.0383 42.8216C22.2097 45.6342 25.3722 47.0479 29.5401 47.0479C32.79 47.0479 35.4861 46.1734 37.6138 44.4101C39.7561 42.6467 41.126 40.1692 41.7089 36.9777H57.9582C57.0401 44.5558 54.0088 50.4289 48.8644 54.5968C43.6617 58.8231 37.2203 60.9363 29.5401 60.9363Z"
        fill="#4D4D4D" />
    <path
        d="M89.9612 60.9363C80.8674 60.9363 73.5225 58.1819 67.9554 52.6586C62.3739 47.2519 59.5903 39.9361 59.5903 30.7257C59.5903 21.5736 62.3739 14.2432 67.9554 8.71993C73.5808 3.25492 80.9257 0.515137 89.9612 0.515137C98.9967 0.515137 106.342 3.25492 111.967 8.71993C117.549 14.2432 120.332 21.5736 120.332 30.7257C120.332 39.9361 117.549 47.2373 111.967 52.6586C106.4 58.1673 99.055 60.9363 89.9612 60.9363ZM80.1388 42.5738C82.5725 45.4448 85.8515 46.873 89.9612 46.873C94.0709 46.873 97.3499 45.4448 99.7836 42.5738C102.217 39.7612 103.442 35.8118 103.442 30.7111C103.442 25.727 102.217 21.7922 99.7836 18.8921C97.3499 15.992 94.0709 14.5493 89.9612 14.5493C85.8515 14.5493 82.5725 15.992 80.1388 18.8921C77.705 21.7922 76.4809 25.727 76.4809 30.7111C76.4809 35.8118 77.705 39.7612 80.1388 42.5738Z"
        fill="#4D4D4D" />
    <path
        d="M298.535 60.9363C289.441 60.9363 282.096 58.1819 276.529 52.6586C270.948 47.2519 268.164 39.9361 268.164 30.7257C268.164 21.5736 270.948 14.2432 276.529 8.71993C282.154 3.25492 289.499 0.515137 298.535 0.515137C307.57 0.515137 314.915 3.25492 320.541 8.71993C326.122 14.2432 328.906 21.5736 328.906 30.7257C328.906 39.9361 326.122 47.2373 320.541 52.6586C314.959 58.1673 307.629 60.9363 298.535 60.9363ZM288.698 42.5738C291.132 45.4448 294.411 46.873 298.52 46.873C302.63 46.873 305.909 45.4448 308.343 42.5738C310.777 39.7612 312.001 35.8118 312.001 30.7111C312.001 25.727 310.777 21.7922 308.343 18.8921C305.909 15.992 302.63 14.5493 298.52 14.5493C294.411 14.5493 291.132 15.992 288.698 18.8921C286.264 21.7922 285.04 25.727 285.04 30.7111C285.055 35.8118 286.264 39.7612 288.698 42.5738Z"
        fill="#4D4D4D" />
    <path
        d="M332.972 1.8125H358.228C368.24 1.8125 375.745 4.40655 380.729 9.60924C385.713 14.8556 388.205 21.8946 388.205 30.726C388.205 39.5575 385.713 46.5964 380.729 51.8428C375.745 57.0455 368.254 59.6396 358.228 59.6396H332.972V1.8125ZM349.207 45.9843H357.893C366.826 45.9843 371.3 40.8982 371.3 30.7115C371.3 20.5393 366.826 15.4386 357.893 15.4386H349.207V45.9843Z"
        fill="#4D4D4D" />
    <path d="M408.506 59.6396H392.256V1.8125H408.506V59.6396Z" fill="#4D4D4D" />
    <path d="M411.741 1.8125H462.092V16.2693H445.041V59.6396H428.792V16.2693H411.741V1.8125Z"
        fill="#4D4D4D" />
    <path d="M481.591 59.6396H465.342V1.8125H481.591V59.6396Z" fill="#4D4D4D" />
    <path
        d="M533.735 1.8125V16.2693H504.34V23.9057H531.141V37.386H504.34V45.1828H533.735V59.6396H488.091V1.8125H533.735Z"
        fill="#4D4D4D" />
    <path
        d="M561.598 60.9363C553.321 60.9363 546.938 59.1292 542.478 55.5004C538.004 51.8716 535.774 46.9167 535.774 40.6356H551.368C551.426 43.6668 552.315 45.7508 554.049 46.8875C555.784 48.0243 558.523 48.5926 562.254 48.5926C567.661 48.5926 570.372 46.8584 570.372 43.3899C570.372 41.7723 569.745 40.5773 568.506 39.8195C567.253 39.0616 564.848 38.3913 561.278 37.7938L556.731 37.0651C543.353 34.8937 536.663 28.6709 536.663 18.3821C536.663 12.9171 538.704 8.5742 542.799 5.35349C546.879 2.13278 552.752 0.515137 560.389 0.515137C568.084 0.515137 574.029 2.13278 578.256 5.35349C582.482 8.5742 584.755 13.3251 585.076 19.6062H569.803C569.687 17.2745 568.914 15.5694 567.442 14.491C565.985 13.4126 563.712 12.8733 560.622 12.8733C555.696 12.8733 553.233 14.4764 553.233 17.668C553.233 19.2856 553.86 20.5098 555.099 21.3259C556.337 22.142 558.538 22.8124 561.671 23.3516L566.466 24.1677C573.665 25.3627 578.912 27.3738 582.176 30.2156C585.455 33.0574 587.087 37.0505 587.087 42.1949C587.087 48.3157 584.843 52.9646 580.34 56.1708C575.866 59.3332 569.599 60.9363 561.598 60.9363Z"
        fill="#4D4D4D" />
    <path
        d="M233.582 1.87061C232.882 4.18777 225.289 27.7966 224.779 30.3324C225.333 30.3178 227.257 30.0555 226.892 29.4871L208.268 1.87061H190.925L191.129 2.23494L199.13 16.8374C200.311 21.5446 230.273 58.6338 230.9 59.4062L240.14 28.9042C241.218 25.1151 242.369 20.8305 243.564 16.0796C243.229 23.4975 243.069 32.5038 243.069 43.1278V59.5228H258.327V1.87061H233.582Z"
        fill="#4D4D4D" />
    <path d="M123.771 1.85596V59.5081H138.461V1.85596H123.771Z" fill="#4D4D4D" />
    <path d="M190.969 1.8125L230.915 59.421L201.127 42.3118L190.998 59.625" fill="#56B851" />
    <path
        d="M175.288 1.87061C174.064 4.21692 159.053 28.4815 157.582 31.0902C157.392 30.8716 157.101 30.4635 156.736 29.8952L138.505 1.87061H123.742L123.946 2.23494L131.947 16.8374C135.926 22.113 156.78 58.6338 157.407 59.4062C157.407 59.4062 172.942 32.9701 176.002 27.1845C175.827 34.8792 175.886 32.4892 175.886 43.1132V59.5082H191.144V1.87061H175.288Z"
        fill="#4D4D4D" />
    <path d="M156.736 29.8952L138.505 1.87061" stroke="#56B851" stroke-width="0.0145734"
        stroke-miterlimit="10" />
    <path d="M157.538 31.0905L156.736 29.8955" stroke="#56B851" stroke-width="0.0145734"
        stroke-miterlimit="10" />
</svg>
    