<svg width="31" height="30" viewBox="0 0 31 30" fill="none" xmlns="http://www.w3.org/2000/svg">
  <path d="M28.523 11.427H27.6562C27.5084 11.4276 27.3643 11.3814 27.2443 11.2952C27.1243 11.2089 27.0347 11.087 26.9882 10.9467C26.7345 10.1922 26.4052 9.46531 26.0054 8.777L29.4063 5.41475C29.9016 4.9189 30.1798 4.24674 30.1798 3.54592C30.1798 2.8451 29.9016 2.17294 29.4063 1.67709L28.534 0.832384C28.039 0.342363 27.37 0.0684126 26.6735 0.0704959C26.3272 0.0701192 25.9843 0.138767 25.6648 0.272426C25.3454 0.406086 25.0557 0.602077 24.8129 0.848947L21.3899 4.22775C20.7585 3.88393 20.0992 3.59397 19.419 3.36097C19.2793 3.31422 19.1581 3.22435 19.0727 3.1043C18.9874 2.98425 18.9424 2.84021 18.9442 2.69294V1.82063C18.9427 1.33985 18.7507 0.879264 18.4102 0.539819C18.0697 0.200374 17.6086 0.0097634 17.1278 0.00976563H14.0305C13.5498 0.0097634 13.0886 0.200374 12.7481 0.539819C12.4076 0.879264 12.2156 1.33985 12.2142 1.82063V2.68742C12.2147 2.83517 12.1685 2.97932 12.0823 3.09929C11.996 3.21926 11.8741 3.30891 11.7338 3.35545C11.2108 3.53372 10.7 3.7458 10.2045 3.99036C10.073 4.05443 9.9248 4.0761 9.78042 4.05237C9.63604 4.02863 9.50259 3.96067 9.39848 3.85785L8.79118 3.24503C8.44895 2.90586 7.98662 2.71557 7.5048 2.71557C7.02298 2.71557 6.56065 2.90586 6.21842 3.24503L4.04318 5.42028C3.87391 5.58902 3.73961 5.7895 3.64798 6.01024C3.55634 6.23099 3.50917 6.46764 3.50917 6.70665C3.50917 6.94566 3.55634 7.18232 3.64798 7.40306C3.73961 7.6238 3.87391 7.82429 4.04318 7.99303L4.65048 8.60585C4.75539 8.70975 4.82512 8.8439 4.84987 8.98947C4.87463 9.13503 4.85317 9.28469 4.7885 9.41743C4.54245 9.91151 4.33212 10.4226 4.15912 10.9467C4.11083 11.0869 4.01998 11.2086 3.89923 11.2947C3.77849 11.3808 3.63387 11.4271 3.48557 11.427H2.61326C2.13152 11.427 1.66952 11.6184 1.32888 11.9591C0.988244 12.2997 0.796875 12.7617 0.796875 13.2434V16.3186C0.796875 16.8003 0.988244 17.2623 1.32888 17.603C1.66952 17.9436 2.13152 18.135 2.61326 18.135H3.48005C3.6278 18.1344 3.77195 18.1806 3.89192 18.2668C4.01189 18.3531 4.10154 18.4751 4.14808 18.6153C4.32635 19.1383 4.53843 19.6491 4.78298 20.1446C4.84765 20.2773 4.86911 20.427 4.84435 20.5725C4.8196 20.7181 4.74987 20.8523 4.64496 20.9562L4.03766 21.569C3.86388 21.7353 3.72541 21.9349 3.63055 22.1559C3.53569 22.377 3.48638 22.6148 3.48557 22.8554C3.48793 23.0956 3.53794 23.3331 3.63271 23.5539C3.72748 23.7747 3.86512 23.9745 4.03766 24.1417L6.2129 26.317C6.55513 26.6562 7.01746 26.8464 7.49928 26.8464C7.9811 26.8464 8.44343 26.6562 8.78566 26.317L9.39848 25.7042C9.50131 25.5995 9.63416 25.5295 9.7786 25.5038C9.92304 25.478 10.0719 25.4979 10.2045 25.5606C10.699 25.8057 11.2101 26.016 11.7338 26.19C11.8741 26.2383 11.9957 26.3291 12.0818 26.4499C12.1679 26.5706 12.2142 26.7153 12.2142 26.8636V27.7303C12.2142 28.2121 12.4055 28.6741 12.7462 29.0147C13.0868 29.3554 13.5488 29.5467 14.0305 29.5467H17.1278C17.3668 29.5475 17.6036 29.501 17.8246 29.4101C18.0456 29.3191 18.2465 29.1854 18.4157 29.0167C18.585 28.8479 18.7193 28.6475 18.8109 28.4267C18.9025 28.206 18.9497 27.9693 18.9497 27.7303V26.8691C18.9476 26.7211 18.9924 26.5762 19.0777 26.4552C19.163 26.3342 19.2844 26.2433 19.4245 26.1955C19.943 26.0198 20.4486 25.8076 20.9372 25.5606C21.0691 25.4964 21.2178 25.4752 21.3624 25.4999C21.5071 25.5247 21.6402 25.5942 21.7433 25.6986L22.3561 26.3115C22.6983 26.6506 23.1606 26.8409 23.6425 26.8409C24.1243 26.8409 24.5866 26.6506 24.9288 26.3115L27.1041 24.1362C27.4433 23.794 27.6335 23.3317 27.6335 22.8498C27.6335 22.368 27.4433 21.9057 27.1041 21.5635L26.5134 20.9562C26.4084 20.8523 26.3387 20.7181 26.314 20.5725C26.2892 20.427 26.3107 20.2773 26.3753 20.1446C26.6231 19.6506 26.8353 19.1395 27.0102 18.6153C27.0568 18.4751 27.1464 18.3531 27.2664 18.2668C27.3864 18.1806 27.5305 18.1344 27.6783 18.135H28.5451C29.0268 18.135 29.4888 17.9436 29.8294 17.603C30.1701 17.2623 30.3614 16.8003 30.3614 16.3186V13.2434C30.3615 13.003 30.3138 12.765 30.2211 12.5432C30.1284 12.3214 29.9927 12.1201 29.8216 11.9512C29.6506 11.7822 29.4478 11.6489 29.2249 11.5589C29.0019 11.4689 28.7634 11.4241 28.523 11.427ZM23.5541 12.1779C24.1048 13.8711 24.105 15.6952 23.5545 17.3885C23.004 19.0817 21.9312 20.5571 20.4901 21.6027C19.049 22.6484 17.3137 23.2106 15.5332 23.2087C13.7527 23.2067 12.0186 22.6407 10.5797 21.592C9.1409 20.5432 8.07133 19.0655 7.52452 17.3711C6.97772 15.6766 6.9818 13.8525 7.53618 12.1605C8.09056 10.4685 9.16674 8.99566 10.6102 7.95333C12.0538 6.911 13.7904 6.3528 15.5709 6.35883C16.6178 6.35791 17.6555 6.55459 18.6295 6.93853L12.0044 13.5084C11.9317 13.5796 11.8801 13.6693 11.8553 13.7679L10.591 18.803C10.5624 18.8994 10.5606 19.0017 10.5859 19.099C10.6112 19.1963 10.6626 19.2849 10.7345 19.3551C10.7857 19.4073 10.8467 19.4488 10.9139 19.4772C10.9812 19.5056 11.0535 19.5204 11.1265 19.5207C11.1705 19.526 11.215 19.526 11.259 19.5207L16.3493 18.2675C16.4467 18.2468 16.5353 18.1967 16.6033 18.1239L23.3167 11.4988C23.4162 11.7207 23.5046 11.9473 23.5817 12.1779H23.5541ZM12.6724 14.9715L15.1126 17.3841L11.8719 18.1847L12.6724 14.9715ZM16.2003 16.9093L13.1582 13.9004L24.1117 3.0794L27.1538 6.08831L16.2003 16.9093ZM26.69 1.17468C27.1019 1.1706 27.4988 1.32933 27.7942 1.61636L28.6444 2.46106C28.9323 2.7498 29.094 3.14092 29.094 3.54868C29.094 3.95644 28.9323 4.34756 28.6444 4.6363L27.9598 5.30986L24.8957 2.30095L25.5748 1.6274C25.7171 1.48378 25.8866 1.36982 26.0733 1.29211C26.26 1.2144 26.4602 1.17449 26.6624 1.17468H26.69ZM29.2628 16.3186C29.2628 16.5075 29.1877 16.6886 29.0542 16.8222C28.9206 16.9558 28.7395 17.0308 28.5506 17.0308H27.6562C27.2802 17.0355 26.9151 17.157 26.6114 17.3786C26.3077 17.6003 26.0804 17.9109 25.9613 18.2675C25.8071 18.7407 25.6227 19.2036 25.4092 19.6532C25.2425 19.9926 25.1859 20.3756 25.2472 20.7487C25.3086 21.1218 25.4849 21.4665 25.7515 21.7346L26.3643 22.3474C26.4309 22.4136 26.4837 22.4923 26.5198 22.579C26.5559 22.6657 26.5745 22.7587 26.5745 22.8526C26.5745 22.9465 26.5559 23.0395 26.5198 23.1262C26.4837 23.2129 26.4309 23.2916 26.3643 23.3578L24.1449 25.5606C24.0787 25.6272 24 25.6801 23.9133 25.7161C23.8266 25.7522 23.7336 25.7708 23.6397 25.7708C23.5458 25.7708 23.4528 25.7522 23.3661 25.7161C23.2794 25.6801 23.2007 25.6272 23.1345 25.5606L22.5217 24.9478C22.2582 24.6745 21.9149 24.4915 21.5411 24.4251C21.1672 24.3586 20.7819 24.4121 20.4403 24.5779C19.9892 24.7924 19.5245 24.9768 19.0491 25.13C18.6886 25.2491 18.3752 25.4795 18.154 25.7881C17.9327 26.0966 17.8151 26.4674 17.8179 26.847V27.7138C17.8224 27.9023 17.7525 28.085 17.6234 28.2224C17.4942 28.3598 17.3162 28.4409 17.1278 28.4481H14.0305C13.8416 28.4481 13.6605 28.373 13.5269 28.2395C13.3934 28.1059 13.3183 27.9248 13.3183 27.7359V26.8691C13.3203 26.4896 13.2023 26.1193 12.9812 25.8109C12.7601 25.5025 12.4472 25.272 12.0872 25.1521C11.6118 24.9989 11.147 24.8144 10.6959 24.6C10.3571 24.4308 9.9735 24.3728 9.5998 24.4343C9.2261 24.4957 8.88131 24.6735 8.61451 24.9423L8.00168 25.5606C7.93549 25.6272 7.85679 25.6801 7.77009 25.7161C7.68339 25.7522 7.59042 25.7708 7.49652 25.7708C7.40262 25.7708 7.30965 25.7522 7.22295 25.7161C7.13625 25.6801 7.05755 25.6272 6.99135 25.5606L4.81611 23.3522C4.7489 23.2871 4.69564 23.209 4.65957 23.1226C4.62351 23.0362 4.60539 22.9434 4.60631 22.8498C4.60559 22.7555 4.62378 22.6619 4.65982 22.5747C4.69585 22.4874 4.74899 22.4083 4.81611 22.3419L5.42893 21.7291C5.69845 21.4627 5.87674 21.1179 5.93823 20.744C5.99972 20.3701 5.94126 19.9863 5.77123 19.6477C5.55676 19.1966 5.37233 18.7318 5.21914 18.2564C5.0978 17.8973 4.86683 17.5854 4.55879 17.3645C4.25076 17.1436 3.88117 17.025 3.50213 17.0253H2.61326C2.42437 17.0253 2.24322 16.9502 2.10966 16.8167C1.9761 16.6831 1.90106 16.502 1.90106 16.3131V13.2434C1.90106 13.0545 1.9761 12.8734 2.10966 12.7398C2.24322 12.6063 2.42437 12.5312 2.61326 12.5312H3.48005C3.85949 12.5332 4.22985 12.4152 4.53821 12.1941C4.84658 11.973 5.07717 11.6601 5.19705 11.3001C5.35023 10.8229 5.53466 10.3562 5.74915 9.90327C5.91873 9.56547 5.97695 9.18263 5.91545 8.80969C5.85396 8.43675 5.67591 8.09287 5.40685 7.8274L4.81611 7.21458C4.68294 7.08017 4.60822 6.89862 4.60822 6.70941C4.60822 6.5202 4.68294 6.33865 4.81611 6.20425L6.99135 4.029C7.05755 3.9624 7.13625 3.90954 7.22295 3.87347C7.30965 3.8374 7.40262 3.81883 7.49652 3.81883C7.59042 3.81883 7.68339 3.8374 7.77009 3.87347C7.85679 3.90954 7.93549 3.9624 8.00168 4.029L8.61451 4.64182C8.88176 4.90988 9.22651 5.08714 9.60001 5.14857C9.97351 5.20999 10.3569 5.15247 10.6959 4.98412C11.147 4.76965 11.6118 4.58522 12.0872 4.43203C12.4467 4.31141 12.7592 4.08063 12.9802 3.77243C13.2011 3.46423 13.3195 3.09426 13.3183 2.71502V1.82063C13.3183 1.63174 13.3934 1.45059 13.5269 1.31703C13.6605 1.18347 13.8416 1.10843 14.0305 1.10843H17.1278C17.3133 1.11414 17.4894 1.19151 17.6192 1.32431C17.7489 1.45711 17.8221 1.635 17.8234 1.82063V2.68742C17.8214 3.06686 17.9394 3.43722 18.1605 3.74558C18.3817 4.05395 18.6946 4.28454 19.0546 4.40442C19.566 4.58233 20.0641 4.79635 20.5452 5.04485L19.4852 6.08831C18.256 5.53033 16.9208 5.24409 15.5709 5.24913C13.5664 5.2534 11.6147 5.89149 9.99478 7.07211C8.37491 8.25274 7.1699 9.91541 6.55214 11.8223C5.93437 13.7292 5.9355 15.7826 6.55535 17.6888C7.1752 19.595 8.38202 21.2564 10.0032 22.4352C11.6244 23.6141 13.5768 24.25 15.5813 24.2521C17.5857 24.2542 19.5395 23.6223 21.1631 22.4469C22.7867 21.2714 23.997 19.6125 24.6208 17.7076C25.2446 15.8027 25.25 13.7493 24.6362 11.8411C24.4964 11.4253 24.3286 11.0195 24.1338 10.6265L25.1828 9.58858C25.4928 10.1347 25.7533 10.7075 25.9613 11.3001C26.0826 11.6592 26.3136 11.9711 26.6216 12.192C26.9296 12.4129 27.2992 12.5315 27.6783 12.5312H28.5451C28.7339 12.5312 28.9151 12.6063 29.0487 12.7398C29.1822 12.8734 29.2573 13.0545 29.2573 13.2434L29.2628 16.3186Z" fill="white" />
</svg>