<svg width="40" height="45" viewBox="0 0 40 45" fill="none" xmlns="http://www.w3.org/2000/svg">
  <path d="M36.0439 22.5012C36.413 22.0521 36.7592 21.6013 37.0825 21.1488C39.7829 17.3655 40.4991 13.9467 39.0993 11.5221C37.6995 9.0975 34.3804 8.00825 29.754 8.45531C29.2011 8.50871 28.6376 8.58312 28.0635 8.67854C27.859 8.13437 27.6417 7.60916 27.4115 7.1029C25.4853 2.87268 22.8826 0.542969 20.0829 0.542969C17.2833 0.542969 14.6806 2.87268 12.7543 7.1029C12.5242 7.60837 12.3069 8.13358 12.1024 8.67854C11.5289 8.58351 10.9654 8.5091 10.4119 8.45531C5.7855 8.00825 2.46639 9.09759 1.06656 11.5221C-0.333282 13.9466 0.382978 17.3655 3.08332 21.1488C3.40596 21.6008 3.75216 22.0516 4.12191 22.5012C3.75286 22.9503 3.40666 23.4011 3.08332 23.8536C0.38297 27.6369 -0.333282 31.0557 1.06656 33.4803C2.26079 35.5489 4.85152 36.6452 8.45983 36.6452C9.08092 36.6452 9.73162 36.6125 10.4119 36.5471C10.9647 36.4937 11.5282 36.4193 12.1024 36.3239C12.3069 36.868 12.5242 37.3933 12.7543 37.8995C14.6806 42.1297 17.2833 44.4594 20.0829 44.4594C22.8826 44.4594 25.4853 42.1297 27.4115 37.8995C27.6417 37.394 27.859 36.8688 28.0635 36.3239C28.637 36.4189 29.2005 36.4933 29.754 36.5471C30.4336 36.6128 31.0843 36.6455 31.7061 36.6452C35.3139 36.6452 37.9052 35.5487 39.0993 33.4803C40.4992 31.0557 39.7829 27.6369 37.0826 23.8536C36.7599 23.4015 36.4137 22.9507 36.0439 22.5012ZM29.8384 9.32952C30.4971 9.26597 31.1253 9.23426 31.7231 9.2344C34.9918 9.2344 37.3092 10.1781 38.3387 11.9613C39.5563 14.0702 38.8563 17.1519 36.3676 20.6385C36.0859 21.0332 35.7852 21.427 35.4656 21.82C33.9386 20.0775 32.0803 18.3763 29.9765 16.7891C29.654 14.1736 29.1098 11.7137 28.3641 9.51994C28.8636 9.44042 29.355 9.37695 29.8384 9.32952ZM25.202 31.3677C26.5277 30.6023 27.7963 29.7862 28.9951 28.9324C28.6954 31.107 28.191 33.2483 27.4885 35.328C25.3362 34.8965 23.2295 34.2627 21.1965 33.4349C22.5352 32.8237 23.8763 32.1331 25.202 31.3677ZM24.7628 30.6071C23.2489 31.4829 21.6864 32.272 20.0829 32.9706C18.4795 32.272 16.917 31.4829 15.4031 30.6071C13.8876 29.7339 12.4229 28.7753 11.0162 27.7359C10.6254 24.257 10.6254 20.7454 11.0162 17.2665C13.8336 15.1887 16.8748 13.4328 20.0829 12.0318C21.6864 12.7304 23.2489 13.5195 24.7628 14.3954C26.2783 15.2685 27.743 16.2271 29.1497 17.2665C29.3465 19.0045 29.4443 20.7522 29.4428 22.5012C29.4443 24.2502 29.3465 25.998 29.1497 27.7359C27.743 28.7753 26.2783 29.7339 24.7628 30.6071ZM18.9694 33.435C16.9364 34.2627 14.8297 34.8965 12.6775 35.328C11.9749 33.2483 11.4705 31.107 11.1709 28.9324C12.3696 29.7862 13.6382 30.6023 14.9639 31.3677C16.2896 32.1331 17.6307 32.8237 18.9694 33.435ZM10.0572 27.0037C8.32389 25.6569 6.72166 24.1494 5.27194 22.5012C6.72166 20.853 8.32388 19.3455 10.0572 17.9988C9.91723 19.4638 9.84478 20.9704 9.84478 22.5012C9.84478 24.032 9.91724 25.5386 10.0572 27.0037ZM11.1708 16.07C11.4705 13.8954 11.9749 11.7541 12.6774 9.67444C14.8297 10.1059 16.9364 10.7397 18.9694 11.5675C17.6306 12.1787 16.2896 12.8693 14.9639 13.6347C13.6382 14.4001 12.3696 15.2162 11.1708 16.07ZM21.1965 11.5675C23.2295 10.7397 25.3362 10.1059 27.4885 9.67444C28.191 11.7541 28.6954 13.8954 28.9951 16.07C27.7963 15.2162 26.5277 14.4001 25.202 13.6347C23.8763 12.8693 22.5352 12.1787 21.1965 11.5675ZM30.1086 17.9988C31.842 19.3455 33.4442 20.853 34.8939 22.5012C33.4442 24.1494 31.842 25.6569 30.1087 27.0037C30.2487 25.5387 30.3211 24.032 30.3211 22.5012C30.3211 20.9704 30.2486 19.4638 30.1086 17.9988ZM13.5537 7.46694C15.3289 3.56831 17.6478 1.4213 20.0829 1.4213C22.5181 1.4213 24.8369 3.56831 26.6122 7.46694C26.8132 7.90823 27.0039 8.36552 27.1844 8.83881C24.9118 9.28996 22.5093 10.0486 20.0829 11.077C17.6565 10.0486 15.2541 9.28996 12.9815 8.83881C13.1623 8.36655 13.353 7.90926 13.5537 7.46694ZM3.79825 20.6385C1.30959 17.1519 0.609587 14.0702 1.8272 11.9613C2.85679 10.178 5.17373 9.2344 8.44277 9.2344C9.0398 9.2344 9.66803 9.26611 10.3275 9.32952C10.8101 9.37614 11.3015 9.43961 11.8016 9.51994C11.056 11.7137 10.5118 14.1736 10.1892 16.7891C8.08545 18.3763 6.22723 20.0775 4.70022 21.82C4.38167 21.4273 4.08101 21.0335 3.79825 20.6385ZM10.3275 35.6729C6.06372 36.0841 3.04481 35.1501 1.8272 33.0412C0.609587 30.9322 1.30959 27.8505 3.79825 24.3639C4.07995 23.9692 4.38063 23.5754 4.70029 23.1824C6.2273 24.9249 8.08552 26.6262 10.1893 28.2133C10.5119 30.8288 11.0561 33.2887 11.8017 35.4825C11.3023 35.562 10.8109 35.6255 10.3275 35.6729ZM26.6122 37.5355C24.8369 41.4341 22.5181 43.5811 20.0829 43.5811C17.6478 43.5811 15.3289 41.4341 13.5537 37.5355C13.3527 37.0942 13.162 36.6369 12.9815 36.1636C15.2541 35.7125 17.6566 34.9538 20.0829 33.9254C22.5093 34.9538 24.9118 35.7125 27.1844 36.1636C27.0036 36.6359 26.8128 37.0932 26.6122 37.5355ZM38.3387 33.0412C37.1211 35.1502 34.1021 36.0848 29.8384 35.6729C29.3557 35.6263 28.8643 35.5628 28.3642 35.4825C29.1098 33.2887 29.654 30.8288 29.9766 28.2133C32.0804 26.6261 33.9386 24.9249 35.4656 23.1824C35.7842 23.5751 36.0849 23.969 36.3677 24.3639C38.8563 27.8505 39.5563 30.9322 38.3387 33.0412Z" fill="white" />
  <path d="M27.2783 23.3126C27.1315 23.2244 27.01 23.0999 26.9254 22.951C26.8408 22.8021 26.796 22.634 26.7953 22.4628C26.7946 22.2915 26.8381 22.123 26.9216 21.9735C27.005 21.824 27.1256 21.6985 27.2717 21.6091C27.5139 21.4644 27.7015 21.2436 27.8052 20.9812C27.9089 20.7188 27.923 20.4294 27.8452 20.1581C27.6816 19.6171 27.4613 19.0948 27.1881 18.6C27.0472 18.3543 26.8296 18.1617 26.5686 18.0518C26.3076 17.9419 26.0178 17.9207 25.7436 17.9916C25.5774 18.0326 25.4034 18.0302 25.2383 17.9846C25.0733 17.9391 24.9227 17.8519 24.8011 17.7314C24.6794 17.6109 24.5907 17.4612 24.5436 17.2966C24.4964 17.132 24.4923 16.9581 24.5317 16.7914C24.6006 16.5182 24.5773 16.2299 24.4654 15.9713C24.3534 15.7127 24.1592 15.4983 23.9128 15.3616C23.4142 15.094 22.8889 14.8796 22.3454 14.7218C22.0718 14.6467 21.7812 14.6639 21.5183 14.7705C21.2554 14.8771 21.0349 15.0673 20.8909 15.3117C20.8022 15.4584 20.6773 15.5799 20.5281 15.6644C20.3789 15.7489 20.2105 15.7936 20.0391 15.7943C19.8677 15.795 19.6989 15.7516 19.5491 15.6682C19.3993 15.5849 19.2734 15.4644 19.1835 15.3184C19.0384 15.0765 18.8174 14.8892 18.5549 14.7856C18.2924 14.6821 18.0031 14.6681 17.7318 14.7458C17.1903 14.9091 16.6674 15.129 16.1719 15.4019C15.9259 15.5422 15.7329 15.7596 15.6228 16.0206C15.5127 16.2815 15.4915 16.5715 15.5625 16.8456C15.6032 17.012 15.6004 17.1859 15.5545 17.3509C15.5085 17.5158 15.421 17.6662 15.3002 17.7876C15.1794 17.909 15.0295 17.9973 14.8648 18.0441C14.7001 18.0909 14.5261 18.0946 14.3596 18.0548C14.0864 17.986 13.7981 18.0093 13.5394 18.121C13.2808 18.2328 13.0662 18.4267 12.929 18.6728C12.6611 19.1707 12.4464 19.6955 12.2883 20.2383C12.2131 20.5119 12.2302 20.8027 12.3371 21.0655C12.4439 21.3283 12.6345 21.5486 12.8792 21.6921C13.026 21.7803 13.1476 21.9049 13.2322 22.0537C13.3168 22.2026 13.3616 22.3708 13.3622 22.542C13.3629 22.7132 13.3194 22.8817 13.236 23.0313C13.1525 23.1808 13.032 23.3063 12.8859 23.3956C12.6436 23.5404 12.4561 23.7611 12.3523 24.0236C12.2486 24.286 12.2345 24.5754 12.3123 24.8466C12.476 25.3877 12.6962 25.9099 12.9694 26.4048C13.1103 26.6504 13.3279 26.843 13.5889 26.953C13.8499 27.0629 14.1398 27.084 14.4139 27.0132C14.5802 26.9722 14.7541 26.9746 14.9192 27.0201C15.0842 27.0657 15.2348 27.1529 15.3565 27.2734C15.4781 27.3938 15.5668 27.5436 15.614 27.7082C15.6611 27.8727 15.6652 28.0467 15.6258 28.2133C15.5569 28.4866 15.5803 28.7749 15.6922 29.0335C15.8041 29.2921 15.9984 29.5065 16.2448 29.6432C16.7434 29.9108 17.2687 30.1252 17.8122 30.283C17.9233 30.3153 18.0385 30.3316 18.1543 30.3316C18.3789 30.3295 18.5992 30.2697 18.7941 30.1579C18.9889 30.046 19.1516 29.8859 19.2666 29.693C19.3554 29.5463 19.4803 29.4249 19.6295 29.3404C19.7786 29.2559 19.947 29.2111 20.1185 29.2104C20.2899 29.2098 20.4586 29.2532 20.6085 29.3365C20.7583 29.4199 20.8842 29.5403 20.974 29.6863C21.1192 29.9283 21.3401 30.1156 21.6026 30.2192C21.8651 30.3227 22.1544 30.3367 22.4257 30.259C22.9673 30.0957 23.4901 29.8757 23.9856 29.6029C24.2316 29.4625 24.4246 29.2451 24.5348 28.9842C24.6449 28.7232 24.6661 28.4333 24.595 28.1591C24.5544 27.9928 24.5572 27.8188 24.6031 27.6539C24.649 27.4889 24.7366 27.3385 24.8574 27.2172C24.9781 27.0958 25.128 27.0074 25.2927 26.9607C25.4574 26.9139 25.6314 26.9102 25.798 26.95C26.0712 27.0186 26.3594 26.9953 26.6181 26.8836C26.8767 26.7718 27.0912 26.578 27.2285 26.332C27.4964 25.834 27.7112 25.3093 27.8693 24.7664C27.9445 24.4928 27.9273 24.2021 27.8205 23.9392C27.7136 23.6764 27.5231 23.4562 27.2783 23.3126ZM27.0258 24.5211C26.885 25.0047 26.6937 25.4722 26.4551 25.9158C26.4097 25.9914 26.3407 26.05 26.2587 26.0825C26.1767 26.115 26.0863 26.1195 26.0014 26.0955C25.6884 26.0208 25.3615 26.0279 25.052 26.116C24.7425 26.204 24.4608 26.3701 24.234 26.5984C24.0072 26.8266 23.8428 27.1093 23.7566 27.4193C23.6705 27.7293 23.6655 28.0563 23.742 28.3688C23.7679 28.4553 23.7643 28.5479 23.7317 28.632C23.6991 28.7162 23.6394 28.7871 23.562 28.8335C23.1206 29.0766 22.6548 29.2725 22.1724 29.4179C22.0866 29.4398 21.996 29.4328 21.9146 29.398C21.8331 29.3632 21.7654 29.3027 21.7218 29.2256C21.553 28.9514 21.3165 28.7253 21.0352 28.5688C20.7538 28.4124 20.4369 28.3309 20.1149 28.3322C19.793 28.3335 19.4768 28.4175 19.1966 28.5762C18.9165 28.7349 18.6819 28.9629 18.5152 29.2384C18.4714 29.3175 18.4028 29.38 18.32 29.4163C18.2372 29.4526 18.1448 29.4608 18.0569 29.4395C17.5726 29.2989 17.1045 29.1078 16.6602 28.8694C16.5847 28.8243 16.5262 28.7556 16.4936 28.6739C16.4611 28.5922 16.4564 28.5021 16.4803 28.4174C16.5561 28.1057 16.5499 27.7797 16.4625 27.4711C16.3751 27.1624 16.2093 26.8816 15.9813 26.656C15.627 26.3039 15.1478 26.1064 14.6483 26.1068C14.4989 26.1067 14.3501 26.1246 14.2049 26.1601C14.1182 26.1852 14.0256 26.1812 13.9414 26.1487C13.8572 26.1162 13.7859 26.057 13.7385 25.9802C13.4952 25.5396 13.299 25.0745 13.1533 24.5927C13.1316 24.5072 13.1387 24.4168 13.1735 24.3357C13.2083 24.2546 13.2689 24.1872 13.3459 24.144C13.6204 23.9757 13.8469 23.7396 14.0036 23.4584C14.1603 23.1772 14.2419 22.8604 14.2407 22.5384C14.2394 22.2165 14.1552 21.9004 13.9962 21.6204C13.8373 21.3405 13.6089 21.1062 13.3331 20.9401C13.2535 20.8973 13.1905 20.8292 13.154 20.7465C13.1176 20.6638 13.1097 20.5713 13.1318 20.4837C13.2726 20.0001 13.464 19.5326 13.7026 19.089C13.748 19.0135 13.8171 18.9549 13.899 18.9225C13.981 18.89 14.0714 18.8854 14.1563 18.9093C14.4681 18.9849 14.7942 18.9788 15.1029 18.8916C15.4117 18.8043 15.6927 18.6389 15.9189 18.4112C16.1468 18.1826 16.3121 17.8993 16.3991 17.5885C16.4861 17.2776 16.4918 16.9496 16.4156 16.636C16.3897 16.5495 16.3934 16.4569 16.426 16.3728C16.4586 16.2886 16.5183 16.2177 16.5957 16.1713C17.037 15.9282 17.5028 15.7323 17.9852 15.5869C18.071 15.565 18.1617 15.572 18.2431 15.6067C18.3246 15.6415 18.3923 15.7021 18.4358 15.7792C18.6046 16.0534 18.8411 16.2795 19.1225 16.436C19.4039 16.5924 19.7208 16.6739 20.0427 16.6726C20.3647 16.6713 20.6809 16.5873 20.961 16.4286C21.2411 16.2699 21.4758 16.0419 21.6424 15.7664C21.6863 15.6874 21.7549 15.625 21.8377 15.5887C21.9205 15.5523 22.0129 15.5441 22.1008 15.5653C22.585 15.7059 23.0531 15.897 23.4975 16.1354C23.573 16.1805 23.6315 16.2492 23.664 16.3309C23.6965 16.4126 23.7012 16.5027 23.6774 16.5874C23.6016 16.8991 23.6077 17.2251 23.6951 17.5338C23.7826 17.8424 23.9483 18.1232 24.1763 18.3488C24.4054 18.5764 24.6889 18.7414 24.9999 18.8282C25.3109 18.915 25.6389 18.9207 25.9527 18.8447C26.0394 18.8196 26.132 18.8236 26.2162 18.8561C26.3005 18.8886 26.3718 18.9477 26.4192 19.0246C26.6625 19.4652 26.8586 19.9303 27.0043 20.4121C27.0261 20.4976 27.019 20.588 26.9841 20.6691C26.9493 20.7502 26.8887 20.8176 26.8117 20.8608C26.5373 21.0291 26.3108 21.2652 26.1541 21.5464C25.9974 21.8276 25.9157 22.1444 25.917 22.4664C25.9183 22.7883 26.0025 23.1044 26.1614 23.3844C26.3204 23.6643 26.5487 23.8986 26.8245 24.0647C26.9041 24.1075 26.9671 24.1756 27.0036 24.2583C27.0401 24.341 27.0479 24.4335 27.0258 24.5211Z" fill="white" />
  <path d="M20.0816 17.8828C19.1684 17.8839 18.276 18.1557 17.5172 18.6639C16.7585 19.172 16.1674 19.8937 15.8187 20.7377C15.47 21.5817 15.3793 22.5102 15.5582 23.4057C15.737 24.3012 16.1773 25.1236 16.8234 25.769C17.4696 26.4143 18.2925 26.8536 19.1882 27.0314C20.084 27.2091 21.0123 27.1173 21.8559 26.7676C22.6995 26.4179 23.4204 25.8259 23.9277 25.0665C24.4349 24.3072 24.7056 23.4144 24.7056 22.5012C24.7035 21.276 24.2155 20.1017 23.3486 19.2359C22.4817 18.3701 21.3068 17.8834 20.0816 17.8828ZM20.0816 26.2414C19.3421 26.2402 18.6195 26.0199 18.0052 25.6083C17.3909 25.1967 16.9124 24.6121 16.6302 23.9286C16.348 23.2451 16.2747 22.4933 16.4196 21.7682C16.5646 21.043 16.9212 20.3771 17.4445 19.8546C17.9678 19.3321 18.6342 18.9765 19.3596 18.8326C20.085 18.6887 20.8367 18.7631 21.5198 19.0464C22.2029 19.3296 22.7866 19.809 23.1974 20.4239C23.6081 21.0389 23.8273 21.7618 23.8273 22.5012C23.8254 23.4936 23.43 24.4447 22.7278 25.1458C22.0256 25.847 21.0739 26.241 20.0816 26.2414Z" fill="white" />
  <path d="M20.0797 20.0605C19.5969 20.0611 19.1251 20.2047 18.7239 20.4734C18.3227 20.742 18.0101 21.1235 17.8257 21.5697C17.6413 22.016 17.5934 22.5068 17.6879 22.9803C17.7824 23.4538 18.0152 23.8886 18.3567 24.2298C18.6983 24.571 19.1334 24.8033 19.607 24.8973C20.0806 24.9913 20.5714 24.9428 21.0174 24.7579C21.4634 24.573 21.8446 24.2601 22.1128 23.8586C22.381 23.4571 22.5241 22.9851 22.5241 22.5023C22.5231 21.8546 22.2651 21.2337 21.8068 20.776C21.3486 20.3182 20.7274 20.0609 20.0797 20.0605ZM20.0797 24.0657C19.7706 24.0652 19.4686 23.9731 19.2118 23.8009C18.9551 23.6288 18.7551 23.3845 18.6372 23.0987C18.5193 22.813 18.4887 22.4987 18.5493 22.1956C18.61 21.8926 18.7591 21.6142 18.9778 21.3958C19.1966 21.1775 19.4752 21.0288 19.7784 20.9687C20.0816 20.9086 20.3958 20.9397 20.6813 21.0581C20.9668 21.1766 21.2108 21.3769 21.3825 21.634C21.5542 21.891 21.6458 22.1932 21.6458 22.5023C21.645 22.9172 21.4796 23.3148 21.186 23.6079C20.8924 23.9009 20.4946 24.0656 20.0797 24.0657Z" fill="white" />
</svg>