<svg width="583" height="128" viewBox="0 0 583 128" fill="none" xmlns="http://www.w3.org/2000/svg">
    <path
        d="M93.1138 2.74875V33.3286H34.3594V49.3057H89.3343V78.1675H34.3594V125.068H0V2.74875H93.1138Z"
        fill="#3E3484" />
    <path
        d="M210.679 110.294C198.882 121.976 183.364 127.817 164.122 127.817C144.881 127.817 129.362 121.976 117.565 110.294C105.769 98.8404 99.8703 83.3787 99.8703 63.9084C99.8703 44.5526 105.769 29.0337 117.565 17.3515C129.477 5.78383 144.996 0 164.122 0C183.249 0 198.768 5.78383 210.679 17.3515C222.476 29.0337 228.374 44.5526 228.374 63.9084C228.374 83.3787 222.476 98.8404 210.679 110.294ZM143.335 88.9907C148.489 95.0609 155.418 98.096 164.122 98.096C172.827 98.096 179.756 95.0609 184.91 88.9907C190.064 83.0351 192.641 74.6743 192.641 63.9084C192.641 53.3715 190.064 45.068 184.91 38.9979C179.756 32.8132 172.827 29.7208 164.122 29.7208C155.418 29.7208 148.489 32.8132 143.335 38.9979C138.181 45.068 135.604 53.3715 135.604 63.9084C135.604 74.6743 138.181 83.0351 143.335 88.9907Z"
        fill="#3E3484" />
    <path
        d="M343.836 96.378L344.524 112.699C344.753 117.738 345.783 121.861 347.616 125.068H312.226C310.851 122.434 310.05 118.311 309.821 112.699L309.305 98.7831C309.076 92.5985 307.645 88.4181 305.01 86.242C302.491 83.9514 298.368 82.806 292.641 82.806H274.774V125.068H240.415V2.74875H300.544C316.12 2.74875 327.63 6.12742 335.075 12.8848C342.405 19.7566 346.07 28.461 346.07 38.9979C346.07 45.2971 344.409 50.9664 341.088 56.0057C337.881 61.0451 333.185 64.9392 327 67.6879C333.185 69.9786 337.423 73.3 339.713 77.6521C342.118 82.0043 343.493 88.2463 343.836 96.378ZM274.774 29.549V57.7237H295.39C305.583 57.7237 310.68 53.0279 310.68 43.6364C310.68 34.2448 305.583 29.549 295.39 29.549H274.774Z"
        fill="#3E3484" />
    <path
        d="M455.41 2.74875V33.3286H393.22V49.4775H449.913V77.9957H393.22V94.4882H455.41V125.068H358.861V2.74875H455.41Z"
        fill="#3E3484" />
    <path
        d="M579.571 2.74875L540.401 62.534L582.148 125.068H542.291L535.076 113.901C529.578 105.426 524.539 97.466 519.958 90.0215C519.614 90.4796 517.782 93.3429 514.46 98.6113C511.253 103.88 508.104 108.976 505.011 113.901L497.796 125.068H458.798L500.545 62.8776L461.375 2.74875H500.888L507.588 13.4001C512.971 21.99 517.438 29.32 520.988 35.3901C526.142 26.3422 530.552 19.0122 534.217 13.4001L540.917 2.74875H579.571Z"
        fill="#3E3484" />
    <path d="M519.769 66.2144L497.927 124.538L519.525 109.82L542.232 124.567L519.769 66.2144Z"
        fill="#55B852" />
</svg>
    