<svg width="292" height="126" viewBox="0 0 292 126" fill="none" xmlns="http://www.w3.org/2000/svg">
    <path
        d="M50.1953 34.1866V49.2791H21.1973V57.1645H48.3299V71.4091H21.1973V94.5566H4.23947V34.1866H50.1953ZM108.219 87.2648C102.397 93.0304 94.7376 95.9133 85.2411 95.9133C75.7447 95.9133 68.0854 93.0304 62.2632 87.2648C56.441 81.6121 53.5299 73.9811 53.5299 64.3716C53.5299 54.8187 56.441 47.1594 62.2632 41.3937C68.142 35.6845 75.8013 32.83 85.2411 32.83C94.681 32.83 102.34 35.6845 108.219 41.3937C114.041 47.1594 116.952 54.8187 116.952 64.3716C116.952 73.9811 114.041 81.6121 108.219 87.2648ZM74.9816 76.7509C77.5253 79.7468 80.9451 81.2447 85.2411 81.2447C89.5371 81.2447 92.957 79.7468 95.5007 76.7509C98.0443 73.8115 99.3162 69.6851 99.3162 64.3716C99.3162 59.1712 98.0443 55.0731 95.5007 52.0772C92.957 49.0247 89.5371 47.4985 85.2411 47.4985C80.9451 47.4985 77.5253 49.0247 74.9816 52.0772C72.4379 55.0731 71.1661 59.1712 71.1661 64.3716C71.1661 69.6851 72.4379 73.8115 74.9816 76.7509ZM173.938 80.3968L174.277 88.4518C174.39 90.939 174.899 92.9739 175.803 94.5566H158.337C157.659 93.2565 157.263 91.2216 157.15 88.4518L156.895 81.5839C156.782 78.5314 156.076 76.4682 154.776 75.3942C153.532 74.2637 151.497 73.6985 148.671 73.6985H139.853V94.5566H122.895V34.1866H152.571C160.259 34.1866 165.94 35.8541 169.614 39.1892C173.232 42.5807 175.04 46.8767 175.04 52.0772C175.04 55.1861 174.221 57.9842 172.581 60.4713C170.999 62.9585 168.681 64.8804 165.629 66.237C168.681 67.3675 170.773 69.0068 171.903 71.1548C173.09 73.3028 173.769 76.3835 173.938 80.3968ZM139.853 47.4137V61.3192H150.028C155.058 61.3192 157.574 59.0016 157.574 54.3665C157.574 49.7313 155.058 47.4137 150.028 47.4137H139.853ZM229.005 34.1866V49.2791H198.311V57.2493H226.292V71.3244H198.311V79.4641H229.005V94.5566H181.353V34.1866H229.005ZM290.284 34.1866L270.952 63.6933L291.556 94.5566H271.884L268.323 89.0453C265.61 84.8624 263.123 80.9338 260.862 77.2596C260.692 77.4857 259.788 78.8989 258.149 81.4991C256.566 84.0993 255.011 86.6147 253.485 89.0453L249.924 94.5566H230.677L251.281 63.8629L231.949 34.1866H251.45L254.757 39.4435C257.414 43.683 259.618 47.3007 261.371 50.2966C263.914 45.831 266.09 42.2133 267.899 39.4435L271.206 34.1866H290.284Z"
        fill="#4D4D4D" />
    <path d="M260.733 65.7773L249.953 94.5628L260.613 87.2989L271.82 94.577L260.733 65.7773Z"
        fill="#55B852" />
</svg>
    