<svg width="354" height="126" viewBox="0 0 354 126" fill="none" xmlns="http://www.w3.org/2000/svg">
    <path
        d="M21.2613 94.9072H4.25226V34.355H21.2613V94.9072ZM68.4448 44.2202V34.355H84.6034V94.9072H66.6589L53.817 73.3908C50.3585 67.551 47.5804 62.5617 45.4826 58.4228C45.7661 66.7572 45.9078 75.6303 45.9078 85.042V94.9072H29.7492V34.355H47.6938L60.5356 55.8714C63.5973 61.0876 66.3754 66.1052 68.8701 70.9245C68.5866 62.59 68.4448 53.6886 68.4448 44.2202ZM93.1179 34.355H119.567C130.056 34.355 137.908 37.0764 143.125 42.5193C148.341 48.0189 150.949 55.3895 150.949 64.6311C150.949 73.8727 148.341 81.2433 143.125 86.7429C137.908 92.1858 130.056 94.9072 119.567 94.9072H93.1179V34.355ZM110.127 80.6196H119.227C128.582 80.6196 133.259 75.2901 133.259 64.6311C133.259 53.9721 128.582 48.6426 119.227 48.6426H110.127V80.6196ZM173.911 94.9072H156.902V34.355H173.911V94.9072ZM210.889 96.268C201.477 96.268 193.965 93.4048 188.352 87.6784C182.682 82.0087 179.847 74.3263 179.847 64.6311C179.847 54.9359 182.626 47.2252 188.182 41.4988C193.682 35.8291 201.251 32.9943 210.889 32.9943C218.656 32.9943 225.29 35.092 230.79 39.2876C236.176 43.5399 239.436 49.408 240.57 56.892H223.391C222.597 53.8871 221.094 51.5908 218.883 50.0033C216.672 48.3591 214.007 47.537 210.889 47.537C206.523 47.537 203.207 49.0111 200.939 51.9594C198.671 54.9076 197.537 59.1315 197.537 64.6311C197.537 70.1307 198.671 74.3546 200.939 77.3029C203.207 80.2511 206.523 81.7252 210.889 81.7252C214.291 81.7252 217.097 80.8181 219.309 79.0038C221.576 77.1328 223.022 74.5247 223.646 71.1796H240.655C239.691 79.1172 236.516 85.2688 231.13 89.6344C225.687 94.0568 218.94 96.268 210.889 96.268ZM294.394 34.355V49.493H263.607V57.4873H291.672V71.6048H263.607V79.7692H294.394V94.9072H246.598V34.355H294.394ZM325.231 96.268C316.556 96.268 309.866 94.3686 305.16 90.5699C300.511 86.7712 298.187 81.5835 298.187 75.0066H314.515C314.572 78.1817 315.508 80.3645 317.322 81.5551C319.136 82.7458 321.999 83.3411 325.911 83.3411C331.581 83.3411 334.416 81.5268 334.416 77.8982C334.416 76.1973 333.764 74.9499 332.46 74.1562C331.156 73.3624 328.633 72.6537 324.891 72.03L320.128 71.2646C306.124 68.9968 299.122 62.4766 299.122 51.7042C299.122 45.9778 301.248 41.4421 305.501 38.097C309.81 34.6952 315.961 32.9943 323.955 32.9943C332.006 32.9943 338.243 34.6952 342.665 38.097C347.088 41.4421 349.469 46.4031 349.809 52.9799H333.821C333.707 50.5419 332.885 48.756 331.354 47.6221C329.824 46.4881 327.442 45.9211 324.211 45.9211C319.051 45.9211 316.471 47.5937 316.471 50.9388C316.471 52.6397 317.123 53.9154 318.427 54.7659C319.731 55.6163 322.028 56.325 325.316 56.892L330.334 57.7424C337.874 58.9898 343.346 61.1159 346.748 64.1208C350.206 67.0691 351.935 71.2363 351.935 76.6225C351.935 83.0292 349.582 87.9052 344.877 91.2503C340.171 94.5954 333.622 96.268 325.231 96.268Z"
        fill="#4D4D4D" />
    <path d="M42.124 49.0142L45.866 96.551L52.4437 83.7511L66.488 95.6621L42.124 49.0142Z"
        fill="#56B851" />
</svg>
    