<svg width="624" height="115" viewBox="0 0 624 115" fill="none" xmlns="http://www.w3.org/2000/svg">
  <path d="M30.5311 111.79H0.0283203V3.20048H30.5311V111.79Z" fill="#3E3484" />
  <path d="M115.146 20.8921V3.20048H144.124V111.79H111.944L88.9141 73.2043C82.7118 62.7317 77.7297 53.7842 73.9677 46.3619C74.4761 61.3082 74.7303 77.2205 74.7303 94.0987V111.79H45.7527V3.20048H77.9331L100.963 41.7865C106.453 51.1406 111.435 60.1389 115.909 68.7814C115.401 53.835 115.146 37.8719 115.146 20.8921Z" fill="#3E3484" />
  <path d="M159.393 3.20048H206.825C225.635 3.20048 239.717 8.08092 249.071 17.8418C258.426 27.7044 263.103 40.9222 263.103 57.4954C263.103 74.0685 258.426 87.2864 249.071 97.149C239.717 106.91 225.635 111.79 206.825 111.79H159.393V3.20048ZM189.896 86.168H206.215C222.992 86.168 231.38 76.6104 231.38 57.4954C231.38 38.3803 222.992 28.8228 206.215 28.8228H189.896V86.168Z" fill="#3E3484" />
  <path d="M304.281 111.79H273.779V3.20048H304.281V111.79Z" fill="#3E3484" />
  <path d="M370.595 114.23C353.717 114.23 340.245 109.096 330.179 98.8266C320.011 88.659 314.928 74.882 314.928 57.4954C314.928 40.1088 319.91 26.2809 329.874 16.0116C339.736 5.84405 353.31 0.760254 370.595 0.760254C384.525 0.760254 396.421 4.52226 406.283 12.0463C415.943 19.672 421.789 30.1954 423.822 43.6166H393.015C391.591 38.2278 388.897 34.1099 384.931 31.263C380.966 28.3144 376.187 26.8401 370.595 26.8401C362.766 26.8401 356.818 29.4837 352.751 34.7708C348.684 40.058 346.65 47.6328 346.65 57.4954C346.65 67.3579 348.684 74.9328 352.751 80.2199C356.818 85.5071 362.766 88.1507 370.595 88.1507C376.696 88.1507 381.729 86.5238 385.694 83.2702C389.761 79.9149 392.354 75.2378 393.472 69.2389H423.975C422.246 83.4736 416.553 94.5054 406.893 102.334C397.132 110.265 385.033 114.23 370.595 114.23Z" fill="#3E3484" />
  <path d="M520.346 3.20048V30.3479H465.136V44.6842H515.465V70.0015H465.136V84.6428H520.346V111.79H434.633V3.20048H520.346Z" fill="#3E3484" />
  <path d="M575.647 114.23C560.091 114.23 548.093 110.824 539.654 104.012C531.317 97.1998 527.148 87.8965 527.148 76.1021H556.431C556.532 81.7959 558.21 85.7104 561.464 87.8456C564.717 89.9808 569.852 91.0484 576.868 91.0484C587.035 91.0484 592.119 87.7948 592.119 81.2875C592.119 78.2373 590.95 76.0004 588.611 74.5769C586.273 73.1535 581.748 71.8825 575.037 70.7641L566.497 69.3914C541.383 65.3244 528.826 53.6317 528.826 34.3133C528.826 24.044 532.639 15.91 540.264 9.91108C547.992 3.81053 559.023 0.760254 573.36 0.760254C587.798 0.760254 598.982 3.81053 606.913 9.91108C614.843 15.91 619.114 24.8066 619.724 36.601H591.051C590.848 32.2289 589.374 29.0261 586.628 26.9926C583.883 24.9591 579.613 23.9423 573.817 23.9423C564.565 23.9423 559.938 26.9418 559.938 32.9407C559.938 35.9909 561.108 38.2786 563.446 39.8038C565.785 41.3289 569.903 42.5999 575.8 43.6166L584.798 45.1418C598.321 47.3786 608.133 51.1915 614.233 56.5803C620.436 61.8674 623.537 69.3406 623.537 78.9998C623.537 90.4892 619.317 99.2333 610.878 105.232C602.439 111.231 590.695 114.23 575.647 114.23Z" fill="#3E3484" />
  <path d="M67.9446 29.0618L74.7866 111.788L86.4511 91.3565L111.936 111.791L67.9446 29.0618Z" fill="#56B851" />
</svg>