<svg width="981" height="445" viewBox="0 0 981 445" fill="none" xmlns="http://www.w3.org/2000/svg">
  <path d="M2.97877 120.564H101.747V148.92H68.293V233.988H36.4324V148.92H2.97877V120.564ZM200.777 207.384L201.414 222.518C201.627 227.191 202.582 231.014 204.282 233.988H171.465C170.191 231.545 169.447 227.722 169.235 222.518L168.757 209.614C168.545 203.88 167.217 200.003 164.775 197.985C162.438 195.861 158.615 194.799 153.305 194.799H136.737V233.988H104.877V120.564H160.633C175.076 120.564 185.749 123.697 192.653 129.963C199.449 136.335 202.848 144.406 202.848 154.177C202.848 160.018 201.308 165.275 198.228 169.948C195.254 174.621 190.9 178.232 185.165 180.781C190.9 182.905 194.83 185.985 196.954 190.02C199.184 194.056 200.458 199.844 200.777 207.384ZM136.737 145.415V171.541H155.854C165.306 171.541 170.032 167.187 170.032 158.478C170.032 149.77 165.306 145.415 155.854 145.415H136.737ZM319.071 233.988H285.298L280.519 219.173H236.074L231.295 233.988H198.797L239.101 120.564H277.333L319.071 233.988ZM252.641 166.762L244.358 192.888H271.917L263.474 166.762C260.5 157.629 258.695 151.628 258.058 148.761C255.403 157.575 253.597 163.576 252.641 166.762ZM319.108 120.564H368.651C388.298 120.564 403.007 125.662 412.778 135.857C422.549 146.159 427.434 159.965 427.434 177.276C427.434 194.587 422.549 208.393 412.778 218.695C403.007 228.89 388.298 233.988 368.651 233.988H319.108V120.564ZM350.968 207.225H368.014C385.537 207.225 394.299 197.242 394.299 177.276C394.299 157.31 385.537 147.327 368.014 147.327H350.968V207.225ZM521.741 120.564V148.92H464.074V163.895H516.644V190.339H464.074V205.632H521.741V233.988H432.213V120.564H521.741Z" fill="#151227" />
  <path d="M231.732 232.952L255.286 133.193L285.076 232.953L257.365 207.32L231.732 232.952Z" fill="#56B953" />
  <path d="M257.019 206.973L273.992 222.561L242.124 222.214L257.019 206.973Z" fill="white" />
  <path d="M681.593 152.233L688.92 119.576H722.215L691.629 233H655.945L648.935 199.387C645.643 183.35 643.094 169.544 641.289 157.968C639.271 170.5 636.669 184.306 633.483 199.387L626.474 233H590.79L560.203 119.576H593.498L600.826 152.233C605.499 172.943 608.685 188.076 610.384 197.635C612.827 182.766 615.641 167.633 618.827 152.233L625.518 119.576H656.901L663.591 152.233C666.777 167.633 669.592 182.766 672.034 197.635C673.84 188.076 677.026 172.943 681.593 152.233ZM758.032 233H726.171V119.576H758.032V233ZM764.373 119.576H863.141V147.932H829.687V233H797.827V147.932H764.373V119.576ZM940.347 160.995V119.576H972.208V233H940.347V189.351H901.318V233H869.457V119.576H901.318V160.995H940.347Z" fill="#151227" />
  <path d="M3.593 285.578H102.359V313.934H68.906V399H37.046V313.934H3.593V285.578ZM202.981 372.397L203.618 387.53C203.83 392.203 204.786 396.026 206.485 399H173.669C172.395 396.557 171.652 392.734 171.439 387.53L170.961 374.627C170.749 368.892 169.421 365.016 166.979 362.998C164.642 360.874 160.819 359.812 155.509 359.812H138.942V399H107.082V285.578H162.837C177.28 285.578 187.953 288.711 194.856 294.977C201.653 301.349 205.052 309.42 205.052 319.191C205.052 325.032 203.512 330.289 200.432 334.961C197.458 339.634 193.104 343.245 187.369 345.794C193.104 347.918 197.033 350.998 199.157 355.033C201.388 359.069 202.662 364.857 202.981 372.397ZM138.942 310.429V336.554H158.058C167.51 336.554 172.236 332.2 172.236 323.492C172.236 314.783 167.51 310.429 158.058 310.429H138.942ZM261.516 401.549C246.435 401.549 234.222 397.566 224.877 389.601C215.319 381.636 210.54 370.273 210.54 355.511V285.578H242.4V355.83C242.4 361.777 244.046 366.343 247.338 369.529C250.737 372.715 255.462 374.308 261.516 374.308C267.569 374.308 272.242 372.715 275.534 369.529C278.933 366.343 280.632 361.777 280.632 355.83V285.578H312.492V355.511C312.492 370.485 307.872 381.902 298.633 389.761C289.287 397.619 276.915 401.549 261.516 401.549ZM367.088 401.549C350.84 401.549 338.308 397.991 329.493 390.876C320.785 383.76 316.431 374.043 316.431 361.724H347.016C347.123 367.671 348.875 371.76 352.273 373.99C355.672 376.22 361.035 377.335 368.363 377.335C378.983 377.335 384.293 373.937 384.293 367.14C384.293 363.954 383.071 361.618 380.629 360.131C378.186 358.644 373.46 357.316 366.451 356.148L357.53 354.715C331.299 350.467 318.183 338.254 318.183 318.076C318.183 307.349 322.166 298.853 330.131 292.588C338.202 286.216 349.725 283.03 364.699 283.03C379.779 283.03 391.461 286.216 399.745 292.588C408.028 298.853 412.489 308.146 413.126 320.465H383.178C382.965 315.898 381.425 312.553 378.558 310.429C375.69 308.305 371.23 307.243 365.177 307.243C355.512 307.243 350.68 310.376 350.68 316.642C350.68 319.828 351.902 322.217 354.344 323.81C356.787 325.403 361.088 326.731 367.248 327.793L376.646 329.386C390.771 331.722 401.019 335.705 407.391 341.333C413.869 346.856 417.108 354.661 417.108 364.75C417.108 376.751 412.701 385.884 403.887 392.15C395.072 398.416 382.806 401.549 367.088 401.549ZM413.218 285.578H511.984V313.934H478.531V399H446.671V313.934H413.218V285.578Z" fill="#151227" />
  <path d="M2.83247 1.72794H54.4458V16.546H36.9639V61H20.3144V16.546H2.83247V1.72794ZM107.029 47.0977L107.362 55.0062C107.473 57.4481 107.972 59.4461 108.86 61H91.7113C91.0453 59.7235 90.6568 57.7256 90.5458 55.0062L90.2961 48.2632C90.1851 45.2663 89.4914 43.2406 88.2149 42.1861C86.9939 41.0762 84.996 40.5212 82.2211 40.5212H73.5634V61H56.9139V1.72794H86.0505C93.5982 1.72794 99.1758 3.36514 102.783 6.63953C106.335 9.96942 108.111 14.1873 108.111 19.2931C108.111 22.3455 107.306 25.0927 105.697 27.5346C104.143 29.9765 101.867 31.8635 98.8706 33.1954C101.867 34.3054 103.921 35.9148 105.031 38.0238C106.196 40.1327 106.862 43.1573 107.029 47.0977ZM73.5634 14.7145V28.3671H83.5531C88.4924 28.3671 90.9621 26.0916 90.9621 21.5408C90.9621 16.9899 88.4924 14.7145 83.5531 14.7145H73.5634ZM137.618 62.332C129.738 62.332 123.355 60.2508 118.471 56.0884C113.477 51.926 110.979 45.9877 110.979 38.2735V1.72794H127.629V38.44C127.629 41.5479 128.489 43.9343 130.209 45.5993C131.985 47.2642 134.455 48.0967 137.618 48.0967C140.782 48.0967 143.224 47.2642 144.944 45.5993C146.72 43.9343 147.608 41.5479 147.608 38.44V1.72794H164.257V38.2735C164.257 46.0987 161.843 52.0648 157.015 56.1717C152.131 60.2785 145.665 62.332 137.618 62.332ZM192.788 62.332C184.297 62.332 177.748 60.4728 173.142 56.7544C168.591 53.036 166.316 47.9579 166.316 41.5201H182.299C182.355 44.628 183.27 46.7647 185.046 47.9302C186.822 49.0956 189.625 49.6784 193.454 49.6784C199.004 49.6784 201.779 47.9024 201.779 44.3505C201.779 42.6856 201.141 41.4646 199.864 40.6877C198.588 39.9107 196.118 39.217 192.455 38.6065L187.794 37.8573C174.086 35.6373 167.232 29.255 167.232 18.7104C167.232 13.1051 169.313 8.66521 173.475 5.39082C177.693 2.06093 183.714 0.395985 191.54 0.395985C199.42 0.395985 205.525 2.06093 209.854 5.39082C214.183 8.66521 216.514 13.5213 216.847 19.9591H201.196C201.085 17.5727 200.281 15.8245 198.782 14.7145C197.284 13.6046 194.953 13.0496 191.789 13.0496C186.739 13.0496 184.214 14.6868 184.214 17.9612C184.214 19.6261 184.852 20.8748 186.129 21.7073C187.405 22.5398 189.653 23.2335 192.872 23.7885L197.783 24.6209C205.165 25.8419 210.52 27.9231 213.85 30.8645C217.235 33.7504 218.928 37.8295 218.928 43.1018C218.928 49.3731 216.625 54.146 212.019 57.4204C207.412 60.6948 201.002 62.332 192.788 62.332ZM216.895 1.72794H268.508V16.546H251.026V61H234.377V16.546H216.895V1.72794ZM285.88 1.72794H337.493V16.546H320.011V61H303.362V16.546H285.88V1.72794ZM377.006 23.3722V1.72794H393.656V61H377.006V38.1902H356.611V61H339.961V1.72794H356.611V23.3722H377.006ZM446.278 1.72794V16.546H416.142V24.3712H443.614V38.1902H416.142V46.182H446.278V61H399.493V1.72794H446.278ZM468.233 1.72794H494.123C504.391 1.72794 512.077 4.39186 517.183 9.71968C522.289 15.103 524.842 22.3178 524.842 31.364C524.842 40.4102 522.289 47.6249 517.183 53.0083C512.077 58.3361 504.391 61 494.123 61H468.233V1.72794ZM484.883 47.0145H493.79C502.948 47.0145 507.526 41.7976 507.526 31.364C507.526 20.9303 502.948 15.7135 493.79 15.7135H484.883V47.0145ZM544.821 61H528.172V1.72794H544.821V61ZM595.752 1.72794V16.546H567.281V24.288H593.921V38.2735H567.281V61H550.632V1.72794H595.752ZM643.333 1.72794V16.546H614.862V24.288H641.502V38.2735H614.862V61H598.213V1.72794H643.333ZM692.579 1.72794V16.546H662.443V24.3712H689.915V38.1902H662.443V46.182H692.579V61H645.794V1.72794H692.579ZM746.417 47.0977L746.75 55.0062C746.861 57.4481 747.36 59.4461 748.248 61H731.099C730.433 59.7235 730.045 57.7256 729.934 55.0062L729.684 48.2632C729.573 45.2663 728.879 43.2406 727.603 42.1861C726.382 41.0762 724.384 40.5212 721.609 40.5212H712.951V61H696.302V1.72794H725.438C732.986 1.72794 738.564 3.36514 742.171 6.63953C745.723 9.96942 747.499 14.1873 747.499 19.2931C747.499 22.3455 746.694 25.0927 745.085 27.5346C743.531 29.9765 741.255 31.8635 738.258 33.1954C741.255 34.3054 743.309 35.9148 744.419 38.0238C745.584 40.1327 746.25 43.1573 746.417 47.0977ZM712.951 14.7145V28.3671H722.941C727.88 28.3671 730.35 26.0916 730.35 21.5408C730.35 16.9899 727.88 14.7145 722.941 14.7145H712.951ZM797.984 1.72794V16.546H767.849V24.3712H795.32V38.1902H767.849V46.182H797.984V61H751.199V1.72794H797.984ZM839.585 11.3846V1.72794H855.402V61H837.836L825.266 39.9384C821.881 34.2221 819.161 29.3383 817.108 25.2869C817.385 33.4452 817.524 42.1306 817.524 51.3433V61H801.707V1.72794H819.272L831.843 22.7895C834.84 27.8953 837.559 32.8069 840.001 37.5243C839.723 29.366 839.585 20.6528 839.585 11.3846ZM889.126 62.332C879.914 62.332 872.56 59.5293 867.066 53.924C861.516 48.3742 858.741 40.8542 858.741 31.364C858.741 21.8738 861.461 14.326 866.899 8.72071C872.283 3.17089 879.692 0.395985 889.126 0.395985C896.73 0.395985 903.223 2.44942 908.606 6.55628C913.879 10.7186 917.07 16.4627 918.18 23.7885H901.364C900.587 20.8471 899.116 18.5994 896.952 17.0454C894.787 15.436 892.179 14.6313 889.126 14.6313C884.853 14.6313 881.606 16.0742 879.387 18.9601C877.167 21.846 876.057 25.9806 876.057 31.364C876.057 36.7473 877.167 40.8819 879.387 43.7678C881.606 46.6537 884.853 48.0967 889.126 48.0967C892.456 48.0967 895.203 47.2087 897.368 45.4328C899.588 43.6013 901.003 41.0484 901.614 37.774H918.263C917.32 45.5438 914.212 51.5653 908.939 55.8387C903.611 60.1675 897.007 62.332 889.126 62.332ZM968.368 1.72794V16.546H938.233V24.3712H965.704V38.1902H938.233V46.182H968.368V61H921.583V1.72794H968.368Z" fill="#3E3484" />
</svg>