<svg width="35" height="30" viewBox="0 0 35 30" fill="none" xmlns="http://www.w3.org/2000/svg">
  <path fill-rule="evenodd" clip-rule="evenodd" d="M17.3375 4.37086L25.4387 0.320229C26.3511 -0.135959 27.4343 -0.0865196 28.3028 0.449444C29.1703 0.985408 29.6984 1.93262 29.6984 2.95286V4.50345H30.8208C31.7152 4.50345 32.5726 4.85851 33.204 5.4911C33.8366 6.12257 34.1917 6.97989 34.1917 7.87429V25.8521C34.1917 26.7465 33.8366 27.6038 33.204 28.2353C32.5726 28.8679 31.7152 29.223 30.8208 29.223H3.85522C2.96082 29.223 2.1035 28.8679 1.47203 28.2353C0.839437 27.6038 0.484375 26.7465 0.484375 25.8521C0.484375 21.1509 0.484375 12.5755 0.484375 7.87429C0.484375 6.97989 0.839437 6.12257 1.47203 5.4911C2.1035 4.85851 2.96082 4.50345 3.85522 4.50345H4.97771V2.95286C4.97771 1.93262 5.50581 0.985408 6.37324 0.449444C7.24179 -0.0865196 8.32496 -0.135959 9.23733 0.320229L17.3375 4.37086ZM29.6984 6.75067V21.3565C29.6984 22.4712 29.068 23.4903 28.0714 23.9892L22.0982 26.9757H30.8208C31.1186 26.9757 31.4051 26.8578 31.6152 26.6465C31.8265 26.4364 31.9445 26.1499 31.9445 25.8521V7.87429C31.9445 7.57653 31.8265 7.29001 31.6152 7.07989C31.4051 6.86865 31.1186 6.75067 30.8208 6.75067H29.6984ZM4.97771 6.75067H3.85522C3.55746 6.75067 3.27094 6.86865 3.06082 7.07989C2.84958 7.29001 2.7316 7.57653 2.7316 7.87429V25.8521C2.7316 26.1499 2.84958 26.4364 3.06082 26.6465C3.27094 26.8578 3.55746 26.9757 3.85522 26.9757H12.5778L6.6047 23.9892C5.60806 23.4903 4.97771 22.4712 4.97771 21.3565V6.75067ZM16.2139 6.32145V26.2813L7.60921 21.979C7.37438 21.861 7.22494 21.6206 7.22494 21.3565V2.95286C7.22494 2.7124 7.34966 2.48768 7.55528 2.36071C7.75978 2.23487 8.01596 2.22251 8.2317 2.33037L16.2139 6.32145ZM18.4622 6.32145L26.4432 2.33037C26.6601 2.22251 26.9163 2.23487 27.1208 2.36071C27.3264 2.48768 27.4511 2.7124 27.4511 2.95286V21.3565C27.4511 21.6206 27.3017 21.861 27.0668 21.979L18.4622 26.2813V6.32145Z" fill="white" />
</svg>