<svg width="112" height="78" viewBox="0 0 112 78" fill="none" xmlns="http://www.w3.org/2000/svg">
    <g clip-path="url(#clip0_12674_523)">
        <path
            d="M0.78125 0.00195312L9.68762 5.11176V9.75783H18.5919V17.305H9.68762V34.1956C9.68847 35.0943 10.0461 35.9558 10.6818 36.591C11.3176 37.2261 12.1795 37.5829 13.0781 37.5829H18.5919V44.4334H7.66593C5.84 44.4334 4.08885 43.708 2.79772 42.4169C1.5066 41.1258 0.78125 39.3746 0.78125 37.5487V0.00195312Z"
            fill="white" />
        <path
            d="M36.4065 9.97525V16.7573H31.2336C30.2076 16.7576 29.2237 17.1652 28.498 17.8905C27.7723 18.6158 27.3642 19.5995 27.3633 20.6255V44.4339H18.5938V17.3568C18.5938 16.3571 18.7926 15.3674 19.1787 14.4453C19.5649 13.5232 20.1305 12.6871 20.8428 11.9857C21.5551 11.2842 22.3997 10.7314 23.3277 10.3595C24.2556 9.98759 25.2482 9.80394 26.2478 9.81924L36.4065 9.97525Z"
            fill="white" />
        <path
            d="M45.6537 9.81836H35.9961V35.3225C35.9961 37.7391 36.9561 40.0566 38.6648 41.7654C40.3735 43.4741 42.6911 44.4341 45.1076 44.4341H53.5353C55.9518 44.4341 58.2694 43.4741 59.9781 41.7654C61.6869 40.0566 62.6468 37.7391 62.6468 35.3225V9.81836L53.8099 12.9898V33.9826C53.8099 34.4013 53.7274 34.8158 53.5672 35.2026C53.4069 35.5894 53.172 35.9408 52.8759 36.2368C52.5798 36.5328 52.2283 36.7676 51.8415 36.9277C51.4546 37.0879 51.04 37.1702 50.6214 37.1701H48.8337C47.9889 37.1692 47.1789 36.833 46.5818 36.2353C45.9848 35.6377 45.6494 34.8274 45.6494 33.9826L45.6537 9.81836Z"
            fill="white" />
        <path
            d="M88.3323 9.81836H71.4802C69.5724 9.81836 67.7427 10.5762 66.3936 11.9253C65.0446 13.2743 64.2867 15.104 64.2867 17.0118V23.7801C64.287 25.6877 65.045 27.5171 66.394 28.8659C67.743 30.2147 69.5725 30.9725 71.4802 30.9725H82.4243C83.2555 30.9725 84.0526 31.3027 84.6404 31.8904C85.2281 32.4782 85.5583 33.2753 85.5583 34.1065C85.5583 34.9377 85.2281 35.7349 84.6404 36.3226C84.0526 36.9104 83.2555 37.2406 82.4243 37.2406H61.4102V44.4341H84.5817C86.5031 44.4341 88.3459 43.6708 89.7045 42.3121C91.0632 40.9535 91.8265 39.1107 91.8265 37.1893V30.716C91.8265 28.7946 91.0632 26.9518 89.7045 25.5932C88.3459 24.2345 86.5031 23.4712 84.5817 23.4712H74.563C73.7185 23.4707 72.9089 23.1348 72.3119 22.5375C71.715 21.9402 71.3797 21.1303 71.3797 20.2859C71.3795 19.4413 71.7146 18.6311 72.3116 18.0336C72.9085 17.436 73.7183 17.1 74.563 17.0995H80.3171L88.3323 9.81836Z"
            fill="white" />
        <path
            d="M100.249 4.5636L109.497 0.00195312V36.5891C109.497 38.6694 108.671 40.6644 107.2 42.1355C105.729 43.6065 103.734 44.4331 101.654 44.4334H91.3438V37.1875H97.7145C98.1284 37.188 98.5385 37.1068 98.9211 36.9487C99.3037 36.7906 99.6514 36.5586 99.9444 36.2661C100.237 35.9736 100.47 35.6262 100.628 35.2438C100.787 34.8614 100.869 34.4514 100.869 34.0374V16.7568H92.9199L96.9611 9.81766H100.153L100.249 4.5636Z"
            fill="white" />
        <path d="M78.8789 20.2517L98.5402 3.19336L89.0857 22.2189L86.7573 18.059L78.8789 20.2517Z"
            fill="#00A64F" />
        <path
            d="M11.7643 60.0415L14.8704 61.0264C14.3942 62.7581 13.6006 64.046 12.4894 64.8901C11.3855 65.7271 9.98217 66.1456 8.27939 66.1456C6.17257 66.1456 4.44093 65.4277 3.08448 63.9918C1.72803 62.5488 1.04981 60.5791 1.04981 58.0826C1.04981 55.4419 1.73164 53.3928 3.0953 51.9353C4.45897 50.4706 6.25193 49.7383 8.4742 49.7383C10.4151 49.7383 11.9916 50.3119 13.2037 51.4591C13.9252 52.1373 14.4664 53.1114 14.8271 54.3813L11.6561 55.1388C11.4685 54.3163 11.0753 53.667 10.4764 53.1908C9.88476 52.7146 9.16325 52.4765 8.31186 52.4765C7.13579 52.4765 6.17978 52.8985 5.44383 53.7427C4.7151 54.5869 4.35074 55.9542 4.35074 57.8445C4.35074 59.8503 4.7115 61.2789 5.43301 62.1303C6.15453 62.9817 7.0925 63.4074 8.24692 63.4074C9.09831 63.4074 9.83065 63.1368 10.4439 62.5957C11.0572 62.0546 11.4973 61.2032 11.7643 60.0415Z"
            fill="#00A64F" />
        <path
            d="M26.5884 58.3361L23.8606 57.844C24.1673 56.7458 24.695 55.9328 25.4438 55.4051C26.1926 54.8774 27.3051 54.6135 28.7812 54.6135C30.1219 54.6135 31.1203 54.774 31.7764 55.0949C32.4325 55.4087 32.8924 55.8116 33.1563 56.3037C33.4273 56.7886 33.5628 57.6836 33.5628 58.9886L33.5307 62.4972C33.5307 63.4956 33.5771 64.2337 33.6698 64.7115C33.7696 65.1822 33.9515 65.6885 34.2153 66.2305H31.2415C31.1631 66.0308 31.0668 65.7348 30.9527 65.3426C30.9028 65.1643 30.8672 65.0467 30.8458 64.9896C30.3323 65.4888 29.7832 65.8632 29.1984 66.1128C28.6137 66.3624 27.9897 66.4872 27.3264 66.4872C26.1569 66.4872 25.2334 66.1699 24.5559 65.5352C23.8856 64.9005 23.5504 64.0982 23.5504 63.1283C23.5504 62.4865 23.7037 61.916 24.0104 61.4168C24.317 60.9105 24.7449 60.5254 25.294 60.2615C25.8503 59.9906 26.649 59.7552 27.6901 59.5555C29.095 59.2917 30.0684 59.0457 30.6104 58.8175V58.5179C30.6104 57.9403 30.4678 57.5302 30.1825 57.2878C29.8973 57.0382 29.3589 56.9134 28.5673 56.9134C28.0325 56.9134 27.6153 57.0204 27.3158 57.2343C27.0162 57.4411 26.7738 57.8084 26.5884 58.3361ZM30.6104 60.775C30.2253 60.9034 29.6156 61.0567 28.7812 61.235C27.9469 61.4133 27.4013 61.588 27.1446 61.7591C26.7524 62.0372 26.5563 62.3902 26.5563 62.8181C26.5563 63.2389 26.7132 63.6026 27.0269 63.9092C27.3407 64.2159 27.7401 64.3692 28.225 64.3692C28.767 64.3692 29.284 64.1909 29.7761 63.8343C30.1398 63.5634 30.3787 63.2317 30.4928 62.8395C30.5712 62.5828 30.6104 62.0943 30.6104 61.374V60.775Z"
            fill="#00A64F" />
        <path
            d="M42.3502 54.8703H45.1528V56.539C45.5165 55.9685 46.0085 55.505 46.629 55.1484C47.2494 54.7918 47.9376 54.6135 48.6935 54.6135C50.0128 54.6135 51.1324 55.1306 52.0523 56.1646C52.9723 57.1986 53.4322 58.6392 53.4322 60.4862C53.4322 62.3831 52.9687 63.8593 52.0416 64.9147C51.1146 65.963 49.9914 66.4872 48.6721 66.4872C48.0445 66.4872 47.474 66.3624 46.9606 66.1128C46.4542 65.8632 45.9194 65.4353 45.356 64.8292V70.5521H42.3502V54.8703ZM45.3239 60.3578C45.3239 61.6343 45.5771 62.5792 46.0834 63.1925C46.5897 63.7987 47.2066 64.1018 47.934 64.1018C48.6329 64.1018 49.2141 63.8236 49.6776 63.2674C50.1411 62.704 50.3729 61.7841 50.3729 60.5076C50.3729 59.3166 50.134 58.4324 49.6562 57.8547C49.1784 57.2771 48.5865 56.9883 47.8805 56.9883C47.146 56.9883 46.5363 57.2735 46.0513 57.844C45.5664 58.4074 45.3239 59.2453 45.3239 60.3578Z"
            fill="#00A64F" />
        <path
            d="M61.6757 54.424V51.7781H64.5354V54.424H61.6757ZM61.6757 66.6973V55.8895H64.5354V66.6973H61.6757Z"
            fill="#00A64F" />
        <path
            d="M79.4875 54.5686V57.1284H77.2933V62.0196C77.2933 63.01 77.3124 63.5891 77.3505 63.7567C77.3962 63.9167 77.4914 64.05 77.6362 64.1566C77.7886 64.2633 77.9714 64.3166 78.1847 64.3166C78.4819 64.3166 78.9123 64.2138 79.4761 64.0081L79.7504 66.4994C79.0037 66.8194 78.1581 66.9793 77.2134 66.9793C76.6343 66.9793 76.1125 66.8841 75.6477 66.6937C75.183 66.4956 74.8401 66.2442 74.6192 65.9394C74.4059 65.627 74.2573 65.208 74.1735 64.6823C74.1049 64.309 74.0707 63.5548 74.0707 62.4196V57.1284H72.5965V54.5686H74.0707V52.1573L77.2933 50.2831V54.5686H79.4875Z"
            fill="#00A64F" />
        <path
            d="M90.904 58.2029L87.9899 57.6772C88.3175 56.5039 88.8813 55.6354 89.6812 55.0716C90.4812 54.5078 91.6697 54.2259 93.2467 54.2259C94.679 54.2259 95.7457 54.3974 96.4466 54.7402C97.1475 55.0754 97.6389 55.5059 97.9208 56.0316C98.2103 56.5496 98.355 57.5058 98.355 58.9L98.3208 62.6484C98.3208 63.715 98.3703 64.5035 98.4693 65.0139C98.576 65.5168 98.7703 66.0577 99.0521 66.6367H95.8752C95.7914 66.4234 95.6885 66.1072 95.5666 65.6882C95.5133 65.4977 95.4752 65.372 95.4523 65.3111C94.9038 65.8444 94.3172 66.2444 93.6924 66.511C93.0677 66.7777 92.4011 66.911 91.6925 66.911C90.4431 66.911 89.4565 66.572 88.7327 65.8939C88.0165 65.2158 87.6585 64.3587 87.6585 63.3226C87.6585 62.6369 87.8223 62.0274 88.1499 61.4941C88.4775 60.9532 88.9346 60.5418 89.5212 60.2599C90.1155 59.9704 90.9688 59.719 92.0811 59.5057C93.582 59.2238 94.6219 58.9609 95.2009 58.7171V58.3972C95.2009 57.78 95.0485 57.342 94.7438 57.0829C94.4391 56.8163 93.8638 56.683 93.0182 56.683C92.4468 56.683 92.0011 56.7972 91.6811 57.0258C91.3611 57.2467 91.1021 57.6391 90.904 58.2029ZM95.2009 60.8085C94.7895 60.9456 94.1381 61.1094 93.2467 61.2999C92.3554 61.4903 91.7725 61.677 91.4983 61.8598C91.0792 62.157 90.8697 62.5341 90.8697 62.9912C90.8697 63.4407 91.0373 63.8292 91.3725 64.1568C91.7078 64.4845 92.1344 64.6483 92.6525 64.6483C93.2315 64.6483 93.7839 64.4578 94.3095 64.0769C94.6981 63.7873 94.9533 63.4331 95.0752 63.0141C95.159 62.7398 95.2009 62.2179 95.2009 61.4484V60.8085Z"
            fill="#00A64F" />
        <path
            d="M90.904 58.2029L87.9899 57.6772C88.3175 56.5039 88.8813 55.6354 89.6812 55.0716C90.4812 54.5078 91.6697 54.2259 93.2467 54.2259C94.679 54.2259 95.7457 54.3974 96.4466 54.7402C97.1475 55.0754 97.6389 55.5059 97.9208 56.0316C98.2103 56.5496 98.355 57.5058 98.355 58.9L98.3208 62.6484C98.3208 63.715 98.3703 64.5035 98.4693 65.0139C98.576 65.5168 98.7703 66.0577 99.0521 66.6367H95.8752C95.7914 66.4234 95.6885 66.1072 95.5666 65.6882C95.5133 65.4977 95.4752 65.372 95.4523 65.3111C94.9038 65.8444 94.3172 66.2444 93.6924 66.511C93.0677 66.7777 92.4011 66.911 91.6925 66.911C90.4431 66.911 89.4565 66.572 88.7327 65.8939C88.0165 65.2158 87.6585 64.3587 87.6585 63.3226C87.6585 62.6369 87.8223 62.0274 88.1499 61.4941C88.4775 60.9532 88.9346 60.5418 89.5212 60.2599C90.1155 59.9704 90.9688 59.719 92.0811 59.5057C93.582 59.2238 94.6219 58.9609 95.2009 58.7171V58.3972C95.2009 57.78 95.0485 57.342 94.7438 57.0829C94.4391 56.8163 93.8638 56.683 93.0182 56.683C92.4468 56.683 92.0011 56.7972 91.6811 57.0258C91.3611 57.2467 91.1021 57.6391 90.904 58.2029ZM95.2009 60.8085C94.7895 60.9456 94.1381 61.1094 93.2467 61.2999C92.3554 61.4903 91.7725 61.677 91.4983 61.8598C91.0792 62.157 90.8697 62.5341 90.8697 62.9912C90.8697 63.4407 91.0373 63.8292 91.3725 64.1568C91.7078 64.4845 92.1344 64.6483 92.6525 64.6483C93.2315 64.6483 93.7839 64.4578 94.3095 64.0769C94.6981 63.7873 94.9533 63.4331 95.0752 63.0141C95.159 62.7398 95.2009 62.2179 95.2009 61.4484V60.8085Z"
            fill="#00A64F" />
        <path d="M106.281 66.9746V50.2212H109.493V66.9746H106.281Z" fill="#00A64F" />
    </g>
    <defs>
        <clipPath id="clip0_12674_523">
            <rect width="111.103" height="77.1879" fill="white" transform="translate(0 0.00195312)" />
        </clipPath>
    </defs>
</svg>
    