<svg width="277" height="98" viewBox="0 0 277 98" fill="none" xmlns="http://www.w3.org/2000/svg">
  <path d="M33.9113 34.2558C30.4919 37.8148 25.9909 39.5942 20.4082 39.5942C14.8255 39.5942 10.3245 37.8148 6.90508 34.2558C3.48569 30.662 1.776 25.9516 1.776 20.1247C1.776 14.2977 3.48569 9.58736 6.90508 5.99351C10.3245 2.43455 14.8255 0.655077 20.4082 0.655077C25.9909 0.655077 30.4919 2.43455 33.9113 5.99351C37.2958 9.51757 38.988 14.228 38.988 20.1247C38.988 26.0214 37.2958 30.7317 33.9113 34.2558ZM9.1556 20.1247C9.1556 24.207 10.1849 27.4345 12.2435 29.8071C14.3021 32.1797 17.0237 33.3661 20.4082 33.3661C23.8276 33.3661 26.5666 32.1797 28.6252 29.8071C30.6489 27.4694 31.6608 24.2419 31.6608 20.1247C31.6608 16.0074 30.6489 12.78 28.6252 10.4422C26.5666 8.06957 23.8276 6.88325 20.4082 6.88325C17.0237 6.88325 14.3021 8.06957 12.2435 10.4422C10.1849 12.8148 9.1556 16.0423 9.1556 20.1247ZM58.1215 11.1226C61.82 11.1226 64.7684 12.3961 66.9665 14.9432C69.1298 17.5252 70.2115 20.9621 70.2115 25.2537C70.2115 29.5105 69.1298 32.9299 66.9665 35.5119C64.7684 38.0939 61.82 39.3849 58.1215 39.3849C54.4579 39.3849 51.6665 38.0067 49.7475 35.2502V49.015H43.1529V11.7506H49.4858V15.6236C51.4397 12.6229 54.3183 11.1226 58.1215 11.1226ZM51.4746 31.6913C52.6609 33.1916 54.3532 33.9418 56.5514 33.9418C58.7147 33.9418 60.4243 33.1567 61.6804 31.5866C62.9017 30.0514 63.5123 27.8706 63.5123 25.0444C63.5123 22.2879 62.9017 20.1944 61.6804 18.7639C60.4941 17.2984 58.7844 16.5657 56.5514 16.5657C54.3532 16.5657 52.6435 17.3159 51.4223 18.8162C50.2011 20.3166 49.5905 22.4624 49.5905 25.2537C49.5905 28.08 50.2185 30.2258 51.4746 31.6913ZM99.819 25.7248V27.2949H79.6167C79.8609 29.5978 80.5762 31.3423 81.7625 32.5287C82.9837 33.6801 84.6062 34.2558 86.6299 34.2558C89.6306 34.2558 91.6892 32.9648 92.8058 30.3828H99.1386C98.4408 33.1393 96.9753 35.3374 94.7423 36.9774C92.5092 38.5824 89.7876 39.3849 86.5776 39.3849C82.565 39.3849 79.3201 38.0939 76.8428 35.5119C74.3655 32.9299 73.1268 29.5105 73.1268 25.2537C73.1268 20.997 74.348 17.5776 76.7905 14.9956C79.2678 12.4136 82.4953 11.1226 86.4729 11.1226C90.5553 11.1226 93.8002 12.4659 96.2077 15.1526C98.6152 17.8392 99.819 21.3633 99.819 25.7248ZM86.4206 16.2517C82.5476 16.2517 80.2971 18.3975 79.669 22.6892H93.2245C92.9453 20.7004 92.2126 19.1302 91.0263 17.9788C89.84 16.8274 88.3047 16.2517 86.4206 16.2517ZM118.889 11.1226C121.82 11.1226 124.122 11.9774 125.797 13.6871C127.507 15.3619 128.362 17.752 128.362 20.8574V38.7568H121.767V21.9565C121.767 18.5371 120.075 16.8274 116.691 16.8274C115.016 16.8274 113.585 17.438 112.399 18.6592C111.247 19.8455 110.672 21.5029 110.672 23.6313V38.7568H104.077V11.7506H110.462V15.6236C112.521 12.6229 115.33 11.1226 118.889 11.1226ZM169.302 38.7568H162.707C162.393 38.1986 162.149 37.0995 161.974 35.4596C160.16 38.0764 157.264 39.3849 153.286 39.3849C150.321 39.3849 147.948 38.6696 146.168 37.239C144.424 35.8085 143.552 33.8197 143.552 31.2726C143.552 26.3528 147.006 23.544 153.914 22.8462L157.997 22.4798C159.357 22.3054 160.334 21.9914 160.928 21.5378C161.521 21.0493 161.817 20.334 161.817 19.3919C161.817 18.2405 161.434 17.4031 160.666 16.8797C159.933 16.3215 158.677 16.0423 156.898 16.0423C154.979 16.0423 153.6 16.3738 152.763 17.0367C151.926 17.6648 151.437 18.7639 151.298 20.334H144.808C145.191 14.1931 149.239 11.1226 156.95 11.1226C164.452 11.1226 168.203 13.8267 168.203 19.2349V33.6278C168.203 36.0004 168.569 37.7101 169.302 38.7568ZM154.856 34.6745C156.915 34.6745 158.59 34.1162 159.881 32.9997C161.172 31.8483 161.817 30.2084 161.817 28.08V25.6201C161.189 26.1784 160.16 26.5447 158.729 26.7192L155.17 27.1379C153.426 27.3472 152.17 27.7659 151.402 28.394C150.669 28.9872 150.303 29.8594 150.303 31.0109C150.303 32.1623 150.687 33.0695 151.455 33.7324C152.257 34.3605 153.391 34.6745 154.856 34.6745ZM191.958 1.49248V32.424H209.7V38.7568H184.892V1.49248H191.958ZM219.741 8.24403H213.251V2.06819H219.741V8.24403ZM219.793 38.7568H213.199V11.7506H219.793V38.7568ZM240.501 18.9732L243.118 11.7506H249.974L239.925 38.7568H232.337L222.34 11.7506H229.406L232.022 19.0256C233.244 22.8288 234.657 27.417 236.262 32.7904C237.553 28.4638 238.966 23.8581 240.501 18.9732ZM276.918 25.7248V27.2949H256.716C256.96 29.5978 257.676 31.3423 258.862 32.5287C260.083 33.6801 261.706 34.2558 263.729 34.2558C266.73 34.2558 268.789 32.9648 269.905 30.3828H276.238C275.54 33.1393 274.075 35.3374 271.842 36.9774C269.609 38.5824 266.887 39.3849 263.677 39.3849C259.664 39.3849 256.419 38.0939 253.942 35.5119C251.465 32.9299 250.226 29.5105 250.226 25.2537C250.226 20.997 251.447 17.5776 253.89 14.9956C256.367 12.4136 259.595 11.1226 263.572 11.1226C267.655 11.1226 270.9 12.4659 273.307 15.1526C275.715 17.8392 276.918 21.3633 276.918 25.7248ZM263.52 16.2517C259.647 16.2517 257.396 18.3975 256.768 22.6892H270.324C270.045 20.7004 269.312 19.1302 268.126 17.9788C266.939 16.8274 265.404 16.2517 263.52 16.2517ZM37.5226 96.7568H30.0383L27.1074 88.5398H10.7781L7.8995 96.7568H0.624572L14.8081 59.4925H23.0774L37.5226 96.7568ZM14.337 78.491L12.9239 82.521H24.9615L23.4961 78.491C22.2749 75.3857 20.7396 71.1289 18.8904 65.7206C17.4249 70.0472 15.9071 74.304 14.337 78.491ZM51.9219 97.3849C47.9443 97.3849 44.7168 96.0939 42.2395 93.5119C39.7971 90.9648 38.5759 87.5454 38.5759 83.2537C38.5759 78.9272 39.7971 75.4903 42.2395 72.9432C44.647 70.3961 47.8745 69.1226 51.9219 69.1226C55.446 69.1226 58.3246 70.0647 60.5576 71.9488C62.7907 73.7981 64.0992 76.3103 64.483 79.4854H57.8884C57.5744 77.9153 56.894 76.7115 55.8473 75.8741C54.8005 75.0367 53.4921 74.618 51.9219 74.618C49.8633 74.618 48.2409 75.3682 47.0545 76.8686C45.9031 78.334 45.3274 80.4624 45.3274 83.2537C45.3274 86.0451 45.9206 88.1909 47.1069 89.6913C48.2932 91.1567 49.8982 91.8894 51.9219 91.8894C53.527 91.8894 54.8703 91.4533 55.9519 90.581C57.0685 89.6738 57.7489 88.3828 57.9931 86.708H64.5876C64.2387 89.953 62.9128 92.5524 60.61 94.5063C58.3071 96.4254 55.4111 97.3849 51.9219 97.3849ZM80.4418 97.3849C76.4642 97.3849 73.2367 96.0939 70.7594 93.5119C68.317 90.9648 67.0957 87.5454 67.0957 83.2537C67.0957 78.9272 68.317 75.4903 70.7594 72.9432C73.1669 70.3961 76.3944 69.1226 80.4418 69.1226C83.9659 69.1226 86.8445 70.0647 89.0775 71.9488C91.3106 73.7981 92.619 76.3103 93.0028 79.4854H86.4083C86.0943 77.9153 85.4139 76.7115 84.3671 75.8741C83.3204 75.0367 82.012 74.618 80.4418 74.618C78.3832 74.618 76.7608 75.3682 75.5744 76.8686C74.423 78.334 73.8473 80.4624 73.8473 83.2537C73.8473 86.0451 74.4405 88.1909 75.6268 89.6913C76.8131 91.1567 78.4181 91.8894 80.4418 91.8894C82.0468 91.8894 83.3902 91.4533 84.4718 90.581C85.5884 89.6738 86.2687 88.3828 86.513 86.708H93.1075C92.7586 89.953 91.4327 92.5524 89.1299 94.5063C86.827 96.4254 83.931 97.3849 80.4418 97.3849ZM123.093 83.2537C123.093 87.5105 121.837 90.9299 119.325 93.5119C116.812 96.0939 113.498 97.3849 109.38 97.3849C105.263 97.3849 101.948 96.0939 99.4363 93.5119C96.8892 90.9648 95.6156 87.5454 95.6156 83.2537C95.6156 78.9621 96.8892 75.5427 99.4363 72.9956C101.948 70.4136 105.263 69.1226 109.38 69.1226C113.498 69.1226 116.812 70.3961 119.325 72.9432C121.837 75.4903 123.093 78.9272 123.093 83.2537ZM104.199 89.6913C105.455 91.1916 107.182 91.9418 109.38 91.9418C111.579 91.9418 113.288 91.1916 114.51 89.6913C115.766 88.156 116.394 86.0102 116.394 83.2537C116.394 80.4973 115.766 78.3689 114.51 76.8686C113.288 75.3333 111.579 74.5657 109.38 74.5657C107.182 74.5657 105.455 75.3159 104.199 76.8162C102.978 78.3166 102.367 80.4624 102.367 83.2537C102.367 86.0451 102.978 88.1909 104.199 89.6913ZM144.256 84.8762V69.7506H150.851V96.7568H144.465V92.8315C142.407 95.8671 139.581 97.3849 135.987 97.3849C133.091 97.3849 130.788 96.5475 129.078 94.8727C127.403 93.163 126.566 90.7555 126.566 87.6501V69.7506H133.16V86.551C133.16 89.9704 134.853 91.6801 138.237 91.6801C139.912 91.6801 141.325 91.0869 142.477 89.9006C143.663 88.6794 144.256 87.0046 144.256 84.8762ZM171.022 69.1226C173.953 69.1226 176.256 69.9774 177.93 71.6871C179.64 73.3619 180.495 75.752 180.495 78.8574V96.7568H173.9V79.9565C173.9 76.5371 172.208 74.8274 168.824 74.8274C167.149 74.8274 165.718 75.438 164.532 76.6592C163.381 77.8455 162.805 79.5029 162.805 81.6313V96.7568H156.21V69.7506H162.595V73.6236C164.654 70.6229 167.463 69.1226 171.022 69.1226ZM199.013 69.7506V74.7751H193.675V89.3772C193.675 90.2495 193.902 90.8601 194.355 91.2091C194.844 91.558 195.646 91.7324 196.763 91.7324H199.013V96.7568C197.583 96.8964 196.431 96.9662 195.559 96.9662C192.628 96.9662 190.482 96.4254 189.122 95.3437C187.796 94.2272 187.133 92.4652 187.133 90.0576V74.7751H182.946V69.7506H187.133V61.9H193.675V69.7506H199.013Z" fill="#403788" />
  <path d="M7.80736 96.2141L18.6285 64.3266L30.4779 96.214L18.4191 85.6657L7.80736 96.2141Z" fill="#6EC460" />
  <path d="M18.3204 85.4663L12.291 91.6361L25.5557 91.8352L18.3204 85.4663Z" fill="#E6E4F4" />
</svg>