<svg width="276" height="97" viewBox="0 0 276 97" fill="none" xmlns="http://www.w3.org/2000/svg">
  <path d="M32.8394 33.6889C29.42 37.2479 24.919 39.0273 19.3363 39.0273C13.7536 39.0273 9.2526 37.2479 5.83321 33.6889C2.41382 30.0951 0.70413 25.3847 0.70413 19.5578C0.70413 13.7308 2.41382 9.02046 5.83321 5.42662C9.2526 1.86766 13.7536 0.0881824 19.3363 0.0881824C24.919 0.0881824 29.42 1.86766 32.8394 5.42662C36.2239 8.95068 37.9161 13.6611 37.9161 19.5578C37.9161 25.4545 36.2239 30.1648 32.8394 33.6889ZM8.08373 19.5578C8.08373 23.6401 9.11304 26.8676 11.1716 29.2402C13.2303 31.6129 15.9518 32.7992 19.3363 32.7992C22.7557 32.7992 25.4947 31.6129 27.5533 29.2402C29.577 26.9025 30.5889 23.675 30.5889 19.5578C30.5889 15.4405 29.577 12.2131 27.5533 9.87531C25.4947 7.50267 22.7557 6.31636 19.3363 6.31636C15.9518 6.31636 13.2303 7.50267 11.1716 9.87531C9.11304 12.2479 8.08373 15.4754 8.08373 19.5578ZM57.0496 10.5557C60.7481 10.5557 63.6965 11.8292 65.8947 14.3763C68.058 16.9583 69.1396 20.3952 69.1396 24.6868C69.1396 28.9436 68.058 32.363 65.8947 34.945C63.6965 37.527 60.7481 38.818 57.0496 38.818C53.386 38.818 50.5947 37.4398 48.6756 34.6833V48.4481H42.0811V11.1837H48.4139V15.0567C50.3679 12.056 53.2464 10.5557 57.0496 10.5557ZM50.4027 31.1244C51.5891 32.6247 53.2813 33.3749 55.4795 33.3749C57.6428 33.3749 59.3525 32.5898 60.6086 31.0197C61.8298 29.4845 62.4404 27.3037 62.4404 24.4775C62.4404 21.721 61.8298 19.6275 60.6086 18.197C59.4223 16.7315 57.7126 15.9988 55.4795 15.9988C53.2813 15.9988 51.5716 16.749 50.3504 18.2493C49.1292 19.7497 48.5186 21.8955 48.5186 24.6868C48.5186 27.5131 49.1466 29.6589 50.4027 31.1244ZM98.7471 25.1579V26.728H78.5448C78.7891 29.0309 79.5044 30.7755 80.6907 31.9618C81.9119 33.1132 83.5343 33.6889 85.5581 33.6889C88.5588 33.6889 90.6174 32.3979 91.7339 29.8159H98.0667C97.3689 32.5724 95.9035 34.7706 93.6704 36.4105C91.4373 38.0155 88.7158 38.818 85.5057 38.818C81.4932 38.818 78.2482 37.527 75.7709 34.945C73.2936 32.363 72.055 28.9436 72.055 24.6868C72.055 20.4301 73.2762 17.0107 75.7186 14.4287C78.1959 11.8467 81.4234 10.5557 85.4011 10.5557C89.4834 10.5557 92.7283 11.899 95.1358 14.5857C97.5434 17.2724 98.7471 20.7964 98.7471 25.1579ZM85.3487 15.6848C81.4757 15.6848 79.2252 17.8306 78.5972 22.1223H92.1526C91.8735 20.1335 91.1407 18.5633 89.9544 17.4119C88.7681 16.2605 87.2329 15.6848 85.3487 15.6848ZM117.817 10.5557C120.748 10.5557 123.051 11.4105 124.725 13.1202C126.435 14.795 127.29 17.1851 127.29 20.2905V38.1899H120.695V21.3896C120.695 17.9702 119.003 16.2605 115.619 16.2605C113.944 16.2605 112.513 16.8711 111.327 18.0923C110.176 19.2786 109.6 20.936 109.6 23.0644V38.1899H103.005V11.1837H109.39V15.0567C111.449 12.056 114.258 10.5557 117.817 10.5557ZM168.23 38.1899H161.635C161.321 37.6317 161.077 36.5326 160.903 34.8927C159.088 37.5096 156.192 38.818 152.214 38.818C149.249 38.818 146.876 38.1027 145.097 36.6722C143.352 35.2416 142.48 33.2528 142.48 30.7057C142.48 25.7859 145.934 22.9772 152.843 22.2793L156.925 21.913C158.286 21.7385 159.263 21.4245 159.856 20.9709C160.449 20.4824 160.745 19.7671 160.745 18.825C160.745 17.6736 160.362 16.8362 159.594 16.3128C158.861 15.7546 157.605 15.4754 155.826 15.4754C153.907 15.4754 152.528 15.8069 151.691 16.4698C150.854 17.0979 150.365 18.197 150.226 19.7671H143.736C144.12 13.6262 148.167 10.5557 155.878 10.5557C163.38 10.5557 167.131 13.2598 167.131 18.668V33.0609C167.131 35.4335 167.497 37.1432 168.23 38.1899ZM153.785 34.1076C155.843 34.1076 157.518 33.5493 158.809 32.4328C160.1 31.2814 160.745 29.6415 160.745 27.5131V25.0532C160.117 25.6115 159.088 25.9778 157.658 26.1523L154.099 26.571C152.354 26.7803 151.098 27.199 150.33 27.8271C149.598 28.4203 149.231 29.2926 149.231 30.444C149.231 31.5954 149.615 32.5026 150.383 33.1655C151.185 33.7936 152.319 34.1076 153.785 34.1076ZM190.886 0.925585V31.8571H208.628V38.1899H183.82V0.925585H190.886ZM218.669 7.67713H212.179V1.5013H218.669V7.67713ZM218.722 38.1899H212.127V11.1837H218.722V38.1899ZM239.429 18.4063L242.046 11.1837H248.902L238.854 38.1899H231.265L221.268 11.1837H228.334L230.951 18.4587C232.172 22.2619 233.585 26.8501 235.19 32.2235C236.481 27.8969 237.894 23.2912 239.429 18.4063ZM275.846 25.1579V26.728H255.644C255.888 29.0309 256.604 30.7755 257.79 31.9618C259.011 33.1132 260.634 33.6889 262.657 33.6889C265.658 33.6889 267.717 32.3979 268.833 29.8159H275.166C274.468 32.5724 273.003 34.7706 270.77 36.4105C268.537 38.0155 265.815 38.818 262.605 38.818C258.593 38.818 255.348 37.527 252.87 34.945C250.393 32.363 249.154 28.9436 249.154 24.6868C249.154 20.4301 250.376 17.0107 252.818 14.4287C255.295 11.8467 258.523 10.5557 262.5 10.5557C266.583 10.5557 269.828 11.899 272.235 14.5857C274.643 17.2724 275.846 20.7964 275.846 25.1579ZM262.448 15.6848C258.575 15.6848 256.325 17.8306 255.696 22.1223H269.252C268.973 20.1335 268.24 18.5633 267.054 17.4119C265.867 16.2605 264.332 15.6848 262.448 15.6848ZM75.6017 96.1899H68.1174L65.1865 87.9729H48.8572L45.9786 96.1899H38.7037L52.8872 58.9256H61.1565L75.6017 96.1899ZM52.4161 77.9241L51.003 81.9541H63.0406L61.5752 77.9241C60.354 74.8188 58.8187 70.562 56.9695 65.1538C55.504 69.4803 53.9862 73.7371 52.4161 77.9241ZM90.001 96.818C86.0234 96.818 82.7959 95.527 80.3186 92.945C77.8762 90.3979 76.655 86.9785 76.655 82.6868C76.655 78.3603 77.8762 74.9234 80.3186 72.3763C82.7261 69.8292 85.9536 68.5557 90.001 68.5557C93.5251 68.5557 96.4037 69.4978 98.6367 71.3819C100.87 73.2312 102.178 75.7434 102.562 78.9185H95.9675C95.6535 77.3484 94.9731 76.1446 93.9264 75.3072C92.8796 74.4698 91.5712 74.0511 90.001 74.0511C87.9424 74.0511 86.32 74.8013 85.1336 76.3017C83.9822 77.7671 83.4065 79.8955 83.4065 82.6868C83.4065 85.4782 83.9997 87.624 85.186 89.1244C86.3723 90.5898 87.9773 91.3225 90.001 91.3225C91.6061 91.3225 92.9494 90.8864 94.031 90.0141C95.1476 89.1069 95.828 87.8159 96.0722 86.1411H102.667C102.318 89.3861 100.992 91.9855 98.6891 93.9394C96.3862 95.8585 93.4902 96.818 90.001 96.818ZM118.521 96.818C114.543 96.818 111.316 95.527 108.838 92.945C106.396 90.3979 105.175 86.9785 105.175 82.6868C105.175 78.3603 106.396 74.9234 108.838 72.3763C111.246 69.8292 114.473 68.5557 118.521 68.5557C122.045 68.5557 124.924 69.4978 127.157 71.3819C129.39 73.2312 130.698 75.7434 131.082 78.9185H124.487C124.173 77.3484 123.493 76.1446 122.446 75.3072C121.399 74.4698 120.091 74.0511 118.521 74.0511C116.462 74.0511 114.84 74.8013 113.654 76.3017C112.502 77.7671 111.926 79.8955 111.926 82.6868C111.926 85.4782 112.52 87.624 113.706 89.1244C114.892 90.5898 116.497 91.3225 118.521 91.3225C120.126 91.3225 121.469 90.8864 122.551 90.0141C123.667 89.1069 124.348 87.8159 124.592 86.1411H131.187C130.838 89.3861 129.512 91.9855 127.209 93.9394C124.906 95.8585 122.01 96.818 118.521 96.818ZM161.172 82.6868C161.172 86.9436 159.916 90.363 157.404 92.945C154.891 95.527 151.577 96.818 147.46 96.818C143.342 96.818 140.028 95.527 137.515 92.945C134.968 90.3979 133.695 86.9785 133.695 82.6868C133.695 78.3952 134.968 74.9758 137.515 72.4287C140.028 69.8467 143.342 68.5557 147.46 68.5557C151.577 68.5557 154.891 69.8292 157.404 72.3763C159.916 74.9234 161.172 78.3603 161.172 82.6868ZM142.278 89.1244C143.534 90.6247 145.261 91.3749 147.46 91.3749C149.658 91.3749 151.367 90.6247 152.589 89.1244C153.845 87.5891 154.473 85.4433 154.473 82.6868C154.473 79.9304 153.845 77.802 152.589 76.3017C151.367 74.7664 149.658 73.9988 147.46 73.9988C145.261 73.9988 143.534 74.749 142.278 76.2493C141.057 77.7497 140.446 79.8955 140.446 82.6868C140.446 85.4782 141.057 87.624 142.278 89.1244ZM182.335 84.3093V69.1837H188.93V96.1899H182.544V92.2646C180.486 95.3002 177.66 96.818 174.066 96.818C171.17 96.818 168.867 95.9806 167.157 94.3058C165.482 92.5961 164.645 90.1886 164.645 87.0832V69.1837H171.24V85.9841C171.24 89.4035 172.932 91.1132 176.316 91.1132C177.991 91.1132 179.404 90.52 180.556 89.3337C181.742 88.1125 182.335 86.4377 182.335 84.3093ZM209.101 68.5557C212.032 68.5557 214.335 69.4105 216.009 71.1202C217.719 72.795 218.574 75.1851 218.574 78.2905V96.1899H211.979V79.3896C211.979 75.9702 210.287 74.2605 206.903 74.2605C205.228 74.2605 203.797 74.8711 202.611 76.0923C201.46 77.2786 200.884 78.936 200.884 81.0644V96.1899H194.289V69.1837H200.675V73.0567C202.733 70.056 205.542 68.5557 209.101 68.5557ZM237.093 69.1837V74.2082H231.754V88.8103C231.754 89.6826 231.981 90.2932 232.434 90.6422C232.923 90.9911 233.725 91.1655 234.842 91.1655H237.093V96.1899C235.662 96.3295 234.511 96.3993 233.638 96.3993C230.707 96.3993 228.562 95.8585 227.201 94.7768C225.875 93.6603 225.212 91.8983 225.212 89.4907V74.2082H221.025V69.1837H225.212V61.3331H231.754V69.1837H237.093Z" fill="#403788" />
  <path d="M46.0165 96.1827L56.9516 64.6443L68.1321 96.1481L56.7422 85.9833L46.0165 96.1827Z" fill="#6EC460" />
  <path d="M56.7315 85.9352L50.3349 92.065L63.7756 92.2438L56.7315 85.9352Z" fill="#E6E4F4" />
</svg>