<svg width="397" height="109" viewBox="0 0 397 109" fill="none" xmlns="http://www.w3.org/2000/svg">
  <path d="M59.4104 16.8027V0.974074H70.7296V44.3203H59.4104V27.6393H45.5444V44.3203H34.2252V0.974074H45.5444V16.8027H59.4104Z" fill="#151227"/>
  <path d="M107.071 0.974074V11.8106H86.5831V17.5333H105.26V27.6393H86.5831V33.4837H107.071V44.3203H75.2639V0.974074H107.071Z" fill="#151227"/>
  <path d="M149.785 44.3203H137.787L136.089 38.6585H120.298L118.601 44.3203H107.055L121.374 0.974074H134.957L149.785 44.3203ZM126.184 18.6291L123.241 28.6134H133.033L130.033 18.6291C128.977 15.1387 128.335 12.8456 128.109 11.7497C127.165 15.1184 126.524 17.4115 126.184 18.6291Z" fill="#151227"/>
  <path d="M185.001 34.1534L185.227 39.937C185.303 41.7228 185.642 43.1839 186.246 44.3203H174.587C174.135 43.3868 173.87 41.9257 173.795 39.937L173.625 35.0057C173.55 32.8141 173.078 31.3327 172.21 30.5615C171.38 29.7498 170.022 29.3439 168.135 29.3439H162.249V44.3203H150.93V0.974074H170.739C175.87 0.974074 179.662 2.17137 182.115 4.56596C184.529 7.00114 185.737 10.0857 185.737 13.8196C185.737 16.0519 185.19 18.0609 184.096 19.8467C183.039 21.6325 181.492 23.0125 179.455 23.9865C181.492 24.7983 182.888 25.9753 183.643 27.5175C184.435 29.0598 184.888 31.2718 185.001 34.1534ZM162.249 10.4713V20.4555H169.041C172.399 20.4555 174.078 18.7915 174.078 15.4634C174.078 12.1353 172.399 10.4713 169.041 10.4713H162.249Z" fill="#151227"/>
  <path d="M232.456 0.974074V11.8106H213.1V17.4724H231.21V27.7002H213.1V44.3203H201.78V0.974074H232.456Z" fill="#151227"/>
  <path d="M268.765 34.1534L268.992 39.937C269.067 41.7228 269.407 43.1839 270.011 44.3203H258.352C257.899 43.3868 257.635 41.9257 257.559 39.937L257.39 35.0057C257.314 32.8141 256.843 31.3327 255.975 30.5615C255.145 29.7498 253.786 29.3439 251.9 29.3439H246.014V44.3203H234.695V0.974074H254.503C259.635 0.974074 263.427 2.17137 265.879 4.56596C268.294 7.00114 269.501 10.0857 269.501 13.8196C269.501 16.0519 268.954 18.0609 267.86 19.8467C266.803 21.6325 265.257 23.0125 263.219 23.9865C265.257 24.7983 266.653 25.9753 267.407 27.5175C268.199 29.0598 268.652 31.2718 268.765 34.1534ZM246.014 10.4713V20.4555H252.805C256.163 20.4555 257.842 18.7915 257.842 15.4634C257.842 12.1353 256.163 10.4713 252.805 10.4713H246.014Z" fill="#151227"/>
  <path d="M307.39 39.0846C303.503 43.2245 298.391 45.2944 292.052 45.2944C285.713 45.2944 280.601 43.2245 276.715 39.0846C272.828 35.026 270.885 29.5469 270.885 22.6472C270.885 15.7881 272.828 10.2886 276.715 6.14883C280.639 2.04961 285.751 0 292.052 0C298.353 0 303.466 2.04961 307.39 6.14883C311.276 10.2886 313.219 15.7881 313.219 22.6472C313.219 29.5469 311.276 35.026 307.39 39.0846ZM285.204 31.5356C286.902 33.6867 289.185 34.7622 292.052 34.7622C294.92 34.7622 297.202 33.6867 298.9 31.5356C300.598 29.4251 301.447 26.4623 301.447 22.6472C301.447 18.9132 300.598 15.9707 298.9 13.8196C297.202 11.628 294.92 10.5322 292.052 10.5322C289.185 10.5322 286.902 11.628 285.204 13.8196C283.506 15.9707 282.657 18.9132 282.657 22.6472C282.657 26.4623 283.506 29.4251 285.204 31.5356Z" fill="#151227"/>
  <path d="M341.296 17.4115L345.144 0.974074H362.462V44.3203H351.709V32.0226C351.709 24.0677 351.822 17.3101 352.049 11.7497C351.219 15.3213 350.426 18.5277 349.672 21.3687L343.842 44.3203H334.674L328.844 21.3687C328.09 18.5277 327.297 15.3213 326.467 11.7497C326.694 17.3101 326.807 24.0677 326.807 32.0226V44.3203H316.054V0.974074H333.372L337.221 17.4115C338.202 21.6325 338.881 24.7374 339.258 26.7261C339.635 24.7374 340.315 21.6325 341.296 17.4115Z" fill="#151227"/>
  <path d="M36.5045 102.55C32.6182 106.69 27.5057 108.76 21.1669 108.76C14.8282 108.76 9.71566 106.69 5.8294 102.55C1.94313 98.4917 0 93.0125 0 86.1128C0 79.2537 1.94313 73.7543 5.8294 69.6145C9.75339 65.5153 14.8659 63.4656 21.1669 63.4656C27.468 63.4656 32.5805 65.5153 36.5045 69.6145C40.3907 73.7543 42.3339 79.2537 42.3339 86.1128C42.3339 93.0125 40.3907 98.4917 36.5045 102.55ZM14.3188 95.0012C16.0167 97.1523 18.2994 98.2279 21.1669 98.2279C24.0345 98.2279 26.3172 97.1523 28.0151 95.0012C29.7129 92.8908 30.5619 89.9279 30.5619 86.1128C30.5619 82.3789 29.7129 79.4364 28.0151 77.2853C26.3172 75.0936 24.0345 73.9978 21.1669 73.9978C18.2994 73.9978 16.0167 75.0936 14.3188 77.2853C12.6209 79.4364 11.772 82.3789 11.772 86.1128C11.772 89.9279 12.6209 92.8908 14.3188 95.0012Z" fill="#151227"/>
  <path d="M62.7133 108.76C57.3555 108.76 53.0165 107.238 49.6962 104.194C46.3004 101.15 44.6026 96.8073 44.6026 91.1658V64.4397H55.9218V91.2876C55.9218 93.5604 56.5066 95.3056 57.6763 96.5232C58.8836 97.7408 60.5627 98.3496 62.7133 98.3496C64.864 98.3496 66.5241 97.7408 67.6938 96.5232C68.9011 95.3056 69.5048 93.5604 69.5048 91.2876V64.4397H80.8241V91.1658C80.8241 96.8885 79.1828 101.252 75.9002 104.255C72.5799 107.258 68.1843 108.76 62.7133 108.76Z" fill="#151227"/>
  <path d="M118.841 97.6191L119.068 103.403C119.143 105.188 119.483 106.65 120.086 107.786H108.427C107.975 106.852 107.711 105.391 107.635 103.403L107.465 98.4714C107.39 96.2797 106.918 94.7983 106.05 94.0272C105.22 93.2154 103.862 92.8096 101.975 92.8096H96.0895V107.786H84.7703V64.4397H104.579C109.71 64.4397 113.502 65.637 115.955 68.0316C118.369 70.4668 119.577 73.5514 119.577 77.2853C119.577 79.5175 119.03 81.5266 117.936 83.3124C116.879 85.0982 115.332 86.4781 113.295 87.4522C115.332 88.2639 116.728 89.4409 117.483 90.9832C118.275 92.5255 118.728 94.7374 118.841 97.6191ZM96.0895 73.9369V83.9212H102.881C106.239 83.9212 107.918 82.2571 107.918 78.929C107.918 75.601 106.239 73.9369 102.881 73.9369H96.0895Z" fill="#151227"/>
  <path d="M133.357 64.4397H168.446V75.2763H156.561V107.786H145.242V75.2763H133.357V64.4397Z" fill="#151227"/>
  <path d="M204.761 97.6191L204.987 103.403C205.063 105.188 205.402 106.65 206.006 107.786H194.347C193.895 106.852 193.63 105.391 193.555 103.403L193.385 98.4714C193.31 96.2797 192.838 94.7983 191.97 94.0272C191.14 93.2154 189.782 92.8096 187.895 92.8096H182.009V107.786H170.69V64.4397H190.499C195.63 64.4397 199.422 65.637 201.875 68.0316C204.289 70.4668 205.497 73.5514 205.497 77.2853C205.497 79.5175 204.95 81.5266 203.856 83.3124C202.799 85.0982 201.252 86.4781 199.215 87.4522C201.252 88.2639 202.648 89.4409 203.403 90.9832C204.195 92.5255 204.648 94.7374 204.761 97.6191ZM182.009 73.9369V83.9212H188.801C192.159 83.9212 193.838 82.2571 193.838 78.929C193.838 75.601 192.159 73.9369 188.801 73.9369H182.009Z" fill="#151227"/>
  <path d="M247.92 107.786H235.921L234.223 102.124H218.433L216.735 107.786H205.189L219.508 64.4397H233.091L247.92 107.786ZM224.319 82.0948L221.376 92.079H231.167L228.168 82.0948C227.111 78.6044 226.47 76.3112 226.243 75.2154C225.3 78.5841 224.659 80.8772 224.319 82.0948Z" fill="#151227"/>
  <path d="M249.065 64.4397H266.666C273.646 64.4397 278.872 66.3879 282.343 70.2842C285.814 74.221 287.55 79.4973 287.55 86.1128C287.55 92.7284 285.814 98.0046 282.343 101.941C278.872 105.838 273.646 107.786 266.666 107.786H249.065V64.4397ZM260.384 97.5582H266.44C272.665 97.5582 275.778 93.7431 275.778 86.1128C275.778 78.4826 272.665 74.6675 266.44 74.6675H260.384V97.5582Z" fill="#151227"/>
  <path d="M322.187 64.4397V75.2763H301.699V80.9989H320.376V91.1049H301.699V96.9494H322.187V107.786H290.38V64.4397H322.187Z" fill="#151227"/>
  <path d="M359.355 97.6191L359.581 103.403C359.656 105.188 359.996 106.65 360.6 107.786H348.941C348.488 106.852 348.224 105.391 348.149 103.403L347.979 98.4714C347.903 96.2797 347.432 94.7983 346.564 94.0272C345.734 93.2154 344.375 92.8096 342.489 92.8096H336.603V107.786H325.284V64.4397H345.092C350.224 64.4397 354.016 65.637 356.468 68.0316C358.883 70.4668 360.09 73.5514 360.09 77.2853C360.09 79.5175 359.543 81.5266 358.449 83.3124C357.393 85.0982 355.846 86.4781 353.808 87.4522C355.846 88.2639 357.242 89.4409 357.996 90.9832C358.789 92.5255 359.241 94.7374 359.355 97.6191ZM336.603 73.9369V83.9212H343.394C346.752 83.9212 348.432 82.2571 348.432 78.929C348.432 75.601 346.752 73.9369 343.394 73.9369H336.603Z" fill="#151227"/>
  <path d="M379.189 108.76C373.416 108.76 368.964 107.4 365.832 104.681C362.738 101.962 361.191 98.2481 361.191 93.5401H372.058C372.095 95.813 372.718 97.3755 373.925 98.2279C375.133 99.0802 377.038 99.5063 379.642 99.5063C383.415 99.5063 385.301 98.2076 385.301 95.61C385.301 94.3924 384.867 93.4995 383.999 92.9313C383.132 92.3631 381.453 91.8558 378.962 91.4093L375.793 90.8614C366.474 89.238 361.814 84.5705 361.814 76.8591C361.814 72.7599 363.229 69.513 366.059 67.1184C368.926 64.6832 373.02 63.4656 378.34 63.4656C383.698 63.4656 387.848 64.6832 390.791 67.1184C393.734 69.513 395.319 73.0643 395.545 77.7723H384.905C384.83 76.0271 384.282 74.7487 383.264 73.9369C382.245 73.1252 380.66 72.7193 378.51 72.7193C375.076 72.7193 373.359 73.9166 373.359 76.3112C373.359 77.5288 373.793 78.442 374.661 79.0508C375.529 79.6596 377.057 80.1669 379.245 80.5728L382.585 81.1816C387.603 82.0745 391.244 83.5965 393.508 85.7475C395.809 87.858 396.96 90.8411 396.96 94.6968C396.96 99.2831 395.394 102.774 392.262 105.168C389.131 107.563 384.773 108.76 379.189 108.76Z" fill="#151227"/>
  <path d="M118.589 44.3141L128.071 9.61702L137.802 44.3228L128.073 38.8205L118.589 44.3141Z" fill="#56B953"/>
  </svg>
  