<svg width="868" height="260" viewBox="0 0 868 260" fill="none" xmlns="http://www.w3.org/2000/svg">
  <path d="M68.749 242.014L71.749 230.534H77.349L69.469 259.014H63.389L60.349 247.174C59.0957 241.974 58.3223 238.614 58.029 237.094C57.2823 240.641 56.509 244.001 55.709 247.174L52.669 259.014H46.629L38.709 230.534H44.349L47.309 242.014C48.6957 247.561 49.5623 251.174 49.909 252.854C50.7623 248.854 51.5757 245.228 52.349 241.974L55.269 230.534H60.829L63.749 241.974C64.4957 245.014 65.2957 248.654 66.149 252.894C66.709 250.414 67.5757 246.788 68.749 242.014Z" fill="#3E3484"/>
  <path d="M95.4687 249.054V250.254H80.0287C80.2153 252.014 80.762 253.348 81.6687 254.254C82.602 255.134 83.842 255.574 85.3887 255.574C87.682 255.574 89.2553 254.588 90.1087 252.614H94.9487C94.4153 254.721 93.2953 256.401 91.5887 257.654C89.882 258.881 87.802 259.494 85.3487 259.494C82.282 259.494 79.802 258.508 77.9087 256.534C76.0153 254.561 75.0687 251.948 75.0687 248.694C75.0687 245.441 76.002 242.828 77.8687 240.854C79.762 238.881 82.2287 237.894 85.2687 237.894C88.3887 237.894 90.8687 238.921 92.7087 240.974C94.5487 243.028 95.4687 245.721 95.4687 249.054ZM85.2287 241.814C82.2687 241.814 80.5487 243.454 80.0687 246.734H90.4287C90.2153 245.214 89.6553 244.014 88.7487 243.134C87.842 242.254 86.6687 241.814 85.2287 241.814Z" fill="#3E3484"/>
  <path d="M113.076 259.574C107.049 259.574 103.903 257.201 103.636 252.454H108.556C108.689 253.734 109.103 254.641 109.796 255.174C110.516 255.708 111.636 255.974 113.156 255.974C115.876 255.974 117.236 255.148 117.236 253.494C117.236 252.748 116.943 252.174 116.356 251.774C115.769 251.374 114.716 251.041 113.196 250.774L110.836 250.374C106.329 249.628 104.076 247.548 104.076 244.134C104.076 242.188 104.823 240.668 106.316 239.574C107.809 238.454 109.916 237.894 112.636 237.894C118.529 237.894 121.569 240.228 121.756 244.894H116.996C116.943 243.668 116.556 242.801 115.836 242.294C115.116 241.761 114.049 241.494 112.636 241.494C110.236 241.494 109.036 242.294 109.036 243.894C109.036 244.588 109.303 245.134 109.836 245.534C110.369 245.908 111.249 246.201 112.476 246.414L115.076 246.814C117.583 247.268 119.396 247.988 120.516 248.974C121.663 249.961 122.236 251.334 122.236 253.094C122.236 255.174 121.436 256.774 119.836 257.894C118.236 259.014 115.983 259.574 113.076 259.574Z" fill="#3E3484"/>
  <path d="M135.037 237.894C137.277 237.894 139.037 238.548 140.317 239.854C141.623 241.134 142.277 242.961 142.277 245.334V259.014H137.237V246.174C137.237 243.561 135.943 242.254 133.357 242.254C132.077 242.254 130.983 242.721 130.077 243.654C129.197 244.561 128.757 245.828 128.757 247.454V259.014H123.717V230.534H128.757V241.134C130.33 238.974 132.423 237.894 135.037 237.894Z" fill="#3E3484"/>
  <path d="M163.733 259.014H158.693C158.453 258.588 158.266 257.748 158.133 256.494C156.746 258.494 154.533 259.494 151.493 259.494C149.226 259.494 147.413 258.948 146.053 257.854C144.72 256.761 144.053 255.241 144.053 253.294C144.053 249.534 146.693 247.388 151.973 246.854L155.093 246.574C156.133 246.441 156.88 246.201 157.333 245.854C157.786 245.481 158.013 244.934 158.013 244.214C158.013 243.334 157.72 242.694 157.133 242.294C156.573 241.868 155.613 241.654 154.253 241.654C152.786 241.654 151.733 241.908 151.093 242.414C150.453 242.894 150.08 243.734 149.973 244.934H145.013C145.306 240.241 148.4 237.894 154.293 237.894C160.026 237.894 162.893 239.961 162.893 244.094V255.094C162.893 256.908 163.173 258.214 163.733 259.014ZM152.693 255.894C154.266 255.894 155.546 255.468 156.533 254.614C157.52 253.734 158.013 252.481 158.013 250.854V248.974C157.533 249.401 156.746 249.681 155.653 249.814L152.933 250.134C151.6 250.294 150.64 250.614 150.053 251.094C149.493 251.548 149.213 252.214 149.213 253.094C149.213 253.974 149.506 254.668 150.093 255.174C150.706 255.654 151.573 255.894 152.693 255.894Z" fill="#3E3484"/>
  <path d="M176.576 238.054C177.029 238.054 177.442 238.081 177.816 238.134V242.774H176.536C174.616 242.774 173.136 243.268 172.096 244.254C171.082 245.214 170.576 246.641 170.576 248.534V259.014H165.536V238.374H170.416V242.054C171.562 239.388 173.616 238.054 176.576 238.054Z" fill="#3E3484"/>
  <path d="M197.878 249.054V250.254H182.438C182.625 252.014 183.171 253.348 184.078 254.254C185.011 255.134 186.251 255.574 187.798 255.574C190.091 255.574 191.665 254.588 192.518 252.614H197.358C196.825 254.721 195.705 256.401 193.998 257.654C192.291 258.881 190.211 259.494 187.758 259.494C184.691 259.494 182.211 258.508 180.318 256.534C178.425 254.561 177.478 251.948 177.478 248.694C177.478 245.441 178.411 242.828 180.278 240.854C182.171 238.881 184.638 237.894 187.678 237.894C190.798 237.894 193.278 238.921 195.118 240.974C196.958 243.028 197.878 245.721 197.878 249.054ZM187.638 241.814C184.678 241.814 182.958 243.454 182.478 246.734H192.838C192.625 245.214 192.065 244.014 191.158 243.134C190.251 242.254 189.078 241.814 187.638 241.814Z" fill="#3E3484"/>
  <path d="M225.925 259.014H220.885C220.645 258.588 220.459 257.748 220.325 256.494C218.939 258.494 216.725 259.494 213.685 259.494C211.419 259.494 209.605 258.948 208.245 257.854C206.912 256.761 206.245 255.241 206.245 253.294C206.245 249.534 208.885 247.388 214.165 246.854L217.285 246.574C218.325 246.441 219.072 246.201 219.525 245.854C219.979 245.481 220.205 244.934 220.205 244.214C220.205 243.334 219.912 242.694 219.325 242.294C218.765 241.868 217.805 241.654 216.445 241.654C214.979 241.654 213.925 241.908 213.285 242.414C212.645 242.894 212.272 243.734 212.165 244.934H207.205C207.499 240.241 210.592 237.894 216.485 237.894C222.219 237.894 225.085 239.961 225.085 244.094V255.094C225.085 256.908 225.365 258.214 225.925 259.014ZM214.885 255.894C216.459 255.894 217.739 255.468 218.725 254.614C219.712 253.734 220.205 252.481 220.205 250.854V248.974C219.725 249.401 218.939 249.681 217.845 249.814L215.125 250.134C213.792 250.294 212.832 250.614 212.245 251.094C211.685 251.548 211.405 252.214 211.405 253.094C211.405 253.974 211.699 254.668 212.285 255.174C212.899 255.654 213.765 255.894 214.885 255.894Z" fill="#3E3484"/>
  <path d="M244.441 259.494C241.401 259.494 238.934 258.508 237.041 256.534C235.174 254.588 234.241 251.974 234.241 248.694C234.241 245.388 235.174 242.761 237.041 240.814C238.881 238.868 241.347 237.894 244.441 237.894C247.134 237.894 249.334 238.614 251.041 240.054C252.747 241.468 253.747 243.388 254.041 245.814H249.001C248.761 244.614 248.241 243.694 247.441 243.054C246.641 242.414 245.641 242.094 244.441 242.094C242.867 242.094 241.627 242.668 240.721 243.814C239.841 244.934 239.401 246.561 239.401 248.694C239.401 250.828 239.854 252.468 240.761 253.614C241.667 254.734 242.894 255.294 244.441 255.294C245.667 255.294 246.694 254.961 247.521 254.294C248.374 253.601 248.894 252.614 249.081 251.334H254.121C253.854 253.814 252.841 255.801 251.081 257.294C249.321 258.761 247.107 259.494 244.441 259.494Z" fill="#3E3484"/>
  <path d="M260.719 259.014H255.679V230.534H260.719V259.014Z" fill="#3E3484"/>
  <path d="M283.661 248.694C283.661 251.948 282.701 254.561 280.781 256.534C278.861 258.508 276.328 259.494 273.181 259.494C270.034 259.494 267.501 258.508 265.581 256.534C263.634 254.588 262.661 251.974 262.661 248.694C262.661 245.414 263.634 242.801 265.581 240.854C267.501 238.881 270.034 237.894 273.181 237.894C276.328 237.894 278.861 238.868 280.781 240.814C282.701 242.761 283.661 245.388 283.661 248.694ZM269.221 253.614C270.181 254.761 271.501 255.334 273.181 255.334C274.861 255.334 276.168 254.761 277.101 253.614C278.061 252.441 278.541 250.801 278.541 248.694C278.541 246.588 278.061 244.961 277.101 243.814C276.168 242.641 274.861 242.054 273.181 242.054C271.501 242.054 270.181 242.628 269.221 243.774C268.288 244.921 267.821 246.561 267.821 248.694C267.821 250.828 268.288 252.468 269.221 253.614Z" fill="#3E3484"/>
  <path d="M293.509 259.574C287.482 259.574 284.335 257.201 284.069 252.454H288.989C289.122 253.734 289.535 254.641 290.229 255.174C290.949 255.708 292.069 255.974 293.589 255.974C296.309 255.974 297.669 255.148 297.669 253.494C297.669 252.748 297.375 252.174 296.789 251.774C296.202 251.374 295.149 251.041 293.629 250.774L291.269 250.374C286.762 249.628 284.509 247.548 284.509 244.134C284.509 242.188 285.255 240.668 286.749 239.574C288.242 238.454 290.349 237.894 293.069 237.894C298.962 237.894 302.002 240.228 302.189 244.894H297.429C297.375 243.668 296.989 242.801 296.269 242.294C295.549 241.761 294.482 241.494 293.069 241.494C290.669 241.494 289.469 242.294 289.469 243.894C289.469 244.588 289.735 245.134 290.269 245.534C290.802 245.908 291.682 246.201 292.909 246.414L295.509 246.814C298.015 247.268 299.829 247.988 300.949 248.974C302.095 249.961 302.669 251.334 302.669 253.094C302.669 255.174 301.869 256.774 300.269 257.894C298.669 259.014 296.415 259.574 293.509 259.574Z" fill="#3E3484"/>
  <path d="M323.63 249.054V250.254H308.19C308.376 252.014 308.923 253.348 309.83 254.254C310.763 255.134 312.003 255.574 313.55 255.574C315.843 255.574 317.416 254.588 318.27 252.614H323.11C322.576 254.721 321.456 256.401 319.75 257.654C318.043 258.881 315.963 259.494 313.51 259.494C310.443 259.494 307.963 258.508 306.07 256.534C304.176 254.561 303.23 251.948 303.23 248.694C303.23 245.441 304.163 242.828 306.03 240.854C307.923 238.881 310.39 237.894 313.43 237.894C316.55 237.894 319.03 238.921 320.87 240.974C322.71 243.028 323.63 245.721 323.63 249.054ZM313.39 241.814C310.43 241.814 308.71 243.454 308.23 246.734H318.59C318.376 245.214 317.816 244.014 316.91 243.134C316.003 242.254 314.83 241.814 313.39 241.814Z" fill="#3E3484"/>
  <path d="M344.557 237.894C347.383 237.894 349.637 238.868 351.317 240.814C352.97 242.788 353.797 245.414 353.797 248.694C353.797 251.948 352.97 254.561 351.317 256.534C349.637 258.508 347.383 259.494 344.557 259.494C341.65 259.494 339.45 258.348 337.957 256.054V259.014H333.117V230.534H338.157V241.054C339.623 238.948 341.757 237.894 344.557 237.894ZM339.477 253.614C340.383 254.761 341.677 255.334 343.357 255.334C345.01 255.334 346.317 254.734 347.277 253.534C348.21 252.361 348.677 250.694 348.677 248.534C348.677 246.428 348.21 244.828 347.277 243.734C346.37 242.614 345.063 242.054 343.357 242.054C341.677 242.054 340.37 242.628 339.437 243.774C338.503 244.921 338.037 246.561 338.037 248.694C338.037 250.854 338.517 252.494 339.477 253.614Z" fill="#3E3484"/>
  <path d="M375.825 248.694C375.825 251.948 374.865 254.561 372.945 256.534C371.025 258.508 368.492 259.494 365.345 259.494C362.198 259.494 359.665 258.508 357.745 256.534C355.798 254.588 354.825 251.974 354.825 248.694C354.825 245.414 355.798 242.801 357.745 240.854C359.665 238.881 362.198 237.894 365.345 237.894C368.492 237.894 371.025 238.868 372.945 240.814C374.865 242.761 375.825 245.388 375.825 248.694ZM361.385 253.614C362.345 254.761 363.665 255.334 365.345 255.334C367.025 255.334 368.332 254.761 369.265 253.614C370.225 252.441 370.705 250.801 370.705 248.694C370.705 246.588 370.225 244.961 369.265 243.814C368.332 242.641 367.025 242.054 365.345 242.054C363.665 242.054 362.345 242.628 361.385 243.774C360.452 244.921 359.985 246.561 359.985 248.694C359.985 250.828 360.452 252.468 361.385 253.614Z" fill="#3E3484"/>
  <path d="M389.107 237.894C391.347 237.894 393.107 238.548 394.387 239.854C395.694 241.134 396.347 242.961 396.347 245.334V259.014H391.307V246.174C391.307 243.561 390.014 242.254 387.427 242.254C386.147 242.254 385.054 242.721 384.147 243.654C383.267 244.561 382.827 245.828 382.827 247.454V259.014H377.787V238.374H382.667V241.334C384.24 239.041 386.387 237.894 389.107 237.894Z" fill="#3E3484"/>
  <path d="M413.963 241.054V230.534H419.003V259.014H414.123V256.134C412.603 258.374 410.43 259.494 407.603 259.494C404.75 259.494 402.497 258.508 400.843 256.534C399.163 254.561 398.323 251.948 398.323 248.694C398.323 245.388 399.163 242.761 400.843 240.814C402.47 238.868 404.723 237.894 407.603 237.894C410.377 237.894 412.497 238.948 413.963 241.054ZM403.483 248.854C403.483 250.988 403.95 252.601 404.883 253.694C405.817 254.788 407.11 255.334 408.763 255.334C410.417 255.334 411.723 254.761 412.683 253.614C413.617 252.468 414.083 250.828 414.083 248.694C414.083 246.561 413.617 244.921 412.683 243.774C411.75 242.628 410.443 242.054 408.763 242.054C407.137 242.054 405.843 242.654 404.883 243.854C403.95 245.054 403.483 246.721 403.483 248.854Z" fill="#3E3484"/>
  <path d="M452.464 246.094L454.784 238.374H460.184L453.384 259.014H448.104L445.504 250.534C444.518 247.068 443.931 245.014 443.744 244.374C443.664 244.668 443.091 246.721 442.024 250.534L439.464 259.014H434.184L427.384 238.374H432.784L435.104 246.094C435.691 247.934 436.371 250.321 437.144 253.254C437.891 250.294 438.544 247.894 439.104 246.054L441.384 238.374H446.184L448.464 246.054C449.024 247.894 449.678 250.294 450.424 253.254C451.118 250.614 451.798 248.228 452.464 246.094Z" fill="#3E3484"/>
  <path d="M465.956 235.694H460.996V230.974H465.956V235.694ZM465.996 259.014H460.956V238.374H465.996V259.014Z" fill="#3E3484"/>
  <path d="M479.617 238.374V242.214H475.537V253.374C475.537 254.041 475.711 254.508 476.057 254.774C476.431 255.041 477.044 255.174 477.897 255.174H479.617V259.014C478.524 259.121 477.644 259.174 476.977 259.174C474.737 259.174 473.097 258.761 472.057 257.934C471.044 257.081 470.537 255.734 470.537 253.894V242.214H467.337V238.374H470.537V232.374H475.537V238.374H479.617Z" fill="#3E3484"/>
  <path d="M492.688 237.894C494.928 237.894 496.688 238.548 497.968 239.854C499.275 241.134 499.928 242.961 499.928 245.334V259.014H494.888V246.174C494.888 243.561 493.595 242.254 491.008 242.254C489.728 242.254 488.635 242.721 487.728 243.654C486.848 244.561 486.408 245.828 486.408 247.454V259.014H481.368V230.534H486.408V241.134C487.982 238.974 490.075 237.894 492.688 237.894Z" fill="#3E3484"/>
  <path d="M530.337 248.694C530.337 251.948 529.377 254.561 527.457 256.534C525.537 258.508 523.004 259.494 519.857 259.494C516.711 259.494 514.177 258.508 512.257 256.534C510.311 254.588 509.337 251.974 509.337 248.694C509.337 245.414 510.311 242.801 512.257 240.854C514.177 238.881 516.711 237.894 519.857 237.894C523.004 237.894 525.537 238.868 527.457 240.814C529.377 242.761 530.337 245.388 530.337 248.694ZM515.897 253.614C516.857 254.761 518.177 255.334 519.857 255.334C521.537 255.334 522.844 254.761 523.777 253.614C524.737 252.441 525.217 250.801 525.217 248.694C525.217 246.588 524.737 244.961 523.777 243.814C522.844 242.641 521.537 242.054 519.857 242.054C518.177 242.054 516.857 242.628 515.897 243.774C514.964 244.921 514.497 246.561 514.497 248.694C514.497 250.828 514.964 252.468 515.897 253.614Z" fill="#3E3484"/>
  <path d="M545.312 249.934V238.374H550.352V259.014H545.472V256.014C543.898 258.334 541.738 259.494 538.992 259.494C536.778 259.494 535.018 258.854 533.712 257.574C532.432 256.268 531.792 254.428 531.792 252.054V238.374H536.832V251.214C536.832 253.828 538.125 255.134 540.712 255.134C541.992 255.134 543.072 254.681 543.952 253.774C544.858 252.841 545.312 251.561 545.312 249.934Z" fill="#3E3484"/>
  <path d="M564.288 238.054C564.741 238.054 565.155 238.081 565.528 238.134V242.774H564.248C562.328 242.774 560.848 243.268 559.808 244.254C558.795 245.214 558.288 246.641 558.288 248.534V259.014H553.248V238.374H558.128V242.054C559.275 239.388 561.328 238.054 564.288 238.054Z" fill="#3E3484"/>
  <path d="M586.155 237.894C588.982 237.894 591.235 238.868 592.915 240.814C594.569 242.788 595.395 245.414 595.395 248.694C595.395 251.948 594.569 254.561 592.915 256.534C591.235 258.508 588.982 259.494 586.155 259.494C583.249 259.494 581.049 258.348 579.555 256.054V259.014H574.715V230.534H579.755V241.054C581.222 238.948 583.355 237.894 586.155 237.894ZM581.075 253.614C581.982 254.761 583.275 255.334 584.955 255.334C586.609 255.334 587.915 254.734 588.875 253.534C589.809 252.361 590.275 250.694 590.275 248.534C590.275 246.428 589.809 244.828 588.875 243.734C587.969 242.614 586.662 242.054 584.955 242.054C583.275 242.054 581.969 242.628 581.035 243.774C580.102 244.921 579.635 246.561 579.635 248.694C579.635 250.854 580.115 252.494 581.075 253.614Z" fill="#3E3484"/>
  <path d="M616.823 249.054V250.254H601.383C601.57 252.014 602.117 253.348 603.023 254.254C603.957 255.134 605.197 255.574 606.743 255.574C609.037 255.574 610.61 254.588 611.463 252.614H616.303C615.77 254.721 614.65 256.401 612.943 257.654C611.237 258.881 609.157 259.494 606.703 259.494C603.637 259.494 601.157 258.508 599.263 256.534C597.37 254.561 596.423 251.948 596.423 248.694C596.423 245.441 597.357 242.828 599.223 240.854C601.117 238.881 603.583 237.894 606.623 237.894C609.743 237.894 612.223 238.921 614.063 240.974C615.903 243.028 616.823 245.721 616.823 249.054ZM606.583 241.814C603.623 241.814 601.903 243.454 601.423 246.734H611.783C611.57 245.214 611.01 244.014 610.103 243.134C609.197 242.254 608.023 241.814 606.583 241.814Z" fill="#3E3484"/>
  <path d="M623.918 259.014H618.878V230.534H623.918V259.014Z" fill="#3E3484"/>
  <path d="M646.859 248.694C646.859 251.948 645.899 254.561 643.979 256.534C642.059 258.508 639.526 259.494 636.379 259.494C633.233 259.494 630.699 258.508 628.779 256.534C626.833 254.588 625.859 251.974 625.859 248.694C625.859 245.414 626.833 242.801 628.779 240.854C630.699 238.881 633.233 237.894 636.379 237.894C639.526 237.894 642.059 238.868 643.979 240.814C645.899 242.761 646.859 245.388 646.859 248.694ZM632.419 253.614C633.379 254.761 634.699 255.334 636.379 255.334C638.059 255.334 639.366 254.761 640.299 253.614C641.259 252.441 641.739 250.801 641.739 248.694C641.739 246.588 641.259 244.961 640.299 243.814C639.366 242.641 638.059 242.054 636.379 242.054C634.699 242.054 633.379 242.628 632.419 243.774C631.486 244.921 631.019 246.561 631.019 248.694C631.019 250.828 631.486 252.468 632.419 253.614Z" fill="#3E3484"/>
  <path d="M659.727 243.894L661.727 238.374H666.967L659.287 259.014H653.487L645.847 238.374H651.247L653.247 243.934C654.18 246.841 655.26 250.348 656.487 254.454C657.473 251.148 658.553 247.628 659.727 243.894Z" fill="#3E3484"/>
  <path d="M686.359 249.054V250.254H670.919C671.106 252.014 671.653 253.348 672.559 254.254C673.493 255.134 674.733 255.574 676.279 255.574C678.573 255.574 680.146 254.588 680.999 252.614H685.839C685.306 254.721 684.186 256.401 682.479 257.654C680.773 258.881 678.693 259.494 676.239 259.494C673.173 259.494 670.693 258.508 668.799 256.534C666.906 254.561 665.959 251.948 665.959 248.694C665.959 245.441 666.893 242.828 668.759 240.854C670.653 238.881 673.119 237.894 676.159 237.894C679.279 237.894 681.759 238.921 683.599 240.974C685.439 243.028 686.359 245.721 686.359 249.054ZM676.119 241.814C673.159 241.814 671.439 243.454 670.959 246.734H681.319C681.106 245.214 680.546 244.014 679.639 243.134C678.733 242.254 677.559 241.814 676.119 241.814Z" fill="#3E3484"/>
  <path d="M703.134 241.054V230.534H708.174V259.014H703.294V256.134C701.774 258.374 699.6 259.494 696.774 259.494C693.92 259.494 691.667 258.508 690.014 256.534C688.334 254.561 687.494 251.948 687.494 248.694C687.494 245.388 688.334 242.761 690.014 240.814C691.64 238.868 693.894 237.894 696.774 237.894C699.547 237.894 701.667 238.948 703.134 241.054ZM692.654 248.854C692.654 250.988 693.12 252.601 694.054 253.694C694.987 254.788 696.28 255.334 697.934 255.334C699.587 255.334 700.894 254.761 701.854 253.614C702.787 252.468 703.254 250.828 703.254 248.694C703.254 246.561 702.787 244.921 701.854 243.774C700.92 242.628 699.614 242.054 697.934 242.054C696.307 242.054 695.014 242.654 694.054 243.854C693.12 245.054 692.654 246.721 692.654 248.854Z" fill="#3E3484"/>
  <path d="M729.235 238.374V242.214H725.155V253.374C725.155 254.041 725.328 254.508 725.675 254.774C726.048 255.041 726.661 255.174 727.515 255.174H729.235V259.014C728.141 259.121 727.261 259.174 726.595 259.174C724.355 259.174 722.715 258.761 721.675 257.934C720.661 257.081 720.155 255.734 720.155 253.894V242.214H716.955V238.374H720.155V232.374H725.155V238.374H729.235Z" fill="#3E3484"/>
  <path d="M742.026 238.054C742.479 238.054 742.892 238.081 743.266 238.134V242.774H741.986C740.066 242.774 738.586 243.268 737.546 244.254C736.532 245.214 736.026 246.641 736.026 248.534V259.014H730.986V238.374H735.866V242.054C737.012 239.388 739.066 238.054 742.026 238.054Z" fill="#3E3484"/>
  <path d="M762.135 259.014H757.095C756.855 258.588 756.668 257.748 756.535 256.494C755.148 258.494 752.935 259.494 749.895 259.494C747.628 259.494 745.815 258.948 744.455 257.854C743.121 256.761 742.455 255.241 742.455 253.294C742.455 249.534 745.095 247.388 750.375 246.854L753.495 246.574C754.535 246.441 755.281 246.201 755.735 245.854C756.188 245.481 756.415 244.934 756.415 244.214C756.415 243.334 756.121 242.694 755.535 242.294C754.975 241.868 754.015 241.654 752.655 241.654C751.188 241.654 750.135 241.908 749.495 242.414C748.855 242.894 748.481 243.734 748.375 244.934H743.415C743.708 240.241 746.801 237.894 752.695 237.894C758.428 237.894 761.295 239.961 761.295 244.094V255.094C761.295 256.908 761.575 258.214 762.135 259.014ZM751.095 255.894C752.668 255.894 753.948 255.468 754.935 254.614C755.921 253.734 756.415 252.481 756.415 250.854V248.974C755.935 249.401 755.148 249.681 754.055 249.814L751.335 250.134C750.001 250.294 749.041 250.614 748.455 251.094C747.895 251.548 747.615 252.214 747.615 253.094C747.615 253.974 747.908 254.668 748.495 255.174C749.108 255.654 749.975 255.894 751.095 255.894Z" fill="#3E3484"/>
  <path d="M778.462 241.054V230.534H783.502V259.014H778.622V256.134C777.102 258.374 774.928 259.494 772.102 259.494C769.248 259.494 766.995 258.508 765.342 256.534C763.662 254.561 762.822 251.948 762.822 248.694C762.822 245.388 763.662 242.761 765.342 240.814C766.968 238.868 769.222 237.894 772.102 237.894C774.875 237.894 776.995 238.948 778.462 241.054ZM767.982 248.854C767.982 250.988 768.448 252.601 769.382 253.694C770.315 254.788 771.608 255.334 773.262 255.334C774.915 255.334 776.222 254.761 777.182 253.614C778.115 252.468 778.582 250.828 778.582 248.694C778.582 246.561 778.115 244.921 777.182 243.774C776.248 242.628 774.942 242.054 773.262 242.054C771.635 242.054 770.342 242.654 769.382 243.854C768.448 245.054 767.982 246.721 767.982 248.854Z" fill="#3E3484"/>
  <path d="M805.85 249.054V250.254H790.41C790.597 252.014 791.143 253.348 792.05 254.254C792.983 255.134 794.223 255.574 795.77 255.574C798.063 255.574 799.637 254.588 800.49 252.614H805.33C804.797 254.721 803.677 256.401 801.97 257.654C800.263 258.881 798.183 259.494 795.73 259.494C792.663 259.494 790.183 258.508 788.29 256.534C786.397 254.561 785.45 251.948 785.45 248.694C785.45 245.441 786.383 242.828 788.25 240.854C790.143 238.881 792.61 237.894 795.65 237.894C798.77 237.894 801.25 238.921 803.09 240.974C804.93 243.028 805.85 245.721 805.85 249.054ZM795.61 241.814C792.65 241.814 790.93 243.454 790.45 246.734H800.81C800.597 245.214 800.037 244.014 799.13 243.134C798.223 242.254 797.05 241.814 795.61 241.814Z" fill="#3E3484"/>
  <path d="M818.944 238.054C819.398 238.054 819.811 238.081 820.184 238.134V242.774H818.904C816.984 242.774 815.504 243.268 814.464 244.254C813.451 245.214 812.944 246.641 812.944 248.534V259.014H807.904V238.374H812.784V242.054C813.931 239.388 815.984 238.054 818.944 238.054Z" fill="#3E3484"/>
  <path d="M829.395 259.574C823.368 259.574 820.221 257.201 819.955 252.454H824.875C825.008 253.734 825.421 254.641 826.115 255.174C826.835 255.708 827.955 255.974 829.475 255.974C832.195 255.974 833.555 255.148 833.555 253.494C833.555 252.748 833.261 252.174 832.675 251.774C832.088 251.374 831.035 251.041 829.515 250.774L827.155 250.374C822.648 249.628 820.395 247.548 820.395 244.134C820.395 242.188 821.141 240.668 822.635 239.574C824.128 238.454 826.235 237.894 828.955 237.894C834.848 237.894 837.888 240.228 838.075 244.894H833.315C833.261 243.668 832.875 242.801 832.155 242.294C831.435 241.761 830.368 241.494 828.955 241.494C826.555 241.494 825.355 242.294 825.355 243.894C825.355 244.588 825.621 245.134 826.155 245.534C826.688 245.908 827.568 246.201 828.795 246.414L831.395 246.814C833.901 247.268 835.715 247.988 836.835 248.974C837.981 249.961 838.555 251.334 838.555 253.094C838.555 255.174 837.755 256.774 836.155 257.894C834.555 259.014 832.301 259.574 829.395 259.574Z" fill="#3E3484"/>
  <path d="M129.883 34.3186V2.16148H154.619V90.2227H129.883V56.3339H99.5808V90.2227H74.8446V2.16148H99.5808V34.3186H129.883ZM234.037 2.16148V24.1768H189.264V35.8028H230.079V56.3339H189.264V68.2074H234.037V90.2227H164.528V2.16148H234.037ZM327.382 90.2227H301.161L297.451 78.7203H262.944L259.233 90.2227H234.002L265.294 2.16148H294.977L327.382 90.2227ZM275.807 38.0291L269.375 58.3128H290.772L284.217 38.0291C281.908 30.938 280.506 26.2794 280.012 24.0531C277.95 30.8968 276.549 35.5555 275.807 38.0291ZM404.341 69.5679L404.835 81.3176C405 84.9456 405.742 87.9139 407.062 90.2227H381.583C380.594 88.3262 380.017 85.3579 379.852 81.3176L379.481 71.2994C379.316 66.8469 378.285 63.8373 376.389 62.2707C374.575 60.6216 371.606 59.797 367.484 59.797H354.621V90.2227H329.884V2.16148H373.173C384.387 2.16148 392.673 4.59388 398.033 9.45868C403.31 14.4059 405.948 20.6725 405.948 28.2583C405.948 32.7932 404.753 36.8747 402.362 40.5027C400.053 44.1307 396.672 46.9342 392.22 48.9131C396.672 50.5621 399.723 52.9533 401.372 56.0866C403.104 59.2198 404.093 63.7136 404.341 69.5679ZM354.621 21.4558V41.7395H369.462C376.801 41.7395 380.47 38.3589 380.47 31.5977C380.47 24.8364 376.801 21.4558 369.462 21.4558H354.621ZM508.045 2.16148V24.1768H465.746V35.6791H505.324V56.4576H465.746V90.2227H441.009V2.16148H508.045ZM587.394 69.5679L587.889 81.3176C588.054 84.9456 588.796 87.9139 590.115 90.2227H564.637C563.647 88.3262 563.07 85.3579 562.905 81.3176L562.534 71.2994C562.369 66.8469 561.338 63.8373 559.442 62.2707C557.628 60.6216 554.66 59.797 550.537 59.797H537.674V90.2227H512.938V2.16148H556.226C567.44 2.16148 575.727 4.59388 581.086 9.45868C586.363 14.4059 589.002 20.6725 589.002 28.2583C589.002 32.7932 587.806 36.8747 585.415 40.5027C583.106 44.1307 579.726 46.9342 575.273 48.9131C579.726 50.5621 582.776 52.9533 584.426 56.0866C586.157 59.2198 587.147 63.7136 587.394 69.5679ZM537.674 21.4558V41.7395H552.516C559.854 41.7395 563.523 38.3589 563.523 31.5977C563.523 24.8364 559.854 21.4558 552.516 21.4558H537.674ZM671.801 79.5861C663.308 87.9964 652.135 92.2016 638.283 92.2016C624.431 92.2016 613.258 87.9964 604.765 79.5861C596.273 71.3406 592.026 60.2093 592.026 46.1921C592.026 32.2573 596.273 21.0847 604.765 12.6744C613.341 4.34651 624.513 0.182572 638.283 0.182572C652.053 0.182572 663.225 4.34651 671.801 12.6744C680.293 21.0847 684.54 32.2573 684.54 46.1921C684.54 60.2093 680.293 71.3406 671.801 79.5861ZM623.318 64.2496C627.028 68.6196 632.016 70.8047 638.283 70.8047C644.55 70.8047 649.538 68.6196 653.248 64.2496C656.959 59.9619 658.814 53.9428 658.814 46.1921C658.814 38.6063 656.959 32.6283 653.248 28.2583C649.538 23.8057 644.55 21.5795 638.283 21.5795C632.016 21.5795 627.028 23.8057 623.318 28.2583C619.607 32.6283 617.752 38.6063 617.752 46.1921C617.752 53.9428 619.607 59.9619 623.318 64.2496ZM745.897 35.5555L754.307 2.16148H792.153V90.2227H768.654V65.239C768.654 49.078 768.901 35.3493 769.396 24.0531C767.582 31.3091 765.85 37.823 764.201 43.5948L751.462 90.2227H731.426L718.687 43.5948C717.038 37.823 715.306 31.3091 713.492 24.0531C713.987 35.3493 714.234 49.078 714.234 65.239V90.2227H690.735V2.16148H728.581L736.991 35.5555C739.135 44.1307 740.619 50.4385 741.444 54.4787C742.269 50.4385 743.753 44.1307 745.897 35.5555ZM79.8257 189.586C71.3329 197.996 60.1603 202.202 46.308 202.202C32.4557 202.202 21.2831 197.996 12.7903 189.586C4.29754 181.341 0.0511434 170.209 0.0511434 156.192C0.0511434 142.257 4.29754 131.085 12.7903 122.674C21.3656 114.347 32.5381 110.183 46.308 110.183C60.0779 110.183 71.2504 114.347 79.8257 122.674C88.3185 131.085 92.5649 142.257 92.5649 156.192C92.5649 170.209 88.3185 181.341 79.8257 189.586ZM31.3425 174.25C35.053 178.62 40.0415 180.805 46.308 180.805C52.5745 180.805 57.563 178.62 61.2735 174.25C64.9839 169.962 66.8391 163.943 66.8391 156.192C66.8391 148.606 64.9839 142.628 61.2735 138.258C57.563 133.806 52.5745 131.579 46.308 131.579C40.0415 131.579 35.053 133.806 31.3425 138.258C27.6321 142.628 25.7769 148.606 25.7769 156.192C25.7769 163.943 27.6321 169.962 31.3425 174.25ZM137.101 202.202C125.392 202.202 115.91 199.11 108.654 192.925C101.233 186.741 97.5227 177.919 97.5227 166.458V112.161H122.259V166.705C122.259 171.322 123.537 174.868 126.093 177.342C128.732 179.815 132.401 181.052 137.101 181.052C141.801 181.052 145.429 179.815 147.985 177.342C150.623 174.868 151.943 171.322 151.943 166.705V112.161H176.679V166.458C176.679 178.084 173.092 186.948 165.919 193.049C158.663 199.151 149.057 202.202 137.101 202.202ZM259.759 179.568L260.254 191.318C260.419 194.946 261.161 197.914 262.48 200.223H237.002C236.012 198.326 235.435 195.358 235.27 191.318L234.899 181.299C234.734 176.847 233.703 173.837 231.807 172.271C229.993 170.622 227.025 169.797 222.902 169.797H210.039V200.223H185.303V112.161H228.591C239.805 112.161 248.092 114.594 253.451 119.459C258.728 124.406 261.367 130.672 261.367 138.258C261.367 142.793 260.171 146.875 257.78 150.503C255.471 154.131 252.091 156.934 247.638 158.913C252.091 160.562 255.142 162.953 256.791 166.087C258.522 169.22 259.512 173.714 259.759 179.568ZM210.039 131.456V151.74H224.881C232.219 151.74 235.888 148.359 235.888 141.598C235.888 134.836 232.219 131.456 224.881 131.456H210.039ZM291.48 112.161H368.163V134.177H342.19V200.223H317.453V134.177H291.48V112.161ZM447.523 179.568L448.018 191.318C448.182 194.946 448.925 197.914 450.244 200.223H424.765C423.776 198.326 423.199 195.358 423.034 191.318L422.663 181.299C422.498 176.847 421.467 173.837 419.571 172.271C417.757 170.622 414.788 169.797 410.666 169.797H397.803V200.223H373.067V112.161H416.355C427.569 112.161 435.856 114.594 441.215 119.459C446.492 124.406 449.131 130.672 449.131 138.258C449.131 142.793 447.935 146.875 445.544 150.503C443.235 154.131 439.855 156.934 435.402 158.913C439.855 160.562 442.905 162.953 444.554 166.087C446.286 169.22 447.275 173.714 447.523 179.568ZM397.803 131.456V151.74H412.645C419.983 151.74 423.652 148.359 423.652 141.598C423.652 134.836 419.983 131.456 412.645 131.456H397.803ZM541.839 200.223H515.618L511.908 188.72H477.401L473.69 200.223H448.459L479.751 112.161H509.434L541.839 200.223ZM490.263 148.029L483.832 168.313H505.229L498.674 148.029C496.365 140.938 494.963 136.279 494.469 134.053C492.407 140.897 491.006 145.555 490.263 148.029ZM544.341 112.161H582.806C598.06 112.161 609.48 116.119 617.066 124.035C624.652 132.033 628.445 142.752 628.445 156.192C628.445 169.632 624.652 180.351 617.066 188.349C609.48 196.265 598.06 200.223 582.806 200.223H544.341V112.161ZM569.078 179.444H582.311C595.916 179.444 602.719 171.693 602.719 156.192C602.719 140.691 595.916 132.94 582.311 132.94H569.078V179.444ZM704.138 112.161V134.177H659.365V145.803H700.18V166.334H659.365V178.207H704.138V200.223H634.629V112.161H704.138ZM785.362 179.568L785.856 191.318C786.021 194.946 786.763 197.914 788.083 200.223H762.604C761.615 198.326 761.038 195.358 760.873 191.318L760.502 181.299C760.337 176.847 759.306 173.837 757.41 172.271C755.596 170.622 752.627 169.797 748.504 169.797H735.642V200.223H710.905V112.161H754.194C765.408 112.161 773.694 114.594 779.054 119.459C784.331 124.406 786.969 130.672 786.969 138.258C786.969 142.793 785.774 146.875 783.383 150.503C781.074 154.131 777.693 156.934 773.241 158.913C777.693 160.562 780.744 162.953 782.393 166.087C784.125 169.22 785.114 173.714 785.362 179.568ZM735.642 131.456V151.74H750.483C757.822 151.74 761.491 148.359 761.491 141.598C761.491 134.836 757.822 131.456 750.483 131.456H735.642ZM828.706 202.202C816.091 202.202 806.361 199.439 799.517 193.915C792.756 188.39 789.375 180.846 789.375 171.281H813.122C813.205 175.899 814.565 179.073 817.204 180.805C819.842 182.536 824.006 183.402 829.696 183.402C837.941 183.402 842.064 180.763 842.064 175.486C842.064 173.013 841.115 171.199 839.219 170.044C837.323 168.89 833.653 167.859 828.211 166.952L821.285 165.839C800.919 162.541 790.736 153.059 790.736 137.392C790.736 129.065 793.828 122.468 800.012 117.603C806.278 112.656 815.225 110.183 826.851 110.183C838.559 110.183 847.629 112.656 854.061 117.603C860.492 122.468 863.955 129.683 864.45 139.248H841.198C841.033 135.702 839.837 133.105 837.611 131.456C835.385 129.807 831.922 128.982 827.222 128.982C819.719 128.982 815.967 131.415 815.967 136.279C815.967 138.753 816.915 140.608 818.812 141.845C820.708 143.082 824.047 144.113 828.83 144.937L836.127 146.174C847.093 147.988 855.05 151.08 859.997 155.45C865.027 159.738 867.542 165.798 867.542 173.631C867.542 182.948 864.12 190.04 857.276 194.904C850.433 199.769 840.909 202.202 828.706 202.202Z" fill="#1B2534"/>
  <path d="M259.043 90.1299L279.543 20.1299L301.043 90.1299L280.543 68.6299L259.043 90.1299Z" fill="#56B953"/>
  <path d="M280.543 68.6299L268.043 81.1299L290.543 79.1299L280.543 68.6299Z" fill="#F8F4F1"/>
  </svg>
  