<svg width="868" height="266" viewBox="0 0 868 266" fill="none" xmlns="http://www.w3.org/2000/svg">
  <path d="M34.2802 248L37.2802 236.52H42.8802L35.0002 265H28.9202L25.8802 253.16C24.6269 247.96 23.8536 244.6 23.5602 243.08C22.8136 246.627 22.0402 249.987 21.2402 253.16L18.2002 265H12.1602L4.24023 236.52H9.88023L12.8402 248C14.2269 253.547 15.0936 257.16 15.4402 258.84C16.2936 254.84 17.1069 251.213 17.8802 247.96L20.8002 236.52H26.3602L29.2802 247.96C30.0269 251 30.8269 254.64 31.6802 258.88C32.2402 256.4 33.1069 252.773 34.2802 248Z" fill="#3E3484"/>
  <path d="M60.9999 255.04V256.24H45.5599C45.7466 258 46.2933 259.333 47.1999 260.24C48.1333 261.12 49.3733 261.56 50.9199 261.56C53.2133 261.56 54.7866 260.573 55.6399 258.6H60.4799C59.9466 260.707 58.8266 262.387 57.1199 263.64C55.4133 264.867 53.3333 265.48 50.8799 265.48C47.8133 265.48 45.3333 264.493 43.4399 262.52C41.5466 260.547 40.5999 257.933 40.5999 254.68C40.5999 251.427 41.5333 248.813 43.3999 246.84C45.2933 244.867 47.7599 243.88 50.7999 243.88C53.9199 243.88 56.3999 244.907 58.2399 246.96C60.0799 249.013 60.9999 251.707 60.9999 255.04ZM50.7599 247.8C47.7999 247.8 46.0799 249.44 45.5999 252.72H55.9599C55.7466 251.2 55.1866 250 54.2799 249.12C53.3733 248.24 52.1999 247.8 50.7599 247.8Z" fill="#3E3484"/>
  <path d="M78.6071 265.56C72.5804 265.56 69.4338 263.187 69.1671 258.44H74.0871C74.2204 259.72 74.6338 260.627 75.3271 261.16C76.0471 261.693 77.1671 261.96 78.6871 261.96C81.4071 261.96 82.7671 261.133 82.7671 259.48C82.7671 258.733 82.4738 258.16 81.8871 257.76C81.3004 257.36 80.2471 257.027 78.7271 256.76L76.3671 256.36C71.8604 255.613 69.6071 253.533 69.6071 250.12C69.6071 248.173 70.3538 246.653 71.8471 245.56C73.3404 244.44 75.4471 243.88 78.1671 243.88C84.0604 243.88 87.1004 246.213 87.2871 250.88H82.5271C82.4738 249.653 82.0871 248.787 81.3671 248.28C80.6471 247.747 79.5804 247.48 78.1671 247.48C75.7671 247.48 74.5671 248.28 74.5671 249.88C74.5671 250.573 74.8338 251.12 75.3671 251.52C75.9004 251.893 76.7804 252.187 78.0071 252.4L80.6071 252.8C83.1138 253.253 84.9271 253.973 86.0471 254.96C87.1938 255.947 87.7671 257.32 87.7671 259.08C87.7671 261.16 86.9671 262.76 85.3671 263.88C83.7671 265 81.5138 265.56 78.6071 265.56Z" fill="#3E3484"/>
  <path d="M100.568 243.88C102.808 243.88 104.568 244.533 105.848 245.84C107.155 247.12 107.808 248.947 107.808 251.32V265H102.768V252.16C102.768 249.547 101.475 248.24 98.888 248.24C97.608 248.24 96.5147 248.707 95.608 249.64C94.7281 250.547 94.288 251.813 94.288 253.44V265H89.248V236.52H94.288V247.12C95.8614 244.96 97.9547 243.88 100.568 243.88Z" fill="#3E3484"/>
  <path d="M129.264 265H124.224C123.984 264.573 123.798 263.733 123.664 262.48C122.278 264.48 120.064 265.48 117.024 265.48C114.758 265.48 112.944 264.933 111.584 263.84C110.251 262.747 109.584 261.227 109.584 259.28C109.584 255.52 112.224 253.373 117.504 252.84L120.624 252.56C121.664 252.427 122.411 252.187 122.864 251.84C123.318 251.467 123.544 250.92 123.544 250.2C123.544 249.32 123.251 248.68 122.664 248.28C122.104 247.853 121.144 247.64 119.784 247.64C118.318 247.64 117.264 247.893 116.624 248.4C115.984 248.88 115.611 249.72 115.504 250.92H110.544C110.838 246.227 113.931 243.88 119.824 243.88C125.558 243.88 128.424 245.947 128.424 250.08V261.08C128.424 262.893 128.704 264.2 129.264 265ZM118.224 261.88C119.798 261.88 121.078 261.453 122.064 260.6C123.051 259.72 123.544 258.467 123.544 256.84V254.96C123.064 255.387 122.278 255.667 121.184 255.8L118.464 256.12C117.131 256.28 116.171 256.6 115.584 257.08C115.024 257.533 114.744 258.2 114.744 259.08C114.744 259.96 115.038 260.653 115.624 261.16C116.238 261.64 117.104 261.88 118.224 261.88Z" fill="#3E3484"/>
  <path d="M142.107 244.04C142.56 244.04 142.973 244.067 143.347 244.12V248.76H142.067C140.147 248.76 138.667 249.253 137.627 250.24C136.613 251.2 136.107 252.627 136.107 254.52V265H131.067V244.36H135.947V248.04C137.093 245.373 139.147 244.04 142.107 244.04Z" fill="#3E3484"/>
  <path d="M163.409 255.04V256.24H147.969C148.156 258 148.703 259.333 149.609 260.24C150.543 261.12 151.783 261.56 153.329 261.56C155.623 261.56 157.196 260.573 158.049 258.6H162.889C162.356 260.707 161.236 262.387 159.529 263.64C157.823 264.867 155.743 265.48 153.289 265.48C150.223 265.48 147.743 264.493 145.849 262.52C143.956 260.547 143.009 257.933 143.009 254.68C143.009 251.427 143.943 248.813 145.809 246.84C147.703 244.867 150.169 243.88 153.209 243.88C156.329 243.88 158.809 244.907 160.649 246.96C162.489 249.013 163.409 251.707 163.409 255.04ZM153.169 247.8C150.209 247.8 148.489 249.44 148.009 252.72H158.369C158.156 251.2 157.596 250 156.689 249.12C155.783 248.24 154.609 247.8 153.169 247.8Z" fill="#3E3484"/>
  <path d="M191.456 265H186.416C186.176 264.573 185.99 263.733 185.856 262.48C184.47 264.48 182.256 265.48 179.216 265.48C176.95 265.48 175.136 264.933 173.776 263.84C172.443 262.747 171.776 261.227 171.776 259.28C171.776 255.52 174.416 253.373 179.696 252.84L182.816 252.56C183.856 252.427 184.603 252.187 185.056 251.84C185.51 251.467 185.736 250.92 185.736 250.2C185.736 249.32 185.443 248.68 184.856 248.28C184.296 247.853 183.336 247.64 181.976 247.64C180.51 247.64 179.456 247.893 178.816 248.4C178.176 248.88 177.803 249.72 177.696 250.92H172.736C173.03 246.227 176.123 243.88 182.016 243.88C187.75 243.88 190.616 245.947 190.616 250.08V261.08C190.616 262.893 190.896 264.2 191.456 265ZM180.416 261.88C181.99 261.88 183.27 261.453 184.256 260.6C185.243 259.72 185.736 258.467 185.736 256.84V254.96C185.256 255.387 184.47 255.667 183.376 255.8L180.656 256.12C179.323 256.28 178.363 256.6 177.776 257.08C177.216 257.533 176.936 258.2 176.936 259.08C176.936 259.96 177.23 260.653 177.816 261.16C178.43 261.64 179.296 261.88 180.416 261.88Z" fill="#3E3484"/>
  <path d="M209.972 265.48C206.932 265.48 204.465 264.493 202.572 262.52C200.705 260.573 199.772 257.96 199.772 254.68C199.772 251.373 200.705 248.747 202.572 246.8C204.412 244.853 206.878 243.88 209.972 243.88C212.665 243.88 214.865 244.6 216.572 246.04C218.278 247.453 219.278 249.373 219.572 251.8H214.532C214.292 250.6 213.772 249.68 212.972 249.04C212.172 248.4 211.172 248.08 209.972 248.08C208.398 248.08 207.158 248.653 206.252 249.8C205.372 250.92 204.932 252.547 204.932 254.68C204.932 256.813 205.385 258.453 206.292 259.6C207.198 260.72 208.425 261.28 209.972 261.28C211.198 261.28 212.225 260.947 213.052 260.28C213.905 259.587 214.425 258.6 214.612 257.32H219.652C219.385 259.8 218.372 261.787 216.612 263.28C214.852 264.747 212.638 265.48 209.972 265.48Z" fill="#3E3484"/>
  <path d="M226.251 265H221.211V236.52H226.251V265Z" fill="#3E3484"/>
  <path d="M249.192 254.68C249.192 257.933 248.232 260.547 246.312 262.52C244.392 264.493 241.859 265.48 238.712 265.48C235.565 265.48 233.032 264.493 231.112 262.52C229.165 260.573 228.192 257.96 228.192 254.68C228.192 251.4 229.165 248.787 231.112 246.84C233.032 244.867 235.565 243.88 238.712 243.88C241.859 243.88 244.392 244.853 246.312 246.8C248.232 248.747 249.192 251.373 249.192 254.68ZM234.752 259.6C235.712 260.747 237.032 261.32 238.712 261.32C240.392 261.32 241.699 260.747 242.632 259.6C243.592 258.427 244.072 256.787 244.072 254.68C244.072 252.573 243.592 250.947 242.632 249.8C241.699 248.627 240.392 248.04 238.712 248.04C237.032 248.04 235.712 248.613 234.752 249.76C233.819 250.907 233.352 252.547 233.352 254.68C233.352 256.813 233.819 258.453 234.752 259.6Z" fill="#3E3484"/>
  <path d="M259.04 265.56C253.013 265.56 249.867 263.187 249.6 258.44H254.52C254.653 259.72 255.067 260.627 255.76 261.16C256.48 261.693 257.6 261.96 259.12 261.96C261.84 261.96 263.2 261.133 263.2 259.48C263.2 258.733 262.907 258.16 262.32 257.76C261.733 257.36 260.68 257.027 259.16 256.76L256.8 256.36C252.293 255.613 250.04 253.533 250.04 250.12C250.04 248.173 250.787 246.653 252.28 245.56C253.773 244.44 255.88 243.88 258.6 243.88C264.493 243.88 267.533 246.213 267.72 250.88H262.96C262.907 249.653 262.52 248.787 261.8 248.28C261.08 247.747 260.013 247.48 258.6 247.48C256.2 247.48 255 248.28 255 249.88C255 250.573 255.267 251.12 255.8 251.52C256.333 251.893 257.213 252.187 258.44 252.4L261.04 252.8C263.547 253.253 265.36 253.973 266.48 254.96C267.627 255.947 268.2 257.32 268.2 259.08C268.2 261.16 267.4 262.76 265.8 263.88C264.2 265 261.947 265.56 259.04 265.56Z" fill="#3E3484"/>
  <path d="M289.161 255.04V256.24H273.721C273.908 258 274.454 259.333 275.361 260.24C276.294 261.12 277.534 261.56 279.081 261.56C281.374 261.56 282.948 260.573 283.801 258.6H288.641C288.108 260.707 286.988 262.387 285.281 263.64C283.574 264.867 281.494 265.48 279.041 265.48C275.974 265.48 273.494 264.493 271.601 262.52C269.708 260.547 268.761 257.933 268.761 254.68C268.761 251.427 269.694 248.813 271.561 246.84C273.454 244.867 275.921 243.88 278.961 243.88C282.081 243.88 284.561 244.907 286.401 246.96C288.241 249.013 289.161 251.707 289.161 255.04ZM278.921 247.8C275.961 247.8 274.241 249.44 273.761 252.72H284.121C283.908 251.2 283.348 250 282.441 249.12C281.534 248.24 280.361 247.8 278.921 247.8Z" fill="#3E3484"/>
  <path d="M310.088 243.88C312.915 243.88 315.168 244.853 316.848 246.8C318.501 248.773 319.328 251.4 319.328 254.68C319.328 257.933 318.501 260.547 316.848 262.52C315.168 264.493 312.915 265.48 310.088 265.48C307.181 265.48 304.981 264.333 303.488 262.04V265H298.648V236.52H303.688V247.04C305.155 244.933 307.288 243.88 310.088 243.88ZM305.008 259.6C305.915 260.747 307.208 261.32 308.888 261.32C310.541 261.32 311.848 260.72 312.808 259.52C313.741 258.347 314.208 256.68 314.208 254.52C314.208 252.413 313.741 250.813 312.808 249.72C311.901 248.6 310.595 248.04 308.888 248.04C307.208 248.04 305.901 248.613 304.968 249.76C304.035 250.907 303.568 252.547 303.568 254.68C303.568 256.84 304.048 258.48 305.008 259.6Z" fill="#3E3484"/>
  <path d="M341.356 254.68C341.356 257.933 340.396 260.547 338.476 262.52C336.556 264.493 334.023 265.48 330.876 265.48C327.729 265.48 325.196 264.493 323.276 262.52C321.329 260.573 320.356 257.96 320.356 254.68C320.356 251.4 321.329 248.787 323.276 246.84C325.196 244.867 327.729 243.88 330.876 243.88C334.023 243.88 336.556 244.853 338.476 246.8C340.396 248.747 341.356 251.373 341.356 254.68ZM326.916 259.6C327.876 260.747 329.196 261.32 330.876 261.32C332.556 261.32 333.863 260.747 334.796 259.6C335.756 258.427 336.236 256.787 336.236 254.68C336.236 252.573 335.756 250.947 334.796 249.8C333.863 248.627 332.556 248.04 330.876 248.04C329.196 248.04 327.876 248.613 326.916 249.76C325.983 250.907 325.516 252.547 325.516 254.68C325.516 256.813 325.983 258.453 326.916 259.6Z" fill="#3E3484"/>
  <path d="M354.638 243.88C356.878 243.88 358.638 244.533 359.918 245.84C361.225 247.12 361.878 248.947 361.878 251.32V265H356.838V252.16C356.838 249.547 355.545 248.24 352.958 248.24C351.678 248.24 350.585 248.707 349.678 249.64C348.798 250.547 348.358 251.813 348.358 253.44V265H343.318V244.36H348.198V247.32C349.772 245.027 351.918 243.88 354.638 243.88Z" fill="#3E3484"/>
  <path d="M379.495 247.04V236.52H384.535V265H379.655V262.12C378.135 264.36 375.961 265.48 373.135 265.48C370.281 265.48 368.028 264.493 366.375 262.52C364.695 260.547 363.855 257.933 363.855 254.68C363.855 251.373 364.695 248.747 366.375 246.8C368.001 244.853 370.255 243.88 373.135 243.88C375.908 243.88 378.028 244.933 379.495 247.04ZM369.015 254.84C369.015 256.973 369.481 258.587 370.415 259.68C371.348 260.773 372.641 261.32 374.295 261.32C375.948 261.32 377.255 260.747 378.215 259.6C379.148 258.453 379.615 256.813 379.615 254.68C379.615 252.547 379.148 250.907 378.215 249.76C377.281 248.613 375.975 248.04 374.295 248.04C372.668 248.04 371.375 248.64 370.415 249.84C369.481 251.04 369.015 252.707 369.015 254.84Z" fill="#3E3484"/>
  <path d="M417.996 252.08L420.316 244.36H425.716L418.916 265H413.636L411.036 256.52C410.049 253.053 409.462 251 409.276 250.36C409.196 250.653 408.622 252.707 407.556 256.52L404.996 265H399.716L392.916 244.36H398.316L400.636 252.08C401.222 253.92 401.902 256.307 402.676 259.24C403.422 256.28 404.076 253.88 404.636 252.04L406.916 244.36H411.716L413.996 252.04C414.556 253.88 415.209 256.28 415.956 259.24C416.649 256.6 417.329 254.213 417.996 252.08Z" fill="#3E3484"/>
  <path d="M431.487 241.68H426.527V236.96H431.487V241.68ZM431.527 265H426.487V244.36H431.527V265Z" fill="#3E3484"/>
  <path d="M445.149 244.36V248.2H441.069V259.36C441.069 260.027 441.242 260.493 441.589 260.76C441.962 261.027 442.575 261.16 443.429 261.16H445.149V265C444.055 265.107 443.175 265.16 442.509 265.16C440.269 265.16 438.629 264.747 437.589 263.92C436.575 263.067 436.069 261.72 436.069 259.88V248.2H432.869V244.36H436.069V238.36H441.069V244.36H445.149Z" fill="#3E3484"/>
  <path d="M458.22 243.88C460.46 243.88 462.22 244.533 463.5 245.84C464.806 247.12 465.46 248.947 465.46 251.32V265H460.42V252.16C460.42 249.547 459.126 248.24 456.54 248.24C455.26 248.24 454.166 248.707 453.26 249.64C452.38 250.547 451.94 251.813 451.94 253.44V265H446.9V236.52H451.94V247.12C453.513 244.96 455.606 243.88 458.22 243.88Z" fill="#3E3484"/>
  <path d="M495.869 254.68C495.869 257.933 494.909 260.547 492.989 262.52C491.069 264.493 488.535 265.48 485.389 265.48C482.242 265.48 479.709 264.493 477.789 262.52C475.842 260.573 474.869 257.96 474.869 254.68C474.869 251.4 475.842 248.787 477.789 246.84C479.709 244.867 482.242 243.88 485.389 243.88C488.535 243.88 491.069 244.853 492.989 246.8C494.909 248.747 495.869 251.373 495.869 254.68ZM481.429 259.6C482.389 260.747 483.709 261.32 485.389 261.32C487.069 261.32 488.375 260.747 489.309 259.6C490.269 258.427 490.749 256.787 490.749 254.68C490.749 252.573 490.269 250.947 489.309 249.8C488.375 248.627 487.069 248.04 485.389 248.04C483.709 248.04 482.389 248.613 481.429 249.76C480.495 250.907 480.029 252.547 480.029 254.68C480.029 256.813 480.495 258.453 481.429 259.6Z" fill="#3E3484"/>
  <path d="M510.843 255.92V244.36H515.883V265H511.003V262C509.43 264.32 507.27 265.48 504.523 265.48C502.31 265.48 500.55 264.84 499.243 263.56C497.963 262.253 497.323 260.413 497.323 258.04V244.36H502.363V257.2C502.363 259.813 503.656 261.12 506.243 261.12C507.523 261.12 508.603 260.667 509.483 259.76C510.39 258.827 510.843 257.547 510.843 255.92Z" fill="#3E3484"/>
  <path d="M529.819 244.04C530.273 244.04 530.686 244.067 531.059 244.12V248.76H529.779C527.859 248.76 526.379 249.253 525.339 250.24C524.326 251.2 523.819 252.627 523.819 254.52V265H518.779V244.36H523.659V248.04C524.806 245.373 526.859 244.04 529.819 244.04Z" fill="#3E3484"/>
  <path d="M551.686 243.88C554.513 243.88 556.766 244.853 558.446 246.8C560.1 248.773 560.926 251.4 560.926 254.68C560.926 257.933 560.1 260.547 558.446 262.52C556.766 264.493 554.513 265.48 551.686 265.48C548.78 265.48 546.58 264.333 545.086 262.04V265H540.246V236.52H545.286V247.04C546.753 244.933 548.886 243.88 551.686 243.88ZM546.606 259.6C547.513 260.747 548.806 261.32 550.486 261.32C552.14 261.32 553.446 260.72 554.406 259.52C555.34 258.347 555.806 256.68 555.806 254.52C555.806 252.413 555.34 250.813 554.406 249.72C553.5 248.6 552.193 248.04 550.486 248.04C548.806 248.04 547.5 248.613 546.566 249.76C545.633 250.907 545.166 252.547 545.166 254.68C545.166 256.84 545.646 258.48 546.606 259.6Z" fill="#3E3484"/>
  <path d="M582.355 255.04V256.24H566.915C567.101 258 567.648 259.333 568.555 260.24C569.488 261.12 570.728 261.56 572.275 261.56C574.568 261.56 576.141 260.573 576.995 258.6H581.835C581.301 260.707 580.181 262.387 578.475 263.64C576.768 264.867 574.688 265.48 572.235 265.48C569.168 265.48 566.688 264.493 564.795 262.52C562.901 260.547 561.955 257.933 561.955 254.68C561.955 251.427 562.888 248.813 564.755 246.84C566.648 244.867 569.115 243.88 572.155 243.88C575.275 243.88 577.755 244.907 579.595 246.96C581.435 249.013 582.355 251.707 582.355 255.04ZM572.115 247.8C569.155 247.8 567.435 249.44 566.955 252.72H577.315C577.101 251.2 576.541 250 575.635 249.12C574.728 248.24 573.555 247.8 572.115 247.8Z" fill="#3E3484"/>
  <path d="M589.449 265H584.409V236.52H589.449V265Z" fill="#3E3484"/>
  <path d="M612.391 254.68C612.391 257.933 611.431 260.547 609.511 262.52C607.591 264.493 605.057 265.48 601.911 265.48C598.764 265.48 596.231 264.493 594.311 262.52C592.364 260.573 591.391 257.96 591.391 254.68C591.391 251.4 592.364 248.787 594.311 246.84C596.231 244.867 598.764 243.88 601.911 243.88C605.057 243.88 607.591 244.853 609.511 246.8C611.431 248.747 612.391 251.373 612.391 254.68ZM597.951 259.6C598.911 260.747 600.231 261.32 601.911 261.32C603.591 261.32 604.897 260.747 605.831 259.6C606.791 258.427 607.271 256.787 607.271 254.68C607.271 252.573 606.791 250.947 605.831 249.8C604.897 248.627 603.591 248.04 601.911 248.04C600.231 248.04 598.911 248.613 597.951 249.76C597.017 250.907 596.551 252.547 596.551 254.68C596.551 256.813 597.017 258.453 597.951 259.6Z" fill="#3E3484"/>
  <path d="M625.258 249.88L627.258 244.36H632.498L624.818 265H619.018L611.378 244.36H616.778L618.778 249.92C619.711 252.827 620.791 256.333 622.018 260.44C623.005 257.133 624.085 253.613 625.258 249.88Z" fill="#3E3484"/>
  <path d="M651.891 255.04V256.24H636.451C636.637 258 637.184 259.333 638.091 260.24C639.024 261.12 640.264 261.56 641.811 261.56C644.104 261.56 645.677 260.573 646.531 258.6H651.371C650.837 260.707 649.717 262.387 648.011 263.64C646.304 264.867 644.224 265.48 641.771 265.48C638.704 265.48 636.224 264.493 634.331 262.52C632.437 260.547 631.491 257.933 631.491 254.68C631.491 251.427 632.424 248.813 634.291 246.84C636.184 244.867 638.651 243.88 641.691 243.88C644.811 243.88 647.291 244.907 649.131 246.96C650.971 249.013 651.891 251.707 651.891 255.04ZM641.651 247.8C638.69 247.8 636.971 249.44 636.491 252.72H646.851C646.637 251.2 646.077 250 645.171 249.12C644.264 248.24 643.091 247.8 641.651 247.8Z" fill="#3E3484"/>
  <path d="M668.665 247.04V236.52H673.705V265H668.825V262.12C667.305 264.36 665.132 265.48 662.305 265.48C659.452 265.48 657.198 264.493 655.545 262.52C653.865 260.547 653.025 257.933 653.025 254.68C653.025 251.373 653.865 248.747 655.545 246.8C657.172 244.853 659.425 243.88 662.305 243.88C665.078 243.88 667.198 244.933 668.665 247.04ZM658.185 254.84C658.185 256.973 658.652 258.587 659.585 259.68C660.518 260.773 661.812 261.32 663.465 261.32C665.118 261.32 666.425 260.747 667.385 259.6C668.318 258.453 668.785 256.813 668.785 254.68C668.785 252.547 668.318 250.907 667.385 249.76C666.452 248.613 665.145 248.04 663.465 248.04C661.838 248.04 660.545 248.64 659.585 249.84C658.652 251.04 658.185 252.707 658.185 254.84Z" fill="#3E3484"/>
  <path d="M694.766 244.36V248.2H690.686V259.36C690.686 260.027 690.859 260.493 691.206 260.76C691.579 261.027 692.193 261.16 693.046 261.16H694.766V265C693.673 265.107 692.793 265.16 692.126 265.16C689.886 265.16 688.246 264.747 687.206 263.92C686.193 263.067 685.686 261.72 685.686 259.88V248.2H682.486V244.36H685.686V238.36H690.686V244.36H694.766Z" fill="#3E3484"/>
  <path d="M707.557 244.04C708.01 244.04 708.423 244.067 708.797 244.12V248.76H707.517C705.597 248.76 704.117 249.253 703.077 250.24C702.063 251.2 701.557 252.627 701.557 254.52V265H696.517V244.36H701.397V248.04C702.543 245.373 704.597 244.04 707.557 244.04Z" fill="#3E3484"/>
  <path d="M727.666 265H722.626C722.386 264.573 722.199 263.733 722.066 262.48C720.679 264.48 718.466 265.48 715.426 265.48C713.159 265.48 711.346 264.933 709.986 263.84C708.653 262.747 707.986 261.227 707.986 259.28C707.986 255.52 710.626 253.373 715.906 252.84L719.026 252.56C720.066 252.427 720.813 252.187 721.266 251.84C721.719 251.467 721.946 250.92 721.946 250.2C721.946 249.32 721.653 248.68 721.066 248.28C720.506 247.853 719.546 247.64 718.186 247.64C716.719 247.64 715.666 247.893 715.026 248.4C714.386 248.88 714.013 249.72 713.906 250.92H708.946C709.239 246.227 712.333 243.88 718.226 243.88C723.959 243.88 726.826 245.947 726.826 250.08V261.08C726.826 262.893 727.106 264.2 727.666 265ZM716.626 261.88C718.199 261.88 719.479 261.453 720.466 260.6C721.453 259.72 721.946 258.467 721.946 256.84V254.96C721.466 255.387 720.679 255.667 719.586 255.8L716.866 256.12C715.533 256.28 714.573 256.6 713.986 257.08C713.426 257.533 713.146 258.2 713.146 259.08C713.146 259.96 713.439 260.653 714.026 261.16C714.639 261.64 715.506 261.88 716.626 261.88Z" fill="#3E3484"/>
  <path d="M743.993 247.04V236.52H749.033V265H744.153V262.12C742.633 264.36 740.46 265.48 737.633 265.48C734.78 265.48 732.526 264.493 730.873 262.52C729.193 260.547 728.353 257.933 728.353 254.68C728.353 251.373 729.193 248.747 730.873 246.8C732.5 244.853 734.753 243.88 737.633 243.88C740.406 243.88 742.526 244.933 743.993 247.04ZM733.513 254.84C733.513 256.973 733.98 258.587 734.913 259.68C735.846 260.773 737.14 261.32 738.793 261.32C740.446 261.32 741.753 260.747 742.713 259.6C743.646 258.453 744.113 256.813 744.113 254.68C744.113 252.547 743.646 250.907 742.713 249.76C741.78 248.613 740.473 248.04 738.793 248.04C737.166 248.04 735.873 248.64 734.913 249.84C733.98 251.04 733.513 252.707 733.513 254.84Z" fill="#3E3484"/>
  <path d="M771.381 255.04V256.24H755.941C756.128 258 756.674 259.333 757.581 260.24C758.515 261.12 759.755 261.56 761.301 261.56C763.595 261.56 765.168 260.573 766.021 258.6H770.861C770.328 260.707 769.208 262.387 767.501 263.64C765.795 264.867 763.714 265.48 761.261 265.48C758.195 265.48 755.714 264.493 753.821 262.52C751.928 260.547 750.981 257.933 750.981 254.68C750.981 251.427 751.915 248.813 753.781 246.84C755.674 244.867 758.141 243.88 761.181 243.88C764.301 243.88 766.781 244.907 768.621 246.96C770.461 249.013 771.381 251.707 771.381 255.04ZM761.141 247.8C758.181 247.8 756.461 249.44 755.981 252.72H766.341C766.128 251.2 765.568 250 764.661 249.12C763.755 248.24 762.581 247.8 761.141 247.8Z" fill="#3E3484"/>
  <path d="M784.476 244.04C784.929 244.04 785.342 244.067 785.716 244.12V248.76H784.436C782.516 248.76 781.036 249.253 779.996 250.24C778.982 251.2 778.476 252.627 778.476 254.52V265H773.436V244.36H778.316V248.04C779.462 245.373 781.516 244.04 784.476 244.04Z" fill="#3E3484"/>
  <path d="M794.926 265.56C788.899 265.56 785.753 263.187 785.486 258.44H790.406C790.539 259.72 790.953 260.627 791.646 261.16C792.366 261.693 793.486 261.96 795.006 261.96C797.726 261.96 799.086 261.133 799.086 259.48C799.086 258.733 798.793 258.16 798.206 257.76C797.619 257.36 796.566 257.027 795.046 256.76L792.686 256.36C788.179 255.613 785.926 253.533 785.926 250.12C785.926 248.173 786.672 246.653 788.166 245.56C789.659 244.44 791.766 243.88 794.486 243.88C800.379 243.88 803.419 246.213 803.606 250.88H798.846C798.793 249.653 798.406 248.787 797.686 248.28C796.966 247.747 795.899 247.48 794.486 247.48C792.086 247.48 790.886 248.28 790.886 249.88C790.886 250.573 791.153 251.12 791.686 251.52C792.219 251.893 793.099 252.187 794.326 252.4L796.926 252.8C799.432 253.253 801.246 253.973 802.366 254.96C803.513 255.947 804.086 257.32 804.086 259.08C804.086 261.16 803.286 262.76 801.686 263.88C800.086 265 797.833 265.56 794.926 265.56Z" fill="#3E3484"/>
  <path d="M59.2223 35.096V2.93882H83.9586V91H59.2223V57.1113H28.9204V91H4.18407V2.93882H28.9204V35.096H59.2223ZM163.377 2.93882V24.9541H118.604V36.5802H159.419V57.1113H118.604V68.9847H163.377V91H93.8676V2.93882H163.377ZM256.721 91H230.501L226.79 79.4976H192.283L188.573 91H163.342L194.633 2.93882H224.317L256.721 91ZM205.146 38.8064L198.715 59.0902H220.112L213.556 38.8064C211.248 31.7154 209.846 27.0567 209.351 24.8304C207.29 31.6741 205.888 36.3328 205.146 38.8064ZM333.68 70.3452L334.175 82.0949C334.34 85.7229 335.082 88.6913 336.401 91H310.923C309.933 89.1036 309.356 86.1352 309.191 82.0949L308.82 72.0767C308.655 67.6242 307.625 64.6146 305.728 63.048C303.914 61.3989 300.946 60.5744 296.823 60.5744H283.96V91H259.224V2.93882H302.512C313.726 2.93882 322.013 5.37122 327.372 10.236C332.649 15.1833 335.288 21.4498 335.288 29.0356C335.288 33.5706 334.092 37.6521 331.701 41.2801C329.392 44.9081 326.012 47.7115 321.559 49.6904C326.012 51.3395 329.063 53.7307 330.712 56.8639C332.443 59.9972 333.433 64.4909 333.68 70.3452ZM283.96 22.2331V42.5169H298.802C306.14 42.5169 309.81 39.1363 309.81 32.375C309.81 25.6137 306.14 22.2331 298.802 22.2331H283.96ZM437.384 2.93882V24.9541H395.085V36.4565H434.663V57.235H395.085V91H370.349V2.93882H437.384ZM516.733 70.3452L517.228 82.0949C517.393 85.7229 518.135 88.6913 519.454 91H493.976C492.987 89.1036 492.409 86.1352 492.245 82.0949L491.873 72.0767C491.709 67.6242 490.678 64.6146 488.781 63.048C486.967 61.3989 483.999 60.5744 479.876 60.5744H467.013V91H442.277V2.93882H485.566C496.779 2.93882 505.066 5.37122 510.426 10.236C515.703 15.1833 518.341 21.4498 518.341 29.0356C518.341 33.5706 517.146 37.6521 514.755 41.2801C512.446 44.9081 509.065 47.7115 504.613 49.6904C509.065 51.3395 512.116 53.7307 513.765 56.8639C515.497 59.9972 516.486 64.4909 516.733 70.3452ZM467.013 22.2331V42.5169H481.855C489.194 42.5169 492.863 39.1363 492.863 32.375C492.863 25.6137 489.194 22.2331 481.855 22.2331H467.013ZM601.14 80.3634C592.647 88.7737 581.475 92.9789 567.623 92.9789C553.77 92.9789 542.598 88.7737 534.105 80.3634C525.612 72.118 521.366 60.9866 521.366 46.9694C521.366 33.0346 525.612 21.8621 534.105 13.4517C542.68 5.12386 553.853 0.959916 567.623 0.959916C581.392 0.959916 592.565 5.12386 601.14 13.4517C609.633 21.8621 613.879 33.0346 613.879 46.9694C613.879 60.9866 609.633 72.118 601.14 80.3634ZM552.657 65.0269C556.368 69.397 561.356 71.582 567.623 71.582C573.889 71.582 578.878 69.397 582.588 65.0269C586.298 60.7393 588.154 54.7201 588.154 46.9694C588.154 39.3836 586.298 33.4057 582.588 29.0356C578.878 24.5831 573.889 22.3568 567.623 22.3568C561.356 22.3568 556.368 24.5831 552.657 29.0356C548.947 33.4057 547.091 39.3836 547.091 46.9694C547.091 54.7201 548.947 60.7393 552.657 65.0269ZM675.236 36.3328L683.646 2.93882H721.493V91H697.993V66.0164C697.993 49.8553 698.241 36.1267 698.735 24.8304C696.921 32.0864 695.19 38.6003 693.541 44.3721L680.802 91H660.765L648.026 44.3721C646.377 38.6003 644.645 32.0864 642.831 24.8304C643.326 36.1267 643.574 49.8553 643.574 66.0164V91H620.074V2.93882H657.921L666.331 36.3328C668.475 44.9081 669.959 51.2158 670.783 55.2561C671.608 51.2158 673.092 44.9081 675.236 36.3328ZM80.2482 190.363C71.7554 198.774 60.5828 202.979 46.7305 202.979C32.8782 202.979 21.7056 198.774 13.2128 190.363C4.72002 182.118 0.473629 170.987 0.473629 156.969C0.473629 143.035 4.72002 131.862 13.2128 123.452C21.7881 115.124 32.9606 110.96 46.7305 110.96C60.5004 110.96 71.6729 115.124 80.2482 123.452C88.7409 131.862 92.9873 143.035 92.9873 156.969C92.9873 170.987 88.7409 182.118 80.2482 190.363ZM31.765 175.027C35.4755 179.397 40.464 181.582 46.7305 181.582C52.997 181.582 57.9855 179.397 61.6959 175.027C65.4064 170.739 67.2616 164.72 67.2616 156.969C67.2616 149.384 65.4064 143.406 61.6959 139.036C57.9855 134.583 52.997 132.357 46.7305 132.357C40.464 132.357 35.4755 134.583 31.765 139.036C28.0546 143.406 26.1994 149.384 26.1994 156.969C26.1994 164.72 28.0546 170.739 31.765 175.027ZM137.523 202.979C125.815 202.979 116.333 199.887 109.077 193.703C101.656 187.519 97.9452 178.696 97.9452 167.235V112.939H122.682V167.482C122.682 172.1 123.96 175.645 126.516 178.119C129.154 180.593 132.823 181.829 137.523 181.829C142.223 181.829 145.851 180.593 148.407 178.119C151.046 175.645 152.365 172.1 152.365 167.482V112.939H177.101V167.235C177.101 178.861 173.515 187.725 166.341 193.826C159.085 199.928 149.479 202.979 137.523 202.979ZM260.181 180.345L260.676 192.095C260.841 195.723 261.583 198.691 262.902 201H237.424C236.435 199.104 235.857 196.135 235.693 192.095L235.321 182.077C235.157 177.624 234.126 174.615 232.229 173.048C230.415 171.399 227.447 170.574 223.324 170.574H210.462V201H185.725V112.939H229.014C240.228 112.939 248.514 115.371 253.874 120.236C259.151 125.183 261.789 131.45 261.789 139.036C261.789 143.571 260.594 147.652 258.203 151.28C255.894 154.908 252.513 157.711 248.061 159.69C252.513 161.339 255.564 163.731 257.213 166.864C258.945 169.997 259.934 174.491 260.181 180.345ZM210.462 132.233V152.517H225.303C232.642 152.517 236.311 149.136 236.311 142.375C236.311 135.614 232.642 132.233 225.303 132.233H210.462ZM291.903 112.939H368.585V134.954H342.612V201H317.876V134.954H291.903V112.939ZM447.945 180.345L448.44 192.095C448.605 195.723 449.347 198.691 450.666 201H425.188C424.198 199.104 423.621 196.135 423.456 192.095L423.085 182.077C422.92 177.624 421.89 174.615 419.993 173.048C418.179 171.399 415.211 170.574 411.088 170.574H398.225V201H373.489V112.939H416.778C427.991 112.939 436.278 115.371 441.638 120.236C446.915 125.183 449.553 131.45 449.553 139.036C449.553 143.571 448.358 147.652 445.966 151.28C443.658 154.908 440.277 157.711 435.825 159.69C440.277 161.339 443.328 163.731 444.977 166.864C446.709 169.997 447.698 174.491 447.945 180.345ZM398.225 132.233V152.517H413.067C420.406 152.517 424.075 149.136 424.075 142.375C424.075 135.614 420.406 132.233 413.067 132.233H398.225ZM542.261 201H516.041L512.33 189.498H477.823L474.113 201H448.882L480.173 112.939H509.857L542.261 201ZM490.686 148.806L484.255 169.09H505.651L499.096 148.806C496.788 141.715 495.386 137.057 494.891 134.83C492.83 141.674 491.428 146.333 490.686 148.806ZM544.764 112.939H583.229C598.483 112.939 609.903 116.897 617.488 124.812C625.074 132.81 628.867 143.529 628.867 156.969C628.867 170.409 625.074 181.129 617.488 189.127C609.903 197.042 598.483 201 583.229 201H544.764V112.939ZM569.5 180.222H582.734C596.339 180.222 603.141 172.471 603.141 156.969C603.141 141.468 596.339 133.717 582.734 133.717H569.5V180.222ZM704.56 112.939V134.954H659.787V146.58H700.602V167.111H659.787V178.985H704.56V201H635.051V112.939H704.56ZM785.784 180.345L786.279 192.095C786.444 195.723 787.186 198.691 788.505 201H763.027C762.037 199.104 761.46 196.135 761.295 192.095L760.924 182.077C760.759 177.624 759.728 174.615 757.832 173.048C756.018 171.399 753.05 170.574 748.927 170.574H736.064V201H711.328V112.939H754.616C765.83 112.939 774.117 115.371 779.476 120.236C784.753 125.183 787.392 131.45 787.392 139.036C787.392 143.571 786.196 147.652 783.805 151.28C781.496 154.908 778.116 157.711 773.663 159.69C778.116 161.339 781.167 163.731 782.816 166.864C784.547 169.997 785.537 174.491 785.784 180.345ZM736.064 132.233V152.517H750.906C758.244 152.517 761.914 149.136 761.914 142.375C761.914 135.614 758.244 132.233 750.906 132.233H736.064ZM829.129 202.979C816.513 202.979 806.783 200.217 799.94 194.692C793.178 189.168 789.798 181.623 789.798 172.059H813.545C813.627 176.676 814.988 179.85 817.626 181.582C820.265 183.314 824.429 184.179 830.118 184.179C838.363 184.179 842.486 181.541 842.486 176.264C842.486 173.79 841.538 171.976 839.641 170.822C837.745 169.667 834.076 168.637 828.634 167.73L821.708 166.617C801.341 163.318 791.158 153.836 791.158 138.17C791.158 129.842 794.25 123.246 800.434 118.381C806.701 113.434 815.647 110.96 827.273 110.96C838.982 110.96 848.052 113.434 854.483 118.381C860.915 123.246 864.378 130.46 864.872 140.025H841.62C841.455 136.48 840.26 133.882 838.034 132.233C835.807 130.584 832.344 129.759 827.644 129.759C820.141 129.759 816.389 132.192 816.389 137.057C816.389 139.53 817.338 141.386 819.234 142.622C821.13 143.859 824.47 144.89 829.252 145.714L836.549 146.951C847.516 148.765 855.473 151.857 860.42 156.227C865.45 160.515 867.965 166.575 867.965 174.408C867.965 183.726 864.543 190.817 857.699 195.682C850.855 200.547 841.332 202.979 829.129 202.979Z" fill="#1B2534"/>
  <path d="M188.5 91.0001L209 21L230.5 91L210 69.5L188.5 91.0001Z" fill="#56B953"/>
  <path d="M210 69.5L197.5 82L220 80L210 69.5Z" fill="#F8F4F1"/>
  </svg>
  