<svg width="30" height="36" viewBox="0 0 30 36" fill="none" xmlns="http://www.w3.org/2000/svg">
  <path d="M29.6209 7.45254L22.5064 0.375713C22.3935 0.262785 22.2053 0.1875 22.0547 0.1875H5.0402C2.70635 0.1875 0.824219 2.06964 0.824219 4.40348V31.2051C0.824219 33.5389 2.70635 35.4211 5.0402 35.4211H25.5931C27.927 35.4211 29.8091 33.5389 29.8091 31.2051V7.9419C29.8091 7.75368 29.7338 7.60311 29.6209 7.45254ZM27.5505 7.26433H24.0121C23.2969 7.26433 22.6946 6.66204 22.6946 5.94683V2.40842L27.5505 7.26433ZM25.5931 34.0659H5.0402C3.45921 34.0659 2.14171 32.7861 2.14171 31.1674V4.36584C2.14171 2.78485 3.42156 1.46735 5.0402 1.46735H21.3771V5.90919C21.3771 7.37725 22.5817 8.54418 24.0121 8.54418H28.4916V31.1298C28.4916 32.7484 27.1741 34.0283 25.5931 34.0659Z" fill="white" />
  <path d="M24.5767 25.2207H6.05648C5.68005 25.2207 5.37891 25.5218 5.37891 25.8983C5.37891 26.2747 5.68005 26.5758 6.05648 26.5758H24.6143C24.9908 26.5758 25.2919 26.2747 25.2919 25.8983C25.2919 25.5218 24.9531 25.2207 24.5767 25.2207Z" fill="white" />
  <path d="M24.5767 21.1562H6.05648C5.68005 21.1562 5.37891 21.4574 5.37891 21.8338C5.37891 22.2102 5.68005 22.5114 6.05648 22.5114H24.6143C24.9908 22.5114 25.2919 22.2102 25.2919 21.8338C25.2919 21.4574 24.9531 21.1562 24.5767 21.1562Z" fill="white" />
  <path d="M24.5767 17.127H6.05648C5.68005 17.127 5.37891 17.4281 5.37891 17.8045C5.37891 18.1809 5.68005 18.4821 6.05648 18.4821H24.6143C24.9908 18.4821 25.2919 18.1809 25.2919 17.8045C25.2919 17.4281 24.9531 17.127 24.5767 17.127Z" fill="white" />
  <path d="M24.5767 13.0625H6.05648C5.68005 13.0625 5.37891 13.3636 5.37891 13.7401C5.37891 14.1165 5.68005 14.4176 6.05648 14.4176H24.6143C24.9908 14.4176 25.2919 14.1165 25.2919 13.7401C25.2919 13.3636 24.9531 13.0625 24.5767 13.0625Z" fill="white" />
  <path d="M6.05648 10.3141H17.8763C18.2527 10.3141 18.5538 10.013 18.5538 9.63655C18.5538 9.26013 18.2527 8.95898 17.8763 8.95898H6.05648C5.68005 8.95898 5.37891 9.26013 5.37891 9.63655C5.37891 10.013 5.68005 10.3141 6.05648 10.3141Z" fill="white" />
  <path d="M6.05648 6.24967H17.8763C18.2527 6.24967 18.5538 5.94853 18.5538 5.5721C18.5538 5.19567 18.2527 4.89453 17.8763 4.89453H6.05648C5.68005 4.89453 5.37891 5.19567 5.37891 5.5721C5.37891 5.94853 5.68005 6.24967 6.05648 6.24967Z" fill="white" />
</svg>