<svg width="602" height="112" viewBox="0 0 602 112" fill="none" xmlns="http://www.w3.org/2000/svg">
    <path
        d="M47.3402 110.763C32.158 110.763 20.4691 107.437 12.2801 100.787C4.09112 94.1362 0 85.0605 0 73.5462H28.5841C28.6849 79.1018 30.3173 82.9242 33.4948 85.0067C36.6723 87.0892 41.6838 88.1305 48.5292 88.1305C58.4514 88.1305 63.4158 84.953 63.4158 78.6047C63.4158 75.6287 62.2738 73.4454 59.9897 72.0548C57.7057 70.6643 53.2921 69.4282 46.7423 68.3332L38.4055 66.9964C13.8924 63.0262 1.63241 51.6127 1.63241 32.7559C1.63241 22.7329 5.37422 14.7657 12.8713 8.86075C20.3616 2.95582 31.11 0 45.1031 0C59.0962 0 70.1134 2.95582 77.8523 8.86075C85.5911 14.7657 89.7629 23.4719 90.354 34.9862H62.3678C62.1663 30.7204 60.7287 27.5966 58.0483 25.6082C55.3679 23.6264 51.2029 22.6322 45.5465 22.6322C36.5178 22.6322 32.0035 25.5611 32.0035 31.4123C32.0035 34.3883 33.1455 36.6253 35.4296 38.1099C37.7136 39.6013 41.7308 40.8374 47.4879 41.8316L56.2681 43.3229C69.4685 45.5062 79.0682 49.201 85.0739 54.414C91.0796 59.627 94.0824 66.9426 94.0824 76.3744C94.0824 87.5931 89.9644 96.1246 81.7284 101.983C73.4857 107.84 62.0252 110.763 47.3402 110.763Z"
        fill="#3E3484" />
    <path
        d="M91.8524 2.38477H184.148V28.8797H152.883V108.371H123.11V28.8797H91.8457V2.38477H91.8524Z"
        fill="#3E3484" />
    <path
        d="M236.849 111.356C220.175 111.356 206.726 106.29 196.509 96.1735C186.284 86.2514 181.179 72.8494 181.179 55.9811C181.179 39.1127 186.291 25.7645 196.509 15.6408C206.827 5.6179 220.276 0.606445 236.849 0.606445C253.422 0.606445 266.871 5.6179 277.189 15.6408C287.407 25.7645 292.526 39.2135 292.526 55.9811C292.526 72.7486 287.414 86.2514 277.189 96.1735C266.965 106.297 253.522 111.356 236.849 111.356ZM218.839 77.7064C223.306 82.9664 229.305 85.5997 236.849 85.5997C244.393 85.5997 250.399 82.9731 254.859 77.7064C259.327 72.5471 261.557 65.2986 261.557 55.9743C261.557 46.6501 259.327 39.6233 254.859 34.3162C250.392 29.0092 244.386 26.349 236.849 26.349C229.312 26.349 223.299 29.0025 218.839 34.3162C214.371 39.6233 212.141 46.8449 212.141 55.9743C212.141 65.1038 214.371 72.5471 218.839 77.7064Z"
        fill="#3E3484" />
    <path
        d="M349.835 110.762C333.356 110.762 320.209 105.75 310.388 95.7275C300.466 85.8054 295.501 72.3564 295.501 55.3873C295.501 38.4182 300.365 24.9222 310.092 14.8993C319.719 4.97712 332.967 0.0126953 349.842 0.0126953C363.438 0.0126953 375.047 3.68731 384.68 11.0298C394.105 18.4731 399.808 28.7446 401.797 41.8443H371.728C370.337 36.5843 367.704 32.5402 363.835 29.712C359.965 26.8838 355.296 25.4663 349.842 25.4663C342.197 25.4663 336.393 28.046 332.422 33.2052C328.452 38.3645 326.47 45.7607 326.47 55.3873C326.47 65.0139 328.452 72.4102 332.422 77.5694C336.393 82.7287 342.197 85.3083 349.842 85.3083C355.794 85.3083 360.731 83.696 364.654 80.4715C368.571 77.247 371.076 72.7057 372.171 66.8478H401.945C400.258 80.7402 394.703 91.5088 385.271 99.1536C375.745 106.892 363.929 110.769 349.842 110.769L349.835 110.762Z"
        fill="#3E3484" />
    <path
        d="M477.856 2.38477H513.883L472.199 45.7077L513.883 108.378H478.749L451.206 65.8006L439.148 78.0068V108.378H409.375V2.38477H439.148V44.3641L477.856 2.38477Z"
        fill="#3E3484" />
    <path
        d="M555.265 110.763C540.083 110.763 528.394 107.437 520.205 100.787C512.016 94.1362 507.925 85.0605 507.925 73.5462H536.509C536.603 79.1018 538.242 82.9242 541.42 85.0067C544.597 87.0892 549.609 88.1305 556.454 88.1305C566.376 88.1305 571.341 84.953 571.341 78.6047C571.341 75.6287 570.199 73.4454 567.914 72.0548C565.63 70.6643 561.217 69.4282 554.667 68.3332L546.33 66.9964C521.817 63.0262 509.564 51.6127 509.564 32.7559C509.564 22.7329 513.306 14.7657 520.803 8.86075C528.293 2.95582 539.041 0 553.035 0C567.028 0 578.045 2.95582 585.784 8.86075C593.523 14.7657 597.694 23.4719 598.286 34.9862H570.299C570.098 30.7204 568.66 27.5966 565.98 25.6082C563.299 23.6264 559.134 22.6322 553.478 22.6322C544.449 22.6322 539.928 25.5611 539.928 31.4123C539.928 34.3883 541.07 36.6253 543.354 38.1099C545.638 39.6013 549.656 40.8374 555.413 41.8316L564.193 43.3229C577.393 45.5062 586.993 49.201 592.999 54.414C599.004 59.627 602 66.9426 602 76.3744C602 87.5931 597.882 96.1246 589.646 101.983C581.41 107.84 569.943 110.763 555.258 110.763H555.265Z"
        fill="#3E3484" />
    <path d="M439.128 47.1592L439.067 108.378L448.654 88.9437L478.749 108.378L439.128 47.1592Z"
        fill="#55B852" />
</svg>