<svg width="332" height="125" viewBox="0 0 332 125" fill="none" xmlns="http://www.w3.org/2000/svg">
  <path d="M29.5075 96.6589C21.3271 96.6589 15.029 94.7478 10.6167 90.9255C6.20435 87.1032 4 81.887 4 75.2694H19.4015C19.4558 78.4624 20.3354 80.6593 22.0475 81.8562C23.7595 83.053 26.4598 83.6515 30.1482 83.6515C35.4944 83.6515 38.1693 81.8253 38.1693 78.1767C38.1693 76.4663 37.5539 75.2115 36.3233 74.4123C35.0926 73.6131 32.7145 72.9027 29.1853 72.2733L24.6934 71.505C11.4854 69.2232 4.87957 62.6635 4.87957 51.8259C4.87957 46.0654 6.8957 41.4863 10.9352 38.0926C14.9711 34.6988 20.7625 33 28.3022 33C35.8418 33 41.778 34.6988 45.9478 38.0926C50.1176 41.4863 52.3654 46.4901 52.6839 53.1077H37.6046C37.496 50.656 36.7214 48.8607 35.2772 47.7178C33.833 46.5789 31.5888 46.0075 28.5411 46.0075C23.6763 46.0075 21.2439 47.6908 21.2439 51.0537C21.2439 52.7641 21.8592 54.0498 23.0899 54.903C24.3206 55.7602 26.4851 56.4706 29.5871 57.042L34.318 57.8991C41.4305 59.1539 46.603 61.2774 49.8389 64.2735C53.0749 67.2696 54.6929 71.4741 54.6929 76.8949C54.6929 83.3426 52.474 88.246 48.0364 91.6127C43.5951 94.9794 37.42 96.6589 29.5075 96.6589Z" fill="#4D4D4D" />
  <path d="M53.4914 34.3711H103.221V49.5986H86.3757V95.2849H70.3335V49.5986H53.4878V34.3711H53.4914Z" fill="#4D4D4D" />
  <path d="M131.617 97.0008C122.634 97.0008 115.387 94.0897 109.882 88.2751C104.372 82.5725 101.622 74.87 101.622 65.1752C101.622 55.4804 104.376 47.8088 109.882 41.9904C115.441 36.2299 122.688 33.3496 131.617 33.3496C140.547 33.3496 147.794 36.2299 153.353 41.9904C158.859 47.8088 161.617 55.5383 161.617 65.1752C161.617 74.8121 158.862 82.5725 153.353 88.2751C147.844 94.0935 140.601 97.0008 131.617 97.0008ZM121.913 77.6615C124.32 80.6846 127.553 82.198 131.617 82.198C135.682 82.198 138.918 80.6884 141.322 77.6615C143.729 74.6963 144.93 70.5303 144.93 65.1714C144.93 59.8124 143.729 55.7739 141.322 52.7237C138.915 49.6736 135.679 48.1447 131.617 48.1447C127.556 48.1447 124.317 49.6697 121.913 52.7237C119.506 55.7739 118.304 59.9244 118.304 65.1714C118.304 70.4184 119.506 74.6963 121.913 77.6615Z" fill="#4D4D4D" />
  <path d="M192.496 96.6571C183.617 96.6571 176.533 93.7768 171.241 88.0163C165.895 82.3137 163.22 74.5842 163.22 64.8315C163.22 55.0788 165.841 47.3222 171.082 41.5617C176.269 35.8591 183.407 33.0059 192.499 33.0059C199.825 33.0059 206.08 35.1178 211.271 39.3378C216.349 43.6157 219.422 49.519 220.494 57.0478H204.292C203.543 54.0247 202.124 51.7005 200.039 50.075C197.954 48.4496 195.439 47.6349 192.499 47.6349C188.38 47.6349 185.253 49.1175 183.114 52.0827C180.974 55.0479 179.907 59.2988 179.907 64.8315C179.907 70.3642 180.974 74.6151 183.114 77.5802C185.253 80.5454 188.38 82.028 192.499 82.028C195.706 82.028 198.367 81.1014 200.481 79.2482C202.591 77.3949 203.941 74.7849 204.531 71.4182H220.573C219.665 79.4026 216.671 85.5917 211.589 89.9854C206.457 94.4332 200.09 96.6609 192.499 96.6609L192.496 96.6571Z" fill="#4D4D4D" />
  <path d="M261.475 34.3711H280.887L258.427 59.2702L280.887 95.2888H261.956L247.116 70.8182L240.618 77.8335V95.2888H224.576V34.3711H240.618V58.498L261.475 34.3711Z" fill="#4D4D4D" />
  <path d="M303.184 96.6589C295.003 96.6589 288.705 94.7478 284.293 90.9255C279.881 87.1032 277.676 81.887 277.676 75.2694H293.078C293.128 78.4624 294.012 80.6593 295.724 81.8562C297.436 83.053 300.136 83.6515 303.824 83.6515C309.171 83.6515 311.845 81.8253 311.845 78.1767C311.845 76.4663 311.23 75.2115 309.999 74.4123C308.769 73.6131 306.391 72.9027 302.862 72.2733L298.37 71.505C285.162 69.2232 278.559 62.6635 278.559 51.8259C278.559 46.0654 280.576 41.4863 284.615 38.0926C288.651 34.6988 294.442 33 301.982 33C309.522 33 315.458 34.6988 319.628 38.0926C323.797 41.4863 326.045 46.4901 326.364 53.1077H311.284C311.176 50.656 310.401 48.8607 308.957 47.7178C307.513 46.5789 305.269 46.0075 302.221 46.0075C297.356 46.0075 294.92 47.6908 294.92 51.0537C294.92 52.7641 295.535 54.0498 296.766 54.903C297.997 55.7602 300.161 56.4706 303.263 57.042L307.994 57.8991C315.107 59.1539 320.279 61.2774 323.515 64.2735C326.751 67.2696 328.365 71.4741 328.365 76.8949C328.365 83.3426 326.147 88.246 321.709 91.6127C317.271 94.9794 311.093 96.6589 303.18 96.6589H303.184Z" fill="#4D4D4D" />
  <path d="M240.608 60.1055L240.575 95.2901L245.74 84.1204L261.956 95.2901L240.608 60.1055Z" fill="#55B852" />
</svg>