<svg width="1161" height="303" viewBox="0 0 1161 303" fill="none" xmlns="http://www.w3.org/2000/svg">
  <path d="M68.6974 1.99359V22.1236H27.7588V32.7541H65.0785V51.527H27.7588V62.3837H68.6974V82.5137H5.14083V1.99359H68.6974ZM148.43 1.99359L122.645 41.3489L150.126 82.5137H123.889L119.139 75.1628C115.52 69.5837 112.203 64.3439 109.187 59.4433C108.961 59.7449 107.755 61.6297 105.569 65.0978C103.458 68.5659 101.384 71.9209 99.3486 75.1628L94.5988 82.5137H68.9274L96.4083 41.5751L70.6238 1.99359H96.6345L101.045 9.00517C104.588 14.6597 107.529 19.4848 109.866 23.4807C113.259 17.5246 116.161 12.6994 118.574 9.00517L122.984 1.99359H148.43ZM152.112 1.99359H189.884C199.534 1.99359 207.073 4.51927 212.502 9.57062C218.005 14.5466 220.757 21.3697 220.757 30.0399C220.757 38.7101 218.005 45.5709 212.502 50.6223C207.073 55.5983 199.534 58.0862 189.884 58.0862H174.73V82.5137H152.112V1.99359ZM174.73 39.0871H188.187C191.354 39.0871 193.804 38.3332 195.538 36.8253C197.348 35.2421 198.252 32.9803 198.252 30.0399C198.252 27.0996 197.348 24.8755 195.538 23.3676C193.804 21.7843 191.354 20.9927 188.187 20.9927H174.73V39.0871ZM249.264 1.99359V62.3837H284.887V82.5137H226.646V1.99359H249.264ZM356.374 72.7879C348.608 80.4781 338.393 84.3231 325.726 84.3231C313.06 84.3231 302.845 80.4781 295.079 72.7879C287.314 65.2486 283.431 55.0705 283.431 42.2536C283.431 29.5122 287.314 19.2964 295.079 11.6062C302.92 3.99151 313.136 0.184149 325.726 0.184149C338.317 0.184149 348.533 3.99151 356.374 11.6062C364.139 19.2964 368.022 29.5122 368.022 42.2536C368.022 55.0705 364.139 65.2486 356.374 72.7879ZM312.043 58.7648C315.435 62.7606 319.997 64.7585 325.726 64.7585C331.456 64.7585 336.018 62.7606 339.41 58.7648C342.803 54.8443 344.499 49.3406 344.499 42.2536C344.499 35.3174 342.803 29.8514 339.41 25.8556C336.018 21.7843 331.456 19.7487 325.726 19.7487C319.997 19.7487 315.435 21.7843 312.043 25.8556C308.65 29.8514 306.954 35.3174 306.954 42.2536C306.954 49.3406 308.65 54.8443 312.043 58.7648ZM442.028 63.6276L442.481 74.3712C442.631 77.6885 443.31 80.4027 444.516 82.5137H421.22C420.315 80.7796 419.787 78.0655 419.637 74.3712L419.297 65.2109C419.146 61.1397 418.204 58.3878 416.47 56.9553C414.811 55.4475 412.097 54.6935 408.327 54.6935H396.566V82.5137H373.948V1.99359H413.53C423.783 1.99359 431.36 4.21769 436.261 8.6659C441.086 13.1895 443.498 18.9194 443.498 25.8556C443.498 30.0022 442.405 33.7342 440.219 37.0515C438.108 40.3688 435.017 42.9322 430.946 44.7416C435.017 46.2495 437.806 48.4359 439.314 51.3008C440.897 54.1658 441.802 58.2747 442.028 63.6276ZM396.566 19.6356V38.1824H410.137C416.847 38.1824 420.202 35.0913 420.202 28.909C420.202 22.7268 416.847 19.6356 410.137 19.6356H396.566ZM513.475 1.99359V22.1236H472.536V32.7541H509.856V51.527H472.536V62.3837H513.475V82.5137H449.918V1.99359H513.475ZM0.617228 219.994H70.733V240.124H46.9841V300.514H24.3661V240.124H0.617228V219.994ZM143.559 281.628L144.011 292.371C144.162 295.688 144.841 298.403 146.047 300.514H122.75C121.846 298.78 121.318 296.065 121.167 292.371L120.828 283.211C120.677 279.14 119.735 276.388 118.001 274.955C116.342 273.447 113.628 272.694 109.858 272.694H98.0967V300.514H75.4787V219.994H115.06C125.314 219.994 132.891 222.218 137.791 226.666C142.616 231.189 145.029 236.919 145.029 243.856C145.029 248.002 143.936 251.734 141.749 255.051C139.638 258.369 136.547 260.932 132.476 262.742C136.547 264.249 139.337 266.436 140.845 269.301C142.428 272.166 143.333 276.275 143.559 281.628ZM98.0967 237.636V256.182H111.667C118.377 256.182 121.732 253.091 121.732 246.909C121.732 240.727 118.377 237.636 111.667 237.636H98.0967ZM230.06 300.514H206.085L202.692 289.996H171.14L167.747 300.514H144.677L173.289 219.994H200.43L230.06 300.514ZM182.901 252.79L177.021 271.336H196.585L190.591 252.79C188.48 246.306 187.199 242.046 186.746 240.011C184.861 246.268 183.58 250.528 182.901 252.79ZM232.61 219.994H267.781C281.729 219.994 292.171 223.612 299.107 230.85C306.043 238.163 309.511 247.965 309.511 260.254C309.511 272.543 306.043 282.344 299.107 289.657C292.171 296.895 281.729 300.514 267.781 300.514H232.61V219.994ZM255.228 281.515H267.328C279.768 281.515 285.988 274.428 285.988 260.254C285.988 246.08 279.768 238.993 267.328 238.993H255.228V281.515ZM338.045 300.514H315.427V219.994H338.045V300.514ZM398.788 233.112V219.994H420.275V300.514H396.413L379.337 271.902C374.738 264.136 371.043 257.502 368.254 251.998C368.631 263.081 368.819 274.88 368.819 287.395V300.514H347.332V219.994H371.194L388.271 248.605C392.342 255.542 396.036 262.214 399.354 268.622C398.977 257.539 398.788 245.703 398.788 233.112ZM470.536 271.563V254.373H508.647V300.514H493.267L491.005 289.996C488.517 293.992 484.974 297.046 480.375 299.157C475.776 301.268 470.649 302.323 464.995 302.323C453.233 302.323 443.847 298.516 436.835 290.901C429.748 283.362 426.205 273.146 426.205 260.254C426.205 247.361 429.899 237.108 437.288 229.493C444.601 221.954 454.817 218.184 467.935 218.184C478.867 218.184 487.877 220.785 494.964 225.987C502.201 231.265 506.423 238.427 507.63 247.474H484.559C482.222 240.84 476.756 237.523 468.161 237.523C462.356 237.523 457.832 239.52 454.59 243.516C451.349 247.512 449.728 253.091 449.728 260.254C449.728 267.416 451.424 272.995 454.817 276.991C458.285 280.987 463.148 282.985 469.405 282.985C473.401 282.985 476.831 281.967 479.696 279.931C482.637 277.82 484.522 275.031 485.351 271.563H470.536Z" fill="#403788" />
  <path d="M625.25 82.5137H601.275L597.882 71.9963H566.33L562.937 82.5137H539.867L568.479 1.99359H595.62L625.25 82.5137ZM578.091 34.7897L572.211 53.3365H591.775L585.782 34.7897C583.671 28.3059 582.389 24.0461 581.937 22.0105C580.052 28.2682 578.77 32.5279 578.091 34.7897ZM734.469 25.177L739.671 1.99359H763.307L741.594 82.5137H716.261L711.285 58.6517C708.948 47.2673 707.139 37.4662 705.857 29.2483C704.425 38.1447 702.578 47.9458 700.316 58.6517L695.34 82.5137H670.008L648.294 1.99359H671.93L677.132 25.177C680.45 39.8787 682.711 50.6223 683.918 57.4077C685.652 46.8526 687.65 36.1091 689.911 25.177L694.661 1.99359H716.94L721.69 25.177C723.952 36.1091 725.949 46.8526 727.684 57.4077C728.965 50.6223 731.227 39.8787 734.469 25.177ZM788.995 82.5137H766.377V1.99359H788.995V82.5137ZM798.282 1.99359H833.453C847.401 1.99359 857.843 5.61247 864.779 12.8502C871.715 20.1634 875.184 29.9645 875.184 42.2536C875.184 54.5427 871.715 64.3439 864.779 71.657C857.843 78.8948 847.401 82.5137 833.453 82.5137H798.282V1.99359ZM820.9 63.5146H833.001C845.441 63.5146 851.661 56.4276 851.661 42.2536C851.661 28.0797 845.441 20.9927 833.001 20.9927H820.9V63.5146ZM944.656 1.99359V22.1236H903.718V32.7541H941.038V51.527H903.718V62.3837H944.656V82.5137H881.1V1.99359H944.656ZM37.1453 193.323C25.6101 193.323 16.7137 190.797 10.4561 185.746C4.2738 180.695 1.18268 173.796 1.18268 165.051H22.896C22.9714 169.273 24.2153 172.175 26.6279 173.759C29.0405 175.342 32.8479 176.133 38.05 176.133C45.5894 176.133 49.359 173.721 49.359 168.896C49.359 166.634 48.492 164.975 46.7579 163.92C45.0239 162.864 41.6689 161.922 36.6929 161.092L30.3599 160.075C11.7377 157.059 2.42667 148.389 2.42667 134.064C2.42667 126.449 5.25392 120.418 10.9084 115.97C16.6383 111.446 24.8185 109.184 35.4489 109.184C46.1548 109.184 54.4481 111.446 60.3288 115.97C66.2094 120.418 69.376 127.015 69.8283 135.76H48.5674C48.4166 132.518 47.3234 130.143 45.2878 128.636C43.2522 127.128 40.0856 126.374 35.7882 126.374C28.9274 126.374 25.497 128.598 25.497 133.046C25.497 135.308 26.3641 137.004 28.0981 138.135C29.8321 139.266 32.8856 140.209 37.2584 140.962L43.9307 142.093C53.958 143.752 61.2335 146.579 65.7571 150.575C70.3561 154.496 72.6556 160.037 72.6556 167.199C72.6556 175.719 69.5267 182.203 63.2691 186.651C57.0114 191.099 48.3035 193.323 37.1453 193.323ZM141.575 110.994V131.124H100.637V141.754H137.956V160.527H100.637V171.384H141.575V191.514H78.0188V110.994H141.575ZM170.643 110.994V171.384H206.267V191.514H148.025V110.994H170.643ZM274.631 110.994V131.124H233.692V141.754H271.012V160.527H233.692V171.384H274.631V191.514H211.074V110.994H274.631ZM318.966 193.323C306.451 193.323 296.461 189.516 288.997 181.901C281.458 174.362 277.688 164.146 277.688 151.254C277.688 138.361 281.382 128.108 288.771 120.493C296.084 112.954 306.149 109.184 318.966 109.184C329.295 109.184 338.116 111.974 345.429 117.553C352.591 123.207 356.926 131.011 358.434 140.962H335.59C334.535 136.967 332.537 133.913 329.596 131.802C326.656 129.616 323.112 128.523 318.966 128.523C313.161 128.523 308.75 130.483 305.734 134.403C302.719 138.324 301.211 143.94 301.211 151.254C301.211 158.567 302.719 164.184 305.734 168.104C308.75 172.024 313.161 173.985 318.966 173.985C323.489 173.985 327.221 172.778 330.162 170.366C333.177 167.878 335.1 164.41 335.929 159.962H358.547C357.266 170.517 353.044 178.697 345.881 184.502C338.643 190.383 329.672 193.323 318.966 193.323ZM356.503 110.994H426.619V131.124H402.87V191.514H380.252V131.124H356.503V110.994ZM453.983 191.514H431.365V110.994H453.983V191.514ZM532.82 181.788C525.054 189.478 514.839 193.323 502.172 193.323C489.506 193.323 479.291 189.478 471.525 181.788C463.76 174.249 459.877 164.07 459.877 151.254C459.877 138.512 463.76 128.296 471.525 120.606C479.366 112.992 489.582 109.184 502.172 109.184C514.763 109.184 524.979 112.992 532.82 120.606C540.585 128.296 544.468 138.512 544.468 151.254C544.468 164.07 540.585 174.249 532.82 181.788ZM488.489 167.765C491.881 171.761 496.443 173.759 502.172 173.759C507.902 173.759 512.464 171.761 515.856 167.765C519.249 163.844 520.945 158.341 520.945 151.254C520.945 144.317 519.249 138.851 515.856 134.856C512.464 130.784 507.902 128.749 502.172 128.749C496.443 128.749 491.881 130.784 488.489 134.856C485.096 138.851 483.399 144.317 483.399 151.254C483.399 158.341 485.096 163.844 488.489 167.765ZM601.85 124.112V110.994H623.337V191.514H599.475L582.399 162.902C577.8 155.136 574.105 148.502 571.316 142.998C571.693 154.081 571.881 165.88 571.881 178.395V191.514H550.394V110.994H574.256L591.333 139.605C595.404 146.542 599.098 153.214 602.416 159.622C602.039 148.539 601.85 136.703 601.85 124.112ZM728.372 181.788C720.606 189.478 710.391 193.323 697.724 193.323C685.058 193.323 674.843 189.478 667.077 181.788C659.312 174.249 655.429 164.07 655.429 151.254C655.429 138.512 659.312 128.296 667.077 120.606C674.918 112.992 685.134 109.184 697.724 109.184C710.315 109.184 720.531 112.992 728.372 120.606C736.137 128.296 740.02 138.512 740.02 151.254C740.02 164.07 736.137 174.249 728.372 181.788ZM684.041 167.765C687.433 171.761 691.995 173.759 697.724 173.759C703.454 173.759 708.016 171.761 711.408 167.765C714.801 163.844 716.497 158.341 716.497 151.254C716.497 144.317 714.801 138.851 711.408 134.856C708.016 130.784 703.454 128.749 697.724 128.749C691.995 128.749 687.433 130.784 684.041 134.856C680.648 138.851 678.952 144.317 678.952 151.254C678.952 158.341 680.648 163.844 684.041 167.765ZM807.241 110.994V131.124H768.564V141.641H804.753V160.64H768.564V191.514H745.946V110.994H807.241ZM542.995 219.994H580.767C590.417 219.994 597.956 222.519 603.385 227.571C608.888 232.547 611.64 239.37 611.64 248.04C611.64 256.71 608.888 263.571 603.385 268.622C597.956 273.598 590.417 276.086 580.767 276.086H565.613V300.514H542.995V219.994ZM565.613 257.087H579.07C582.237 257.087 584.687 256.333 586.421 254.825C588.231 253.242 589.135 250.98 589.135 248.04C589.135 245.1 588.231 242.875 586.421 241.368C584.687 239.784 582.237 238.993 579.07 238.993H565.613V257.087ZM685.609 281.628L686.062 292.371C686.213 295.688 686.891 298.403 688.097 300.514H664.801C663.896 298.78 663.368 296.065 663.218 292.371L662.878 283.211C662.728 279.14 661.785 276.388 660.051 274.955C658.392 273.447 655.678 272.694 651.909 272.694H640.147V300.514H617.529V219.994H657.111C667.364 219.994 674.941 222.218 679.842 226.666C684.667 231.189 687.08 236.919 687.08 243.856C687.08 248.002 685.986 251.734 683.8 255.051C681.689 258.369 678.598 260.932 674.527 262.742C678.598 264.249 681.387 266.436 682.895 269.301C684.478 272.166 685.383 276.275 685.609 281.628ZM640.147 237.636V256.182H653.718C660.428 256.182 663.783 253.091 663.783 246.909C663.783 240.727 660.428 237.636 653.718 237.636H640.147ZM763.05 290.788C755.284 298.478 745.069 302.323 732.402 302.323C719.736 302.323 709.521 298.478 701.755 290.788C693.99 283.249 690.107 273.07 690.107 260.254C690.107 247.512 693.99 237.296 701.755 229.606C709.596 221.992 719.812 218.184 732.402 218.184C744.993 218.184 755.209 221.992 763.05 229.606C770.815 237.296 774.698 247.512 774.698 260.254C774.698 273.07 770.815 283.249 763.05 290.788ZM718.719 276.765C722.111 280.761 726.673 282.759 732.402 282.759C738.132 282.759 742.694 280.761 746.086 276.765C749.479 272.844 751.175 267.341 751.175 260.254C751.175 253.317 749.479 247.851 746.086 243.856C742.694 239.784 738.132 237.749 732.402 237.749C726.673 237.749 722.111 239.784 718.719 243.856C715.326 247.851 713.629 253.317 713.629 260.254C713.629 267.341 715.326 272.844 718.719 276.765ZM780.624 219.994H815.795C829.743 219.994 840.185 223.612 847.121 230.85C854.057 238.163 857.525 247.965 857.525 260.254C857.525 272.543 854.057 282.344 847.121 289.657C840.185 296.895 829.743 300.514 815.795 300.514H780.624V219.994ZM803.242 281.515H815.343C827.783 281.515 834.003 274.428 834.003 260.254C834.003 246.08 827.783 238.993 815.343 238.993H803.242V281.515ZM898.5 302.323C887.794 302.323 879.123 299.496 872.489 293.841C865.703 288.187 862.311 280.12 862.311 269.64V219.994H884.929V269.866C884.929 274.088 886.097 277.33 888.435 279.592C890.847 281.854 894.202 282.985 898.5 282.985C902.797 282.985 906.114 281.854 908.451 279.592C910.864 277.33 912.07 274.088 912.07 269.866V219.994H934.688V269.64C934.688 280.271 931.409 288.375 924.849 293.954C918.215 299.534 909.432 302.323 898.5 302.323ZM980.721 302.323C968.205 302.323 958.216 298.516 950.752 290.901C943.212 283.362 939.443 273.146 939.443 260.254C939.443 247.361 943.137 237.108 950.526 229.493C957.839 221.954 967.904 218.184 980.721 218.184C991.05 218.184 999.871 220.974 1007.18 226.553C1014.35 232.207 1018.68 240.011 1020.19 249.962H997.345C996.289 245.967 994.291 242.913 991.351 240.802C988.411 238.616 984.867 237.523 980.721 237.523C974.915 237.523 970.505 239.483 967.489 243.403C964.473 247.324 962.965 252.94 962.965 260.254C962.965 267.567 964.473 273.184 967.489 277.104C970.505 281.024 974.915 282.985 980.721 282.985C985.244 282.985 988.976 281.778 991.917 279.366C994.932 276.878 996.855 273.41 997.684 268.962H1020.3C1019.02 279.517 1014.8 287.697 1007.64 293.502C1000.4 299.383 991.426 302.323 980.721 302.323ZM1018.26 219.994H1088.37V240.124H1064.62V300.514H1042.01V240.124H1018.26V219.994ZM1124.57 302.323C1113.04 302.323 1104.14 299.797 1097.88 294.746C1091.7 289.695 1088.61 282.796 1088.61 274.051H1110.32C1110.4 278.273 1111.64 281.175 1114.05 282.759C1116.47 284.342 1120.27 285.133 1125.48 285.133C1133.02 285.133 1136.79 282.721 1136.79 277.896C1136.79 275.634 1135.92 273.975 1134.18 272.92C1132.45 271.864 1129.1 270.922 1124.12 270.092L1117.79 269.075C1099.16 266.059 1089.85 257.389 1089.85 243.064C1089.85 235.449 1092.68 229.418 1098.33 224.97C1104.06 220.446 1112.24 218.184 1122.88 218.184C1133.58 218.184 1141.87 220.446 1147.76 224.97C1153.64 229.418 1156.8 236.015 1157.25 244.76H1135.99C1135.84 241.518 1134.75 239.143 1132.71 237.636C1130.68 236.128 1127.51 235.374 1123.21 235.374C1116.35 235.374 1112.92 237.598 1112.92 242.046C1112.92 244.308 1113.79 246.004 1115.52 247.135C1117.26 248.266 1120.31 249.209 1124.68 249.962L1131.36 251.093C1141.38 252.752 1148.66 255.579 1153.18 259.575C1157.78 263.496 1160.08 269.037 1160.08 276.199C1160.08 284.719 1156.95 291.203 1150.7 295.651C1144.44 300.099 1135.73 302.323 1124.57 302.323Z" fill="#9B93D4" />
  <path d="M582.032 21.5137L562.486 82.5137L581.986 72.0137L601.486 82.5137L582.032 21.5137Z" fill="#56B953" />
</svg>