<svg width="10" height="10" viewBox="0 0 10 10" fill="none" xmlns="http://www.w3.org/2000/svg">
  <path d="M3.72487 1.44664L0.373349 1.88202C0.3282 1.88782 0.286743 1.90997 0.256817 1.94427C0.226892 1.97857 0.210572 2.02265 0.210944 2.06817V4.67508C0.210944 4.72445 0.230556 4.7718 0.265467 4.80671C0.300377 4.84162 0.347726 4.86123 0.397097 4.86123H3.74862C3.79799 4.86123 3.84534 4.84162 3.88025 4.80671C3.91516 4.7718 3.93477 4.72445 3.93477 4.67508V1.631C3.93474 1.60456 3.92908 1.57842 3.91816 1.55434C3.90724 1.53025 3.89132 1.50877 3.87145 1.49132C3.85144 1.47413 3.82808 1.46129 3.80285 1.45359C3.77762 1.4459 3.75107 1.44353 3.72487 1.44664Z" fill="white" />
  <path d="M9.08237 0.80953C9.06263 0.791756 9.03931 0.778413 9.01399 0.770397C8.98866 0.762381 8.96192 0.759878 8.93554 0.763056L4.4671 1.34577C4.42191 1.35158 4.38042 1.37377 4.35048 1.40812C4.32055 1.44248 4.30426 1.48662 4.3047 1.53218V4.67304C4.3047 4.72241 4.32431 4.76976 4.35922 4.80467C4.39413 4.83958 4.44148 4.85919 4.49085 4.85919H8.95955C9.00892 4.85919 9.05626 4.83958 9.09118 4.80467C9.12609 4.76976 9.1457 4.72241 9.1457 4.67304V0.949209C9.14565 0.922767 9.13998 0.896638 9.12906 0.872555C9.11815 0.848473 9.10223 0.826989 9.08237 0.80953Z" fill="white" />
  <path d="M3.74862 5.23047H0.397097C0.347726 5.23047 0.300377 5.25008 0.265467 5.28499C0.230556 5.3199 0.210944 5.36725 0.210944 5.41662V8.02353C0.210572 8.06905 0.226892 8.11313 0.256817 8.14743C0.286743 8.18173 0.3282 8.20388 0.373349 8.20969L3.72487 8.64685C3.73278 8.64739 3.74071 8.64739 3.74862 8.64685C3.79799 8.64685 3.84534 8.62724 3.88025 8.59233C3.91516 8.55742 3.93477 8.51007 3.93477 8.4607V5.41662C3.93477 5.36725 3.91516 5.3199 3.88025 5.28499C3.84534 5.25008 3.79799 5.23047 3.74862 5.23047V5.23047Z" fill="white" />
  <path d="M8.95955 5.23047H4.49085C4.44148 5.23047 4.39413 5.25008 4.35922 5.28499C4.32431 5.3199 4.30469 5.36725 4.30469 5.41662V8.55748C4.30432 8.603 4.32064 8.64708 4.35057 8.68138C4.38049 8.71568 4.42195 8.73783 4.4671 8.74363L8.9358 9.32635C8.9437 9.32689 8.95164 9.32689 8.95955 9.32635C9.00892 9.32635 9.05626 9.30674 9.09118 9.27183C9.12609 9.23692 9.1457 9.18957 9.1457 9.1402V5.41662C9.1457 5.36725 9.12609 5.3199 9.09118 5.28499C9.05626 5.25008 9.00892 5.23047 8.95955 5.23047V5.23047Z" fill="white" />
</svg>